<svg width="20" height="15" viewBox="0 0 20 15" fill="none" xmlns="http://www.w3.org/2000/svg">
<g filter="url(#filter0_i)">
<rect x="1" y="0.5" width="18" height="13.5" rx="2" fill="#1BAA3A"/>
</g>
<path fill-rule="evenodd" clip-rule="evenodd" d="M20 7.66102C20 8.0925 19.6502 8.44227 19.2188 8.44227C18.7873 8.44227 18.4375 8.0925 18.4375 7.66102V5.70789H1.5625V11.5625C1.5625 12.4241 2.26344 13.125 3.125 13.125H16.875C17.7366 13.125 18.4375 12.4241 18.4375 11.5625C18.4375 11.131 18.7873 10.7812 19.2188 10.7812C19.6502 10.7812 20 11.131 20 11.5625C20 13.2856 18.5981 14.6875 16.875 14.6875H3.125C1.40188 14.6875 0 13.2856 0 11.5625V3.125C0 1.40188 1.40188 0 3.125 0H16.875C18.5981 0 20 1.40188 20 3.125V7.66102ZM1.5625 3.125V4.14539H18.4375V3.125C18.4375 2.26344 17.7366 1.5625 16.875 1.5625H3.125C2.26344 1.5625 1.5625 2.26344 1.5625 3.125Z" fill="black"/>
<defs>
<filter id="filter0_i" x="1" y="0.5" width="18" height="13.5" filterUnits="userSpaceOnUse" color-interpolation-filters="sRGB">
<feFlood flood-opacity="0" result="BackgroundImageFix"/>
<feBlend mode="normal" in="SourceGraphic" in2="BackgroundImageFix" result="shape"/>
<feColorMatrix in="SourceAlpha" type="matrix" values="0 0 0 0 0 0 0 0 0 0 0 0 0 0 0 0 0 0 127 0" result="hardAlpha"/>
<feOffset dx="2" dy="4"/>
<feComposite in2="hardAlpha" operator="arithmetic" k2="-1" k3="1"/>
<feColorMatrix type="matrix" values="0 0 0 0 0.984314 0 0 0 0 0.992157 0 0 0 0 0.992157 0 0 0 1 0"/>
<feBlend mode="normal" in2="shape" result="effect1_innerShadow"/>
</filter>
</defs>
</svg>
