<svg width="24" height="29" viewBox="0 0 24 29" fill="none" xmlns="http://www.w3.org/2000/svg">
<path d="M21.6949 7.41757C21.7435 7.02252 21.7689 6.6203 21.7689 6.21213C21.7689 2.78131 18.9876 0 15.5567 0H5.17495C4.5219 0 3.96435 0.471589 3.85601 1.11555L0.0305935 23.8525C-0.106678 24.6684 0.522257 25.4118 1.34953 25.4118H5.14641C5.79945 25.4118 6.36749 24.9406 6.47577 24.2966C6.47577 24.2966 6.48211 24.2588 6.49355 24.1909H6.4936L5.96448 27.3359C5.84358 28.0549 6.39788 28.7103 7.12702 28.7103H10.4487C11.0243 28.7103 11.5158 28.2946 11.6112 27.727L12.5549 22.1184C12.7176 21.1516 13.5546 20.4436 14.5349 20.4436H15.4076C20.1476 20.4436 23.9901 16.6011 23.9901 11.8612C23.9901 10.027 23.0834 8.40572 21.6949 7.41757Z" fill="#002987"/>
<path d="M21.6923 7.41797C21.0982 12.2504 16.9795 15.9924 11.9865 15.9924H9.0894C8.43551 15.9924 7.87078 16.4279 7.69364 17.0437L5.96194 27.3362C5.84099 28.0553 6.39529 28.7107 7.12443 28.7107H10.4461C11.0217 28.7107 11.5132 28.295 11.6086 27.7274L12.5523 22.1188C12.715 21.152 13.552 20.444 14.5324 20.444H15.405C20.145 20.444 23.9875 16.6015 23.9875 11.8616C23.9875 10.0274 23.0808 8.40612 21.6923 7.41797Z" fill="#0085CC"/>
<path d="M9.09113 15.9926H11.9882C16.9813 15.9926 21.1 12.2507 21.694 7.41827C20.8031 6.78429 19.7143 6.41016 18.5375 6.41016H10.9759C10.1149 6.41016 9.37985 7.03186 9.23698 7.88083L7.69531 17.0439C7.87245 16.4281 8.43724 15.9926 9.09113 15.9926Z" fill="#00186A"/>
</svg>
