<svg width="17" height="20" viewBox="0 0 17 20" fill="none" xmlns="http://www.w3.org/2000/svg">
<path d="M14.7918 5.05743C14.8249 4.78808 14.8422 4.51384 14.8422 4.23554C14.8422 1.89635 12.9459 0 10.6067 0H3.5282C3.08294 0 2.70279 0.321538 2.62892 0.760603L0.0206817 16.263C-0.0729122 16.8193 0.355907 17.3263 0.919955 17.3263H3.50874C3.954 17.3263 4.34129 17.005 4.41512 16.5658C4.41512 16.5658 4.41944 16.5401 4.42724 16.4938H4.42728L4.06651 18.6381C3.98408 19.1284 4.36202 19.5752 4.85916 19.5752H7.12395C7.51641 19.5752 7.85148 19.2918 7.91656 18.9048L8.55998 15.0807C8.67089 14.4215 9.24159 13.9388 9.91002 13.9388H10.505C13.7368 13.9388 16.3567 11.3189 16.3567 8.08715C16.3567 6.8366 15.7385 5.73117 14.7918 5.05743Z" fill="#002987"/>
<path d="M14.7912 5.05859C14.3862 8.35346 11.578 10.9048 8.17368 10.9048H6.19838C5.75255 10.9048 5.36751 11.2017 5.24673 11.6216L4.06602 18.6392C3.98356 19.1295 4.36149 19.5764 4.85863 19.5764H7.12342C7.51588 19.5764 7.85096 19.2929 7.91603 18.9059L8.55945 15.0819C8.67036 14.4227 9.24106 13.94 9.90949 13.94H10.5045C13.7363 13.94 16.3561 11.3201 16.3561 8.08831C16.3561 6.83776 15.738 5.73233 14.7912 5.05859Z" fill="#0085CC"/>
<path d="M6.19974 10.9046H8.17503C11.5794 10.9046 14.3876 8.35327 14.7926 5.05844C14.1852 4.62618 13.4428 4.37109 12.6405 4.37109H7.48478C6.89779 4.37109 6.3966 4.79498 6.29918 5.37383L5.24805 11.6214C5.36882 11.2015 5.7539 10.9046 6.19974 10.9046Z" fill="#00186A"/>
</svg>
