<svg width="24" height="23" viewBox="0 0 24 23" fill="none" xmlns="http://www.w3.org/2000/svg">
<g filter="url(#filter0_i)">
<path d="M23.6192 10.7982C23.3422 10.7195 23.0536 10.8807 22.975 11.158C22.8736 11.5159 22.6325 11.8075 22.3219 11.9819C22.1055 10.1776 21.053 8.51551 19.3026 7.24393C18.3398 6.54454 17.2193 6.0048 16.0018 5.64224C16.1767 5.1792 16.2673 4.68579 16.2673 4.17908C16.2673 1.89193 14.4066 0.03125 12.1195 0.03125C9.83238 0.03125 7.97165 1.89193 7.97165 4.17908C7.97165 4.70848 8.07042 5.22229 8.26033 5.70235C7.6825 5.88563 7.12643 6.11029 6.5975 6.37455C6.08431 6.04508 5.47899 5.86132 4.84226 5.86132H2.69979C2.38325 5.86132 2.09786 6.05196 1.97677 6.34445C1.85567 6.63688 1.92261 6.97351 2.14643 7.19734L3.6204 8.6713C3 9.41786 2.55699 10.2416 2.31412 11.1042H0.782609C0.3504 11.1042 0 11.4546 0 11.8868V14.3551C0 15.2625 0.45913 16.0917 1.22838 16.5734C2.01094 17.063 3.2159 17.7597 4.6753 18.416V21.516C4.6753 21.9482 5.0257 22.2986 5.45791 22.2986H8.21687C8.58939 22.2986 8.91031 22.036 8.98403 21.6709L9.33083 19.9529C10.3381 20.1549 11.3101 20.257 12.2296 20.257C13.0546 20.257 13.8694 20.1838 14.6612 20.0389L15.0455 21.6931C15.1279 22.0476 15.4438 22.2986 15.8078 22.2986H18.5134C18.9456 22.2986 19.296 21.9482 19.296 21.5159V18.1225C21.1189 16.7997 22.209 15.004 22.3486 13.0985C23.1224 12.8633 23.7508 12.2473 23.9789 11.4425C24.0575 11.1652 23.8965 10.8768 23.6192 10.7982Z" fill="#FFC745"/>
</g>
<path d="M5.16627 10.6211C4.87811 10.6211 4.64453 10.8547 4.64453 11.1428V11.9254C4.64453 12.2135 4.87811 12.4471 5.16627 12.4471C5.45443 12.4471 5.68801 12.2135 5.68801 11.9254V11.1428C5.68801 10.8547 5.45443 10.6211 5.16627 10.6211Z" fill="black"/>
<path fill-rule="evenodd" clip-rule="evenodd" d="M23.6192 10.7982C23.3422 10.7195 23.0536 10.8807 22.975 11.158C22.8736 11.5159 22.6325 11.8075 22.3219 11.9819C22.1055 10.1776 21.053 8.51551 19.3026 7.24393C18.3398 6.54454 17.2193 6.0048 16.0018 5.64224C16.1767 5.1792 16.2673 4.68579 16.2673 4.17908C16.2673 1.89193 14.4066 0.03125 12.1195 0.03125C9.83238 0.03125 7.97165 1.89193 7.97165 4.17908C7.97165 4.70848 8.07042 5.22229 8.26033 5.70235C7.6825 5.88563 7.12643 6.11029 6.5975 6.37455C6.08431 6.04508 5.47899 5.86132 4.84226 5.86132H2.69979C2.38325 5.86132 2.09786 6.05196 1.97677 6.34445C1.85567 6.63688 1.92261 6.97351 2.14643 7.19734L3.6204 8.6713C3 9.41786 2.55699 10.2416 2.31412 11.1042H0.782609C0.3504 11.1042 0 11.4546 0 11.8868V14.3551C0 15.2625 0.45913 16.0917 1.22838 16.5734C2.01094 17.063 3.2159 17.7597 4.6753 18.416V21.516C4.6753 21.9482 5.0257 22.2986 5.45791 22.2986H8.21687C8.58939 22.2986 8.91031 22.036 8.98403 21.6709L9.33083 19.9529C10.3381 20.1549 11.3101 20.257 12.2296 20.257C13.0546 20.257 13.8694 20.1838 14.6612 20.0389L15.0455 21.6931C15.1279 22.0476 15.4438 22.2986 15.8078 22.2986H18.5134C18.9456 22.2986 19.296 21.9482 19.296 21.5159V18.1225C21.1189 16.7997 22.209 15.004 22.3486 13.0985C23.1224 12.8633 23.7508 12.2473 23.9789 11.4425C24.0575 11.1652 23.8965 10.8768 23.6192 10.7982ZM9.53687 4.17908C9.53687 2.75504 10.6954 1.59647 12.1195 1.59647C13.5435 1.59647 14.7021 2.75504 14.7021 4.17908C14.7021 4.56746 14.6168 4.94295 14.4533 5.28589C13.7313 5.16626 12.9865 5.10464 12.2296 5.10464C11.4006 5.10464 10.5875 5.17763 9.80228 5.32048C9.62797 4.96831 9.53687 4.58097 9.53687 4.17908ZM17.7308 17.7125C17.7308 17.4494 17.863 17.2039 18.0826 17.0591C19.809 15.9209 20.7991 14.3251 20.7991 12.6807C20.7991 11.1233 19.9409 9.64215 18.3826 8.51014C16.7489 7.32334 14.5637 6.66975 12.2296 6.66975C10.6073 6.66975 9.06277 6.98384 7.70859 7.58202C7.71149 7.58747 7.71443 7.59288 7.71738 7.59829C7.72171 7.60623 7.72603 7.61417 7.73019 7.62224C7.92824 8.0064 7.77736 8.47842 7.3932 8.67647C7.00904 8.87452 6.53703 8.72363 6.33897 8.33953C6.04863 7.77631 5.47508 7.42643 4.84216 7.42643H4.58911L5.87463 8.712C6.18026 9.01763 6.18026 9.51318 5.87463 9.81876C5.72186 9.97158 5.52151 10.048 5.32127 10.048C5.12103 10.048 4.92073 9.97158 4.76791 9.81876L4.73317 9.78402C4.18842 10.4731 3.83922 11.2314 3.71426 12.0105C3.65337 12.39 3.32588 12.6692 2.94151 12.6692H1.56517V14.355C1.56517 14.7197 1.7497 15.0529 2.05873 15.2464C2.87729 15.7585 4.18492 16.5105 5.76496 17.1845C6.05337 17.3075 6.24052 17.5908 6.24052 17.9044V20.7332H7.57643L7.95475 18.8592C7.99701 18.6499 8.12296 18.467 8.30337 18.3528C8.48384 18.2385 8.70308 18.2031 8.91031 18.2545C10.0797 18.5446 11.1965 18.6917 12.2296 18.6917C13.2003 18.6917 14.153 18.5776 15.0611 18.3525C15.2646 18.3021 15.4796 18.3354 15.6583 18.4449C15.837 18.5545 15.9643 18.731 16.0117 18.9351L16.4295 20.7333H17.7308V17.7125Z" fill="black"/>
<defs>
<filter id="filter0_i" x="0" y="0.03125" width="23.9988" height="22.2674" filterUnits="userSpaceOnUse" color-interpolation-filters="sRGB">
<feFlood flood-opacity="0" result="BackgroundImageFix"/>
<feBlend mode="normal" in="SourceGraphic" in2="BackgroundImageFix" result="shape"/>
<feColorMatrix in="SourceAlpha" type="matrix" values="0 0 0 0 0 0 0 0 0 0 0 0 0 0 0 0 0 0 127 0" result="hardAlpha"/>
<feOffset dx="1" dy="3"/>
<feComposite in2="hardAlpha" operator="arithmetic" k2="-1" k3="1"/>
<feColorMatrix type="matrix" values="0 0 0 0 0.984314 0 0 0 0 0.992157 0 0 0 0 0.992157 0 0 0 1 0"/>
<feBlend mode="normal" in2="shape" result="effect1_innerShadow"/>
</filter>
</defs>
</svg>
