<svg width="16" height="18" viewBox="0 0 16 18" fill="none" xmlns="http://www.w3.org/2000/svg">
<path d="M14.2048 4.13926C14.0905 4.07464 13.9499 4.07014 13.8314 4.12727C13.7131 4.18454 13.6331 4.29553 13.6189 4.42202C13.6049 4.54503 13.583 4.66801 13.5557 4.79703C12.7909 8.12928 11.2552 9.75001 8.85951 9.75001H5.34444C5.15909 9.75033 4.99952 9.87566 4.96247 10.05L3.79078 15.3233L3.58145 16.6658C3.46109 17.2762 3.87895 17.8648 4.51474 17.9804C4.58485 17.9931 4.656 17.9997 4.72736 18H7.07854C7.61745 18.0016 8.0873 17.6484 8.21508 17.1457L9.16492 13.5H11.2029C13.608 13.5 15.2702 11.6588 15.8834 8.31529C16.2881 6.72321 15.6185 5.05743 14.2048 4.13926Z" fill="#03A9F4"/>
<path d="M13.4681 1.33652C12.6963 0.495976 11.5887 0.0100468 10.4217 2.73104e-05H3.95394C2.98601 -0.00496487 2.16195 0.674991 2.02146 1.5945L0.0131775 14.4577C-0.0830111 15.0722 0.357728 15.6451 0.997654 15.7375C1.05573 15.7459 1.11442 15.75 1.17315 15.75H4.17268C4.35803 15.7497 4.5176 15.6244 4.55465 15.45L5.65996 10.5H8.86259C11.6418 10.5 13.4783 8.63477 14.3219 4.95002C14.3558 4.80314 14.3819 4.65471 14.4 4.50526C14.5958 3.36848 14.2542 2.20703 13.4681 1.33652Z" fill="#283593"/>
</svg>
