<svg width="16" height="21" viewBox="0 0 16 21" fill="none" xmlns="http://www.w3.org/2000/svg">
<path fill-rule="evenodd" clip-rule="evenodd" d="M0.00024 10.4169C0.00024 9.23775 0.0992801 8.48941 2.54568 6.66652C4.57104 5.15731 11.063 0 11.063 0V8.60919H16V21H1.54224C0.69416 21 0 20.3071 0 19.4604L0.00024 10.417V10.4169Z" fill="#FFCF01"/>
<path fill-rule="evenodd" clip-rule="evenodd" d="M11.063 8.60889V13.5973L1.99097 19.7666L13.461 16.0413V8.60889H11.063Z" fill="#D3AC06"/>
<path fill-rule="evenodd" clip-rule="evenodd" d="M6.91738 8.35131C7.44794 7.72028 8.22274 7.49756 8.64818 7.85388C9.07362 8.21028 8.98858 9.01076 8.45802 9.64179C7.92786 10.2727 7.15274 10.4952 6.7273 10.1388C6.30186 9.7825 6.38714 8.98217 6.91738 8.35123V8.35131Z" fill="#231F20"/>
</svg>
