<svg xmlns="http://www.w3.org/2000/svg" viewBox="0 0 22 22"><defs><style>.cls-1{fill:#3e436d;}.cls-2{fill:#fff;}.cls-3{fill:#db1b1b;}</style></defs><g id="Слой_2" data-name="Слой 2"><g id="Слой_1-2" data-name="Слой 1"><path class="cls-1" d="M22,11a10.72,10.72,0,0,1-.13,1.7A11,11,0,0,1,20,17.36l-.22.3c-.22.28-.44.55-.68.81a11,11,0,0,1-5.82,3.3,8.68,8.68,0,0,1-.89.14,10.47,10.47,0,0,1-2.74,0c-.3,0-.59-.08-.89-.14A11,11,0,0,1,4,19.46l-.4-.35a10.46,10.46,0,0,1-.74-.75A11,11,0,0,1,2.52,4l.28-.33c.24-.27.49-.52.75-.76A10.93,10.93,0,0,1,8.74.23C9,.17,9.33.12,9.63.08a11.42,11.42,0,0,1,2.74,0c.3,0,.6.09.89.15A11,11,0,0,1,17.32,2l.42.3c.28.22.55.45.8.69a10.58,10.58,0,0,1,.92,1A11,11,0,0,1,21.87,9.3,10.72,10.72,0,0,1,22,11Z"/><path class="cls-2" d="M19.46,4,15.33,8.11,14.14,9.3l-.88.87L13,10.4l-.66.66L10.73,12.7l-1.1,1.1-.09.09-.8.8L4,19.46c-.14-.11-.27-.23-.4-.35s-.51-.49-.75-.75a11.71,11.71,0,0,1-.82-1l3.43-3.43,3.31-3.31.17-.17.72-.72L10,9.3l1-1,.24-.24L12.37,7l.89-.89L17.32,2l.41.3q.42.33.81.69A12.13,12.13,0,0,1,19.46,4Z"/><path class="cls-2" d="M20,17.36l-.22.3q-.33.42-.69.81a11.49,11.49,0,0,1-1.07,1l-4.74-4.74-.86-.86,0,0L11.22,12.7,11,12.46,9.63,11.12l-.71-.72-.18-.17L7.81,9.3,6.62,8.11,2.51,4l.29-.33c.24-.27.48-.52.74-.76A11.57,11.57,0,0,1,4.64,2Z"/><path class="cls-3" d="M8.52,14.15l-4.95,5q-.39-.36-.75-.75L7,14.15Z"/><path class="cls-3" d="M18.54,3,13.43,8.11l-.17.17-.09.09h-1.5l.26-.26.44-.44L17.74,2.3C18,2.52,18.29,2.75,18.54,3Z"/><path class="cls-3" d="M19.76,17.66q-.33.42-.69.81l-4.31-4.32h1.49Z"/><path class="cls-3" d="M9,8.37H7.5l-.26-.26L2.8,3.67c.24-.27.48-.52.74-.76l5.2,5.2h0Z"/><path class="cls-2" d="M21.87,9.3a11.4,11.4,0,0,0-.25-1.19H13.26V.23C13,.17,12.67.12,12.37.08a11.42,11.42,0,0,0-2.74,0c-.3,0-.6.09-.89.15V8.11H.39A11.42,11.42,0,0,0,.13,9.3a11.4,11.4,0,0,0,0,3.4,12,12,0,0,0,.26,1.19H8.74v7.88a8.68,8.68,0,0,0,.89.14,10.47,10.47,0,0,0,2.74,0,8.68,8.68,0,0,0,.89-.14V13.89h8.36a12,12,0,0,0,.25-1.19,11.4,11.4,0,0,0,0-3.4Z"/><path class="cls-3" d="M22,11a10.72,10.72,0,0,0-.13-1.7H12.38V.08a11.5,11.5,0,0,0-2.75,0V9.3H.13a11.4,11.4,0,0,0,0,3.4h9.5v9.21a10.47,10.47,0,0,0,2.74,0V12.7h9.5A10.72,10.72,0,0,0,22,11Z"/></g></g></svg>