<svg width="20" height="20" viewBox="0 0 20 20" fill="none" xmlns="http://www.w3.org/2000/svg">
<path d="M10 19.93C13.1996 19.93 16.0457 18.4322 17.8761 16.1039H12.6092C11.9293 18.361 11.5498 19.93 10 19.93Z" fill="#C42126"/>
<path d="M9.43961 19.9421C9.43511 19.9421 9.43101 19.9414 9.42651 19.9414C9.43101 19.9414 9.43551 19.9421 9.43961 19.9421Z" fill="#C42126"/>
<path d="M12.6092 3.83846H17.8762C16.0457 1.51043 13.1996 0.0123291 10 0.0123291C11.5498 0.0123291 11.9293 1.58132 12.6092 3.83846Z" fill="#C42126"/>
<path d="M9.42651 0.0592838C9.43101 0.0592838 9.43511 0.0585838 9.43961 0.0585838C9.43551 0.0584838 9.43101 0.0584838 9.42651 0.0592838Z" fill="#C42126"/>
<path d="M17.8762 3.83838H12.6091C13.6721 7.36671 13.6721 12.576 12.6091 16.1038H17.8758C19.2053 14.4131 19.9999 12.2854 19.9999 9.97117C20.0001 7.65715 19.2054 5.52927 17.8762 3.83838Z" fill="#FFC40C"/>
<path d="M10.407 19.9708C10.0715 19.9708 9.73818 19.957 9.40698 19.93C9.74288 19.9562 10.0769 19.9708 10.407 19.9708Z" fill="#C42126"/>
<path d="M9.40698 0.07075C9.73811 0.04305 10.0715 0.02925 10.407 0.02925C10.0769 0.02925 9.74288 0.04455 9.40698 0.07075Z" fill="#C42126"/>
<path d="M13.3449 16.1039H2.12427C3.83951 18.286 6.44734 19.7386 9.40141 19.9126C9.40331 19.9126 9.40504 19.9129 9.40694 19.9129C9.60337 19.9242 9.80106 19.93 10 19.93C11.5499 19.93 12.6648 18.361 13.3449 16.1039Z" fill="#D32030"/>
<path d="M2.12427 3.83846H13.3449C12.6648 1.58132 11.5499 0.0123291 10.0001 0.0123291C9.8011 0.0123291 9.60341 0.0181319 9.40699 0.0297796C9.40509 0.0297796 9.40336 0.030074 9.40145 0.030074C6.44734 0.203865 3.83951 1.65668 2.12427 3.83846Z" fill="#D32030"/>
<path d="M0 9.97117C0 12.2854 0.794685 14.4131 2.12417 16.1038H13.3448C14.4078 12.5758 14.4078 7.3665 13.3448 3.83838H2.12417C0.794685 5.52927 0 7.65715 0 9.97117Z" fill="#FFD034"/>
</svg>
