<svg width="30" height="30" viewBox="0 0 30 30" fill="none" xmlns="http://www.w3.org/2000/svg">
<path d="M16.1719 13.0664C15.8484 13.0664 15.5859 13.3289 15.5859 13.6523C15.5859 13.9758 15.8484 14.2383 16.1719 14.2383C16.4953 14.2383 16.7578 13.9758 16.7578 13.6523C16.7578 13.3289 16.4953 13.0664 16.1719 13.0664Z" fill="#1B1B1B"/>
<path fill-rule="evenodd" clip-rule="evenodd" d="M19.9046 9.37799C19.7646 6.9368 18.7463 4.65914 17.0045 2.91738C15.143 1.05592 12.6695 0.0205078 10.0383 0.000820312H10.038H10.037L10.0362 0.000761719H10.0354L10.0248 0.000585938H10.0211L10.0202 0.000644531C10.0005 0.000234375 9.98051 0 9.96094 0C9.94072 0 9.92121 0.000234375 9.90158 0.000585938L9.9007 0.000527344H9.89701L9.88641 0.000703125H9.88564L9.88482 0.000761719H9.88377H9.88354C7.25238 0.0205078 4.77891 1.05592 2.91738 2.91738C1.05592 4.77885 0.0205664 7.25227 0.000820312 9.88342V9.88371V9.88529L0.000585938 9.89689L0.000644531 9.89859C0.000234375 9.91922 0 9.93979 0 9.96094C0 12.6212 1.03605 15.1226 2.91738 17.0046C4.66113 18.7478 6.93691 19.7646 9.37799 19.9045C9.50273 25.3073 14.2664 30 19.6875 30C25.1811 30 30 25.1811 30 19.6875C30 14.2664 25.3073 9.50279 19.9046 9.37799ZM6.98449 1.69523C6.27996 2.59166 5.69408 3.81311 5.28785 5.28785C3.81311 5.69402 2.59172 6.2799 1.69529 6.9842C2.58475 4.53621 4.53645 2.58457 6.98449 1.69523ZM4.69623 9.375C4.72436 8.42016 4.8218 7.49273 4.98686 6.60281C2.99678 7.25906 1.63248 8.27701 1.26885 9.375H4.69623ZM4.69623 10.5469C4.72436 11.5018 4.8218 12.4292 4.98691 13.3191C2.9918 12.662 1.63178 11.6456 1.26943 10.5469H4.69623ZM1.68463 12.9323C2.11658 14.138 2.81361 15.2432 3.74602 16.1759C4.67859 17.1082 5.78356 17.8052 6.98895 18.2371C6.28283 17.3411 5.69607 16.1163 5.28797 14.6341C3.80543 14.2259 2.58082 13.6386 1.68463 12.9323ZM9.375 18.6524C8.27625 18.2901 7.25988 16.9301 6.60275 14.935C7.49268 15.1001 8.4201 15.1975 9.375 15.2256V18.6524ZM6.25441 13.6675C7.24271 13.8897 8.28861 14.019 9.375 14.0531V10.5469H5.86881C5.90285 11.6333 6.03217 12.6791 6.25441 13.6675ZM9.375 9.375H5.86881C5.90285 8.28861 6.03217 7.24271 6.25441 6.25436C7.24277 6.03217 8.28867 5.90285 9.375 5.86881V9.375ZM6.60287 4.98686C7.49279 4.8218 8.42016 4.72436 9.375 4.69623V1.26885C8.27701 1.63248 7.25912 2.99672 6.60287 4.98686ZM18.2266 6.98449C17.3302 6.27996 16.1088 5.69402 14.634 5.28779C14.2277 3.81305 13.6419 2.59166 12.9373 1.69523C15.3855 2.58457 17.3373 4.53633 18.2266 6.98449ZM15.2256 9.375H18.6527C18.2885 8.27643 16.9244 7.25889 14.935 6.60287C15.1001 7.49273 15.1975 8.42016 15.2256 9.375ZM10.5469 1.26885C11.6449 1.63242 12.6628 2.99672 13.319 4.9868C12.4291 4.8218 11.5017 4.72436 10.5469 4.69623V1.26885ZM13.6675 6.25441C12.6792 6.03217 11.6333 5.90285 10.5469 5.86881V9.375H14.0531C14.019 8.28867 13.8897 7.24277 13.6675 6.25441ZM10.5469 10.5469H14.0529C14.0462 10.7579 14.036 10.9675 14.0221 11.1744C13.4736 11.5512 12.953 11.9834 12.4682 12.4682C11.9834 12.953 11.5512 13.4736 11.1744 14.0221C10.9675 14.036 10.7579 14.0462 10.5469 14.0529V10.5469ZM10.5469 19.6875C10.5469 24.5568 14.8182 28.8281 19.6875 28.8281C24.5568 28.8281 28.8281 24.5568 28.8281 19.6875C28.8281 14.8182 24.5568 10.5469 19.6875 10.5469C19.5781 10.5469 19.4678 10.5491 19.3595 10.5534H19.3592C14.7683 10.7357 10.7357 14.7683 10.5534 19.3591C10.5491 19.4678 10.5469 19.5781 10.5469 19.6875Z" fill="#1B1B1B"/>
<path d="M25.1593 14.2157C23.6841 12.7406 21.6897 11.8945 19.6875 11.8945C19.2333 11.8945 18.7764 11.9353 18.3293 12.0157C18.0108 12.073 17.799 12.3776 17.8563 12.6961C17.9136 13.0146 18.2181 13.2265 18.5367 13.169C18.9155 13.101 19.3027 13.0664 19.6875 13.0664C23.2146 13.0664 26.3086 16.1604 26.3086 19.6875C26.3086 23.2146 23.2146 26.3086 19.6875 26.3086C16.1604 26.3086 13.0664 23.2146 13.0664 19.6875C13.0664 18.4127 13.595 16.9288 14.4804 15.7179C14.6714 15.4567 14.6145 15.0901 14.3532 14.899C14.092 14.708 13.7254 14.765 13.5344 15.0262C12.5076 16.4305 11.8945 18.173 11.8945 19.6875C11.8945 21.6897 12.7406 23.6841 14.2157 25.1593C15.6909 26.6344 17.6853 27.4805 19.6875 27.4805C21.6897 27.4805 23.6841 26.6344 25.1593 25.1593C26.6344 23.6841 27.4805 21.6897 27.4805 19.6875C27.4805 17.6853 26.6344 15.6909 25.1593 14.2157Z" fill="#1B1B1B"/>
<path fill-rule="evenodd" clip-rule="evenodd" d="M20.8594 19.1016H20.2734V16.7578H20.8594C21.1825 16.7578 21.4453 17.0207 21.4453 17.3438C21.4453 17.6673 21.7076 17.9297 22.0312 17.9297C22.3549 17.9297 22.6172 17.6673 22.6172 17.3438C22.6172 16.3745 21.8286 15.5859 20.8594 15.5859H20.2734V15C20.2734 14.6764 20.0111 14.4141 19.6875 14.4141C19.3639 14.4141 19.1016 14.6764 19.1016 15V15.5859H18.5156C17.5464 15.5859 16.7578 16.3745 16.7578 17.3438V18.5156C16.7578 19.4849 17.5464 20.2734 18.5156 20.2734H19.1016V22.6172H18.5156C18.1925 22.6172 17.9297 22.3543 17.9297 22.0312C17.9297 21.7077 17.6674 21.4453 17.3438 21.4453C17.0201 21.4453 16.7578 21.7077 16.7578 22.0312C16.7578 23.0005 17.5464 23.7891 18.5156 23.7891H19.1016V24.375C19.1016 24.6986 19.3639 24.9609 19.6875 24.9609C20.0111 24.9609 20.2734 24.6986 20.2734 24.375V23.7891H20.8594C21.8286 23.7891 22.6172 23.0005 22.6172 22.0312V20.8594C22.6172 19.8901 21.8286 19.1016 20.8594 19.1016ZM19.1016 19.1016H18.5156C18.1925 19.1016 17.9297 18.8387 17.9297 18.5156V17.3438C17.9297 17.0207 18.1925 16.7578 18.5156 16.7578H19.1016V19.1016ZM20.8594 22.6172C21.1825 22.6172 21.4453 22.3543 21.4453 22.0312V20.8594C21.4453 20.5363 21.1825 20.2734 20.8594 20.2734H20.2734V22.6172H20.8594Z" fill="#1F75AF"/>
<path d="M20.8594 1.52344H19.6875C19.3639 1.52344 19.1016 1.78582 19.1016 2.10938C19.1016 2.43293 19.3639 2.69531 19.6875 2.69531H20.8594C21.183 2.69531 21.4453 2.43293 21.4453 2.10938C21.4453 1.78582 21.183 1.52344 20.8594 1.52344Z" fill="#1F75AF"/>
<path d="M24.375 1.52344H23.2031C22.8795 1.52344 22.6172 1.78582 22.6172 2.10938C22.6172 2.43293 22.8795 2.69531 23.2031 2.69531H24.375C24.6986 2.69531 24.9609 2.43293 24.9609 2.10938C24.9609 1.78582 24.6986 1.52344 24.375 1.52344Z" fill="#1F75AF"/>
<path d="M27.8906 8.55469C27.567 8.55469 27.3047 8.81707 27.3047 9.14062V10.3125C27.3047 10.6361 27.567 10.8984 27.8906 10.8984C28.2142 10.8984 28.4766 10.6361 28.4766 10.3125V9.14062C28.4766 8.81707 28.2142 8.55469 27.8906 8.55469Z" fill="#1F75AF"/>
<path d="M27.8906 5.03906C27.567 5.03906 27.3047 5.30145 27.3047 5.625V6.79688C27.3047 7.12043 27.567 7.38281 27.8906 7.38281C28.2142 7.38281 28.4766 7.12043 28.4766 6.79688V5.625C28.4766 5.30145 28.2142 5.03906 27.8906 5.03906Z" fill="#1F75AF"/>
<path d="M26.7188 1.52344C26.3951 1.52344 26.1328 1.78582 26.1328 2.10938C26.1328 2.43293 26.3951 2.69531 26.7188 2.69531C27.0418 2.69531 27.3047 2.95816 27.3047 3.28125C27.3047 3.6048 27.567 3.86719 27.8906 3.86719C28.2142 3.86719 28.4766 3.6048 28.4766 3.28125C28.4766 2.31199 27.688 1.52344 26.7188 1.52344Z" fill="#1F75AF"/>
<path d="M10.3125 27.3047H9.14062C8.81701 27.3047 8.55469 27.5671 8.55469 27.8906C8.55469 28.2142 8.81701 28.4766 9.14062 28.4766H10.3125C10.6361 28.4766 10.8984 28.2142 10.8984 27.8906C10.8984 27.5671 10.6361 27.3047 10.3125 27.3047Z" fill="#1B1B1B"/>
<path d="M6.79688 27.3047H5.625C5.30139 27.3047 5.03906 27.5671 5.03906 27.8906C5.03906 28.2142 5.30139 28.4766 5.625 28.4766H6.79688C7.12049 28.4766 7.38281 28.2142 7.38281 27.8906C7.38281 27.5671 7.12049 27.3047 6.79688 27.3047Z" fill="#1B1B1B"/>
<path d="M2.10938 19.1016C1.78576 19.1016 1.52344 19.3639 1.52344 19.6875V20.8594C1.52344 21.1829 1.78576 21.4453 2.10938 21.4453C2.43299 21.4453 2.69531 21.1829 2.69531 20.8594V19.6875C2.69531 19.3639 2.43299 19.1016 2.10938 19.1016Z" fill="#1B1B1B"/>
<path d="M2.10938 22.6172C1.78576 22.6172 1.52344 22.8796 1.52344 23.2031V24.375C1.52344 24.6986 1.78576 24.9609 2.10938 24.9609C2.43299 24.9609 2.69531 24.6986 2.69531 24.375V23.2031C2.69531 22.8796 2.43299 22.6172 2.10938 22.6172Z" fill="#1B1B1B"/>
<path d="M3.28125 27.3047C2.95816 27.3047 2.69531 27.0418 2.69531 26.7188C2.69531 26.3952 2.43299 26.1328 2.10938 26.1328C1.78576 26.1328 1.52344 26.3952 1.52344 26.7188C1.52344 27.688 2.31199 28.4766 3.28125 28.4766C3.60486 28.4766 3.86719 28.2142 3.86719 27.8906C3.86719 27.5671 3.60486 27.3047 3.28125 27.3047Z" fill="#1B1B1B"/>
</svg>
