<svg width="40" height="40" viewBox="0 0 40 40" fill="none" xmlns="http://www.w3.org/2000/svg">
<path fill-rule="evenodd" clip-rule="evenodd" d="M37.5336 23.3951C37.9639 23.2797 38.4045 23.3607 38.7403 23.6183C39.0836 23.8813 39.2803 24.2985 39.2802 24.763V34.2224C39.2802 35.8123 37.8219 37.1057 36.0295 37.1057C34.237 37.1057 32.7788 35.8122 32.7788 34.2224C32.7788 32.6338 34.237 31.3413 36.0295 31.3413C36.6469 31.3413 37.2245 31.4947 37.7167 31.7606V28.5633L29.7537 30.6802C29.6928 30.6966 29.6316 30.7087 29.5706 30.7172V37.1166C29.5706 38.7066 28.1123 40 26.3198 40C24.5262 40 23.067 38.7065 23.067 37.1166C23.067 35.5281 24.5262 34.2356 26.3198 34.2356C26.9372 34.2356 27.5149 34.389 28.0071 34.6549V29.3124V27.3474C28.0071 26.5366 28.585 25.773 29.3517 25.5703L37.5336 23.3951ZM24.6305 37.1166C24.6305 37.8326 25.4041 38.4375 26.3199 38.4375C27.2344 38.4375 28.0071 37.8327 28.0071 37.1166C28.0071 36.4018 27.2344 35.7979 26.3199 35.7979C25.4041 35.7979 24.6305 36.4018 24.6305 37.1166ZM36.0296 35.5433C35.1151 35.5433 34.3423 34.9384 34.3423 34.2223C34.3423 33.5076 35.115 32.9037 36.0296 32.9037C36.9442 32.9037 37.7168 33.5076 37.7168 34.2223C37.7167 34.9384 36.9441 35.5433 36.0296 35.5433ZM37.5335 26.9953C37.6006 26.9776 37.7167 26.8367 37.7167 26.7279H37.7166V24.9632L29.7537 27.0802L29.7516 27.0807C29.6867 27.0978 29.5706 27.2389 29.5706 27.3475V29.1123L37.5335 26.9953Z" fill="#1B1B1B"/>
<path fill-rule="evenodd" clip-rule="evenodd" d="M4.70156 17.0318C6.596 17.0318 8.14197 15.6919 8.19342 14.028C8.19443 14.0126 8.19584 13.9574 8.19584 13.9411V9.30347L13.8352 7.8034C14.6459 7.59027 15.2573 6.78317 15.2573 5.92606V3.76645C15.2573 3.28161 15.053 2.84622 14.6969 2.57185C14.3482 2.30326 13.8892 2.21708 13.4352 2.33661L8.05324 3.76864C7.24319 3.98552 6.63235 4.79223 6.63235 5.64504V11.3698C6.07882 11.0441 5.41497 10.8538 4.70156 10.8538C2.77483 10.8538 1.20728 12.2396 1.20728 13.9428C1.20728 15.6461 2.77483 17.0318 4.70156 17.0318ZM8.19592 6.72481V5.64504C8.19592 5.49481 8.34595 5.30778 8.45674 5.27809L13.6938 3.88489V5.92606C13.6938 6.07715 13.547 6.26356 13.4352 6.29301L8.19592 7.68668V6.72481ZM6.63235 13.9428C6.63235 13.1152 5.74811 12.416 4.70156 12.416C3.65501 12.416 2.77084 13.1152 2.77084 13.9428C2.77084 14.7703 3.65493 15.4695 4.70156 15.4695C5.74819 15.4695 6.63235 14.7703 6.63235 13.9428Z" fill="#1B1B1B"/>
<path d="M10.229 28.6451C9.92387 28.9502 9.92411 29.4449 10.2295 29.7499C10.3821 29.9022 10.5821 29.9784 10.782 29.9784C10.9821 29.9784 11.1824 29.9021 11.3351 29.7494L13.7443 27.3397C14.0495 27.0345 14.0492 26.5399 13.7438 26.2349C13.4382 25.93 12.9433 25.9301 12.6382 26.2355L10.229 28.6451Z" fill="#1B1B1B"/>
<path fill-rule="evenodd" clip-rule="evenodd" d="M27.5336 22.6457L25.8053 24.3728C25.3187 24.859 24.6794 25.1021 24.0402 25.1021C23.6445 25.1021 23.2488 25.0087 22.8892 24.8223L9.06838 37.4303C8.52368 37.9295 7.84037 38.1787 7.16534 38.1787C6.84065 38.1787 6.51815 38.1203 6.21355 38.0051L5.24346 38.9745C4.66585 39.553 3.89411 39.8721 3.07085 39.8721C2.24767 39.8721 1.47585 39.553 0.897614 38.9738C0.319768 38.3979 0.00054938 37.6276 6.99276e-07 36.8063C-0.000545173 35.9839 0.318517 35.2118 0.89824 34.6325L1.91649 33.615C1.63448 32.7118 1.84128 31.6747 2.54069 30.9081L15.1579 17.0967C14.6701 16.157 14.8198 14.9699 15.6078 14.1825L17.3365 12.4569C17.0942 9.98437 17.6643 7.51484 18.9615 5.40789C18.7105 4.99039 18.5763 4.51032 18.5763 4.00868C18.5763 3.28133 18.8581 2.59907 19.3699 2.08767C20.2696 1.18876 21.6478 1.05314 22.6924 1.68017C27.1428 -1.0592 32.9353 -0.406078 36.6709 3.3268C40.4077 7.06109 41.0603 12.8492 38.3159 17.2947C38.9426 18.3375 38.8075 19.7147 37.9095 20.6147C37.3797 21.1442 36.6833 21.4089 35.9869 21.4089C35.5009 21.4089 35.0152 21.2796 34.5855 21.0218C32.7966 22.1222 30.7445 22.7004 28.6488 22.7004C28.2779 22.7004 27.9059 22.6821 27.5336 22.6457ZM22.109 3.19243C21.6587 2.74251 20.9259 2.74235 20.4755 3.19243C20.2591 3.40876 20.1398 3.6986 20.1398 4.00868C20.1398 4.31875 20.2591 4.6086 20.4755 4.82485L35.1695 19.5108C35.6202 19.9599 36.3532 19.9603 36.803 19.5108C37.2523 19.0604 37.2527 18.3279 36.803 17.8783L31.9359 13.0125C31.6306 12.7073 31.6307 12.2127 31.9361 11.9077C32.2414 11.6026 32.7365 11.6027 33.0418 11.908L37.2156 16.0807C39.3093 12.3055 38.6782 7.54234 35.5652 4.43157C32.4534 1.32204 27.687 0.690404 23.9073 2.77985L28.0816 6.95117C28.3869 7.25625 28.3869 7.75093 28.0816 8.05601C27.7762 8.36109 27.2814 8.36093 26.976 8.05601L22.109 3.19243ZM20.0625 6.6218L33.3713 19.9231C31.622 20.8888 29.6129 21.2943 27.6025 21.0808L18.9018 12.3843C18.689 10.3781 19.0954 8.37125 20.0625 6.6218ZM3.07077 38.3098C3.4756 38.3098 3.85424 38.1538 4.13702 37.8704L4.9434 37.0647L2.80949 34.9323L2.00382 35.7374C1.71962 36.0213 1.56326 36.4006 1.56349 36.8053C1.56381 37.2089 1.71994 37.5867 2.00319 37.8691C2.28731 38.1538 2.66602 38.3098 3.07077 38.3098ZM8.01276 36.2776C7.53147 36.7188 6.81876 36.7292 6.3904 36.3009L3.67121 33.5837C3.24418 33.157 3.25513 32.444 3.69576 31.961L4.98178 30.5533L9.42286 34.9913L8.01276 36.2776ZM6.03709 29.3982L10.5789 33.9367L18.2702 26.9203L13.0585 21.7122L6.03709 29.3982ZM19.4261 25.8658L14.1137 20.5571L16.1863 18.2883L18.9415 21.0415L21.6966 23.7946L19.4261 25.8658ZM16.7134 16.6054L23.3808 23.268C23.7443 23.6315 24.336 23.6314 24.6997 23.2681L26.14 21.8289L18.1553 13.848L16.7131 15.2876C16.3497 15.6507 16.3497 16.2421 16.7134 16.6054Z" fill="#1F75AF"/>
<path d="M30.0089 10.7631C30.209 10.7631 30.409 10.6868 30.5617 10.5343C30.867 10.2292 30.867 9.73452 30.5617 9.42944L30.5595 9.42726C30.2542 9.12218 29.7604 9.12319 29.4551 9.42843C29.1498 9.73351 29.1508 10.2292 29.4561 10.5343C29.6088 10.6868 29.8088 10.7631 30.0089 10.7631Z" fill="#1B1B1B"/>
</svg>
