<svg width="24" height="23" viewBox="0 0 24 23" fill="none" xmlns="http://www.w3.org/2000/svg">
<path fill-rule="evenodd" clip-rule="evenodd" d="M23.9998 9.36348C23.9989 9.18781 23.911 9.02194 23.7593 8.93437L19.6125 6.54163V1.06264C19.6125 0.476692 19.1444 0 18.5691 0H5.43095C4.85557 0 4.38749 0.476692 4.38749 1.06264V6.54163L0.24068 8.93437C0.0928876 9.01943 -0.00515029 9.18989 0.000209304 9.36377V22.517C0.000209304 22.7838 0.212554 23 0.47451 23H23.5255C23.7875 23 23.9998 22.7838 23.9998 22.517V9.36377V9.36348ZM22.5342 9.33779L19.6126 10.8948V7.65195L22.5342 9.33779ZM18.5691 0.96604H5.43095C5.37953 0.96604 5.33609 1.01028 5.33609 1.06264V6.81396V6.81425V11.4004L12 14.9519L18.6639 11.4004V6.81425V6.81396V1.06264C18.6639 1.01028 18.6205 0.96604 18.5691 0.96604ZM4.38749 10.8948L1.46584 9.33779L4.38749 7.65195V10.8948ZM0.94881 22.034H23.0512V10.1525L12.2199 15.925C12.0822 15.9985 11.9178 15.9985 11.7801 15.925L0.94881 10.1525V22.034Z" fill="#1F75AF"/>
<path d="M6.70379 4.60447H17.2333C17.4952 4.60447 17.7076 4.38822 17.7076 4.12145C17.7076 3.85468 17.4952 3.63843 17.2333 3.63843H6.70379C6.44184 3.63843 6.22949 3.85468 6.22949 4.12145C6.22949 4.38822 6.44184 4.60447 6.70379 4.60447Z" fill="#1B1B1B"/>
<path d="M6.70379 6.50437H17.2333C17.4952 6.50437 17.7076 6.28812 17.7076 6.02135C17.7076 5.75458 17.4952 5.53833 17.2333 5.53833H6.70379C6.44184 5.53833 6.22949 5.75458 6.22949 6.02135C6.22949 6.28812 6.44184 6.50437 6.70379 6.50437Z" fill="#1B1B1B"/>
<path d="M6.70379 8.41819H17.2333C17.4952 8.41819 17.7076 8.20194 17.7076 7.93517C17.7076 7.6684 17.4952 7.45215 17.2333 7.45215H6.70379C6.44184 7.45215 6.22949 7.6684 6.22949 7.93517C6.22949 8.20194 6.44184 8.41819 6.70379 8.41819Z" fill="#1B1B1B"/>
<path d="M6.70379 10.3261H17.2333C17.4952 10.3261 17.7076 10.1099 17.7076 9.84313C17.7076 9.57636 17.4952 9.36011 17.2333 9.36011H6.70379C6.44184 9.36011 6.22949 9.57636 6.22949 9.84313C6.22949 10.1099 6.44184 10.3261 6.70379 10.3261Z" fill="#1B1B1B"/>
<path d="M8.7666 20.6083C8.7666 20.875 8.97895 21.0913 9.2409 21.0913H21.7313C21.9933 21.0913 22.2056 20.875 22.2056 20.6083C22.2056 20.3415 21.9933 20.1252 21.7313 20.1252H9.2409C8.97895 20.1252 8.7666 20.3415 8.7666 20.6083Z" fill="#1B1B1B"/>
<ellipse cx="7.10907" cy="20.6083" rx="0.4743" ry="0.48302" fill="#1B1B1B"/>
</svg>
