<svg width="70" height="70" viewBox="0 0 70 70" fill="none" xmlns="http://www.w3.org/2000/svg">
<path d="M31.9168 50.7131C31.6625 50.4588 31.3098 50.3125 30.9502 50.3125C30.5906 50.3125 30.2379 50.4588 29.9836 50.7131C29.7294 50.9674 29.583 51.3201 29.583 51.6797C29.583 52.0393 29.7293 52.392 29.9836 52.6463C30.2379 52.9006 30.5906 53.0469 30.9502 53.0469C31.3098 53.0469 31.6625 52.9006 31.9168 52.6463C32.171 52.392 32.3174 52.0406 32.3174 51.6797C32.3174 51.3201 32.1711 50.9674 31.9168 50.7131Z" fill="#1B1B1B"/>
<path d="M17.6014 12.0217C17.3471 11.7674 16.9943 11.6211 16.6348 11.6211C16.2752 11.6211 15.9225 11.7674 15.6682 12.0217C15.4125 12.276 15.2676 12.6287 15.2676 12.9883C15.2676 13.3479 15.4125 13.7006 15.6682 13.9549C15.9225 14.2092 16.2752 14.3555 16.6348 14.3555C16.9943 14.3555 17.3457 14.2092 17.6014 13.9549C17.8555 13.6992 18.002 13.3479 18.002 12.9883C18.002 12.6287 17.8557 12.276 17.6014 12.0217Z" fill="#1B1B1B"/>
<path fill-rule="evenodd" clip-rule="evenodd" d="M49.2574 0H68.6328C69.3878 0 70 0.61209 70 1.36719V25.9766V31.3105C70 32.0656 69.3878 32.6777 68.6328 32.6777H62.6172V53.0469C62.6172 55.3085 60.7772 57.1484 58.5156 57.1484H38.1496V61.7997C41.8575 61.8715 44.8522 64.9081 44.8522 68.6328C44.8522 69.3879 44.24 70 43.485 70H19.1423C18.3873 70 17.7751 69.3879 17.7751 68.6328C17.7751 64.9081 20.7698 61.8717 24.4776 61.7997V57.1484H4.10156C1.83996 57.1484 0 55.3085 0 53.0469V15.7225C0 13.4609 1.83996 11.621 4.10156 11.621H11.4388C12.1938 11.621 12.806 12.233 12.806 12.9881C12.806 13.7432 12.1938 14.3553 11.4388 14.3553H4.10156C3.3477 14.3553 2.73438 14.9687 2.73438 15.7225V46.4842H59.7579C59.8001 46.4842 59.8417 46.4868 59.8828 46.4905V32.6777H22.6953C21.9404 32.6777 21.3281 32.0656 21.3281 31.3105V25.9766V1.36719C21.3281 0.61209 21.9404 0 22.6953 0H42.0707C43.4838 0 44.7597 0.594863 45.6641 1.54615C46.5685 0.594863 47.8443 0 49.2574 0ZM42.0707 2.73438H24.0625V24.6094H42.0707C42.8706 24.6094 43.6271 24.7997 44.2969 25.1375V4.96057C44.2969 3.73297 43.2981 2.73438 42.0707 2.73438ZM24.0625 29.9433V27.3438H42.0707C43.2983 27.3438 44.2969 28.3423 44.2969 29.5699C44.2969 29.6996 44.3162 29.8245 44.3498 29.9433H24.0625ZM20.7437 67.2656H41.8837C41.3193 65.6739 39.7984 64.5307 38.0157 64.5307H36.7824H25.8449H24.6116C22.8289 64.5307 21.308 65.6739 20.7437 67.2656ZM27.212 61.7963V57.1484H35.4151V61.7963H27.212ZM58.5156 54.4141C59.2695 54.4141 59.8828 53.8007 59.8828 53.0469V49.2122C59.8417 49.2159 59.8001 49.2185 59.7579 49.2185H2.73438V53.0469C2.73438 53.8007 3.3477 54.4141 4.10156 54.4141H25.8448H36.7823H58.5156ZM67.2656 29.9433H46.9783C47.0121 29.8245 47.0312 29.6996 47.0312 29.5699C47.0312 28.3423 48.03 27.3438 49.2574 27.3438H67.2656V29.9433ZM49.2574 24.6094H67.2656V2.73438H49.2574C48.03 2.73438 47.0312 3.73297 47.0312 4.96057V25.1375C47.701 24.7997 48.4574 24.6094 49.2574 24.6094Z" fill="#1F75AF"/>
<path d="M60.5887 6.28906H53.7085C52.9535 6.28906 52.3413 6.90115 52.3413 7.65625C52.3413 8.41135 52.9534 9.02344 53.7085 9.02344H60.5887C61.3437 9.02344 61.9559 8.41135 61.9559 7.65625C61.9559 6.90115 61.3437 6.28906 60.5887 6.28906Z" fill="#1B1B1B"/>
<path d="M60.5887 12.3047H53.7085C52.9535 12.3047 52.3413 12.9168 52.3413 13.6719C52.3413 14.427 52.9534 15.0391 53.7085 15.0391H60.5887C61.3437 15.0391 61.9559 14.427 61.9559 13.6719C61.9559 12.9168 61.3437 12.3047 60.5887 12.3047Z" fill="#1B1B1B"/>
<path d="M60.5887 18.3203H53.7085C52.9535 18.3203 52.3413 18.9324 52.3413 19.6875C52.3413 20.4426 52.9534 21.0547 53.7085 21.0547H60.5887C61.3437 21.0547 61.9559 20.4426 61.9559 19.6875C61.9559 18.9324 61.3437 18.3203 60.5887 18.3203Z" fill="#1B1B1B"/>
<path d="M37.62 6.28906H30.7397C29.9848 6.28906 29.3726 6.90115 29.3726 7.65625C29.3726 8.41135 29.9848 9.02344 30.7397 9.02344H37.62C38.3749 9.02344 38.9872 8.41135 38.9872 7.65625C38.9872 6.90115 38.3751 6.28906 37.62 6.28906Z" fill="#1B1B1B"/>
<path d="M37.62 12.3047H30.7397C29.9848 12.3047 29.3726 12.9168 29.3726 13.6719C29.3726 14.427 29.9848 15.0391 30.7397 15.0391H37.62C38.3749 15.0391 38.9872 14.427 38.9872 13.6719C38.9872 12.9168 38.3751 12.3047 37.62 12.3047Z" fill="#1B1B1B"/>
<path d="M37.62 18.3203H30.7397C29.9848 18.3203 29.3726 18.9324 29.3726 19.6875C29.3726 20.4426 29.9848 21.0547 30.7397 21.0547H37.62C38.3749 21.0547 38.9872 20.4426 38.9872 19.6875C38.9872 18.9324 38.3751 18.3203 37.62 18.3203Z" fill="#1B1B1B"/>
<path fill-rule="evenodd" clip-rule="evenodd" d="M8.74854 33.6328H14.7642C15.5193 33.6328 16.1313 34.2449 16.1313 35V41.0156C16.1313 41.7707 15.5191 42.3828 14.7642 42.3828H8.74854C7.99357 42.3828 7.38135 41.7707 7.38135 41.0156V35C7.38135 34.2449 7.99357 33.6328 8.74854 33.6328ZM10.1157 39.6484H13.397V36.3672H10.1157V39.6484Z" fill="#1B1B1B"/>
<path fill-rule="evenodd" clip-rule="evenodd" d="M8.74854 21.6016H14.7642C15.5191 21.6016 16.1313 22.2137 16.1313 22.9688V28.9844C16.1313 29.7395 15.5191 30.3516 14.7642 30.3516H8.74854C7.99357 30.3516 7.38135 29.7395 7.38135 28.9844V22.9688C7.38135 22.2137 7.99357 21.6016 8.74854 21.6016ZM10.1157 27.6172H13.397V24.3359H10.1157V27.6172Z" fill="#1B1B1B"/>
<path d="M46.3477 39.6484H20.5762C19.8212 39.6484 19.209 40.2605 19.209 41.0156C19.209 41.7707 19.8212 42.3828 20.5762 42.3828H46.3477C47.1026 42.3828 47.7148 41.7707 47.7148 41.0156C47.7148 40.2605 47.1026 39.6484 46.3477 39.6484Z" fill="#1B1B1B"/>
<path d="M53.4665 40.049C53.2123 39.7947 52.8596 39.6484 52.5 39.6484C52.1404 39.6484 51.7877 39.7947 51.5334 40.049C51.2791 40.3033 51.1328 40.6561 51.1328 41.0156C51.1328 41.3752 51.279 41.7279 51.5334 41.9822C51.7878 42.2365 52.1404 42.3828 52.5 42.3828C52.8596 42.3828 53.2123 42.2365 53.4665 41.9822C53.7208 41.7279 53.8672 41.3766 53.8672 41.0156C53.8672 40.6561 53.7209 40.3033 53.4665 40.049Z" fill="#1B1B1B"/>
</svg>
