<svg width="30" height="30" viewBox="0 0 30 30" fill="none" xmlns="http://www.w3.org/2000/svg">
<path d="M29.3479 10.4648H7.17393C6.81373 10.4648 6.52177 10.7565 6.52177 11.116C6.52177 11.4756 6.81373 11.7671 7.17393 11.7671H28.6957V28.6975H1.30438V11.7672H3.26092C3.62112 11.7672 3.91308 11.4756 3.91308 11.1161C3.91308 10.7565 3.62112 10.4649 3.26092 10.4649H0.65216C0.291955 10.4649 0 10.7565 0 11.1161V29.3487C0 29.7083 0.291955 29.9999 0.65216 29.9999H29.3478C29.708 29.9999 30 29.7083 30 29.3487V11.1161C30.0001 10.7564 29.7081 10.4648 29.3479 10.4648Z" fill="#1B1B1B"/>
<path d="M5.85719 10.989C5.84874 10.9474 5.83565 10.9064 5.81934 10.8673C5.80303 10.8282 5.78348 10.7905 5.75936 10.7547C5.73589 10.7196 5.70848 10.6857 5.6785 10.6557C5.64851 10.6257 5.61524 10.5984 5.57938 10.575C5.54417 10.5516 5.50632 10.5314 5.46723 10.5151C5.42745 10.4988 5.38637 10.4865 5.34464 10.478C5.26049 10.4611 5.17375 10.4611 5.0903 10.478C5.04858 10.4865 5.0075 10.4989 4.96771 10.5151C4.92857 10.5314 4.89078 10.5516 4.85557 10.575C4.81971 10.5984 4.78644 10.6257 4.75645 10.6557C4.72646 10.6857 4.69905 10.7195 4.67558 10.7547C4.65211 10.7905 4.63186 10.8283 4.6156 10.8673C4.59929 10.9064 4.58626 10.9474 4.57846 10.989C4.57001 11.0313 4.56543 11.0738 4.56543 11.1166C4.56543 11.159 4.57001 11.2014 4.57846 11.2436C4.58626 11.2853 4.59935 11.3264 4.6156 11.3654C4.63192 11.4045 4.65211 11.4422 4.67558 11.4781C4.69905 11.5132 4.72646 11.5471 4.75645 11.577C4.78644 11.607 4.81971 11.6343 4.85557 11.6578C4.89078 11.6811 4.92863 11.7014 4.96842 11.7176C5.00756 11.7339 5.04864 11.7462 5.09036 11.7547C5.13209 11.7632 5.17516 11.767 5.21753 11.767C5.2599 11.767 5.30298 11.7631 5.3447 11.7547C5.38642 11.7462 5.4275 11.7339 5.46729 11.7176C5.50643 11.7014 5.54423 11.6811 5.57944 11.6578C5.61529 11.6343 5.64857 11.607 5.67856 11.577C5.79986 11.4553 5.86963 11.288 5.86963 11.1166C5.86957 11.0738 5.8657 11.0313 5.85719 10.989Z" fill="#1B1B1B"/>
<path fill-rule="evenodd" clip-rule="evenodd" d="M7.82617 20.2327C7.82617 16.283 11.0444 13.0698 15.0001 13.0698C18.9558 13.0698 22.174 16.283 22.174 20.2327C22.174 24.1823 18.9558 27.3955 15.0001 27.3955C11.0444 27.3955 7.82617 24.1823 7.82617 20.2327ZM9.13055 20.2327C9.13055 23.4641 11.7636 26.0932 15.0001 26.0932C18.2366 26.0932 20.8697 23.4642 20.8697 20.2327C20.8697 17.0012 18.2366 14.3722 15.0001 14.3722C11.7637 14.3722 9.13055 17.0012 9.13055 20.2327Z" fill="#1B1B1B"/>
<path fill-rule="evenodd" clip-rule="evenodd" d="M15.6523 19.6455V18.0684C16.0548 18.2218 16.3044 18.5047 16.3044 18.7673C16.3044 19.1269 16.5964 19.4185 16.9566 19.4185C17.3168 19.4185 17.6088 19.1268 17.6088 18.7673C17.6088 17.7639 16.7895 16.9445 15.6522 16.7152V16.3255C15.6522 15.9659 15.3603 15.6743 15.0001 15.6743C14.6399 15.6743 14.3479 15.9659 14.3479 16.3255V16.7152C13.2107 16.9445 12.3914 17.7639 12.3914 18.7673C12.3914 19.7708 13.2106 20.5901 14.3479 20.8194V22.3965C13.9454 22.2431 13.6957 21.9602 13.6957 21.6976C13.6957 21.338 13.4038 21.0464 13.0436 21.0464C12.6834 21.0464 12.3914 21.338 12.3914 21.6976C12.3914 22.7009 13.2107 23.5204 14.348 23.7496V24.1394C14.348 24.499 14.6399 24.7906 15.0001 24.7906C15.3603 24.7906 15.6523 24.4989 15.6523 24.1394V23.7496C16.7895 23.5204 17.6088 22.701 17.6088 21.6976C17.6088 20.6942 16.7895 19.8748 15.6523 19.6455ZM14.348 19.4663C13.9454 19.3128 13.6958 19.0299 13.6958 18.7673C13.6958 18.5047 13.9454 18.2218 14.348 18.0684V19.4663ZM15.6523 20.9986V22.3965C16.0548 22.2431 16.3045 21.9602 16.3044 21.6976C16.3044 21.435 16.0548 21.152 15.6523 20.9986Z" fill="#1F75AF"/>
<path fill-rule="evenodd" clip-rule="evenodd" d="M18.228 2.25598L20.0727 4.09775C20.195 4.21986 20.2637 4.38551 20.2638 4.55818C20.2638 4.73086 20.1951 4.8965 20.0728 5.01861L15.4612 9.62309C15.3389 9.7452 15.173 9.81381 15.0001 9.81381C14.8271 9.81381 14.6612 9.7452 14.5389 9.62309L9.92735 5.01861C9.80505 4.8965 9.73633 4.73086 9.73633 4.55818C9.73633 4.38551 9.80505 4.21992 9.92735 4.09775L11.772 2.25598C11.8943 2.13387 12.0602 2.06525 12.2332 2.06525C12.4061 2.06525 12.572 2.13387 12.6943 2.25598L13.0435 2.60467V0.651152C13.0435 0.291621 13.3355 0 13.6957 0H16.3044C16.6646 0 16.9566 0.291621 16.9566 0.651152V2.60467L17.3057 2.25598C17.428 2.13387 17.5939 2.06525 17.7669 2.06525C17.9398 2.06525 18.1057 2.13387 18.228 2.25598ZM11.3108 4.55818L15 8.24168L18.6892 4.55824L17.7669 3.63744L16.7655 4.63729C16.579 4.8235 16.2985 4.8791 16.0548 4.77844C15.8111 4.6776 15.6522 4.44018 15.6522 4.1768V1.30236H14.3478V4.17668C14.3478 4.44012 14.1889 4.67754 13.9452 4.77832C13.7015 4.87904 13.4209 4.82332 13.2345 4.63717L12.2331 3.63732L11.3108 4.55818Z" fill="#1F75AF"/>
</svg>
