<svg width="50" height="60" viewBox="0 0 50 60" fill="none" xmlns="http://www.w3.org/2000/svg">
<path fill-rule="evenodd" clip-rule="evenodd" d="M42.629 15.67C44.4666 15.9193 46.1639 16.7591 47.4982 18.0966C49.1116 19.7136 50 21.864 50 24.1519V52.2656C50 56.5304 46.5412 60 42.2897 60H7.71028C3.45876 60 0 56.5304 0 52.2656V24.1508C0 21.8633 0.888318 19.713 2.50129 18.0959C4.11297 16.4803 6.25491 15.5907 8.53318 15.5907H8.53902L8.86367 15.591V7.5C8.86367 6.85277 9.38668 6.32812 10.0319 6.32812H14.1986C14.8438 6.32812 15.3668 6.85277 15.3668 7.5C15.3668 8.14723 14.8438 8.67188 14.1986 8.67188H11.2001V16.7637C11.2001 17.0746 11.077 17.3728 10.8577 17.5925C10.6387 17.8121 10.3416 17.9355 10.0319 17.9355H10.0312L8.5375 17.9346H8.53329C6.87874 17.9346 5.32336 18.5805 4.15292 19.7538C2.98154 20.928 2.33645 22.4896 2.33645 24.1508V52.2656C2.33645 55.238 4.7472 57.6562 7.71028 57.6562H26.8931C24.5975 55.7634 23.1308 52.8941 23.1308 49.6875C23.1308 44.0012 27.7426 39.375 33.4112 39.375C39.0798 39.375 43.6916 44.0012 43.6916 49.6875C43.6916 52.8941 42.2249 55.7634 39.9293 57.6562H42.2897C45.2528 57.6562 47.6636 55.238 47.6636 52.2656V24.1519C47.6636 22.4904 47.0183 20.9288 45.8467 19.7545C44.6764 18.5815 43.1209 17.9355 41.4666 17.9355H41.4607C41.1511 17.9355 40.8541 17.8123 40.635 17.5927C40.4158 17.3728 40.2925 17.0746 40.2925 16.7637V8.67188H30.4979C29.8527 8.67188 29.3297 8.14723 29.3297 7.5C29.3297 6.85277 29.8527 6.32812 30.4979 6.32812H41.4607C42.106 6.32812 42.629 6.85277 42.629 7.5V15.67ZM25.4673 49.6875C25.4673 54.0814 29.031 57.6562 33.4112 57.6562C37.7915 57.6562 41.3551 54.0814 41.3551 49.6875C41.3551 45.2936 37.7915 41.7188 33.4112 41.7188C29.031 41.7188 25.4673 45.2936 25.4673 49.6875Z" fill="#1B1B1B"/>
<path d="M33.4112 48.6797C32.4893 48.6797 31.7393 48.0455 31.7393 47.2661C31.7393 46.4866 32.4893 45.8523 33.4112 45.8523C34.3332 45.8523 35.0832 46.4865 35.0832 47.2661C35.0832 47.9132 35.6062 48.4379 36.2514 48.4379C36.8966 48.4379 37.4197 47.9132 37.4197 47.2661C37.4197 45.5749 36.2216 44.1417 34.5795 43.6717V43.5059C34.5795 42.8587 34.0565 42.334 33.4112 42.334C32.766 42.334 32.243 42.8587 32.243 43.5059V43.6717C30.601 44.1416 29.4028 45.5749 29.4028 47.2661C29.4028 49.3379 31.201 51.0234 33.4112 51.0234C34.3332 51.0234 35.0832 51.6577 35.0832 52.4372C35.0832 53.2166 34.3332 53.8508 33.4112 53.8508C32.4893 53.8508 31.7393 53.2166 31.7393 52.4372C31.7393 51.7901 31.2163 51.2653 30.5711 51.2653C29.9258 51.2653 29.4028 51.7901 29.4028 52.4372C29.4028 54.1282 30.6008 55.5614 32.243 56.0314V56.0985C32.243 56.7456 32.766 57.2704 33.4112 57.2704C34.0565 57.2704 34.5795 56.7456 34.5795 56.0985V56.0314C36.2215 55.5615 37.4197 54.1282 37.4197 52.4372C37.4197 50.3652 35.6215 48.6797 33.4112 48.6797Z" fill="#1F75AF"/>
<path fill-rule="evenodd" clip-rule="evenodd" d="M14.7048 24.6631C14.7048 18.9768 19.3166 14.3506 24.9852 14.3506C30.6538 14.3506 35.2656 18.9768 35.2656 24.6631C35.2656 30.3494 30.6538 34.9756 24.9852 34.9756C19.3166 34.9756 14.7048 30.3494 14.7048 24.6631ZM17.0413 24.6631C17.0413 29.057 20.605 32.6318 24.9852 32.6318C29.3655 32.6318 32.9291 29.057 32.9291 24.6631C32.9291 20.2691 29.3655 16.6943 24.9852 16.6943C20.605 16.6943 17.0413 20.2691 17.0413 24.6631Z" fill="#1B1B1B"/>
<path d="M24.9852 23.6554C24.0633 23.6554 23.3133 23.0212 23.3133 22.2416C23.3133 21.4621 24.0633 20.8279 24.9852 20.8279C25.9072 20.8279 26.6572 21.4621 26.6572 22.2416C26.6572 22.8889 27.1802 23.4135 27.8254 23.4135C28.4706 23.4135 28.9936 22.8889 28.9936 22.2416C28.9936 20.5506 27.7956 19.1173 26.1534 18.6474V18.4814C26.1534 17.8342 25.6304 17.3096 24.9852 17.3096C24.34 17.3096 23.817 17.8342 23.817 18.4814V18.6474C22.1749 19.1173 20.9768 20.5506 20.9768 22.2416C20.9768 24.3135 22.7749 25.9991 24.9852 25.9991C25.9072 25.9991 26.6572 26.6334 26.6572 27.4129C26.6572 28.1924 25.9072 28.8266 24.9852 28.8266C24.0633 28.8266 23.3133 28.1924 23.3133 27.4129C23.3133 26.7657 22.7902 26.241 22.145 26.241C21.4998 26.241 20.9768 26.7657 20.9768 27.4129C20.9768 29.1039 22.1748 30.5372 23.817 31.0073V31.0742C23.817 31.7213 24.34 32.2461 24.9852 32.2461C25.6304 32.2461 26.1534 31.7213 26.1534 31.0742V31.0073C27.7955 30.5373 28.9936 29.104 28.9936 27.4129C28.9936 25.341 27.1955 23.6554 24.9852 23.6554Z" fill="#1F75AF"/>
<path d="M24.9851 0C24.3399 0 23.8169 0.524648 23.8169 1.17188V8.80875C23.8169 9.45598 24.3399 9.98063 24.9851 9.98063C25.6303 9.98063 26.1533 9.45598 26.1533 8.80875V1.17188C26.1533 0.524648 25.6303 0 24.9851 0Z" fill="#1F75AF"/>
<path d="M42.5234 23.751C41.8782 23.751 41.3552 24.2756 41.3552 24.9229V32.5597C41.3552 33.2068 41.8782 33.7316 42.5234 33.7316C43.1687 33.7316 43.6917 33.2068 43.6917 32.5597V24.9229C43.6917 24.2756 43.1687 23.751 42.5234 23.751Z" fill="#1F75AF"/>
<path d="M19.845 4.6875C19.1998 4.6875 18.6768 5.21215 18.6768 5.85938V11.3184C18.6768 11.9657 19.1998 12.4903 19.845 12.4903C20.4902 12.4903 21.0132 11.9657 21.0132 11.3184V5.85938C21.0132 5.21215 20.4902 4.6875 19.845 4.6875Z" fill="#1F75AF"/>
<path d="M43.3496 36.1534C43.1323 35.9353 42.8309 35.8101 42.5237 35.8101C42.2165 35.8101 41.915 35.9353 41.6978 36.1534C41.4805 36.3714 41.3555 36.6737 41.3555 36.9819C41.3555 37.2913 41.4793 37.5925 41.6978 37.8103C41.915 38.0295 42.2165 38.1538 42.5237 38.1538C42.8309 38.1538 43.1323 38.0295 43.3496 37.8103C43.5669 37.5925 43.6919 37.2912 43.6919 36.9819C43.6919 36.6737 43.5669 36.3714 43.3496 36.1534Z" fill="#1F75AF"/>
<path d="M19.4243 48.6812H16.2857C15.6404 48.6812 15.1174 49.2059 15.1174 49.853C15.1174 50.5001 15.6404 51.0249 16.2857 51.0249H19.4243C20.0695 51.0249 20.5925 50.5001 20.5925 49.853C20.5925 49.2059 20.0695 48.6812 19.4243 48.6812Z" fill="#1B1B1B"/>
<path d="M12.1428 49.024C11.9256 48.8061 11.6241 48.6807 11.3169 48.6807C11.0097 48.6807 10.7083 48.8059 10.491 49.024C10.2737 49.242 10.1487 49.5443 10.1487 49.8525C10.1487 50.1619 10.2737 50.4631 10.491 50.6809C10.7083 50.9001 11.0097 51.0244 11.3169 51.0244C11.6241 51.0244 11.9256 50.9001 12.1428 50.6809C12.3601 50.4631 12.4851 50.1618 12.4851 49.8525C12.4851 49.5443 12.3601 49.242 12.1428 49.024Z" fill="#1B1B1B"/>
<path d="M21.629 44.8794L19.713 42.9573C19.2568 42.5 18.5171 42.4998 18.0609 42.9573C17.6047 43.415 17.6046 44.1569 18.0609 44.6147L19.9769 46.5368C20.2051 46.7656 20.504 46.8801 20.803 46.8801C21.1019 46.8801 21.4009 46.7656 21.629 46.5368C22.0852 46.0792 22.0854 45.3373 21.629 44.8794Z" fill="#1B1B1B"/>
</svg>
