<svg width="40" height="36" viewBox="0 0 40 36" fill="none" xmlns="http://www.w3.org/2000/svg">
<ellipse cx="19.5963" cy="35.2214" rx="0.781247" ry="0.777049" fill="black"/>
<path d="M30.3981 1.60352H8.79441C8.36206 1.60352 8.0116 1.95218 8.0116 2.38212V35.2215C8.0116 35.6515 8.36206 36.0001 8.79441 36.0001H16.0872C16.5195 36.0001 16.87 35.6514 16.87 35.2215C16.87 34.7915 16.5195 34.4428 16.0872 34.4428H9.57722V3.16072H29.6153V34.4428H23.1053C22.6729 34.4428 22.3225 34.7914 22.3225 35.2214C22.3225 35.6513 22.6729 36 23.1053 36H30.3981C30.8304 36 31.1809 35.6513 31.1809 35.2214V2.38212C31.1809 1.9521 30.8304 1.60352 30.3981 1.60352V1.60352Z" fill="#1F75AF"/>
<path fill-rule="evenodd" clip-rule="evenodd" d="M3.31189 0.0304326C3.72759 -0.0883005 4.16095 0.150953 4.28017 0.564265L6.12852 6.97678C6.32742 7.6668 6.16844 8.4287 5.69243 9.06736C5.25594 9.65279 4.5911 10.0963 3.82032 10.3161C3.47392 10.4149 3.12142 10.4641 2.7765 10.4641C2.35408 10.4641 1.94291 10.3904 1.56736 10.2436C0.823537 9.95288 0.282836 9.39053 0.0839303 8.70051C-0.114975 8.01049 0.0440086 7.2486 0.520022 6.60994C0.956505 6.02451 1.62135 5.58097 2.39212 5.36122C2.9322 5.20713 3.48657 5.17411 4.00485 5.25966L2.77509 0.993429C2.65595 0.580117 2.89626 0.148933 3.31189 0.0304326ZM3.38892 8.81917C3.82431 8.69499 4.20556 8.44735 4.43485 8.13979C4.54266 7.99511 4.71055 7.70752 4.62352 7.40587C4.53665 7.1043 4.24102 6.94881 4.07259 6.88299C3.88189 6.80848 3.66368 6.7711 3.43571 6.7711C3.23533 6.7711 3.02728 6.79993 2.82361 6.85805C2.38822 6.98222 2.00697 7.22987 1.77767 7.53743C1.66986 7.68203 1.50205 7.9697 1.589 8.27135C1.67588 8.57292 1.9715 8.72841 2.13994 8.79422C2.4983 8.93425 2.95353 8.94342 3.38892 8.81917Z" fill="#1B1B1B"/>
<path fill-rule="evenodd" clip-rule="evenodd" d="M36.2918 19.8197C36.7073 19.7011 37.1409 19.9402 37.2601 20.3536L39.1083 26.7661C39.3072 27.4562 39.1483 28.2181 38.6722 28.8566C38.2358 29.4421 37.5709 29.8856 36.8001 30.1054C36.4537 30.2042 36.1013 30.2534 35.7563 30.2534C35.334 30.2534 34.9227 30.1796 34.5473 30.0329C33.8034 29.7422 33.2627 29.1797 33.0638 28.4898C32.8649 27.7997 33.0238 27.0378 33.4998 26.3992C33.9363 25.8138 34.6012 25.3703 35.3719 25.1505C35.9121 24.9964 36.4665 24.9634 36.9848 25.0489L35.755 20.7827C35.6359 20.3694 35.8762 19.9382 36.2918 19.8197ZM36.3687 28.6085C36.8042 28.4843 37.1855 28.2366 37.4148 27.9291C37.5226 27.7845 37.6905 27.4968 37.6034 27.1952C37.5165 26.8936 37.2208 26.7381 37.0524 26.6723C36.8617 26.5978 36.6435 26.5604 36.4155 26.5604C36.2151 26.5604 36.0071 26.5892 35.8034 26.6473C35.368 26.7715 34.9868 27.0192 34.7575 27.3267C34.6498 27.4713 34.4819 27.759 34.5688 28.0606C34.6558 28.3622 34.9513 28.5177 35.1198 28.5835C35.4782 28.7235 35.9334 28.7325 36.3687 28.6085Z" fill="#1B1B1B"/>
<path fill-rule="evenodd" clip-rule="evenodd" d="M2.20616 21.3332C2.71397 21.2471 3.26756 21.272 3.82037 21.4297C4.59115 21.6495 5.25607 22.093 5.69232 22.6785C6.16841 23.317 6.32731 24.079 6.12841 24.769C5.81661 25.8508 4.70045 26.5304 3.42193 26.5305C3.08592 26.5305 2.73889 26.4835 2.39202 26.3846C1.62124 26.1649 0.956397 25.7214 0.519914 25.1359C0.0438218 24.4972 -0.115084 23.7353 0.0838216 23.0453L1.93225 16.6329C2.05147 16.2195 2.48506 15.9803 2.90053 16.099C3.31615 16.2175 3.55647 16.6487 3.43733 17.062L2.20616 21.3332ZM2.82366 24.8877C3.63209 25.1182 4.47302 24.8621 4.62357 24.3398C4.71052 24.0382 4.54263 23.7506 4.43482 23.606C4.20553 23.2983 3.82435 23.0508 3.38889 22.9265C3.18592 22.8686 2.98084 22.8414 2.78522 22.8414C2.2017 22.8414 1.70178 23.0832 1.58905 23.4744C1.50202 23.7761 1.66991 24.0637 1.77772 24.2083C2.00702 24.5159 2.38827 24.7635 2.82366 24.8877Z" fill="#1B1B1B"/>
<path fill-rule="evenodd" clip-rule="evenodd" d="M37.6081 9.0614C38.3789 9.28115 39.0437 9.72461 39.4802 10.3101C39.9562 10.9488 40.1151 11.7107 39.9162 12.4007C39.7173 13.0906 39.1767 13.6531 38.4328 13.9438C38.0573 14.0905 37.6461 14.1643 37.2236 14.1643C36.8786 14.1643 36.5263 14.1151 36.1797 14.0163C35.409 13.7965 34.7441 13.353 34.3076 12.7675C33.8315 12.1289 33.6726 11.3669 33.8715 10.677L35.4983 5.03357C35.2429 4.98384 34.9209 4.93348 34.5379 4.89681C33.7751 4.82392 33.3719 4.44153 33.168 4.13351C32.6346 3.32818 32.9548 2.26331 32.993 2.14458C33.1249 1.73499 33.5656 1.50934 33.9774 1.64066C34.3876 1.77144 34.6144 2.20705 34.4854 2.61531C34.4197 2.83063 34.4012 3.16655 34.4759 3.27759C34.5019 3.31613 34.6023 3.33859 34.6878 3.34675C35.9567 3.46805 36.6681 3.72082 36.745 3.74926C37.1286 3.89092 37.3378 4.30244 37.225 4.69369L35.9953 8.95984C36.5135 8.87436 37.0679 8.90731 37.6081 9.0614ZM37.8603 12.4944C38.0287 12.4286 38.3243 12.2731 38.4112 11.9715C38.4982 11.6699 38.3304 11.3822 38.2226 11.2376C37.9933 10.93 37.6121 10.6824 37.1767 10.5582C36.9729 10.5002 36.7649 10.4713 36.5645 10.4713C36.3365 10.4713 36.1183 10.5087 35.9276 10.5832C35.7592 10.649 35.4636 10.8045 35.3767 11.106C35.2897 11.4077 35.4576 11.6954 35.5654 11.84C35.7947 12.1475 36.1759 12.3952 36.6113 12.5193C37.0468 12.6435 37.5019 12.6343 37.8603 12.4944Z" fill="#1B1B1B"/>
<ellipse cx="19.5971" cy="9.54807" rx="0.801403" ry="0.797097" fill="#1B1B1B"/>
<path fill-rule="evenodd" clip-rule="evenodd" d="M11.8566 23.9134C11.8566 28.1586 15.329 31.6123 19.5971 31.6123C23.8652 31.6123 27.3375 28.1586 27.3375 23.9134C27.3375 19.6683 23.8652 16.2146 19.5971 16.2146C15.3289 16.2146 11.8566 19.6683 11.8566 23.9134ZM13.4191 23.9134C13.4191 20.5253 16.1905 17.7687 19.5971 17.7687C23.0036 17.7687 25.775 20.5253 25.775 23.9134C25.775 27.3016 23.0036 30.0582 19.5971 30.0582C16.1905 30.0582 13.4191 27.3016 13.4191 23.9134Z" fill="#1F75AF"/>
<path fill-rule="evenodd" clip-rule="evenodd" d="M15.2083 9.57177C15.2083 11.9788 17.1771 13.937 19.5971 13.937C22.0171 13.937 23.9859 11.9788 23.9859 9.57177C23.9859 7.16478 22.0171 5.20654 19.5971 5.20654C17.1771 5.20654 15.2083 7.16478 15.2083 9.57177ZM16.7707 9.57185C16.7707 8.02179 18.0386 6.76072 19.5971 6.76072C21.1555 6.76072 22.4234 8.02179 22.4234 9.57185C22.4234 11.1219 21.1555 12.383 19.5971 12.383C18.0386 12.383 16.7707 11.1219 16.7707 9.57185Z" fill="#1B1B1B"/>
<path fill-rule="evenodd" clip-rule="evenodd" d="M16.1978 23.9135C16.1978 25.7778 17.7227 27.2945 19.597 27.2945C21.4714 27.2945 22.9962 25.7778 22.9962 23.9135C22.9962 22.0492 21.4714 20.5325 19.597 20.5325C17.7227 20.5325 16.1978 22.0492 16.1978 23.9135ZM17.7602 23.9136C17.7602 22.9062 18.5842 22.0866 19.597 22.0866C20.6098 22.0866 21.4338 22.9062 21.4338 23.9136C21.4338 24.9209 20.6098 25.7405 19.597 25.7405C18.5842 25.7405 17.7602 24.9209 17.7602 23.9136Z" fill="#1B1B1B"/>
</svg>
