<svg width="20" height="20" viewBox="0 0 20 20" fill="none" xmlns="http://www.w3.org/2000/svg">
<path d="M12.0203 18.2764C11.8554 18.3178 11.6872 18.3546 11.5204 18.3855C11.0841 18.4672 10.7956 18.8899 10.8763 19.3298C10.9162 19.5462 11.0382 19.7264 11.2038 19.8441C11.3746 19.9651 11.5918 20.0198 11.8133 19.9783C12.012 19.9411 12.2123 19.8974 12.4089 19.848C12.8397 19.74 13.1022 19.3004 12.9947 18.8666C12.8875 18.4325 12.4514 18.1683 12.0203 18.2764Z" fill="#1F75AF"/>
<path d="M17.9658 7.42096C18.0221 7.59193 18.1296 7.73151 18.2654 7.82795C18.4668 7.97082 18.7303 8.01889 18.9818 7.93514C19.4033 7.79413 19.6318 7.33621 19.4923 6.91176C19.4287 6.71827 19.3582 6.52417 19.2831 6.33518C19.1182 5.91987 18.6505 5.71768 18.238 5.8838C17.8259 6.04984 17.6251 6.52105 17.7902 6.93649C17.8533 7.09534 17.9124 7.25839 17.9658 7.42096Z" fill="#1F75AF"/>
<path d="M14.633 17.1202C14.4912 17.2145 14.3448 17.3058 14.1973 17.3913C13.8126 17.6149 13.6808 18.1102 13.9026 18.4976C13.9629 18.603 14.0431 18.6891 14.1355 18.7549C14.3835 18.9307 14.7204 18.957 15.0008 18.7943C15.1761 18.6924 15.3504 18.5841 15.5194 18.4716C15.8897 18.2251 15.9916 17.7226 15.7468 17.3494C15.5021 16.9761 15.0035 16.8735 14.633 17.1202Z" fill="#1F75AF"/>
<path d="M19.9921 9.68289C19.9746 9.23589 19.6009 8.88796 19.157 8.90541C18.7136 8.92304 18.368 9.29968 18.3854 9.74651C18.3921 9.91736 18.3938 10.0908 18.3899 10.2614C18.3836 10.5417 18.5197 10.7916 18.7313 10.9418C18.8573 11.0312 19.0102 11.0853 19.176 11.0891C19.6198 11.099 19.9875 10.7445 19.9974 10.2972C20.0018 10.0933 20.0001 9.88669 19.9921 9.68289Z" fill="#1F75AF"/>
<path d="M17.8349 14.9897C17.479 14.7208 16.9756 14.7938 16.7091 15.1516C16.607 15.2886 16.4995 15.4239 16.3895 15.5542C16.1018 15.8946 16.1425 16.4059 16.4804 16.6958C16.4996 16.7123 16.5191 16.7274 16.5393 16.7416C16.8753 16.9802 17.3422 16.9254 17.6138 16.6043C17.7452 16.4488 17.8733 16.2871 17.9953 16.1235C18.2619 15.7657 18.1897 15.2582 17.8349 14.9897Z" fill="#1F75AF"/>
<path d="M19.0165 12.062C18.5928 11.9281 18.1416 12.1657 18.0089 12.5925C17.9581 12.7556 17.9017 12.9194 17.8409 13.0798C17.7074 13.433 17.8354 13.8217 18.1286 14.0299C18.1823 14.068 18.2416 14.1003 18.3059 14.1248C18.7208 14.2842 19.1853 14.0746 19.3434 13.6565C19.4156 13.4658 19.4826 13.2709 19.5432 13.077C19.6758 12.6502 19.4401 12.1958 19.0165 12.062Z" fill="#1F75AF"/>
<path d="M8.51242 18.3929C7.79359 18.2629 7.10403 18.0415 6.45016 17.7327C6.44243 17.7286 6.4355 17.724 6.42738 17.7203C6.27329 17.6472 6.11947 17.569 5.97037 17.4872C5.96985 17.4866 5.96891 17.4862 5.96809 17.4859C5.69453 17.3341 5.42755 17.1662 5.16818 16.9823C1.38606 14.2986 0.476682 9.01572 3.14109 5.20601C3.72045 4.37791 4.42157 3.68704 5.20321 3.13947C5.21284 3.13272 5.22248 3.126 5.23202 3.1192C7.98641 1.20748 11.7264 1.07865 14.6512 3.04311L14.023 3.95736C13.8484 4.21182 13.9558 4.39726 14.2615 4.36955L16.9901 4.12348C17.2962 4.09576 17.4793 3.82904 17.397 3.53126L16.6642 0.87199C16.5822 0.573868 16.3722 0.538184 16.1974 0.792609L15.5678 1.70902C13.4214 0.257688 10.8471 -0.295725 8.29191 0.150591C8.03456 0.195457 7.78082 0.250369 7.53056 0.314289C7.52863 0.314636 7.52708 0.314852 7.52553 0.315199C7.51586 0.317581 7.50605 0.320742 7.49664 0.323384C5.29328 0.89334 3.37088 2.18781 1.99913 4.03474C1.98756 4.04856 1.97565 4.06207 1.96473 4.0771C1.91912 4.13898 1.87385 4.2023 1.82952 4.26561C1.75704 4.36937 1.68558 4.47573 1.61723 4.5821C1.60867 4.59491 1.60214 4.60795 1.59465 4.6209C0.462667 6.38784 -0.0833354 8.43061 0.0103019 10.5103C0.0105168 10.5171 0.0101299 10.524 0.0103019 10.531C0.0193732 10.7342 0.0353664 10.9401 0.0570775 11.1429C0.0582383 11.156 0.0611188 11.1684 0.0633114 11.1814C0.0857534 11.3853 0.113913 11.5897 0.14921 11.794C0.507938 13.8787 1.48421 15.7546 2.94711 17.2142C2.9505 17.2177 2.95403 17.2214 2.95747 17.2249C2.95867 17.2263 2.96 17.227 2.96117 17.2282C3.3542 17.6187 3.78172 17.9799 4.24204 18.3065C5.44668 19.1615 6.78808 19.7267 8.22867 19.9871C8.66577 20.0662 9.08331 19.7731 9.16173 19.333C9.24011 18.8927 8.94939 18.4717 8.51242 18.3929Z" fill="#1F75AF"/>
<path d="M9.50673 3.53003C9.14719 3.53003 8.85596 3.82365 8.85596 4.1853V10.7136L14.7833 13.8001C14.8787 13.8499 14.9809 13.8733 15.0814 13.8733C15.3168 13.8733 15.5442 13.7442 15.6598 13.5188C15.8247 13.1972 15.6999 12.8022 15.3806 12.6361L10.1568 9.91565V4.1853C10.1567 3.82365 9.86585 3.53003 9.50673 3.53003Z" fill="white"/>
</svg>
