<svg width="33" height="40" viewBox="0 0 33 40" fill="none" xmlns="http://www.w3.org/2000/svg">
<path fill-rule="evenodd" clip-rule="evenodd" d="M0 16.6667C0 25.8567 7.4019 33.3333 16.5 33.3333C25.5981 33.3333 33 25.8567 33 16.6667C33 7.47667 25.5981 0 16.5 0C7.4019 0 0 7.47667 0 16.6667ZM1.65 16.6667C1.65 8.39667 8.3127 1.66667 16.5 1.66667C24.6873 1.66667 31.35 8.39667 31.35 16.6667C31.35 24.9367 24.6873 31.6667 16.5 31.6667C8.3127 31.6667 1.65 24.9367 1.65 16.6667Z" fill="#1F75AF"/>
<path fill-rule="evenodd" clip-rule="evenodd" d="M8.25 20.0001C8.25 24.5951 11.951 28.3334 16.5 28.3334C21.049 28.3334 24.75 24.5951 24.75 20.0001C24.75 15.4051 21.049 11.6667 16.5 11.6667C11.951 11.6667 8.25 15.4051 8.25 20.0001ZM9.9 20.0001C9.9 16.3234 12.8601 13.3334 16.5 13.3334C20.1399 13.3334 23.1 16.3234 23.1 20.0001C23.1 23.6767 20.1399 26.6667 16.5 26.6667C12.8601 26.6667 9.9 23.6767 9.9 20.0001Z" fill="#1B1B1B"/>
<path fill-rule="evenodd" clip-rule="evenodd" d="M13.2 20.0001C13.2 21.8384 14.68 23.3334 16.5 23.3334C18.3199 23.3334 19.8 21.8384 19.8 20.0001C19.8 18.1617 18.3199 16.6667 16.5 16.6667C14.68 16.6667 13.2 18.1617 13.2 20.0001ZM14.85 20.0001C14.85 19.0817 15.5908 18.3334 16.5 18.3334C17.4091 18.3334 18.15 19.0817 18.15 20.0001C18.15 20.9184 17.4091 21.6667 16.5 21.6667C15.5908 21.6667 14.85 20.9184 14.85 20.0001Z" fill="#1B1B1B"/>
<path d="M19.4914 8.33329H13.5102C11.9971 8.33329 10.6111 7.49996 9.88841 6.16162L8.35061 3.31496C8.13281 2.91163 8.27966 2.40496 8.68061 2.18496C9.07826 1.96496 9.58151 2.11329 9.79931 2.51829L11.3371 5.36496C11.7694 6.16829 12.6027 6.66663 13.5102 6.66663H19.4914C20.3973 6.66663 21.2305 6.16829 21.6645 5.36329L23.2023 2.51663C23.4201 2.11163 23.925 1.96329 24.321 2.18329C24.7219 2.40329 24.8688 2.90996 24.651 3.31329L23.1132 6.15996C22.3888 7.49996 21.0028 8.33329 19.4914 8.33329Z" fill="#1F75AF"/>
<path d="M6.59994 39.9999C6.33924 39.9999 6.08349 39.8766 5.92344 39.6449C5.66274 39.2683 5.75349 38.7483 6.12639 38.4849L6.53394 38.1966C8.64099 36.7049 9.89994 34.2649 9.89994 31.6666C9.89994 31.2066 10.2695 30.8333 10.7249 30.8333C11.1803 30.8333 11.5499 31.2066 11.5499 31.6666C11.5499 34.8083 10.0286 37.7599 7.48104 39.5616L7.07349 39.8499C6.92829 39.9516 6.76494 39.9999 6.59994 39.9999Z" fill="#1B1B1B"/>
<path d="M26.4 39.9999C26.2366 39.9999 26.0716 39.9516 25.9281 39.8499L25.5205 39.5616C22.9713 37.7599 21.45 34.8083 21.45 31.6666C21.45 31.2066 21.8196 30.8333 22.275 30.8333C22.7304 30.8333 23.1 31.2066 23.1 31.6666C23.1 34.2649 24.3589 36.7049 26.466 38.1949L26.8735 38.4833C27.2464 38.7466 27.3372 39.2666 27.0765 39.6433C26.9164 39.8766 26.659 39.9999 26.4 39.9999Z" fill="#1B1B1B"/>
<path d="M28.875 39.9999H4.12505C3.66965 39.9999 3.30005 39.6266 3.30005 39.1666C3.30005 38.7066 3.66965 38.3333 4.12505 38.3333H28.875C29.3305 38.3333 29.7 38.7066 29.7 39.1666C29.7 39.6266 29.3305 39.9999 28.875 39.9999Z" fill="#1B1B1B"/>
</svg>
