<svg width="106" height="90" viewBox="0 0 106 90" fill="none" xmlns="http://www.w3.org/2000/svg">
<path d="M100.838 8.33346L82.4455 0.670865C80.428 -0.169479 78.114 -0.169272 76.0966 0.671072L67.2659 4.34931C66.4765 4.67834 66.1031 5.58454 66.4319 6.37389C66.7608 7.16325 67.667 7.53687 68.4565 7.20784L77.2873 3.5294C78.5475 3.00426 79.9939 3.00405 81.2551 3.52919L99.6467 11.1914C101.436 11.9376 102.592 13.6156 102.592 15.4658V81.6756C102.592 84.2503 100.38 86.3449 97.6624 86.3449H95.1523C94.2971 86.3449 93.6041 87.0378 93.6041 87.893C93.6041 88.7483 94.2971 89.4412 95.1523 89.4412H97.6624C102.088 89.4412 105.688 85.9576 105.688 81.6756V15.4658C105.688 12.362 103.784 9.56249 100.838 8.33346Z" fill="#1F75AF"/>
<path fill-rule="evenodd" clip-rule="evenodd" d="M62.3911 86.3041H88.4044C89.2594 86.3041 89.9523 86.9969 89.9523 87.8521C89.9523 88.7073 89.2594 89.4002 88.4042 89.4002H60.8798C59.6262 89.4002 58.3896 89.1121 57.2741 88.5684H29.9704C28.2742 88.5684 26.5857 87.9902 25.2159 86.9403C23.1294 85.3411 20.9818 84.7551 18.0413 84.4754V88.3702C18.0413 89.2254 17.3483 89.9184 16.4931 89.9184H1.54817C0.692959 89.9184 0 89.2254 0 88.3702V44.4622C0 43.607 0.692959 42.914 1.54817 42.914H16.4927C17.3479 42.914 18.0409 43.607 18.0409 44.4622V46.4913C20.1427 44.533 22.2812 42.9361 24.2379 41.4761L24.2383 41.4757C30.1812 37.0409 34.4749 33.8367 33.9909 24.528C33.9038 22.851 34.4925 21.2566 35.6487 20.0387C36.8055 18.8206 38.3675 18.1498 40.0473 18.1498C41.3513 18.1498 42.5952 18.557 43.6448 19.327C44.7007 20.1017 45.4603 21.1711 45.8422 22.4198C48.356 30.6649 48.5393 37.7689 46.3853 44.5759H52.8539V15.4248C52.8539 12.321 54.7574 9.52131 57.7032 8.29248L60.52 7.11959C61.3094 6.79035 62.2156 7.16438 62.5444 7.95374C62.8731 8.74331 62.4996 9.6495 61.7103 9.97812L58.8945 11.1506C57.1064 11.8964 55.9503 13.5744 55.9503 15.4248V44.5757H62.8922C66.5643 44.5757 69.5516 47.5639 69.5516 51.2369C69.5516 53.0136 68.8597 54.6854 67.603 55.945C67.1625 56.3845 66.6712 56.7531 66.1438 57.0492C67.1854 58.2251 67.8197 59.7702 67.8197 61.4612C67.8197 63.2408 67.1272 64.913 65.8697 66.1703C65.437 66.6034 64.954 66.9675 64.4352 67.2613C65.4828 68.4383 66.1211 69.9873 66.1211 71.6832C66.1211 73.4624 65.4288 75.1346 64.1712 76.3923C63.6676 76.8958 63.097 77.3072 62.4809 77.6216C63.4581 78.7808 64.0486 80.276 64.0486 81.9073C64.0486 83.542 63.4622 85.0866 62.3911 86.3041ZM18.0413 81.3634C21.0604 81.6241 24.1803 82.2456 27.0995 84.4826C27.9318 85.1207 28.9515 85.472 29.9704 85.4731C29.9704 85.4731 57.4937 85.4702 57.5451 85.4693C58.2884 85.4561 59.2817 85.0559 59.9105 84.4286C60.5814 83.756 60.9523 82.8602 60.9523 81.9081C60.9523 79.9436 59.354 78.3453 57.3892 78.3453H54.8337C53.9785 78.3453 53.2856 77.6523 53.2856 76.7971C53.2856 75.9419 53.9785 75.249 54.8337 75.249H57.3892H59.4617C60.4125 75.249 61.3075 74.878 61.9817 74.2039C62.6542 73.5311 63.0248 72.6361 63.0248 71.6841C63.0248 69.7195 61.4264 68.1212 59.4617 68.1212H56.5328C55.6776 68.1212 54.9846 67.4283 54.9846 66.5731C54.9846 65.7178 55.6776 65.0249 56.5328 65.0249H61.1608C62.113 65.0249 63.0078 64.6546 63.6804 63.9818C64.3533 63.3091 64.7236 62.4143 64.7236 61.462C64.7236 59.4961 63.1253 57.8969 61.1608 57.8969H56.5328C55.6776 57.8969 54.9846 57.204 54.9846 56.3488C54.9846 55.4936 55.6776 54.8006 56.5328 54.8006H62.8927C63.8436 54.8006 64.7387 54.4297 65.4137 53.7563C66.0848 53.0836 66.4557 52.1883 66.4557 51.2378C66.4557 49.272 64.8574 47.6728 62.8927 47.6728H44.1972C43.6857 47.6728 43.2072 47.4202 42.9188 46.9976C42.6305 46.5751 42.5692 46.0376 42.7554 45.5611C45.4017 38.7887 45.4417 31.7228 42.8815 23.3245C42.6965 22.7199 42.3272 22.2006 41.8135 21.8236C41.2989 21.4459 40.6885 21.2463 40.0479 21.2463C39.2256 21.2463 38.461 21.5745 37.895 22.1709C37.3289 22.7668 37.041 23.5469 37.0837 24.3674C37.6536 35.3288 32.0369 39.5204 26.0901 43.9579C23.4041 45.9622 20.6311 48.0316 18.0413 50.8895V56.5403C18.0413 57.3955 17.3483 58.0885 16.4931 58.0885C15.6379 58.0885 14.945 57.3955 14.945 56.5403V46.0105H3.09633V86.8222H14.945V63.286C14.945 62.4308 15.6379 61.7378 16.4931 61.7378C17.3483 61.7378 18.0413 62.4308 18.0413 63.286V81.3634Z" fill="#1F75AF"/>
<path fill-rule="evenodd" clip-rule="evenodd" d="M78.9585 10.2536C82.2118 10.2536 84.8585 12.9003 84.8585 16.1536C84.8585 19.4068 82.2118 22.0535 78.9585 22.0535C75.7053 22.0535 73.0586 19.4068 73.0586 16.1536C73.0586 12.9003 75.7053 10.2536 78.9585 10.2536ZM78.9585 13.3499C77.4127 13.3499 76.1549 14.6077 76.1549 16.1536C76.1549 17.6997 77.4127 18.9572 78.9585 18.9572C80.5044 18.9572 81.7622 17.6994 81.7622 16.1536C81.7622 14.6077 80.5044 13.3499 78.9585 13.3499Z" fill="#1B1B1B"/>
<path d="M79.9258 68.979H77.1492C75.6867 68.979 74.4969 67.789 74.4969 66.3265C74.4969 65.4713 73.804 64.7783 72.9488 64.7783C72.0936 64.7783 71.4006 65.4713 71.4006 66.3265C71.4006 69.4429 73.8933 71.986 76.9893 72.0712V75.4974C76.9893 76.3526 77.6822 77.0456 78.5374 77.0456C79.3926 77.0456 80.0856 76.3526 80.0856 75.4974V72.0712C83.1817 71.986 85.6745 69.4429 85.6745 66.3265V64.1832C85.6745 62.1948 84.4039 60.4462 82.5127 59.8314L75.5191 57.5598C74.9077 57.361 74.4969 56.7958 74.4969 56.153V53.0841C74.4969 51.8964 75.4632 50.9299 76.6509 50.9299H80.4243C81.6121 50.9299 82.5783 51.8964 82.5783 53.0841C82.5783 53.9393 83.2713 54.6323 84.1265 54.6323C84.9817 54.6323 85.6747 53.9393 85.6747 53.0841C85.6747 50.1891 83.3194 47.8336 80.4243 47.8336H80.0856V44.4115C80.0856 43.5563 79.3926 42.8633 78.5374 42.8633C77.6822 42.8633 76.9893 43.5563 76.9893 44.4115V47.8336H76.6507C73.7559 47.8336 71.4004 50.1888 71.4004 53.0841V56.153C71.4004 58.1415 72.6709 59.8901 74.5622 60.5046L81.5555 62.7763C82.1672 62.975 82.5779 63.5404 82.5779 64.1832V66.3265C82.5783 67.789 81.3883 68.979 79.9258 68.979Z" fill="#1B1B1B"/>
</svg>
