<svg width="90" height="69" viewBox="0 0 90 69" fill="none" xmlns="http://www.w3.org/2000/svg">
<path d="M88.5 7.46279C87.6716 7.46279 87 8.13103 87 8.95535V62.6875H78.855C69.2022 62.6883 59.5807 63.7789 50.175 65.9383C48.9672 66.2133 47.7141 65.7181 47.025 64.6935C52.3805 61.4314 58.5373 59.7043 64.8165 59.7023H82.5C83.3284 59.7023 84 59.0341 84 58.2098V47.7619C84 46.9376 83.3284 46.2693 82.5 46.2693C81.6716 46.2693 81 46.9376 81 47.7619V56.7172H64.8165C58.3969 56.7112 52.0857 58.3631 46.5 61.5113V20.8958C46.5 20.0715 45.8284 19.4033 45 19.4033C44.1716 19.4033 43.5 20.0715 43.5 20.8958V61.5098C37.9143 58.3618 31.603 56.7104 25.1835 56.7172H9V2.98512H32.1C38.3973 2.98924 43.5 8.07001 43.5 14.336C43.5 15.1603 44.1716 15.8286 45 15.8286C45.8284 15.8286 46.5 15.1603 46.5 14.336C46.5 8.07001 51.6027 2.98924 57.9 2.98512H81V41.7916C81 42.616 81.6716 43.2842 82.5 43.2842C83.3284 43.2842 84 42.616 84 41.7916V1.49256C84 0.668241 83.3284 0 82.5 0H57.9C52.4312 0.00404081 47.4354 3.08608 45 7.95832C42.5646 3.08608 37.5688 0.00404081 32.1 0H7.5C6.67157 0 6 0.668241 6 1.49256V58.2098C6 59.0341 6.67157 59.7023 7.5 59.7023H25.1835C31.4637 59.7037 37.6216 61.4309 42.978 64.6935C42.2867 65.7154 41.0355 66.2098 39.828 65.9383C30.4214 63.7785 20.7988 62.688 11.145 62.6875H3V8.95535C3 8.13103 2.32843 7.46279 1.5 7.46279C0.671573 7.46279 0 8.13103 0 8.95535V64.18C0 65.0043 0.671573 65.6726 1.5 65.6726H11.145C20.5706 65.6741 29.9656 66.7391 39.15 68.8473C41.3017 69.3415 43.5519 68.6136 45 66.9547C46.4478 68.6142 48.6983 69.3422 50.85 68.8473C60.0344 66.7394 69.4294 65.6744 78.855 65.6726H88.5C89.3284 65.6726 90 65.0043 90 64.18V8.95535C90 8.13103 89.3284 7.46279 88.5 7.46279Z" fill="#1F75AF"/>
<path d="M40.0845 12.8555C37.7209 11.2849 34.9422 10.447 32.1 10.448H15C14.1716 10.448 13.5 11.1162 13.5 11.9406C13.5 12.7649 14.1716 13.4331 15 13.4331H32.1C34.3522 13.4306 36.5544 14.094 38.427 15.3391C39.1163 15.7966 40.0477 15.6115 40.5075 14.9257C40.9673 14.2398 40.7812 13.313 40.092 12.8555H40.0845Z" fill="#1B1B1B"/>
<path d="M74.9999 10.448H57.8999C55.0552 10.4458 52.2738 11.2836 49.9079 12.8555C49.4621 13.1514 49.2087 13.6616 49.2434 14.1938C49.278 14.726 49.5954 15.1994 50.0759 15.4356C50.5564 15.6718 51.1271 15.6351 51.5729 15.3391C53.4457 14.0944 55.6478 13.431 57.8999 13.4331H74.9999C75.8284 13.4331 76.4999 12.7649 76.4999 11.9406C76.4999 11.1162 75.8284 10.448 74.9999 10.448Z" fill="#1B1B1B"/>
<path d="M40.0845 20.3181C37.7209 18.7475 34.9422 17.9097 32.1 17.9106H15C14.1716 17.9106 13.5 18.5789 13.5 19.4032C13.5 20.2275 14.1716 20.8958 15 20.8958H32.1C34.3522 20.8932 36.5544 21.5566 38.427 22.8018C38.8729 23.0977 39.4435 23.1345 39.924 22.8982C40.4046 22.662 40.7219 22.1886 40.7565 21.6564C40.7912 21.1242 40.5379 20.6141 40.092 20.3181H40.0845Z" fill="#1B1B1B"/>
<path d="M74.9999 17.9106H57.8999C55.0552 17.9084 52.2738 18.7463 49.9079 20.3181C49.4621 20.6141 49.2087 21.1242 49.2434 21.6564C49.278 22.1886 49.5954 22.662 50.0759 22.8982C50.5564 23.1345 51.1271 23.0977 51.5729 22.8018C53.4457 21.557 55.6478 20.8937 57.8999 20.8958H74.9999C75.8284 20.8958 76.4999 20.2275 76.4999 19.4032C76.4999 18.5789 75.8284 17.9106 74.9999 17.9106Z" fill="#1B1B1B"/>
<path d="M40.0845 27.781C37.7209 26.2104 34.9422 25.3726 32.1 25.3735H15C14.1716 25.3735 13.5 26.0418 13.5 26.8661C13.5 27.6904 14.1716 28.3587 15 28.3587H32.1C34.3522 28.3561 36.5544 29.0195 38.427 30.2647C39.1163 30.7221 40.0477 30.537 40.5075 29.8512C40.9673 29.1654 40.7812 28.2385 40.092 27.781H40.0845Z" fill="#1B1B1B"/>
<path d="M74.9999 25.3735H57.8999C55.0552 25.3713 52.2738 26.2092 49.9079 27.781C49.4621 28.077 49.2087 28.5871 49.2434 29.1193C49.278 29.6515 49.5954 30.1249 50.0759 30.3611C50.5564 30.5974 51.1271 30.5606 51.5729 30.2647C53.4457 29.0199 55.6478 28.3565 57.8999 28.3587H74.9999C75.8284 28.3587 76.4999 27.6904 76.4999 26.8661C76.4999 26.0418 75.8284 25.3735 74.9999 25.3735Z" fill="#1B1B1B"/>
<path d="M40.0845 35.2437C37.7209 33.6731 34.9422 32.8352 32.1 32.8362H15C14.1716 32.8362 13.5 33.5044 13.5 34.3287C13.5 35.1531 14.1716 35.8213 15 35.8213H32.1C34.3522 35.8187 36.5544 36.4821 38.427 37.7273C38.8729 38.0232 39.4435 38.06 39.924 37.8238C40.4046 37.5875 40.7219 37.1142 40.7565 36.582C40.7912 36.0498 40.5379 35.5396 40.092 35.2437H40.0845Z" fill="#1B1B1B"/>
<path d="M75.0001 32.8362H57.9001C55.0553 32.8339 52.2739 33.6718 49.9081 35.2437C49.2188 35.7012 49.0328 36.628 49.4926 37.3139C49.9524 37.9997 50.8838 38.1848 51.5731 37.7273C53.4459 36.4826 55.6479 35.8192 57.9001 35.8213H75.0001C75.8285 35.8213 76.5001 35.1531 76.5001 34.3287C76.5001 33.5044 75.8285 32.8362 75.0001 32.8362Z" fill="#1B1B1B"/>
<path d="M40.0845 42.7066C37.7209 41.1359 34.9422 40.2981 32.1 40.2991H15C14.1716 40.2991 13.5 40.9673 13.5 41.7916C13.5 42.6159 14.1716 43.2842 15 43.2842H32.1C34.3522 43.2816 36.5544 43.945 38.427 45.1902C39.1163 45.6477 40.0477 45.4626 40.5075 44.7767C40.9673 44.0909 40.7812 43.1641 40.092 42.7066H40.0845Z" fill="#1B1B1B"/>
<path d="M74.9999 40.2991H57.8999C55.0552 40.2968 52.2738 41.1347 49.9079 42.7066C49.4621 43.0025 49.2087 43.5127 49.2434 44.0449C49.278 44.5771 49.5954 45.0504 50.0759 45.2867C50.5564 45.5229 51.1271 45.4861 51.5729 45.1902C53.4457 43.9454 55.6478 43.2821 57.8999 43.2842H74.9999C75.8284 43.2842 76.4999 42.616 76.4999 41.7916C76.4999 40.9673 75.8284 40.2991 74.9999 40.2991Z" fill="#1B1B1B"/>
<path d="M32.1 47.762H15C14.1716 47.762 13.5 48.4302 13.5 49.2545C13.5 50.0788 14.1716 50.7471 15 50.7471H32.1C34.3522 50.7445 36.5544 51.4079 38.427 52.6531C39.1163 53.1106 40.0477 52.9255 40.5075 52.2396C40.9673 51.5538 40.7812 50.627 40.092 50.1695C37.7263 48.5974 34.9448 47.7595 32.1 47.762Z" fill="#1B1B1B"/>
<path d="M75.0001 47.762H57.9001C55.0553 47.7597 52.2739 48.5976 49.9081 50.1695C49.2188 50.627 49.0328 51.5538 49.4926 52.2396C49.9524 52.9255 50.8838 53.1106 51.5731 52.6531C53.4459 51.4083 55.6479 50.745 57.9001 50.7471H75.0001C75.8285 50.7471 76.5001 50.0788 76.5001 49.2545C76.5001 48.4302 75.8285 47.762 75.0001 47.762Z" fill="#1B1B1B"/>
</svg>
