<svg width="90" height="74" viewBox="0 0 90 74" fill="none" xmlns="http://www.w3.org/2000/svg">
<path fill-rule="evenodd" clip-rule="evenodd" d="M60.6796 5.91153L89.1396 16.8118C89.6574 17.0105 90 17.5099 90 18.0666V24.1982C90 24.7556 89.6574 25.255 89.1396 25.453L75.5063 30.6748V51.8276C75.5063 52.2353 75.3216 52.6209 75.005 52.8754C73.0357 54.4606 70.9483 55.8775 68.7696 57.1226V63.9758C70.9236 64.5669 72.5118 66.5487 72.5118 68.8975C72.5118 71.7105 70.2335 74 67.4327 74C64.6326 74 62.3543 71.7105 62.3543 68.8975C62.3543 66.5487 63.9425 64.5669 66.0965 63.9758V58.5408C59.561 61.7477 52.3293 63.4598 45 63.4598C34.1325 63.4598 23.4764 59.7011 14.9957 52.8754C14.6791 52.6209 14.4951 52.2353 14.4951 51.8276V40.7004C14.4951 39.9589 15.0932 39.3574 15.8313 39.3574C16.5701 39.3574 17.1682 39.9589 17.1682 40.7004V51.1772C25.0928 57.3709 34.9503 60.7744 45 60.7744C52.3636 60.7744 59.6228 58.945 66.0965 55.5312V34.2797L45.4765 42.1773C45.3227 42.2359 45.1614 42.2656 45 42.2656C44.8386 42.2656 44.6773 42.2359 44.5235 42.1773L17.1682 31.6999V35.3289C17.1682 36.0704 16.5701 36.672 15.8313 36.672C15.0932 36.672 14.4951 36.0704 14.4951 35.3289V30.6755L0.860367 25.4537C0.342636 25.255 0 24.7556 0 24.1989V18.0666C0 17.5099 0.342636 17.0105 0.860367 16.8118L44.5235 0.0882088C44.8304 -0.0297477 45.1696 -0.0290577 45.4765 0.0882088L55.7879 4.03803C56.478 4.30222 56.824 5.07825 56.5611 5.77081C56.2974 6.46407 55.5242 6.81104 54.8355 6.54753L45 2.77982L5.08873 18.0666L45 33.3533L63.9583 26.0924L44.4486 17.2181C43.7764 16.9118 43.4777 16.1165 43.7826 15.4405C44.0868 14.7652 44.8785 14.4651 45.5514 14.7714L67.4773 24.7446L84.9113 18.0666L59.7272 8.42104C59.0371 8.15685 58.691 7.38081 58.954 6.68756C59.217 5.995 59.9895 5.64734 60.6796 5.91153ZM67.4327 71.3139C68.7593 71.3139 69.8387 70.2295 69.8387 68.8975C69.8387 67.5648 68.7593 66.4804 67.4327 66.4804C66.1068 66.4804 65.0274 67.5648 65.0274 68.8975C65.0274 70.2295 66.1068 71.3139 67.4327 71.3139ZM2.67311 20.016L43.6631 35.7159V38.9731L2.67311 23.2732V20.016ZM46.3369 35.7159V38.9731L66.0965 31.4053V28.1474L46.3369 35.7159ZM72.8325 51.1765C71.5285 52.196 70.1711 53.1383 68.7696 54.0033V33.2554L72.8325 31.6992V51.1765ZM68.7696 27.1237V30.3809L87.3269 23.2732V20.016L68.7696 27.1237Z" fill="#1F75AF"/>
<rect x="26.0347" y="17.8323" width="19" height="2.7" rx="1.35" transform="rotate(20 26.0347 17.8323)" fill="#1B1B1B"/>
</svg>
