<svg width="110" height="62" viewBox="0 0 110 62" fill="none" xmlns="http://www.w3.org/2000/svg">
<path d="M97.6953 0H12.3047C5.51988 0 0 5.55363 0 12.3799V33.8253C0 40.6516 5.51988 46.2052 12.3047 46.2052H30.1465C31.1171 46.2052 31.9043 45.4133 31.9043 44.4367C31.9043 43.4601 31.1171 42.6681 30.1465 42.6681H12.3047C7.4584 42.6681 3.51562 38.7012 3.51562 33.8253V12.3799C3.51562 7.504 7.4584 3.53712 12.3047 3.53712H97.6953C102.542 3.53712 106.484 7.504 106.484 12.3799V33.8253C106.484 38.7012 102.542 42.6681 97.6953 42.6681V46.2052C104.48 46.2052 110 40.6516 110 33.8253V12.3799C110 5.55363 104.48 0 97.6953 0Z" fill="#1F75AF"/>
<path fill-rule="evenodd" clip-rule="evenodd" d="M53.9911 25.9101L87.0477 40.2608C87.6734 40.5325 88.0547 41.1744 87.9935 41.8538C87.9322 42.5332 87.4425 43.0968 86.7784 43.2523L72.5764 46.5765L69.2523 60.7785C69.0967 61.4426 68.5331 61.9324 67.8538 61.9936C67.8059 61.9979 67.7583 62 67.7112 62C67.0858 62 66.5132 61.6297 66.2606 61.0479L51.9099 27.9913C51.6513 27.3954 51.7831 26.7019 52.2424 26.2426C52.7017 25.7832 53.3949 25.6513 53.9911 25.9101ZM69.7192 44.8994C69.8563 44.3139 70.3135 43.8566 70.8991 43.7195L81.4049 41.2605L56.4088 30.4092L67.2602 55.4053L69.7192 44.8994Z" fill="black"/>
<path d="M54.5664 20.6562C55.4401 20.6562 56.1484 19.9479 56.1484 19.0742V9.58203C56.1484 8.70833 55.4401 8 54.5664 8C53.6927 8 52.9844 8.70833 52.9844 9.58203V19.0742C52.9844 19.9479 53.6927 20.6562 54.5664 20.6562Z" fill="black"/>
<path d="M46.7357 34.1597L40.0237 40.8718C39.4058 41.4896 39.4058 42.4912 40.0237 43.1091C40.6414 43.7269 41.6432 43.7269 42.261 43.1091L48.973 36.397C49.5908 35.7792 49.5908 34.7776 48.973 34.1597C48.3552 33.5419 47.3534 33.5419 46.7357 34.1597Z" fill="black"/>
<path d="M62.397 22.9731L69.109 16.261C69.7268 15.6432 69.7268 14.6416 69.109 14.0237C68.4912 13.4059 67.4895 13.4059 66.8717 14.0237L60.1597 20.7358C59.5418 21.3536 59.5418 22.3552 60.1597 22.9731C60.7774 23.5909 61.7792 23.5909 62.397 22.9731Z" fill="black"/>
<path d="M42.261 14.0237C41.6432 13.4059 40.6415 13.4059 40.0237 14.0237C39.4058 14.6416 39.4058 15.6432 40.0237 16.261L46.7357 22.9731C47.3534 23.5909 48.3553 23.5909 48.973 22.9731C49.5908 22.3552 49.5908 21.3536 48.973 20.7358L42.261 14.0237Z" fill="black"/>
<path d="M46.6562 28.5664C46.6562 27.6927 45.9479 26.9844 45.0742 26.9844H35.582C34.7083 26.9844 34 27.6927 34 28.5664C34 29.4401 34.7083 30.1484 35.582 30.1484H45.0742C45.9479 30.1484 46.6562 29.4401 46.6562 28.5664Z" fill="black"/>
</svg>
