<svg width="90" height="90" viewBox="0 0 90 90" fill="none" xmlns="http://www.w3.org/2000/svg">
<path fill-rule="evenodd" clip-rule="evenodd" d="M55.4401 17.9703C63.732 30.3626 60.4088 47.131 48.0173 55.4235C46.0065 56.7831 43.8177 57.8588 41.5126 58.6198C38.7712 59.5404 35.8977 60.0068 33.0057 60.0012C30.8664 60.005 28.7348 59.7466 26.6585 59.2318H26.6495C24.2934 58.6697 22.0267 57.7838 19.9138 56.5994V56.5979C16.1588 54.516 12.9545 51.5687 10.5668 48.0002C2.27483 35.6079 5.59805 18.8395 17.9895 10.547C30.381 2.25456 47.1482 5.578 55.4401 17.9703ZM27.3844 56.3144C31.7428 57.367 36.3092 57.1763 40.5648 55.7639H40.5798C42.6231 55.0899 44.5631 54.1365 46.345 52.9306C49.5213 50.8054 52.1441 47.9522 53.995 44.6085C60.4142 33.0128 56.2185 18.4085 44.6236 11.9888C33.0287 5.56919 18.4254 9.76521 12.0062 21.3609C5.58699 32.9566 9.78272 47.5609 21.3776 53.9805L21.3791 53.976C23.2576 55.0286 25.2732 55.8155 27.3679 56.3144H27.3844Z" fill="#1B1B1B"/>
<path d="M33.0057 19.5035C36.319 19.5035 39.005 22.1896 39.005 25.5031H42.0046C41.9966 21.1164 38.8299 17.3734 34.5055 16.6386V13.5038H31.5059V16.6386C26.6105 17.4958 23.3366 22.1594 24.1938 27.0554C24.9442 31.3419 28.6542 34.4775 33.0057 34.5026C36.319 34.5026 39.005 37.1888 39.005 40.5023C39.005 43.8158 36.319 46.502 33.0057 46.502C29.6924 46.502 27.0065 43.8158 27.0065 40.5023H24.0068C24.0149 44.889 27.1816 48.632 31.5059 49.3668V52.5016H34.5055V49.3668C39.4009 48.5096 42.6749 43.846 41.8177 38.9501C41.0672 34.6635 37.3573 31.5279 33.0057 31.5028C29.6924 31.5028 27.0065 28.8166 27.0065 25.5031C27.0065 22.1896 29.6924 19.5035 33.0057 19.5035Z" fill="#1B1B1B"/>
<path fill-rule="evenodd" clip-rule="evenodd" d="M24.228 1.19335C41.7884 -3.64558 59.9465 6.66805 64.7853 24.2296C79.1632 25.8878 90.0107 38.0679 90 52.5421C89.9885 68.2706 77.2296 81.0119 61.5022 81.0002C58.4947 80.9963 55.5072 80.5105 52.6533 79.5618C48.9131 86.0437 41.9886 90.0264 34.5055 89.9997C31.6281 90.0099 28.7796 89.4264 26.138 88.2857C15.5289 83.7046 10.6417 71.3899 15.2224 60.7798C8.35582 56.389 3.35825 49.6113 1.19327 41.7534C-3.64533 24.1916 6.66759 6.03246 24.228 1.19335ZM33.0085 3.00712C16.4419 3.00562 3.01086 16.4351 3.00936 33.0027C3.00936 49.5704 16.4391 63.001 33.0057 63.001C34.3216 63.004 35.6362 62.9153 36.9397 62.7355L36.9982 62.728C37.6971 62.638 38.396 62.5226 39.0904 62.3801C41.213 61.9438 43.2813 61.2752 45.2577 60.3867C46.4489 59.8448 47.6013 59.222 48.7072 58.5223C48.8178 58.4535 48.9288 58.3853 49.0397 58.3172C49.442 58.0701 49.8435 57.8234 50.2221 57.5518C58.2277 51.9404 62.9967 42.7795 63.002 33.0027C63.0072 30.6244 62.7243 28.2543 62.1591 25.9441C58.9 12.4866 46.854 3.00844 33.0085 3.00712ZM34.5055 86.9997C24.5962 87.0303 16.5386 79.0215 16.5081 69.1115C16.5008 66.7654 16.9537 64.4408 17.841 62.2691C19.2059 62.9941 20.6202 63.6216 22.0735 64.147C25.5876 65.3748 29.2833 66.0016 33.0057 66.0009C34.118 65.9966 35.2295 65.9341 36.3353 65.8134C38.5597 70.0223 41.7996 73.6092 45.7616 76.2483C46.3405 76.6338 46.9315 76.9878 47.5299 77.3267L48.0113 77.5922C48.5342 77.8752 49.0633 78.1403 49.5981 78.3872C49.6326 78.4029 49.6664 78.4209 49.7001 78.4389C49.7339 78.4569 49.7676 78.4749 49.8021 78.4907C46.5344 83.7993 40.7387 87.0231 34.5055 86.9997ZM52.4583 76.3398C55.345 77.4452 58.411 78.0081 61.5022 78.0002C73.9924 77.9719 84.6218 68.8953 86.6068 56.5626C88.8438 42.665 79.3916 29.5851 65.4947 27.348C67.6949 39.9372 62.4163 52.6632 51.9513 59.9982L51.9393 60.0057C51.8486 60.0705 51.7517 60.1297 51.6548 60.1888C51.5724 60.2391 51.49 60.2894 51.4114 60.3432C50.7335 60.8126 50.0406 61.2761 49.3117 61.6931C48.3983 62.2151 47.4504 62.6965 46.4785 63.1315C45.8156 63.4285 45.1422 63.6955 44.4658 63.9475C44.3267 63.9995 44.1864 64.0475 44.0461 64.0955C43.9759 64.1195 43.9058 64.1435 43.8358 64.168C43.3508 64.338 42.864 64.4955 42.375 64.6404C42.3088 64.6596 42.2435 64.6789 42.1787 64.6979C42.0157 64.7459 41.8557 64.7929 41.6926 64.8369C41.1476 64.9849 40.6007 65.1183 40.0518 65.2374C39.9852 65.2521 39.9185 65.2679 39.8519 65.2838C39.7685 65.3036 39.6852 65.3234 39.6019 65.3409C39.5881 65.3433 39.5746 65.3474 39.5612 65.3514C39.541 65.3574 39.5212 65.3634 39.5014 65.3634C39.5219 65.399 39.5438 65.4342 39.5658 65.4697C39.5854 65.5014 39.6052 65.5333 39.6244 65.5659C40.0494 66.2798 40.5077 66.9698 40.9997 67.6358C41.0283 67.6725 41.0551 67.7106 41.0818 67.7486C41.1042 67.7803 41.1264 67.812 41.1497 67.8428C41.6664 68.5202 42.217 69.1709 42.7995 69.7927C42.827 69.8224 42.8545 69.8522 42.8821 69.8821C42.9671 69.9742 43.0523 70.0665 43.1384 70.1571C43.7189 70.7601 44.3278 71.3376 44.9652 71.8835C45.0413 71.9476 45.1187 72.0103 45.1961 72.073C45.2346 72.1043 45.2732 72.1356 45.3117 72.167C45.9879 72.7308 46.6928 73.2595 47.4234 73.7509C48.9965 74.8048 50.6859 75.6735 52.4583 76.3398Z" fill="#1F75AF"/>
<path d="M34.5055 81.0001C27.8819 80.9926 22.5145 75.6247 22.507 69.0007H19.5073C19.5165 77.2808 26.2259 83.9907 34.5055 83.9999C36.821 84.0061 39.1058 83.4697 41.1767 82.434L39.8403 79.7491C38.1838 80.5763 36.357 81.0048 34.5055 81.0001Z" fill="#1B1B1B"/>
<rect x="60.0024" y="69.0007" width="2.99963" height="5.99967" fill="#1B1B1B"/>
<path d="M51.5496 72.7357L48.9516 71.2361L51.9506 66.0398L54.5486 67.5394L51.5496 72.7357Z" fill="#1B1B1B"/>
<path d="M71.4534 72.7418L68.4537 67.5461L71.0514 66.0462L74.051 71.2419L71.4534 72.7418Z" fill="#1B1B1B"/>
<path d="M80.2339 65.0579L75.0385 62.058L76.5383 59.4602L81.7337 62.46L80.2339 65.0579Z" fill="#1B1B1B"/>
<rect x="78.0002" y="51.0017" width="5.99926" height="2.99984" fill="#1B1B1B"/>
<path d="M80.2322 39.9556L81.7317 42.5537L76.5357 45.553L75.0362 42.9548L80.2322 39.9556Z" fill="#1B1B1B"/>
<path d="M71.0481 38.9634L68.4501 37.4638L71.4491 32.2674L74.0471 33.7671L71.0481 38.9634Z" fill="#1B1B1B"/>
</svg>
