<svg width="90" height="90" viewBox="0 0 90 90" fill="none" xmlns="http://www.w3.org/2000/svg">
<path d="M11.0227 40.5004C10.5793 40.5009 10.1583 40.3052 9.87288 39.9657C9.58748 39.6263 9.46692 39.1779 9.54359 38.7411C12.1857 23.8462 23.8465 12.1854 38.7412 9.54331C39.5572 9.4002 40.3347 9.94568 40.4778 10.7617C40.6209 11.5777 40.0755 12.3552 39.2595 12.4983C25.6076 14.9198 14.92 25.6075 12.4985 39.2595C12.3728 39.9764 11.7506 40.4996 11.0227 40.5004Z" fill="#1B1B1B"/>
<path d="M50.9982 80.4803C50.2196 80.4805 49.5702 79.8851 49.5032 79.1094C49.4362 78.3337 49.9738 77.6357 50.7409 77.5024C64.3928 75.0809 75.0805 64.3932 77.5021 50.7411C77.5912 50.21 77.9581 49.7674 78.4636 49.5815C78.969 49.3956 79.5353 49.4949 79.9473 49.8417C80.3593 50.1886 80.5538 50.7296 80.4568 51.2594C77.8147 66.1544 66.154 77.8153 51.2591 80.4574C51.173 80.4726 51.0857 80.4802 50.9982 80.4803Z" fill="#1B1B1B"/>
<ellipse cx="10.5012" cy="45.0003" rx="1.49996" ry="1.49998" fill="#1B1B1B"/>
<ellipse cx="45.0002" cy="10.501" rx="1.49996" ry="1.49998" fill="#1B1B1B"/>
<ellipse cx="79.4992" cy="45.0003" rx="1.49996" ry="1.49998" fill="#1B1B1B"/>
<ellipse cx="45.0002" cy="79.4999" rx="1.49996" ry="1.49998" fill="#1B1B1B"/>
<path fill-rule="evenodd" clip-rule="evenodd" d="M3.42665 62.2209C10.3916 79.036 26.7999 89.9997 45.0002 89.9997C56.9411 90.0323 68.3987 85.2864 76.8191 76.8197C88.1869 65.4518 92.6266 48.8827 88.4657 33.3537C84.3048 17.8248 72.1755 5.69534 56.6468 1.53436C41.118 -2.62663 24.5491 1.81304 13.1812 13.181C0.311603 26.0507 -3.53833 45.4057 3.42665 62.2209ZM6.19832 28.9279C12.699 13.2338 28.0133 3.001 45.0002 3.00101C56.1451 2.97059 66.8389 7.40015 74.6979 15.3023C91.0995 31.7041 91.0995 58.2966 74.6979 74.6984C58.2964 91.1002 31.7041 91.1002 15.3025 74.6984C3.29094 62.6867 -0.302313 44.622 6.19832 28.9279Z" fill="#1F75AF"/>
<path fill-rule="evenodd" clip-rule="evenodd" d="M53.2964 59.0241C55.6846 57.319 56.9998 55.0013 56.9998 52.5003C56.9998 49.9993 55.6846 47.6816 53.2964 45.9765C51.4237 44.6389 49.0516 43.8072 46.5001 43.5717V31.5906C50.6942 32.083 53.9999 34.5891 53.9999 37.5015C53.9999 38.3299 54.6715 39.0014 55.4999 39.0014C56.3283 39.0014 56.9998 38.3299 56.9998 37.5015C56.9998 35.0004 55.6846 32.6828 53.2964 30.9777C51.4237 29.6401 49.0516 28.8083 46.5001 28.5728V25.5007C46.5001 24.6723 45.8286 24.0007 45.0002 24.0007C44.1718 24.0007 43.5002 24.6723 43.5002 25.5007V28.5719C40.9488 28.8074 38.5766 29.6391 36.7039 30.9767C34.3158 32.6818 33.0005 34.9995 33.0005 37.5005C33.0005 40.0015 34.3158 42.3192 36.7039 44.0243C38.5766 45.3619 40.9488 46.1936 43.5002 46.4291V58.4102C39.3061 57.919 36.0004 55.4127 36.0004 52.5003C36.0004 51.6719 35.3289 51.0003 34.5004 51.0003C33.672 51.0003 33.0005 51.6719 33.0005 52.5003C33.0005 55.0013 34.3158 57.319 36.7039 59.0241C38.5766 60.3617 40.9488 61.1934 43.5002 61.4289V64.5001C43.5002 65.3285 44.1718 66.0001 45.0002 66.0001C45.8286 66.0001 46.5001 65.3285 46.5001 64.5001V61.4289C49.0516 61.1934 51.4237 60.3617 53.2964 59.0241ZM53.9999 52.5003C53.9999 55.4127 50.6942 57.919 46.5001 58.4111V46.5894C50.6942 47.0816 53.9999 49.5879 53.9999 52.5003ZM43.5002 31.5897C39.3061 32.0819 36.0004 34.5881 36.0004 37.5005C36.0004 40.4129 39.3061 42.9192 43.5002 43.4114V31.5897Z" fill="#1F75AF"/>
</svg>
