<svg width="61" height="60" viewBox="0 0 61 60" fill="none" xmlns="http://www.w3.org/2000/svg">
<path fill-rule="evenodd" clip-rule="evenodd" d="M55.9797 15.0093C51.974 8.07118 45.5063 3.10841 37.768 1.03489C30.0298 -1.03863 21.9472 0.0255542 15.0091 4.03114C8.07113 8.03673 3.10824 14.5045 1.03484 22.2428C-1.03856 29.981 0.0255017 38.0638 4.03109 45.0018C7.62417 51.2252 13.335 55.955 20.1114 58.3197C23.3237 59.4404 26.677 59.9998 30.0252 59.9998C33.6656 59.9998 37.2994 59.3381 40.7343 58.018C41.3384 57.7859 41.6398 57.1079 41.4076 56.5038L41.421 56.5467C41.2495 56.3413 41.0816 56.1331 40.919 55.9207C40.6201 55.7407 40.2442 55.6955 39.8934 55.8306C30.7504 59.3447 20.8525 57.748 13.4577 52.1973L14.5075 46.717L15.0134 46.5527L15.2149 46.4808C16.998 45.7846 17.9529 43.8027 17.3543 41.9592L16.983 40.8168L16.9418 40.6566C16.9007 40.4412 16.9149 40.2201 16.9842 40.0088C17.3098 39.0159 17.1935 37.9297 16.6648 37.0283C16.1362 36.127 15.245 35.495 14.2195 35.2945L11.5746 34.7777L6.47128 30.8977L6.35246 30.8182C6.06604 30.6511 5.71967 30.6121 5.39996 30.7159L2.41214 31.6865L2.37629 30.8851C2.3521 30.084 2.36287 29.2839 2.40804 28.4869C2.43751 28.5143 2.46442 28.5396 2.48893 28.5628L2.64992 28.7203C2.70839 28.8177 2.78081 28.907 2.86566 28.9843C3.10964 29.2065 3.33066 29.3073 3.79472 29.3073C3.83349 29.3073 3.87395 29.3066 3.91626 29.3052L4.19352 29.2886L4.52258 29.256L4.91085 29.2081L6.0922 29.0388L7.86195 28.7583L8.0213 28.7221C8.35123 28.6226 8.62346 28.3814 8.76066 28.06C8.91745 27.6925 8.87609 27.2705 8.65097 26.9402L7.21414 24.8327L9.27218 23.3611L9.37063 23.2824C9.46457 23.1986 9.54461 23.1 9.60746 22.9903L12.7977 17.421L14.0835 16.0431L14.2569 15.8471C15.4294 14.448 15.7392 12.4933 15.0387 10.7934C14.6059 9.74309 13.8498 8.86864 12.9041 8.2793C13.9283 7.47411 15.0203 6.73067 16.181 6.06071C20.4393 3.60212 25.0865 2.41067 29.6848 2.36509L27.5923 4.98997L19.8328 7.71024L19.7017 7.7653C19.4479 7.89054 19.2463 8.10449 19.1373 8.36907L16.9702 13.6224L16.922 13.7645C16.8315 14.1005 16.8945 14.4625 17.0997 14.75L20.2647 19.1835L20.0951 19.3473C19.8127 19.6349 19.5303 19.9941 19.2239 20.4143L18.729 21.1092L18.4144 21.544L18.2431 21.7587L17.5947 22.4926C16.9971 23.1717 16.4036 23.8939 15.966 24.8196C14.8666 27.1468 15.0887 29.8518 16.5455 31.8789C17.9543 33.8388 20.2767 34.8352 22.7554 34.5436C23.1593 34.4963 23.5358 34.4031 23.9001 34.3129L24.1051 34.2631L24.4582 34.1849C25.0413 34.0686 25.2921 34.1041 25.5453 34.3411L25.5925 34.3864C25.691 34.4857 25.7118 34.5526 25.7136 34.8643L25.7129 35.2129C25.7146 35.4904 25.7305 35.8148 25.8179 36.1749C25.954 36.7349 26.2578 37.1605 26.557 37.5101L27.0194 38.0294C27.1177 38.1448 27.1988 38.2519 27.2333 38.3346C27.5426 39.0757 27.4762 39.537 27.2372 40.3053L27 41.0373C26.5325 42.4844 27.0525 43.9212 27.6289 45.2251L27.9853 46.0155L28.2161 46.5445C28.2868 46.7148 28.3502 46.8785 28.4026 47.034C28.5842 47.5731 28.7581 48.0405 28.9246 48.4464L29.121 48.9046C29.6355 50.0512 30.0776 50.6098 30.4655 50.9134L30.6084 51.0159L30.7465 51.0984L30.8799 51.1648C31.2119 51.3157 31.5555 51.3819 31.9026 51.3818C33.5919 51.3817 35.3546 49.8132 36.1644 48.8189C36.5065 48.3989 36.6751 47.9786 36.7759 47.6094C36.4545 46.4046 36.2294 45.1671 36.1085 43.9086C36.011 44.157 35.8828 44.3014 35.6717 44.539L35.4214 44.8292C35.2891 44.9906 35.1493 45.1793 35.0162 45.4071C34.8263 45.7321 34.7272 46.0484 34.6604 46.3309L34.5592 46.8115C34.5068 47.056 34.4605 47.1999 34.3473 47.339C34.0378 47.7189 33.4605 48.2706 32.8679 48.6471C32.3171 48.9968 31.9955 49.0446 31.886 49.0381L31.7858 48.9141L31.6701 48.7406L31.5213 48.4814C31.503 48.4473 31.484 48.4113 31.4646 48.3734L31.3407 48.1214L31.2035 47.818C31.1795 47.7629 31.155 47.7054 31.13 47.6455L30.9734 47.2565L30.8045 46.8047L30.6236 46.2858C30.4549 45.7849 30.2209 45.2694 29.9946 44.7709L29.9943 44.7704L29.8874 44.5345L29.6789 44.0625C29.3093 43.2006 29.033 42.368 29.2303 41.7577L29.3884 41.2738L29.5224 40.845C29.819 39.8429 29.9738 38.816 29.3963 37.432C29.1832 36.9211 28.844 36.5476 28.5447 36.218L28.5447 36.2179L28.5432 36.2163L28.3485 35.9983C28.2234 35.8531 28.1182 35.7147 28.0957 35.6218C28.0544 35.452 28.0557 35.256 28.0572 35.029L28.0524 34.6271C28.0266 34.0492 27.8833 33.3192 27.1475 32.6302C26.2212 31.7631 25.185 31.7062 24.3038 31.8347L23.9602 31.8944C23.9046 31.9056 23.8497 31.9171 23.7958 31.929L22.8914 32.144C22.7482 32.1752 22.6113 32.2008 22.4826 32.2159C20.8364 32.4088 19.3666 31.7877 18.449 30.5108C17.4891 29.1752 17.3498 27.3779 18.0855 25.8205C18.4416 25.0669 18.9796 24.4614 19.6026 23.7606L20.0134 23.2948C20.1505 23.1367 20.2958 22.9451 20.4476 22.7355L20.7593 22.2969L21.3047 21.542C21.545 21.2239 21.7845 20.9347 21.9244 20.8477C22.2729 20.6516 22.9282 20.5671 23.5888 20.5233L24.0805 20.4969L24.5459 20.4791L25.2249 20.4508L25.5358 20.4295L25.6987 20.4213L25.8671 20.4224L26.035 20.4316C25.9611 20.6215 25.9371 20.8299 25.9692 21.0366C26.0255 21.4002 26.2497 21.716 26.5741 21.8896C26.706 21.9602 26.8689 22.0619 27.0481 22.1786L27.8911 22.736C28.6839 23.2509 29.5403 23.7401 30.353 23.7919C31.1035 23.8406 31.5722 23.4862 31.8268 23.2456L31.9696 23.1032L32.082 23C32.1675 22.9152 32.2459 22.8126 32.3081 22.6949L33.6577 23.0698L34.0791 23.1994L34.4804 23.3384C34.7965 23.4568 35.0551 23.5801 35.1649 23.6964C35.5591 24.1143 35.8857 24.8258 36.1754 25.5459L36.5894 26.6058C36.7047 26.898 36.8201 27.1779 36.9446 27.4439L37.4217 28.4949C37.9136 29.5562 38.5231 30.6647 39.6376 31.3931C39.9934 31.6258 40.3978 31.7583 40.8027 31.8484L44.0542 30.5327C43.6338 30.0275 42.9729 29.846 42.3497 29.7359L41.7871 29.6461L41.4485 29.5879C41.2228 29.5447 41.0139 29.4925 40.92 29.4311C40.3267 29.0432 39.922 28.3105 39.5594 27.5327L38.9528 26.1938C38.9146 26.1046 38.8763 26.0118 38.8377 25.9161L38.3366 24.6381C37.9683 23.7251 37.5275 22.7851 36.8695 22.0876C36.2439 21.4247 35.1498 21.0526 34.083 20.752L33.2623 20.5275L32.8111 20.4001C32.6727 20.3589 32.5484 20.3192 32.4454 20.2812C32.2297 20.2015 31.9955 20.1871 31.7722 20.2396C31.1737 20.3799 30.8003 20.5344 30.5231 20.7566L30.4306 20.8394C30.3332 20.935 30.1966 21.0966 30.1059 21.3179C29.8199 21.1807 29.4624 20.9602 29.1482 20.7567L28.7013 20.4618C28.8236 19.9722 28.7129 19.5792 28.5969 19.3338C28.113 18.3104 26.7997 18.1026 25.9743 18.0786L25.7053 18.0767L25.4898 18.0839L24.9327 18.1187L24.07 18.1514C23.6687 18.1678 23.2455 18.191 22.8256 18.2381L22.8544 18.1577L22.9366 17.9529C23.4128 16.883 24.484 16.1783 25.6679 16.1783H26.3341L26.4707 16.1704C27.0534 16.1027 27.5059 15.6073 27.5059 15.0066C27.5059 14.3596 26.9811 13.8348 26.3341 13.8348H25.6679L25.389 13.8421C23.6313 13.9345 22.0423 14.895 21.1318 16.3647L19.3839 13.9163L21.1035 9.74802L28.6859 7.08973L28.8075 7.03926C28.9653 6.96312 29.1046 6.85229 29.2146 6.71438L32.5852 2.48637L33.0722 2.53702C41.5025 3.489 49.3925 8.28628 53.9504 16.1808C55.1878 18.324 56.1031 20.5804 56.7117 22.8881L56.2149 23.3311L56.0448 23.495C55.5005 24.0609 55.1853 24.8184 55.1721 25.6079L55.1714 25.6362L54.3621 23.4106L54.2829 23.2147C54.1683 22.9581 54.0179 22.7202 53.8344 22.5054L52.3907 20.8152L52.2456 20.6573C51.6949 20.1 50.9443 19.7844 50.1547 19.7844H48.3876L48.218 19.7928C47.6584 19.8486 47.1601 20.1783 46.8911 20.6808C46.5952 21.2337 46.6276 21.9014 46.9755 22.4231L47.1543 22.6916L46.7672 23.0116C45.7179 23.845 44.5355 24.5181 43.2855 24.9892L40.8632 20.3494V19.3143L40.8525 19.1557C40.8168 18.8943 40.6936 18.6508 40.5005 18.4668L38.3193 16.3845L38.1916 16.2788C38.1019 16.2147 38.0032 16.1633 37.8986 16.1265L35.9352 15.4365L35.8035 15.3986C35.231 15.269 34.6403 15.5867 34.4411 16.1535C34.2266 16.7641 34.5475 17.4329 35.1581 17.6475L36.8835 18.254L38.5197 19.8157V20.637L38.5282 20.7778C38.5452 20.9176 38.5873 21.0537 38.6528 21.1793L41.6853 26.9879L41.7605 27.1126C42.0607 27.5473 42.623 27.7324 43.1294 27.545L44.0124 27.2195L44.4831 27.0368C46.3542 26.2738 48.0841 25.127 49.5111 23.7002C49.906 23.3052 49.9674 22.6866 49.6575 22.2217L49.5951 22.1281H50.1547L50.2582 22.1371C50.3938 22.1608 50.518 22.231 50.6089 22.3375L52.0525 24.0277L52.1143 24.1146L52.1596 24.2114L53.6508 28.3128L55.5924 29.0976L55.6824 29.0202L56.4407 28.2619L56.6138 28.0759C57.0009 27.6286 57.2713 27.0896 57.4095 26.5001C57.5514 27.6368 57.6222 28.7783 57.6232 29.9176L59.9874 30.8727C60.1478 25.3503 58.7775 19.8551 55.9797 15.0093ZM2.65636 34.0715L5.54081 33.1343L10.3728 36.8083L10.484 36.8832C10.5992 36.9515 10.7254 36.9998 10.8574 37.0255L13.7697 37.5946L13.9251 37.6346C14.2276 37.7322 14.4789 37.9338 14.6431 38.2138C14.8347 38.5404 14.875 38.9183 14.7571 39.2782C14.5146 40.018 14.5134 40.8005 14.754 41.5407L15.1252 42.6831L15.1617 42.8202C15.2957 43.4617 14.9263 44.1167 14.2892 44.3237L13.1247 44.7021L12.9933 44.7537C12.654 44.9112 12.4074 45.2233 12.336 45.596L11.3988 50.4885L10.9278 50.0472C9.06196 48.2578 7.41618 46.178 6.06066 43.8301C4.2691 40.7274 3.14972 37.4179 2.65636 34.0715ZM10.973 9.94794C6.50914 14.1837 3.67085 19.7327 2.71917 25.6229L3.7313 26.5208L4.17699 26.9343L4.94501 26.837L5.67288 26.7324L4.63238 25.2061C4.30115 24.7202 4.38411 24.0724 4.80642 23.6842L4.91902 23.5928L7.70117 21.6034L10.8315 16.1382L10.9053 16.0251L10.9917 15.9211L12.3702 14.4442C13.0604 13.7044 13.2575 12.6218 12.8719 11.6864C12.5293 10.8547 11.8278 10.2171 10.973 9.94794ZM31.565 13.9011L31.4335 13.8634L31.3014 13.8416C30.7729 13.785 30.2551 14.0956 30.0714 14.619C29.8572 15.2298 30.1787 15.8984 30.7893 16.1126L30.8683 16.1402L30.9973 16.1774C31.0836 16.1971 31.1703 16.2066 31.2562 16.2066C31.74 16.2066 32.1928 15.9046 32.362 15.4224C32.5762 14.8116 32.2548 14.1429 31.6441 13.9288L31.565 13.9011Z" fill="#1F75AF"/>
<path fill-rule="evenodd" clip-rule="evenodd" d="M60.0759 36.7684L51.1668 33.0695C50.9436 32.9769 50.6927 32.9768 50.4696 33.0695L41.5605 36.7684C41.2212 36.9094 41 37.2406 41 37.608V42.1046C41 48.2961 44.7422 53.8655 50.4746 56.2053C50.6948 56.2952 50.9415 56.2952 51.1617 56.2053C56.894 53.8656 60.6364 48.2962 60.6364 42.1046V37.608C60.6364 37.2406 60.4152 36.9094 60.0759 36.7684ZM58.8182 42.1046C58.8182 47.368 55.7273 52.2134 50.8182 54.3762C46.0403 52.2711 42.8182 47.5107 42.8182 42.1046V38.2149L50.8182 34.8934L58.8182 38.2149V42.1046ZM53.7208 41.2615L49.8134 45.1689L47.9155 43.2711C47.5605 42.916 46.985 42.9161 46.6299 43.2711C46.2749 43.6261 46.2749 44.2017 46.6299 44.5567L49.1705 47.0974C49.5255 47.4523 50.1011 47.4524 50.4562 47.0974L55.0064 42.5471C55.3615 42.1921 55.3615 41.6165 55.0065 41.2615C54.6514 40.9064 54.0758 40.9065 53.7208 41.2615Z" fill="white"/>
</svg>
