<svg width="104" height="90" viewBox="0 0 104 90" fill="none" xmlns="http://www.w3.org/2000/svg">
<path fill-rule="evenodd" clip-rule="evenodd" d="M53.228 0.826852L80.6338 10.907C82.6813 11.6945 84.0989 13.5846 83.9416 15.9473C83.9416 18.1523 82.5241 20.1999 80.319 20.9873L69.7661 24.925V41.3054C70.3961 40.9903 70.8686 40.6753 71.3411 40.2028V28.3899C71.3411 27.445 71.9712 26.8149 72.9161 26.8149C73.861 26.8149 74.4911 27.4449 74.4911 28.3899V40.9903C74.4911 41.3054 74.3336 41.7779 74.0186 42.0929C73.0736 42.8804 71.8135 43.8254 70.5535 44.6129C72.1285 45.4006 73.0735 46.9756 73.0735 48.7081C73.0735 51.3857 71.026 53.4332 68.3484 53.4332C65.6708 53.4332 63.6233 51.3857 63.6233 48.7081C63.6233 46.6606 64.8833 44.928 66.7734 44.298V24.7674L48.3455 17.3647C46.7705 17.2073 45.5105 16.5772 45.5105 15.7897C45.5105 15.0022 46.928 14.2147 48.6606 14.2147C50.0782 14.2147 51.1806 14.6871 51.6532 15.3172L68.3486 22.0898L79.3739 17.8372C80.3188 17.5223 80.9489 16.7348 80.9489 15.7897C80.9489 14.8447 80.4764 14.2147 79.5313 14.0572L52.1256 3.97684C49.7629 3.03179 47.2429 3.18934 45.0378 3.97684L19.3646 13.7422C18.1045 14.2147 17.947 15.4746 17.947 15.7897C17.947 16.1048 18.1045 17.2073 19.3646 17.6798L46.7705 27.6026C49.133 28.3901 51.4956 28.3901 53.5431 27.6026L59.8432 25.2399C60.6307 24.925 61.5758 25.3975 61.8908 26.185C62.2057 26.9725 61.7332 27.9175 60.9457 28.2325L54.6456 30.5951C53.3856 31.2252 51.8104 31.5402 50.2355 31.5402C48.6605 31.5402 47.0855 31.2252 45.6679 30.7527L18.2621 20.6724C16.2146 19.8849 14.797 17.9948 14.797 15.7897C14.797 13.5846 16.057 11.5371 18.2621 10.7496L43.9352 0.826852C46.9279 -0.275617 50.2355 -0.275617 53.228 0.826852ZM68.3486 50.4407C69.2935 50.4407 69.9236 49.8107 69.9236 48.8657C69.9236 47.9206 69.2935 47.2905 68.3486 47.2907C67.4036 47.2907 66.7736 47.9208 66.7736 48.8657C66.7736 49.8106 67.4035 50.4407 68.3486 50.4407Z" fill="#1F75AF"/>
<path d="M60.3157 47.3015C60.1582 46.514 59.3707 45.884 58.5832 46.1989C55.433 46.9864 52.2831 47.3015 49.4479 47.3015C41.5727 47.3015 32.28 44.309 27.3973 40.2138V28.4009C27.3973 27.4559 26.7672 26.8259 25.8223 26.8259C24.8774 26.8259 24.2473 27.456 24.2473 28.4009V41.0013C24.2473 41.4738 24.4049 41.9463 24.7198 42.1038C30.8624 47.6166 41.7302 50.4517 49.4479 50.4517C52.4405 50.4517 55.9056 49.9791 59.2131 49.1916C60.0007 49.0341 60.6307 48.0892 60.3157 47.3015Z" fill="#1F75AF"/>
<path d="M89.0429 55.5955L89.3686 56.2555L90.097 56.3614L94.6646 57.0251L91.3592 60.247L90.8321 60.7607L90.9565 61.4862L91.7369 66.0355L87.6515 63.8876L87 63.545L86.3485 63.8876L82.263 66.0355L83.0431 61.4861L83.1675 60.7607L82.6405 60.247L79.3353 57.0251L83.903 56.3614L84.6313 56.2555L84.9571 55.5955L87 51.4564L89.0429 55.5955ZM80.8027 66.8032C80.8032 66.803 80.8036 66.8028 80.804 66.8025L80.803 66.8031L80.8027 66.8032ZM77.703 57.2623L77.7039 57.2622C77.7035 57.2623 77.7032 57.2623 77.7028 57.2624L77.703 57.2623ZM86.2699 49.9771L86.27 49.9773L86.2699 49.9771Z" stroke="#1B1B1B" stroke-width="2.8"/>
<path d="M74.0429 70.5955L74.3686 71.2555L75.097 71.3614L79.6646 72.0251L76.3592 75.247L75.8321 75.7607L75.9565 76.4862L76.7369 81.0355L72.6515 78.8876L72 78.545L71.3485 78.8876L67.263 81.0355L68.0431 76.4861L68.1675 75.7607L67.6405 75.247L64.3353 72.0251L68.903 71.3614L69.6313 71.2555L69.9571 70.5955L72 66.4564L74.0429 70.5955ZM65.8027 81.8032C65.8032 81.803 65.8036 81.8028 65.804 81.8025L65.803 81.8031L65.8027 81.8032ZM62.703 72.2623L62.7039 72.2622C62.7035 72.2623 62.7032 72.2623 62.7028 72.2624L62.703 72.2623ZM71.2699 64.9771L71.27 64.9773L71.2699 64.9771Z" stroke="#1B1B1B" stroke-width="2.8"/>
<path d="M52.0429 76.5955L52.3686 77.2555L53.097 77.3614L57.6646 78.0251L54.3592 81.247L53.8321 81.7607L53.9565 82.4862L54.7369 87.0355L50.6515 84.8876L50 84.545L49.3485 84.8876L45.263 87.0355L46.0431 82.4861L46.1675 81.7607L45.6405 81.247L42.3353 78.0251L46.903 77.3614L47.6313 77.2555L47.9571 76.5955L50 72.4564L52.0429 76.5955ZM43.8027 87.8032C43.8032 87.803 43.8036 87.8028 43.804 87.8025L43.803 87.8031L43.8027 87.8032ZM40.703 78.2623L40.7039 78.2622C40.7035 78.2623 40.7032 78.2623 40.7028 78.2624L40.703 78.2623ZM49.2699 70.9771L49.27 70.9773L49.2699 70.9771Z" stroke="#1B1B1B" stroke-width="2.8"/>
<path d="M30.0429 70.5955L30.3686 71.2555L31.097 71.3614L35.6646 72.0251L32.3592 75.247L31.8321 75.7607L31.9565 76.4862L32.7369 81.0355L28.6515 78.8876L28 78.545L27.3485 78.8876L23.263 81.0355L24.0431 76.4861L24.1675 75.7607L23.6405 75.247L20.3353 72.0251L24.903 71.3614L25.6313 71.2555L25.9571 70.5955L28 66.4564L30.0429 70.5955ZM21.8027 81.8032C21.8032 81.803 21.8036 81.8028 21.804 81.8025L21.803 81.8031L21.8027 81.8032ZM18.703 72.2623L18.7039 72.2622C18.7035 72.2623 18.7032 72.2623 18.7028 72.2624L18.703 72.2623ZM27.2699 64.9771L27.27 64.9773L27.2699 64.9771Z" stroke="#1B1B1B" stroke-width="2.8"/>
<path d="M15.0429 55.5955L15.3686 56.2555L16.097 56.3614L20.6646 57.0251L17.3592 60.247L16.8321 60.7607L16.9565 61.4862L17.7369 66.0355L13.6515 63.8876L13 63.545L12.3485 63.8876L8.26297 66.0355L9.0431 61.4861L9.16749 60.7607L8.64048 60.247L5.33531 57.0251L9.90301 56.3614L10.6313 56.2555L10.9571 55.5955L13 51.4564L15.0429 55.5955ZM6.80273 66.8032C6.80315 66.803 6.80358 66.8028 6.80401 66.8025L6.80296 66.8031L6.80273 66.8032ZM3.70301 57.2623L3.70392 57.2622C3.70354 57.2623 3.70317 57.2623 3.70279 57.2624L3.70301 57.2623ZM12.2699 49.9771L12.27 49.9773L12.2699 49.9771Z" stroke="#1B1B1B" stroke-width="2.8"/>
</svg>
