<svg width="90" height="90" viewBox="0 0 90 90" fill="none" xmlns="http://www.w3.org/2000/svg">
<path d="M46.1928 55.759C45.8565 55.0503 45.0087 54.748 44.2998 55.0846C43.1463 55.632 41.9369 56.0844 40.7054 56.4289C40.1902 56.5731 39.7998 56.9941 39.695 57.5188L38.1917 65.0348C38.0434 65.777 37.3863 66.3158 36.6294 66.3158H32.5286C31.7716 66.3158 31.1147 65.7772 30.9662 65.0348L29.4629 57.5188C29.358 56.9941 28.9674 56.5731 28.4525 56.4289C26.7127 55.942 25.0336 55.2463 23.4619 54.3611C22.9956 54.0984 22.4213 54.1201 21.9762 54.4168L15.5978 58.6689C14.9682 59.0887 14.1226 59.0048 13.5872 58.4698L10.6875 55.5699C10.1523 55.0346 10.0688 54.1891 10.4884 53.5593L14.7405 47.1809C15.0374 46.7357 15.059 46.1616 14.7962 45.6952C13.9108 44.1234 13.2151 42.4441 12.7283 40.7046C12.5842 40.1894 12.1632 39.799 11.6385 39.6942L4.12243 38.1909C3.38028 38.0426 2.84151 37.3855 2.84151 36.6286V32.5278C2.84151 31.7709 3.3801 31.114 4.12243 30.9654L11.6385 29.4622C12.1632 29.3572 12.5842 28.9666 12.7283 28.4518C13.2153 26.7119 13.911 25.0328 14.7962 23.4612C15.0589 22.995 15.0372 22.4207 14.7405 21.9755L10.4887 15.5978C10.0689 14.9679 10.1526 14.1226 10.6879 13.5872L13.5876 10.6875C14.1228 10.1522 14.9685 10.0687 15.5982 10.4883L21.9766 14.7405C22.4216 15.0374 22.9961 15.0588 23.4623 14.7962C25.0339 13.911 26.713 13.2152 28.4529 12.7283C28.9681 12.5842 29.3585 12.1632 29.4633 11.6385L30.9666 4.12242C31.1149 3.38027 31.772 2.8415 32.5289 2.8415H36.6297C37.3866 2.8415 38.0435 3.3801 38.1921 4.12242L39.6954 11.6385C39.8003 12.1632 40.1909 12.5842 40.7057 12.7283C42.4456 13.2152 44.1247 13.911 45.6964 14.7962C46.1627 15.0588 46.737 15.0372 47.1821 14.7405L53.5605 10.4883C54.1901 10.0686 55.0355 10.1524 55.5711 10.6875L58.4708 13.5872C59.006 14.1224 59.0895 14.9679 58.6699 15.5978L54.4178 21.9762C54.1209 22.4214 54.0992 22.9955 54.362 23.4619C55.2473 25.0335 55.943 26.7126 56.4299 28.4525C56.5741 28.9677 56.9951 29.3581 57.5198 29.4629L65.0359 30.9662C65.778 31.1145 66.3168 31.7716 66.3168 32.5285V36.6293C66.3168 37.3862 65.7782 38.0431 65.0359 38.1916L57.5198 39.6949C56.9951 39.7999 56.5741 40.1905 56.4299 40.7057C56.0768 41.9678 55.6108 43.2058 55.0448 44.3855C54.7052 45.093 55.0036 45.9418 55.7112 46.2813C56.4187 46.6211 57.2677 46.3224 57.607 45.6149C58.1178 44.5502 58.5564 43.4433 58.9151 42.3142L65.5933 40.9787C67.6585 40.5652 69.1579 38.736 69.1579 36.6291V32.5283C69.1579 30.4214 67.6585 28.5924 65.5924 28.179L58.9144 26.8434C58.4764 25.4646 57.9213 24.124 57.2561 22.841L61.034 17.174C62.2026 15.4209 61.9697 13.0672 60.4798 11.5773L57.5801 8.67762C56.09 7.1877 53.7363 6.95496 51.9834 8.12338L46.3163 11.9013C45.0333 11.2363 43.6928 10.681 42.314 10.2429L40.9784 3.56502C40.5655 1.49941 38.7363 0 36.6294 0H32.5286C30.4216 0 28.5926 1.49941 28.1792 3.56555L26.8436 10.2435C25.4648 10.6815 24.1243 11.2366 22.8412 11.9018L17.1746 8.12391C15.4217 6.95531 13.0678 7.18805 11.5779 8.67814L8.67816 11.5778C7.18841 13.0678 6.95533 15.4213 8.12392 17.1745L11.9018 22.8415C11.2368 24.1246 10.6815 25.4649 10.2435 26.8439L3.56538 28.1795C1.49942 28.5926 0 30.4218 0 32.5287V36.6295C0 38.7364 1.49942 40.5654 3.56555 40.9788L10.2435 42.3144C10.6814 43.6931 11.2367 45.0336 11.9018 46.3168L8.12392 51.9838C6.95533 53.7369 7.18824 56.0906 8.67816 57.5805L11.5779 60.4802C13.0678 61.9701 15.4215 62.2028 17.1746 61.0344L22.8416 57.2565C24.1246 57.9215 25.465 58.4768 26.844 58.9148L28.1795 65.5931C28.5926 67.6586 30.4218 69.1581 32.5287 69.1581H36.6295C38.7365 69.1581 40.5655 67.6587 40.9789 65.5926L42.3145 58.9147C43.4094 58.5668 44.4842 58.1437 45.5186 57.6526C46.2276 57.3158 46.5296 56.4681 46.1928 55.759Z" fill="#1F75AF"/>
<path d="M46.8878 42.475C47.0953 42.5816 47.3168 42.632 47.5351 42.632C48.0512 42.632 48.5492 42.3499 48.8007 41.8591C49.9468 39.624 50.5527 37.1067 50.5527 34.5791C50.5527 25.7712 43.387 18.6053 34.5789 18.6053C30.3886 18.6053 26.429 20.2159 23.4291 23.1407C22.8671 23.6884 22.8557 24.5882 23.4034 25.15C23.9512 25.7118 24.8508 25.7236 25.4128 25.1757C27.8788 22.7717 31.1339 21.4476 34.5786 21.4476C41.8194 21.4476 47.7103 27.3383 47.7103 34.5793C47.7103 36.6876 47.2262 38.7007 46.2716 40.5625C45.9137 41.2604 46.1895 42.1168 46.8878 42.475Z" fill="#1B1B1B"/>
<path d="M21.2772 28.4985C20.5349 28.2431 19.7267 28.6377 19.4713 29.3799C18.897 31.0494 18.6057 32.7988 18.6057 34.579C18.6057 43.387 25.7716 50.5527 34.5795 50.5527C37.967 50.5527 41.2035 49.5058 43.9394 47.5245C44.575 47.0642 44.7172 46.1756 44.257 45.54C43.7968 44.9043 42.908 44.7621 42.2724 45.2223C40.0245 46.8499 37.3644 47.7103 34.5793 47.7103C27.3384 47.7103 21.4476 41.8194 21.4476 34.5786C21.4476 33.1136 21.6866 31.6752 22.1584 30.304C22.4137 29.562 22.0192 28.7536 21.2772 28.4985Z" fill="#1B1B1B"/>
<path d="M87.2653 62.1063L83.1561 61.2845C82.9058 60.5397 82.6043 59.8125 82.2549 59.1096L84.5797 55.6224C85.476 54.2777 85.2975 52.4724 84.1547 51.3298L82.2492 49.4244C81.1065 48.2818 79.3012 48.103 77.9566 48.9993L74.4695 51.3242C73.7665 50.9747 73.0393 50.6733 72.2945 50.4231L71.4728 46.3139C71.1558 44.7292 69.7529 43.5791 68.137 43.5791H65.442C63.8263 43.5791 62.4232 44.7292 62.1062 46.3139L61.2845 50.4231C60.5397 50.6735 59.8125 50.9749 59.1095 51.3242L55.6224 48.9993C54.2776 48.1032 52.4724 48.2816 51.3298 49.4244L49.4243 51.3298C48.2815 52.4726 48.1029 54.2779 48.9993 55.6224L51.3241 59.1096C50.8436 60.076 50.4542 61.0881 50.1631 62.1289C49.9516 62.8848 50.393 63.6688 51.1487 63.8804C51.9046 64.0919 52.6886 63.6507 52.9002 62.8948C53.2096 61.7888 53.6518 60.7218 54.2143 59.7232C54.477 59.2569 54.4553 58.6826 54.1586 58.2375L51.3642 54.046C51.2167 53.8247 51.2461 53.5276 51.4342 53.3395L53.3397 51.4341C53.5277 51.2462 53.8248 51.217 54.0461 51.3641L58.2376 54.1585C58.6827 54.4554 59.257 54.4768 59.7233 54.2142C60.7221 53.6517 61.789 53.2095 62.895 52.9001C63.4102 52.7559 63.8006 52.3349 63.9054 51.8102L64.8931 46.8713C64.9451 46.6106 65.1761 46.4213 65.442 46.4213H68.137C68.4027 46.4213 68.6337 46.6106 68.6859 46.8713L69.6736 51.8106C69.7786 52.3353 70.1692 52.7563 70.684 52.9004C71.79 53.2098 72.857 53.6521 73.8557 54.2146C74.3218 54.4772 74.8963 54.4556 75.3414 54.1588L79.5329 51.3645C79.7542 51.217 80.0513 51.2462 80.2393 51.4344L82.1448 53.3399C82.3327 53.528 82.3621 53.825 82.2148 54.0463L79.4204 58.2379C79.1235 58.6831 79.1019 59.2572 79.3647 59.7236C79.9272 60.7223 80.3694 61.7892 80.6788 62.8952C80.8229 63.4104 81.2439 63.8008 81.7686 63.9056L86.7076 64.8933C86.9683 64.9453 87.1576 65.1763 87.1576 65.4422V68.1371C87.1576 68.4029 86.9683 68.6339 86.7076 68.6861L81.7683 69.6738C81.2436 69.7788 80.8226 70.1694 80.6784 70.6842C80.3691 71.7902 79.9268 72.8572 79.3643 73.8558C79.1017 74.3222 79.1233 74.8965 79.42 75.3415L82.2144 79.533C82.3619 79.7544 82.3325 80.0514 82.1445 80.2395L80.239 82.145C80.0511 82.3331 79.754 82.3622 79.5325 82.2149L75.341 79.4205C74.8959 79.1238 74.3215 79.1022 73.8553 79.3648C72.8565 79.9273 71.7897 80.3696 70.6837 80.679C70.1685 80.8231 69.778 81.2441 69.6733 81.7688L68.6856 86.7077C68.6335 86.9684 68.4026 87.1577 68.1366 87.1577H65.4417C65.1759 87.1577 64.9449 86.9684 64.8927 86.7077L63.905 81.7685C63.8001 81.2437 63.4095 80.8228 62.8946 80.6786C61.7886 80.3692 60.7216 79.927 59.723 79.3645C59.2566 79.1019 58.6822 79.1235 58.2373 79.4202L54.0458 82.2146C53.8245 82.3621 53.5274 82.3329 53.3393 82.1446L51.4338 80.2392C51.2459 80.0511 51.2166 79.754 51.3639 79.5327L54.1583 75.3412C54.4552 74.8959 54.4768 74.3218 54.214 73.8555C53.6515 72.8567 53.2092 71.7899 52.8999 70.6839C52.7557 70.1687 52.3347 69.7782 51.81 69.6735L46.8711 68.6858C46.6104 68.6337 46.4211 68.4028 46.4211 68.1368V65.4419C46.4211 65.1761 46.6104 64.9451 46.8711 64.8929L47.1734 64.8325C47.943 64.6785 48.4422 63.9298 48.288 63.1603C48.1341 62.3907 47.3863 61.8923 46.6157 62.0456L46.3133 62.1061C44.729 62.4232 43.5789 63.8261 43.5789 65.4421V68.137C43.5789 69.7528 44.729 71.1558 46.3137 71.4728L50.4229 72.2945C50.6732 73.0393 50.9747 73.7665 51.324 74.4695L48.9991 77.9566C48.1026 79.3014 48.2814 81.1066 49.4241 82.2492L51.3296 84.1547C52.4724 85.2974 54.2776 85.476 55.6222 84.5797L59.1093 82.2548C59.8123 82.6043 60.5395 82.9058 61.2843 83.1559L62.1061 87.2651C62.4233 88.8498 63.8263 89.9999 65.4422 89.9999H68.1371C69.7529 89.9999 71.156 88.8498 71.4729 87.2651L72.2947 83.1559C73.0395 82.9056 73.7667 82.6041 74.4697 82.2547L77.9568 84.5796C79.3015 85.4759 81.1068 85.2973 82.2494 84.1545L84.1549 82.249C85.2976 81.1063 85.4762 79.301 84.5799 77.9565L82.255 74.4693C82.6045 73.7664 82.9059 73.0392 83.1561 72.2944L87.2653 71.4726C88.8498 71.1557 90 69.7528 90 68.1368V65.4419C90.0001 63.8261 88.85 62.4232 87.2653 62.1063Z" fill="#1F75AF"/>
<path d="M66.7897 61.6737C69.6106 61.6737 71.9055 63.9686 71.9055 66.7895C71.9055 67.5744 72.5418 68.2105 73.3265 68.2105C74.1112 68.2105 74.7475 67.5742 74.7475 66.7895C74.7475 62.4015 71.1776 58.8315 66.7895 58.8315C62.4015 58.8315 58.8315 62.4015 58.8315 66.7895C58.8315 71.1775 62.4015 74.7475 66.7895 74.7475C68.5669 74.7475 70.248 74.1743 71.6515 73.09C72.2725 72.6102 72.3869 71.7177 71.9072 71.0965C71.4273 70.4755 70.5347 70.3609 69.9137 70.8407C69.0123 71.537 67.9319 71.9053 66.7895 71.9053C63.9686 71.9053 61.6738 69.6104 61.6738 66.7895C61.6739 63.9684 63.9688 61.6737 66.7897 61.6737Z" fill="#1B1B1B"/>
<path fill-rule="evenodd" clip-rule="evenodd" d="M34.5792 25.9213C39.3529 25.9213 43.2369 29.8052 43.2369 34.579C43.2369 39.3527 39.353 43.2368 34.5792 43.2368C29.8053 43.2368 25.9214 39.3529 25.9214 34.579C25.9214 29.8053 29.8053 25.9213 34.5792 25.9213ZM34.5792 28.7633C31.3725 28.7633 28.7634 31.3724 28.7634 34.579C28.7634 37.7856 31.3722 40.3947 34.5792 40.3947C37.7859 40.3947 40.3949 37.7856 40.3949 34.579C40.3949 31.3724 37.7858 28.7633 34.5792 28.7633Z" fill="#1B1B1B"/>
</svg>
