<svg width="90" height="90" viewBox="0 0 90 90" fill="none" xmlns="http://www.w3.org/2000/svg">
<path fill-rule="evenodd" clip-rule="evenodd" d="M0 45C0 20.1472 20.1472 0 45 0C69.8528 0 90 20.1472 90 45C90 69.8528 69.8528 90 45 90C20.1589 89.9719 0.028125 69.8411 0 45ZM68.5875 35.34L80.8245 23.1C77.3424 17.4281 72.5719 12.6576 66.9 9.1755L54.66 21.4125C60.972 24.015 65.985 29.028 68.5875 35.34ZM67.5 45C67.5 57.4264 57.4264 67.5 45 67.5C32.5736 67.5 22.5 57.4264 22.5 45C22.5141 32.5794 32.5794 22.5141 45 22.5C57.4264 22.5 67.5 32.5736 67.5 45ZM51.468 20.3595L64.1775 7.65C52.1451 1.44656 37.8549 1.44656 25.8225 7.65L38.532 20.3595C42.7673 19.2096 47.2327 19.2096 51.468 20.3595ZM23.1 9.1755L35.337 21.4125C29.025 24.015 24.012 29.028 21.4095 35.34L9.1755 23.1C12.6576 17.4281 17.4281 12.6576 23.1 9.1755ZM20.3595 38.532L7.65 25.8225C1.44656 37.8549 1.44656 52.1451 7.65 64.1775L9.9 61.938C7.34381 56.6569 6.01069 50.8672 6 45H9C9.00319 50.0621 10.0729 55.0669 12.1395 59.688L20.3595 51.468C19.2096 47.2327 19.2096 42.7673 20.3595 38.532ZM9.1755 66.9L21.4125 54.663C24.015 60.975 29.028 65.988 35.34 68.5905L23.1 80.8245C17.4281 77.3424 12.6576 72.5719 9.1755 66.9ZM38.532 69.6405L25.8225 82.35C37.8549 88.5534 52.1451 88.5534 64.1775 82.35L51.4665 69.6405C47.2316 70.7904 42.7669 70.7904 38.532 69.6405ZM66.9 80.8245L54.66 68.5875C60.972 65.985 65.985 60.972 68.5875 54.66L80.8245 66.9C77.3424 72.5719 72.5719 77.3424 66.9 80.8245ZM69.6405 38.529C70.7904 42.7643 70.7904 47.2298 69.6405 51.465L82.35 64.1745V64.1775C88.5534 52.1451 88.5534 37.8549 82.35 25.8225L69.6405 38.529Z" fill="#1F75AF"/>
<path d="M32.2515 8.14349L33.2355 10.9725C39.3468 8.87118 45.9092 8.44293 52.242 9.73199L52.842 6.79349C45.981 5.39849 38.8715 5.86462 32.2515 8.14349Z" fill="#1B1B1B"/>
<path d="M6.48762 38.8125C6.32562 39.8295 6.20262 40.8615 6.12012 41.88L9.11112 42.1185C9.18912 41.178 9.30012 40.224 9.45012 39.285L6.48762 38.8125Z" fill="#1B1B1B"/>
<path d="M32.1494 78.63L31.0769 81.432C32.0669 81.8115 33.0734 82.1505 34.0679 82.44L34.9079 79.5615C33.9914 79.293 33.0629 78.9795 32.1494 78.63Z" fill="#1B1B1B"/>
<path d="M37.893 80.295L37.3005 83.2365C39.8355 83.7449 42.4146 84.0006 45 84V81C42.6135 81.0006 40.2328 80.7644 37.893 80.295Z" fill="#1B1B1B"/>
<path d="M55.935 7.56006L55.092 10.4386C56.082 10.7281 57.072 11.0656 58.0335 11.4406L59.124 8.64606C58.074 8.23956 57.0075 7.87356 55.935 7.56006Z" fill="#1B1B1B"/>
</svg>
