<svg width="60" height="60" viewBox="0 0 60 60" fill="none" xmlns="http://www.w3.org/2000/svg">
<path d="M0 58.0645H1.93548V59.9999H0V58.0645Z" fill="white"/>
<path d="M58.0646 58.0645H60.0001V59.9999H58.0646V58.0645Z" fill="white"/>
<path fill-rule="evenodd" clip-rule="evenodd" d="M51.9367 47.8857L51.0985 47.3971C52.8223 47.2809 54.1936 45.8553 54.1936 44.1031V43.9614C54.1936 42.1336 52.706 40.6452 50.8773 40.6452C50.3651 40.6452 49.8515 40.7661 49.3936 40.9953L48.5081 41.4385L45.7102 39.2002C44.8209 38.489 44.1282 37.5553 43.7062 36.4992L43.0518 34.8647C42.7394 34.0817 42.5807 33.2576 42.5807 32.4146V31.7233L46.6142 30.7149L44.9537 22.4131C44.6021 20.6543 43.3173 19.2424 41.5983 18.7268L34.8387 16.6992V14.4098C36.0337 13.1874 36.7742 11.5179 36.7742 9.67836V6.77419C36.7742 3.03884 33.7344 0 30 0C26.2656 0 23.2258 3.03884 23.2258 6.77419V9.67742C23.2258 11.5179 23.9663 13.1874 25.1613 14.4089V16.6983L18.4017 18.7268C16.6841 19.2414 15.3979 20.6543 15.0463 22.4131L13.3858 30.7149L17.4194 31.7233V32.4146C17.4194 33.2576 17.2606 34.0817 16.9482 34.8638L16.2938 36.4982C15.8709 37.5543 15.1791 38.4881 14.2898 39.1992L11.4919 41.4376L10.6064 40.9944C10.1476 40.7661 9.6349 40.6452 9.12267 40.6452C7.29398 40.6452 5.80646 42.1336 5.80646 43.9614V44.1031C5.80646 45.8553 7.17774 47.2809 8.90153 47.3971L8.06326 47.8857C6.07344 49.0463 4.83871 51.1972 4.83871 53.4999C4.83871 55.2775 5.55696 56.8898 6.71797 58.0645H3.87097V60H56.129V58.0645H53.282C54.443 56.8898 55.1613 55.2775 55.1613 53.4999C55.1613 51.1972 53.9266 49.0463 51.9367 47.8857ZM37.1083 51.5238L35.1898 50.3727L35.8065 49.7555V48.5043C35.8065 47.9061 36.2932 47.4194 36.8914 47.4194C37.6867 47.4194 38.4649 47.0971 39.0272 46.5348L40.7283 44.8337C40.9306 44.6324 41.2103 44.5161 41.4957 44.5161C42.0939 44.5161 42.5807 45.0028 42.5807 45.6011C42.5807 45.8912 42.4682 46.1634 42.2631 46.3684L37.1083 51.5238ZM17.4194 45.6011C17.4194 45.8912 17.5318 46.1634 17.7369 46.3684L24.1936 52.8251L25.7283 51.2903L24.1936 49.7555V48.5043C24.1936 47.9061 23.7068 47.4194 23.1086 47.4194C22.3134 47.4194 21.5351 47.0971 20.9728 46.5348L19.2717 44.8337C19.0694 44.6324 18.7897 44.5161 18.5043 44.5161C17.9061 44.5161 17.4194 45.0028 17.4194 45.6011ZM27.0968 49.9219L26.129 48.9541V48.5043C26.129 46.8386 24.7743 45.4839 23.1086 45.4839C22.8232 45.4839 22.5435 45.3676 22.3412 45.1663L20.6401 43.4652C20.4166 43.2417 20.1525 43.0673 19.8727 42.9251C20.2838 42.6463 20.6534 42.3165 20.9671 41.9333C22.5222 42.7947 26.1153 44.5161 30 44.5161C33.8847 44.5161 37.4778 42.7947 39.0329 41.9342C39.3467 42.3174 39.7162 42.6463 40.1273 42.9251C39.8475 43.0673 39.5834 43.2417 39.3599 43.4652L37.6588 45.1663C37.4565 45.3676 37.1768 45.4839 36.8914 45.4839C35.2257 45.4839 33.871 46.8386 33.871 48.5043V48.9541L33.4792 49.3463L29.8502 47.1689L27.0968 49.9219ZM23.2258 30.6549V33.0426C23.2258 34.774 22.9886 36.4751 22.5572 38.136L22.105 40.3451C23.5915 41.1399 26.7339 42.5806 30 42.5806C33.4386 42.5806 36.7227 40.9963 38.1039 40.2341C37.2311 37.9267 36.7742 35.5121 36.7733 33.0417V30.6493C36.7534 30.674 36.7335 30.6987 36.7135 30.7233C36.7947 29.3665 36.6498 27.9778 36.609 27.6261C37.3716 26.4963 38.0482 25.3089 38.6293 24.0773L38.7097 23.9402V27.9379V30.696L44.3536 29.2851L43.057 22.792C42.9166 22.0908 42.5131 21.4992 41.9664 21.0782L41.9486 21.1226C41.6607 20.8496 41.3319 20.6799 41.3319 20.6799L40.1792 20.3318L40.1826 20.3235L37.2283 19.4371C37.2276 19.4381 37.227 19.4391 37.2263 19.4401L35.2867 18.8544L34.1157 18.5033C33.3573 19.1507 31.7469 20.3226 30 20.3226C28.2531 20.3226 26.6427 19.1507 25.8843 18.5033L18.957 20.582C17.9273 20.8906 17.1552 21.7383 16.944 22.7934L15.6464 29.2851L21.2903 30.696V25.1613H23.2258V28.5649L23.2959 30.6269L23.2258 30.6549ZM44.5015 40.7099C43.3518 39.7918 42.4559 38.584 41.9092 37.2174L41.2547 35.5829C40.8502 34.5708 40.6452 33.5052 40.6452 32.4146V32.2072L38.7097 32.6911V33.0426C38.7097 35.3944 39.1529 37.6947 40.0257 39.8797C40.2979 40.5601 40.8011 41.1309 41.4404 41.4863L48.6375 45.4839H50.8773C51.6386 45.4839 52.2581 44.8644 52.2581 44.1031V43.9614C52.2581 43.2001 51.6386 42.5806 50.8773 42.5806C50.6642 42.5806 50.4502 42.6307 50.2607 42.7257L48.2671 43.7227L44.5015 40.7099ZM30 18.3871C31.0575 18.3871 32.2733 17.5328 32.9032 16.9917V15.7887C32.0215 16.2087 31.0396 16.4516 30 16.4516C28.9604 16.4516 27.9785 16.2087 27.0968 15.7887V16.9917C27.7267 17.5328 28.9425 18.3871 30 18.3871ZM25.1613 6.77419C25.1613 4.10629 27.3321 1.93548 30 1.93548C32.6679 1.93548 34.8387 4.10629 34.8387 6.77419V9.67742C34.8387 12.3453 32.6679 14.5161 30 14.5161C27.3321 14.5161 25.1613 12.3453 25.1613 9.67742V6.77419ZM7.74194 43.9614C7.74194 43.2001 8.36143 42.5806 9.12267 42.5806C9.33673 42.5806 9.54984 42.6307 9.74121 42.7267L11.7348 43.7237L15.5004 40.7108C16.6501 39.7918 17.5451 38.584 18.0927 37.2184L18.7472 35.5829C19.1517 34.5717 19.3567 33.5052 19.3567 32.4146V32.2072L21.2922 32.6911V33.0426C21.2922 35.3944 20.849 37.6947 19.9772 39.8787C19.704 40.5601 19.2008 41.13 18.5615 41.4863L11.3625 45.4839H9.12267C8.36143 45.4839 7.74194 44.8644 7.74194 44.1031V43.9614ZM6.7742 53.4999C6.7742 56.0166 8.82214 58.0645 11.3388 58.0645H26.1569C26.4669 58.0645 26.7745 58.0489 27.0812 58.022C26.3195 57.5343 25.6017 56.9701 24.9463 56.3147L16.3685 47.7369C15.843 47.2105 15.5467 46.5234 15.5023 45.7868L9.03856 49.5571C7.64129 50.3717 6.7742 51.8824 6.7742 53.4999ZM33.8431 58.0645C30.9999 58.0645 28.3258 56.9574 26.3157 54.9463L25.562 54.1936L30.1498 49.6053L36.1547 53.2083L39.1789 55.0228L40.175 53.3633L38.8179 52.5491L43.6306 47.7369C44.157 47.2114 44.4523 46.5234 44.4968 45.7868L50.9605 49.5571C52.3568 50.3717 53.2249 51.8824 53.2249 53.4999C53.2258 56.0166 51.1779 58.0645 48.6612 58.0645H33.8431Z" fill="#1F75AF"/>
</svg>
