<svg width="84" height="84" viewBox="0 0 84 84" fill="none" xmlns="http://www.w3.org/2000/svg">
<path fill-rule="evenodd" clip-rule="evenodd" d="M74.9174 41.7578C76.2789 41.7586 77.4484 42.728 77.705 44.0686L83.9221 76.0683C84.1645 77.3216 83.8349 78.6179 83.0237 79.6021C82.2126 80.5862 81.0048 81.1549 79.7315 81.1524H50.0818C48.8719 83.1186 45.333 83.9999 42.0001 83.9999C38.6317 83.9999 35.0588 83.0972 33.883 81.1524H4.26883C2.99514 81.155 1.78711 80.5861 0.975887 79.6016C0.164661 78.6171 -0.164661 77.3204 0.0781924 76.0669L6.29669 44.0586C6.55562 42.7208 7.72365 41.7545 9.08287 41.7536H11.8321L12.0338 40.5377C12.2386 39.3161 13.2034 38.3648 14.4252 38.18C14.6439 38.1477 14.8706 38.118 15.0988 38.088L15.0989 38.088L15.099 38.088L15.0991 38.088L15.0993 38.088C15.2533 38.0678 15.4079 38.0475 15.5612 38.0263C14.5048 34.7141 15.0058 31.1003 16.9231 28.2025C16.8331 27.8039 16.7855 27.3968 16.7811 26.9881C16.7824 24.6303 18.1931 22.503 20.3611 21.5893C20.4931 19.4378 21.594 17.4634 23.3527 16.2236C25.1115 14.9838 27.3372 14.6133 29.4013 15.2167C31.2601 12.8136 34.1188 11.4022 37.152 11.3897C39.0345 11.3916 40.8762 11.94 42.4546 12.9686C43.7075 11.7835 45.4225 11.2208 47.1319 11.434C48.8412 11.6471 50.3665 12.6139 51.2917 14.0706C51.3497 14.0688 51.4062 14.0643 51.463 14.0598C51.5382 14.0538 51.6141 14.0478 51.695 14.0478C57.485 14.0828 62.4365 18.2307 63.5 23.937C65.1635 24.2925 66.588 25.3608 67.3981 26.8602C68.2081 28.3596 68.3223 30.1395 67.7105 31.7305C68.8685 33.6298 69.2548 35.9023 68.7898 38.0789C68.8927 38.0931 68.9963 38.1061 69.1 38.119C69.2669 38.1399 69.4343 38.1608 69.6007 38.1871C70.8161 38.3786 71.7724 39.3293 71.9736 40.5463L72.1752 41.7578H74.9174ZM19.7293 26.1898C19.3721 27.4902 19.9224 28.87 21.0754 29.565V29.5593C21.7363 29.9698 21.9452 30.8368 21.544 31.5044C21.1428 32.1721 20.2807 32.3922 19.6099 31.9982C19.2257 31.7596 18.871 31.4762 18.5533 31.1539C17.2813 34.1459 17.78 37.5994 19.8461 40.1068C21.9123 42.6143 25.201 43.757 28.3717 43.0691C28.2908 42.5987 28.2476 42.1226 28.2425 41.6454C25.7387 41.3733 23.8395 39.257 23.8332 36.7321C23.8316 35.9423 24.4655 35.2991 25.2532 35.2913C25.6279 35.2871 25.9887 35.4332 26.2554 35.6971C26.5221 35.961 26.6726 36.3208 26.6733 36.6965V36.7321C26.6912 37.8547 27.5729 38.7717 28.6912 38.8307C28.8922 38.1911 29.1647 37.5764 29.5035 36.9983C29.765 36.5606 30.2396 36.2961 30.7485 36.3043C31.2573 36.3125 31.7231 36.5923 31.9704 37.0382C32.2177 37.4842 32.209 38.0285 31.9474 38.4662C30.333 41.1767 31.0495 44.6744 33.5989 46.5275C36.1482 48.3806 39.6869 47.9759 41.7545 45.5948C42.1474 45.1374 42.7854 44.9782 43.3464 45.1976C44.8404 45.7915 46.4502 46.035 48.0525 45.9094C48.8842 45.8547 49.7067 45.7032 50.5035 45.4581C50.9886 45.3086 51.5163 45.4298 51.888 45.7762C52.2597 46.1225 52.4188 46.6414 52.3055 47.1372C52.1922 47.6331 51.8236 48.0307 51.3385 48.1803C50.6265 48.3913 49.8984 48.5437 49.1616 48.6359C49.6643 49.6382 50.8486 50.5593 53.9174 51.5901C55.534 52.1051 56.9742 53.0645 58.0739 54.3593C58.5124 54.9068 59.254 55.1066 59.9072 54.8533C60.4719 54.6121 60.8385 54.0563 60.8388 53.441C60.8388 53.2847 60.8138 53.1295 60.765 52.9811C60.4981 52.1313 60.1431 51.312 59.7056 50.5366C58.8962 50.8766 58.0511 51.124 57.1864 51.2741C57.1117 51.2854 57.0362 51.2911 56.9606 51.2911C56.2217 51.2884 55.6084 50.7181 55.5502 49.9796C55.492 49.2411 56.0084 48.5812 56.7376 48.4622C59.0819 48.0795 61.1821 46.7884 62.5855 44.8673C60.4036 45.5293 58.0501 45.3111 56.0262 44.2593C55.4279 43.948 54.8691 43.5656 54.3619 43.1204C53.795 43.3486 53.1905 43.4679 52.5797 43.472C50.7035 43.4771 48.9876 42.4126 48.1547 40.7271C47.9277 40.2721 47.96 39.7302 48.2395 39.3056C48.519 38.881 49.0032 38.6381 49.5098 38.6685C50.0163 38.6989 50.4682 38.9978 50.6952 39.4528C50.9776 39.9914 51.4744 40.3847 52.0625 40.535C52.6505 40.6854 53.2745 40.5788 53.7796 40.2416C54.6398 39.6408 54.9311 38.4989 54.4641 37.5578C54.2358 37.1034 54.2667 36.5613 54.5451 36.1358C54.8235 35.7104 55.3072 35.4661 55.8139 35.4952C56.3207 35.5242 56.7735 35.822 57.0018 36.2765C57.8173 37.8867 57.6729 39.8178 56.6269 41.288C56.8454 41.4477 57.0751 41.5914 57.3142 41.718C59.7553 42.9377 62.7065 42.3947 64.5566 40.3854L64.5906 40.3498C66.0657 38.6968 66.5261 36.3698 65.792 34.2776C65.4632 34.5367 65.1076 34.7596 64.7312 34.9425C64.543 35.0318 64.3374 35.078 64.1291 35.0777C63.4698 35.0712 62.9016 34.6106 62.7574 33.9655C62.6131 33.3205 62.9307 32.6607 63.5242 32.3726C64.0901 32.106 64.5599 31.6704 64.869 31.1254C65.5608 29.8914 65.2984 28.3405 64.2394 27.4041C63.1805 26.4678 61.6129 26.4006 60.4781 27.2429C60.0722 27.5481 59.5348 27.613 59.0682 27.4132C58.6017 27.2134 58.2769 26.7792 58.2162 26.2743C58.1555 25.7693 58.3682 25.2702 58.774 24.965C59.3268 24.5511 59.9492 24.24 60.6116 24.0467C59.6873 20.0688 56.2681 17.171 52.2019 16.9195C52.2045 16.968 52.2112 17.0154 52.2178 17.0627V17.0627V17.0627V17.0628V17.0628V17.0629V17.0629V17.0629V17.0629C52.2262 17.1224 52.2346 17.1816 52.2346 17.2427C52.2346 18.029 51.5988 18.6664 50.8145 18.6664C50.0302 18.6664 49.3945 18.029 49.3945 17.2427C49.3945 15.5887 48.0571 14.2478 46.4073 14.2478C44.7576 14.2478 43.4202 15.5887 43.4202 17.2427C43.4202 18.029 42.7844 18.6664 42.0001 18.6664C41.2159 18.6664 40.5801 18.029 40.5801 17.2427C40.5882 16.6063 40.7009 15.9757 40.9138 15.3762C39.7965 14.6388 38.4896 14.2431 37.152 14.2372C34.6944 14.2482 32.4218 15.5483 31.1621 17.6641C30.8347 18.2209 30.5866 18.8208 30.4251 19.4466C30.2158 20.1918 29.4508 20.6327 28.7031 20.4391C27.9555 20.2455 27.4991 19.4884 27.6759 18.7347C27.7603 18.4328 27.8598 18.1354 27.9741 17.8435C27.803 17.8144 27.6304 17.7953 27.4572 17.7865C25.4238 17.7921 23.6701 19.2195 23.2467 21.2134C24.8484 21.3727 26.3097 22.1993 27.274 23.4914C27.5764 23.8999 27.6384 24.439 27.4368 24.9058C27.2352 25.3725 26.8005 25.696 26.2965 25.7543C25.7925 25.8126 25.2957 25.5969 24.9934 25.1885C24.4368 24.4271 23.5506 23.9784 22.6091 23.9812C21.2637 23.9865 20.0865 24.8893 19.7293 26.1898ZM16.4382 40.7825L16.4386 40.7824L16.8294 40.7313C19.455 44.9379 24.4766 46.9805 29.2834 45.797C30.5749 48.2546 32.935 49.9684 35.6667 50.4326C38.3985 50.8968 41.19 50.0583 43.2171 48.1646C44.1822 48.4532 45.1761 48.6337 46.1808 48.7028C46.8667 51.3111 48.8491 52.8914 53.0142 54.2909C54.137 54.6438 55.1387 55.3053 55.9055 56.2002C56.7579 57.2165 58.0119 57.8071 59.3364 57.8161C59.9156 57.8159 60.4889 57.6987 61.022 57.4715C62.6317 56.7818 63.676 55.196 63.6761 53.441C63.6774 52.9833 63.6045 52.5284 63.4603 52.0941C63.1409 51.0882 62.7203 50.1174 62.2049 49.1968C64.6197 47.4564 66.3019 44.8772 66.9238 41.9614C67.2263 41.6012 67.4998 41.2175 67.7418 40.8139C67.8463 40.8274 67.9509 40.8405 68.0555 40.8536C68.4268 40.9002 68.7984 40.9468 69.1718 41.009L74.2983 71.9238C64.2775 68.5691 53.4409 68.5691 43.4202 71.9238V54.1016C43.4202 53.3153 42.7844 52.6778 42.0001 52.6778C41.2159 52.6778 40.5801 53.3153 40.5801 54.1016V71.9295C30.5605 68.5717 19.7241 68.5677 9.70202 71.9181L14.8271 41.0018C15.3547 40.9238 15.8962 40.8532 16.4382 40.7825L16.4382 40.7825L16.4382 40.7825ZM2.86437 76.6136C2.78487 77.0279 2.89426 77.4561 3.16259 77.781C3.43444 78.113 3.84042 78.3053 4.26882 78.305H33.5962L34.0193 73.144C26.1996 71.664 18.1344 72.177 10.564 74.636C9.62176 74.9317 8.59401 74.7174 7.8475 74.0695C7.10099 73.4217 6.74206 72.4327 6.8988 71.4554L11.355 44.6053H9.08287L2.86437 76.6136ZM42.0001 81.1524C38.5792 81.1524 36.6166 80.1387 36.3284 79.6874L36.8169 73.7789C38.3784 74.1687 39.9064 74.6824 41.3867 75.3151C41.5781 75.4076 41.7876 75.4562 42.0001 75.4575C42.2132 75.4572 42.4234 75.4085 42.615 75.3151C44.0944 74.6787 45.622 74.1617 47.1834 73.769L47.6719 79.686C47.3836 80.1387 45.4211 81.1524 42.0001 81.1524ZM79.7314 78.305C80.1599 78.3053 80.5658 78.113 80.8377 77.781C81.1079 77.4564 81.2189 77.0275 81.1402 76.6122L74.9202 44.6067H72.6481L77.1001 71.4511C77.2585 72.4268 76.9025 73.4152 76.1588 74.0642C75.4152 74.7133 74.3897 74.9306 73.4476 74.6389C65.8751 72.1745 57.8064 71.6571 49.9824 73.134L50.4084 78.305H79.7314Z" fill="#1F75AF"/>
<path fill-rule="evenodd" clip-rule="evenodd" d="M43.42 1.42373V2.84746C43.42 3.63376 42.7842 4.27119 42 4.27119C41.2157 4.27119 40.5799 3.63376 40.5799 2.84746V1.42373C40.5799 0.637425 41.2157 0 42 0C42.7842 0 43.42 0.637425 43.42 1.42373ZM33.7635 29.3288C33.7635 28.3471 34.1525 27.4055 34.845 26.7113C35.5374 26.0171 36.4765 25.6271 37.4557 25.6271C38.24 25.6271 38.8758 24.9897 38.8758 24.2034C38.8758 23.4171 38.24 22.7797 37.4557 22.7797C33.8496 22.7836 30.9273 25.7134 30.9234 29.3288C30.9234 29.7064 31.073 30.0685 31.3393 30.3355C31.6056 30.6025 31.9668 30.7525 32.3435 30.7525C33.1278 30.7525 33.7635 30.1151 33.7635 29.3288ZM37.2938 32.2973C36.7125 32.8246 36.6674 33.7245 37.193 34.3076C38.3977 35.6411 39.9897 36.5614 41.7443 36.9386C40.9497 38.0613 39.661 38.7275 38.2879 38.7254C37.5036 38.7254 36.8678 39.3629 36.8678 40.1492C36.8678 40.9355 37.5036 41.5729 38.2879 41.5729C41.2277 41.5846 43.8654 39.7643 44.904 37.007C48.4351 36.4203 51.2306 33.6953 51.9149 30.1731C52.0206 29.6693 51.8468 29.1475 51.4604 28.8085C51.0739 28.4695 50.535 28.366 50.051 28.538C49.567 28.7099 49.2132 29.1304 49.1259 29.6378C48.8474 31.1062 48.0024 32.4052 46.7742 33.2526C44.4116 34.848 41.2429 34.4859 39.299 32.3984C38.773 31.8156 37.8755 31.7703 37.2938 32.2973ZM65.3033 10.2167L63.8833 11.6404C63.5141 11.9979 63.3661 12.5272 63.496 13.025C63.626 13.5228 64.0137 13.9115 64.5102 14.0418C65.0067 14.1721 65.5347 14.0237 65.8912 13.6536L67.3113 12.2298C67.6805 11.8724 67.8285 11.343 67.6986 10.8452C67.5686 10.3475 67.1809 9.95872 66.6844 9.82843C66.1879 9.69814 65.6599 9.84657 65.3033 10.2167ZM20.4243 13.1918C20.2046 13.7237 19.6869 14.0706 19.1127 14.0707C18.7361 14.0706 18.3749 13.9206 18.1087 13.6536L16.6886 12.2298C16.3194 11.8724 16.1714 11.343 16.3013 10.8452C16.4313 10.3475 16.819 9.95872 17.3155 9.82843C17.812 9.69814 18.34 9.84657 18.6966 10.2167L20.1166 11.6404C20.5227 12.0476 20.6441 12.6598 20.4243 13.1918ZM30.0444 8.07966C30.2309 8.07926 30.4157 8.04251 30.5883 7.97146C30.9363 7.82691 31.2128 7.54962 31.3569 7.20062C31.501 6.85163 31.5009 6.45953 31.3565 6.11064L29.7249 2.16407C29.5379 1.68338 29.1063 1.34168 28.5966 1.27092C28.0868 1.20015 27.5788 1.41139 27.2686 1.82306C26.9585 2.23474 26.8947 2.78243 27.102 3.25464L28.7322 7.20122C28.9522 7.73311 29.4701 8.07981 30.0444 8.07966ZM54.2751 2.16407C54.5753 1.43817 55.4054 1.09343 56.1297 1.39383C56.4781 1.53837 56.7549 1.8159 56.899 2.16523C57.0431 2.51456 57.0427 2.90701 56.8979 3.25607L55.2677 7.20264C55.0477 7.73454 54.5299 8.08123 53.9555 8.08108C53.769 8.08068 53.5842 8.04393 53.4117 7.97288C53.0632 7.82834 52.7865 7.55082 52.6423 7.20148C52.4982 6.85215 52.4986 6.4597 52.6434 6.11064L54.2751 2.16407ZM70.8629 25.032C71.0496 25.0317 71.2345 24.9944 71.4068 24.9224L75.3418 23.2879C75.8106 23.0934 76.1403 22.6629 76.2066 22.1586C76.2729 21.6542 76.0659 21.1528 75.6634 20.843C75.261 20.5333 74.7243 20.4623 74.2555 20.6569L70.319 22.2913C69.6909 22.55 69.3333 23.2184 69.4658 23.8861C69.5983 24.5538 70.1838 25.0341 70.8629 25.032ZM14.4491 24.1521C14.1488 24.8787 13.3178 25.2235 12.5931 24.9224L8.65809 23.2879C7.93341 22.9872 7.58913 22.1544 7.88912 21.4278C8.18911 20.7013 9.01976 20.3561 9.74444 20.6569L13.6809 22.2913C14.4056 22.5925 14.7495 23.4256 14.4491 24.1521Z" fill="#1B1B1B"/>
</svg>
