<svg width="83" height="76" viewBox="0 0 83 76" fill="none" xmlns="http://www.w3.org/2000/svg">
<path fill-rule="evenodd" clip-rule="evenodd" d="M23.4565 33.307L24.604 30.4663L17.0321 30.5313C16.1465 30.6351 15.2298 30.7551 14.2476 30.9019C13.0401 31.0837 12.0862 32.0199 11.8833 33.2226L11.684 34.4193H8.9745L8.80045 34.4248C7.53279 34.5036 6.4662 35.4286 6.22148 36.6881L0.0769893 68.193L0.0386862 68.4247C-0.119935 69.5849 0.213221 70.7631 0.964641 71.6712C1.76616 72.6399 2.95951 73.1997 4.21775 73.1972H33.4795L33.5953 73.3737C34.8618 75.1661 38.2757 75.9999 41.5 75.9999C44.7932 75.9999 48.2899 75.1325 49.4854 73.1972H78.7822L79.0173 73.1911C80.1881 73.1281 81.2839 72.5793 82.0354 71.6712C82.8369 70.7026 83.1625 69.4266 82.923 68.193L76.7785 36.6951L76.7403 36.5252C76.4237 35.2956 75.3114 34.4234 74.0255 34.4221H71.3146L71.1167 33.2296L71.081 33.0515C70.8201 31.9373 69.9064 31.0832 68.7622 30.9061L68.1529 30.8172C67.6702 30.7484 65.6992 30.6861 63.8848 30.6288C62.391 30.5815 61.0034 30.5377 60.6398 30.4963L58.456 33.2953L60.2978 33.2772L66.4758 33.4208C67.0763 33.4978 67.6966 33.5841 68.3483 33.685L73.4137 64.1137L72.8065 63.9156C63.0757 60.8123 52.6024 60.8783 42.9032 64.1137V61.9865L42.8967 61.8515C42.8288 61.1409 42.2294 60.5851 41.5 60.5851C40.7251 60.5851 40.0968 61.2125 40.0968 61.9865V64.1193L39.477 63.917C29.7507 60.8153 19.2827 60.8788 9.58628 64.1081L14.6559 33.6794L15.2431 33.593C15.6613 33.5332 17.8274 33.4786 19.8383 33.428C21.54 33.3852 23.1306 33.3451 23.4565 33.307ZM42.736 67.1915C44.0013 66.6856 45.3 66.2664 46.623 65.9369L47.1043 71.7524L47.0704 71.7989C46.6899 72.2649 44.7676 73.1972 41.5 73.1972C38.1198 73.1972 36.1792 72.1995 35.8957 71.7552L36.377 65.9397L37.0363 66.1118C38.3507 66.4708 39.6395 66.9185 40.8938 67.4517L41.0402 67.5119C41.3876 67.6322 41.7708 67.6121 42.1062 67.4517L42.736 67.1915ZM71.7818 37.2262L76.1808 63.6485C76.3363 64.6083 75.9844 65.5802 75.2503 66.2187C74.5161 66.8572 73.5038 67.0718 72.5732 66.7861C65.3162 64.4396 57.6 63.8933 50.0906 65.1892L49.3872 65.3161L49.8082 70.3945H78.7822C79.2054 70.3958 79.6065 70.2063 79.8739 69.8788C80.1068 69.5994 80.2191 69.2416 80.1908 68.8832L80.17 68.7297L74.0241 37.2276L71.7818 37.2262ZM8.9745 37.2248H11.2196L6.81782 63.6513L6.79381 63.8437C6.71306 64.7413 7.06809 65.6284 7.75618 66.2235C8.49341 66.861 9.50825 67.0728 10.4394 66.7833C17.9195 64.364 25.8881 63.8595 33.6142 65.3161L33.196 70.3945H4.21775L4.07767 70.388C3.70713 70.352 3.36379 70.1699 3.12608 69.8788C2.8599 69.5595 2.75123 69.1377 2.83001 68.7297L8.9745 37.2248Z" fill="#1F75AF"/>
<path fill-rule="evenodd" clip-rule="evenodd" d="M70.1947 0H70.2077C71.7532 0 73 1.25349 73 2.79993C73 2.93995 72.9897 3.07713 72.9701 3.21157C72.7844 5.43294 71.0234 21.503 58.1533 34.0852C43.6922 48.2224 32.4012 50.3336 26.9587 50.3336C24.9998 50.3336 23.8492 50.0574 23.6383 50.0014C23.6219 49.9971 23.607 49.9893 23.5921 49.9815C23.5781 49.9741 23.5641 49.9667 23.5487 49.9622C21.0739 53.143 19.6059 55.3168 19.5658 55.3765C19.2961 55.7816 18.8519 56 18.3993 56C18.1324 56 17.8627 55.9234 17.6238 55.7648C16.9799 55.3355 16.8063 54.4656 17.2356 53.8235C17.4083 53.5649 19.0041 51.1989 21.6311 47.837C21.6237 47.8014 21.6125 47.7672 21.6013 47.7329C21.5858 47.6854 21.5702 47.6378 21.5648 47.5869C21.5294 47.2518 20.7548 39.2504 25.4545 28.3761C29.2769 19.531 38.0482 12.1996 40.6453 10.1631C41.5122 9.48363 42.5061 9.12429 43.5215 9.12429C45.0305 9.12429 46.24 9.85228 47.2385 10.8575C47.5484 7.82223 48.0224 6.0592 49.5268 5.13704C56.4997 0.862427 69.1486 0.0560074 70.008 0.00557887C70.0659 0.00185962 70.1237 0 70.1826 0H70.1844H70.1853H70.1937H70.1947ZM26.957 47.5337C31.6277 47.5337 42.2477 45.7174 56.1946 32.0833C69.143 19.4245 70.193 2.80004 70.193 2.80004C70.193 2.80004 57.5367 3.51217 50.9892 7.52359C50.2413 7.98232 50.0155 10.9518 49.8148 13.5915C49.6516 15.7376 49.505 17.6658 49.1078 17.8491C49.0734 17.865 49.0378 17.8724 49.0005 17.8724C48.598 17.8724 48.0499 16.9596 47.383 15.8491C46.3476 14.1248 45.0259 11.9239 43.5189 11.9233C43.1474 11.9233 42.7638 12.0577 42.371 12.3657C40.1181 14.1326 31.596 21.2175 28.0227 29.4868C25.1969 36.0267 24.4784 41.4176 24.33 44.4976C29.1995 38.6567 36.1837 31.2732 44.13 25.9597C44.7712 25.5332 45.6391 25.703 46.0711 26.3452C46.5023 26.9874 46.3277 27.8572 45.6857 28.2893C37.5592 33.7232 30.3194 41.6032 25.5329 47.4655C25.9248 47.5028 26.3765 47.5337 26.957 47.5337Z" fill="#1F75AF"/>
<path d="M36.4075 28.0564C36.5805 27.9861 36.738 27.8824 36.8708 27.751L39.907 24.7615C40.2687 24.4055 40.4131 23.8828 40.2857 23.3904C40.1583 22.898 39.7784 22.5106 39.2893 22.3742C38.8001 22.2377 38.2759 22.373 37.9141 22.729L34.8766 25.719C34.3911 26.1942 34.3099 26.9478 34.6829 27.5173C35.0559 28.0868 35.7787 28.3127 36.4075 28.0564Z" fill="#1B1B1B"/>
<path d="M62.396 9.16035C62.4933 12.2325 61.1921 15.1833 58.8572 17.1858C58.4317 17.4813 58.2038 17.987 58.2648 18.5011C58.3257 19.0152 58.6654 19.4538 59.1483 19.642C59.6311 19.8301 60.1785 19.737 60.5719 19.4C63.5929 16.8599 65.2962 13.0877 65.2024 9.14494C65.2024 8.371 64.5742 7.7436 63.7992 7.7436H63.7908C63.4174 7.74581 63.0603 7.89655 62.7985 8.16245C62.5368 8.42835 62.3919 8.78748 62.396 9.16035Z" fill="#1B1B1B"/>
</svg>
