<svg width="83" height="84" viewBox="0 0 83 84" fill="none" xmlns="http://www.w3.org/2000/svg">
<path d="M26.0649 39.3211C25.9676 36.2489 27.2688 33.2981 29.6037 31.2956C30.0293 31.0001 30.2571 30.4944 30.1962 29.9803C30.1353 29.4663 29.7956 29.0276 29.3127 28.8395C28.8298 28.6514 28.2824 28.7444 27.889 29.0815C24.868 31.6215 23.1648 35.3937 23.2586 39.3365C23.2586 40.1104 23.8868 40.7379 24.6617 40.7379H24.6702C25.0435 40.7356 25.4006 40.5849 25.6624 40.319C25.9242 40.0531 26.069 39.694 26.0649 39.3211Z" fill="#1B1B1B"/>
<path d="M53.6496 31.2867C56.0655 33.1869 57.4896 36.0804 57.5227 39.1562C57.4755 39.6722 57.7165 40.1718 58.1495 40.4555C58.5824 40.7393 59.1368 40.761 59.5913 40.512C60.0458 40.2631 60.3264 39.7839 60.321 39.2659C60.3171 35.319 58.5223 31.5895 55.4416 29.127C54.8488 28.6295 53.9643 28.7074 53.4662 29.3011L53.4608 29.3075C53.2225 29.595 53.1084 29.9654 53.1439 30.3369C53.1793 30.7083 53.3613 31.0501 53.6496 31.2867Z" fill="#1B1B1B"/>
<path fill-rule="evenodd" clip-rule="evenodd" d="M4.21775 81.1973H33.4795C34.6413 83.1115 38.1717 84 41.5 84C44.7932 84 48.2899 83.1326 49.4854 81.1973H78.7822C80.0405 81.1998 81.2338 80.64 82.0354 79.6713C82.8369 78.7027 83.1625 77.4268 82.923 76.1931L76.7785 44.6952C76.5244 43.3768 75.3699 42.4235 74.0255 42.4222H71.3146L71.1167 41.2297C70.9157 40.0292 69.9666 39.0926 68.7622 38.9062C67.526 38.7213 66.3993 38.5797 65.3076 38.4592C65.1553 33.0991 62.6935 28.0656 58.5541 24.6504C55.7726 22.5274 52.319 21.4749 48.8246 21.6852C47.3592 21.7718 45.9201 22.1122 44.5715 22.6913C44.0005 22.9324 43.4616 23.2168 42.9425 23.4957C42.6043 23.6751 42.2816 23.839 41.9602 23.9848C41.6199 22.8044 41.1893 21.6519 40.6721 20.5375C41.3132 18.8575 42.1576 17.2621 43.1866 15.7869C44.2036 16.7122 45.4873 17.2929 46.8545 17.4461C46.9948 17.4559 47.1239 17.4615 47.2586 17.4615C49.3022 17.3214 51.2019 16.3609 52.5247 14.799C55.2596 12.1305 56.9846 8.5984 57.4063 4.8032C57.5247 3.50595 57.0473 2.22513 56.1084 1.32087C55.2041 0.379167 53.9199 -0.100439 52.6187 0.0176244C48.8182 0.437542 45.2811 2.16048 42.6099 4.89289C39.5763 7.92119 39.1216 10.8206 41.2334 13.7115C40.3764 14.8872 39.6207 16.1332 38.9743 17.4363C37.2608 14.7382 35.0454 12.3931 32.4481 10.5277C31.8007 10.102 30.9303 10.2811 30.5041 10.9278C30.0778 11.5744 30.2572 12.4437 30.9047 12.8693C34.3136 15.3992 36.9597 18.8171 38.5533 22.7488C38.5346 22.7407 38.5168 22.7314 38.4989 22.7221C38.4793 22.7118 38.4595 22.7015 38.4383 22.6927C37.0872 22.1118 35.6452 21.7699 34.1768 21.6824C30.679 21.4658 27.2208 22.52 24.4402 24.6504C20.3031 28.0658 17.8431 33.098 17.691 38.4564C16.6007 38.5769 15.4754 38.7185 14.2476 38.902C13.0401 39.0838 12.0862 40.02 11.8833 41.2227L11.684 42.4194H8.9745C7.63145 42.4203 6.47732 43.3714 6.22148 44.6882L0.0769893 76.1931C-0.162497 77.4268 0.163126 78.7027 0.964641 79.6713C1.76616 80.64 2.95951 81.1998 4.21775 81.1973ZM44.594 6.87018C46.8147 4.59447 49.7568 3.15824 52.919 2.80629C52.9569 2.8042 52.9948 2.8042 53.0327 2.80629C53.4484 2.82635 53.8399 3.0073 54.1243 3.31078C54.4608 3.61856 54.6437 4.05926 54.6239 4.51453C54.264 7.66704 52.8239 10.5984 50.5476 12.8119C49.7001 13.8829 48.4409 14.549 47.0776 14.6476C46.2692 14.5232 45.5208 14.1471 44.9392 13.5728C46.1601 12.1987 47.5982 11.0337 49.1964 10.1241C49.6375 9.88266 49.9154 9.42393 49.9249 8.92171C49.9344 8.41949 49.674 7.9506 49.2424 7.6927C48.8108 7.4348 48.2739 7.42734 47.8353 7.67315C46.0711 8.678 44.4759 9.95334 43.108 11.4526C42.4064 10.1395 42.6646 8.79703 44.594 6.87018ZM35.8957 79.7553C36.1792 80.1996 38.1198 81.1973 41.5 81.1973C44.8802 81.1973 46.8208 80.1996 47.1043 79.7525L46.623 73.937C45.0795 74.3214 43.5691 74.828 42.1062 75.4518C41.7229 75.6352 41.2771 75.6352 40.8938 75.4518C39.4305 74.8297 37.9202 74.3241 36.377 73.9398L35.8957 79.7553ZM74.0241 45.2277L80.17 76.7298C80.2488 77.1378 80.1401 77.5596 79.8739 77.8789C79.6065 78.2064 79.2054 78.3959 78.7822 78.3946H49.8082L49.3872 73.3162C57.1173 71.861 65.0895 72.3664 72.5732 74.7862C73.5038 75.0719 74.5161 74.8573 75.2503 74.2188C75.9844 73.5803 76.3363 72.6084 76.1808 71.6486L71.7818 45.2263L74.0241 45.2277ZM33.9944 24.4878C31.1808 24.3187 28.3998 25.164 26.1577 26.8701C22.4568 29.9527 20.358 34.547 20.4524 39.3589C20.3634 45.682 22.0885 51.8984 25.4239 57.2736C28.3663 61.7257 33.6493 65.7629 39.6408 63.7394C39.7629 63.696 39.92 63.6301 40.094 63.5558C40.3859 63.4311 40.7114 63.2952 41.0482 63.1803C41.3412 63.0808 41.6588 63.0808 41.9518 63.1803C42.2886 63.2952 42.6141 63.4311 42.906 63.5558L43.002 63.5971C43.1367 63.6552 43.2579 63.7075 43.3718 63.745C49.3549 65.7601 54.6337 61.7257 57.5733 57.275C60.9107 51.8995 62.6369 45.6819 62.5476 39.3575C62.6427 34.5429 60.5421 29.9461 56.8381 26.8631C54.6007 25.1541 51.8212 24.3083 49.0098 24.4808C47.8627 24.5474 46.7359 24.8129 45.68 25.2656C45.2011 25.4689 44.7613 25.7024 44.3343 25.9291L44.3343 25.9291L44.2642 25.9663C43.7138 26.2637 43.1459 26.5276 42.5636 26.7566C42.7846 28.0761 42.8981 29.4113 42.9032 30.749C42.9032 31.523 42.2749 32.1504 41.5 32.1504C40.7251 32.1504 40.0968 31.523 40.0968 30.749C40.0958 29.304 39.9492 27.8626 39.659 26.4469C39.3461 26.2956 39.036 26.1372 38.7344 25.9761C38.2867 25.7336 37.8251 25.4856 37.3312 25.2754C36.2733 24.8209 35.1441 24.5544 33.9944 24.4878ZM14.6559 41.6795C15.7406 41.5155 16.7368 41.3894 17.7022 41.2787C17.9032 47.4997 19.7607 53.5548 23.0834 58.8207C26.5997 64.1458 33.0333 68.9272 40.5515 66.3879C40.7353 66.3235 40.9528 66.2324 41.1913 66.1315L41.2311 66.1145L41.2322 66.114C41.3182 66.0771 41.408 66.0386 41.5 66.0012C41.5924 66.0388 41.6826 66.0775 41.7689 66.1145L41.8087 66.1315C42.0472 66.2324 42.2647 66.3235 42.4626 66.3922C43.7952 66.85 45.194 67.0867 46.6033 67.0928C52.303 67.0928 57.0668 63.1312 59.9152 58.8249C63.2396 53.5576 65.0976 47.5004 65.2978 41.2773C66.2632 41.3894 67.2622 41.5169 68.3483 41.6851L73.4137 72.1138C63.5124 68.811 52.8045 68.811 42.9032 72.1138V69.9866C42.9032 69.2126 42.2749 68.5853 41.5 68.5853C40.7251 68.5853 40.0968 69.2126 40.0968 69.9866V72.1194C30.1965 68.8141 19.489 68.8102 9.58628 72.1082L14.6559 41.6795ZM11.2196 45.2249H8.9745L2.83001 76.7298C2.75123 77.1378 2.8599 77.5596 3.12608 77.8789C3.3935 78.2064 3.79461 78.3959 4.21775 78.3946H33.196L33.6142 73.3162C25.8881 71.8596 17.9195 72.3641 10.4394 74.7834C9.50825 75.0729 8.49341 74.8611 7.75618 74.2236C7.01894 73.586 6.66404 72.6132 6.81782 71.6514L11.2196 45.2249Z" fill="#1F75AF"/>
</svg>
