<svg width="90" height="73" viewBox="0 0 90 73" fill="none" xmlns="http://www.w3.org/2000/svg">
<path fill-rule="evenodd" clip-rule="evenodd" d="M64.4907 45.4362C64.4907 40.0643 68.8674 35.694 74.2472 35.694C79.6269 35.694 84.0036 40.0643 84.0036 45.4362C84.0036 50.8081 79.6269 55.1784 74.2472 55.1784C68.8674 55.1784 64.4907 50.8081 64.4907 45.4362ZM67.1276 45.4362C67.1276 49.3563 70.3214 52.5454 74.2472 52.5454C78.173 52.5454 81.3667 49.3563 81.3667 45.4362C81.3667 41.5161 78.173 38.327 74.2472 38.327C70.3214 38.327 67.1276 41.5161 67.1276 45.4362Z" fill="#1B1B1B"/>
<path d="M78.0538 42.0143C77.4856 41.5588 76.6557 41.6501 76.2004 42.2172L73.3893 45.716L72.3017 44.3374C71.851 43.7663 71.0218 43.6682 70.4501 44.1179C69.8781 44.5678 69.7798 45.3957 70.2303 45.9669L72.3442 48.6462C72.593 48.9615 72.9722 49.1463 73.374 49.1479H73.3798C73.7796 49.1479 74.1581 48.9668 74.4082 48.6552L78.257 43.8648C78.7128 43.2977 78.6216 42.4693 78.0538 42.0143Z" fill="#1B1B1B"/>
<path fill-rule="evenodd" clip-rule="evenodd" d="M30.4907 26.4362C30.4907 21.0643 34.8674 16.694 40.2472 16.694C45.6269 16.694 50.0036 21.0643 50.0036 26.4362C50.0036 31.8081 45.6269 36.1784 40.2472 36.1784C34.8674 36.1784 30.4907 31.8081 30.4907 26.4362ZM33.1276 26.4362C33.1276 30.3563 36.3214 33.5454 40.2472 33.5454C44.173 33.5454 47.3667 30.3563 47.3667 26.4362C47.3667 22.5161 44.173 19.327 40.2472 19.327C36.3214 19.327 33.1276 22.5161 33.1276 26.4362Z" fill="#1B1B1B"/>
<path d="M44.0538 23.0143C43.4856 22.5588 42.6557 22.6501 42.2004 23.2172L39.3893 26.716L38.3017 25.3374C37.851 24.7663 37.0218 24.6682 36.4501 25.1179C35.8781 25.5678 35.7798 26.3957 36.2303 26.9669L38.3442 29.6462C38.593 29.9615 38.9722 30.1463 39.374 30.1479H39.3798C39.7796 30.1479 40.1581 29.9668 40.4082 29.6552L44.257 24.8648C44.7128 24.2977 44.6216 23.4693 44.0538 23.0143Z" fill="#1B1B1B"/>
<path fill-rule="evenodd" clip-rule="evenodd" d="M90 27.5333C90 28.2605 89.4099 28.8498 88.6816 28.8498C87.9533 28.8498 87.3631 28.2604 87.3633 27.5335V21.9074C87.3633 21.1345 86.7336 20.5057 85.9598 20.5057H83.0306L82.2412 23.457L82.2321 23.4895C81.9412 24.4753 81.019 25.1639 79.9899 25.1639H68.1652C67.136 25.1639 66.214 24.4753 65.923 23.4895C65.9198 23.4786 65.9169 23.4679 65.9139 23.4568L65.1246 20.5055H62.1953C61.4213 20.5055 60.7916 21.1343 60.7916 21.9072V68.9653C60.7916 69.7382 61.4213 70.367 62.1953 70.367H85.9596C86.7334 70.367 87.3631 69.7382 87.3631 68.9653V33.6425C87.3631 32.9152 87.9533 32.3259 88.6816 32.3259C89.4099 32.3259 90 32.9152 90 33.6425V68.9653C90 71.1899 88.1876 73 85.9596 73H62.1953C59.9675 73 58.1548 71.1901 58.1548 68.9653V55.6924H23.1398C22.4115 55.6924 21.8214 55.1031 21.8214 54.3758C21.8214 53.6486 22.4115 53.0593 23.1398 53.0593H58.1546V46.9642H2.63688V51.5199C2.63688 52.3688 3.32844 53.0593 4.17857 53.0593H17.0242C17.7525 53.0593 18.3427 53.6486 18.3427 54.3758C18.3427 55.1031 17.7525 55.6924 17.0242 55.6924H4.17857C1.87447 55.6924 0 53.8205 0 51.5199V46.7246C0 45.4047 1.07514 44.3312 2.39675 44.3312H5.41949V5.8836C5.41949 2.63935 8.0627 0 11.3115 0H70.4461C73.6951 0 76.3382 2.63953 76.3382 5.8836V17.8725H85.9596C88.1874 17.8725 90 19.6825 90 21.9072V27.5333ZM10.8926 44.3312V7.66564C10.8926 6.42917 11.8999 5.42335 13.1382 5.42335H68.6193C69.8576 5.42335 70.8649 6.42917 70.8649 7.66564V17.8725H73.7013V5.8836C73.7013 4.09121 72.241 2.63303 70.4461 2.63303H11.3115C9.51667 2.63303 8.05637 4.09121 8.05637 5.8836V44.3312H10.8926ZM62.1953 17.8725C59.9674 17.8725 58.1548 19.6826 58.1548 21.9072V44.3312H13.5295V8.05638H68.2278V17.8725H62.1953ZM68.3954 22.5307H79.7592L80.301 20.5055H67.8537L68.3954 22.5307Z" fill="#1F75AF"/>
</svg>
