<svg width="90" height="90" viewBox="0 0 90 90" fill="none" xmlns="http://www.w3.org/2000/svg">
<path fill-rule="evenodd" clip-rule="evenodd" d="M76.82 13.1802C68.3205 4.68077 57.02 0 45 0C32.98 0 21.6797 4.68077 13.1802 13.1802C4.68096 21.6795 0 32.98 0 45C0 57.02 4.68077 68.3205 13.1802 76.8198C21.6797 85.3192 32.98 90 45 90C57.02 90 68.3205 85.3192 76.8198 76.8198C85.319 68.3205 90 57.02 90 45C90 32.98 85.319 21.6795 76.82 13.1802ZM3.52766 45C3.52766 22.132 22.1322 3.52766 45 3.52766C67.8679 3.52766 86.4723 22.132 86.4723 45C86.4723 67.868 67.8679 86.4723 45 86.4723C22.132 86.4723 3.52766 67.868 3.52766 45Z" fill="#1F75AF"/>
<path d="M63.4368 55.5008C62.7794 55.0563 61.8867 55.2291 61.4426 55.8861C57.7364 61.3675 51.5896 64.64 45.0002 64.64C38.4107 64.64 32.2639 61.3675 28.5574 55.8857C28.1133 55.2289 27.2204 55.0562 26.5632 55.5004C25.9062 55.9447 25.7337 56.8374 26.178 57.4946C30.4193 63.7672 37.4555 67.5122 45 67.5122C52.5443 67.5122 59.5808 63.7674 63.8219 57.4948C64.2663 56.8378 64.094 55.9451 63.4368 55.5008Z" fill="#1B1B1B"/>
<path d="M62.6323 31.8733C58.6726 31.8733 55.4514 35.0945 55.4514 39.0541C55.4514 39.8473 56.0942 40.4903 56.8876 40.4903C57.6809 40.4903 58.3238 39.8473 58.3238 39.0541C58.3238 36.6783 60.2566 34.7456 62.6323 34.7456C65.0079 34.7456 66.9408 36.6783 66.9408 39.0541C66.9408 39.8473 67.5836 40.4903 68.3769 40.4903C69.1703 40.4903 69.8131 39.8473 69.8131 39.0541C69.8131 35.0945 66.5919 31.8733 62.6323 31.8733Z" fill="#1B1B1B"/>
<path d="M31.6761 39.0541C31.6761 39.8473 32.3192 40.4903 33.1123 40.4903C33.9054 40.4903 34.5485 39.8473 34.5485 39.0541C34.5485 35.0945 31.3272 31.8733 27.3676 31.8733C23.408 31.8733 20.1868 35.0945 20.1868 39.0541C20.1868 39.8473 20.8298 40.4903 21.6229 40.4903C22.4161 40.4903 23.0591 39.8473 23.0591 39.0541C23.0591 36.6783 24.9918 34.7456 27.3676 34.7456C29.7434 34.7456 31.6761 36.6783 31.6761 39.0541Z" fill="#1B1B1B"/>
<path d="M47.8723 70.3845H42.1276C41.3344 70.3845 40.6914 71.0275 40.6914 71.8207C40.6914 72.6138 41.3344 73.2569 42.1276 73.2569H47.8723C48.6656 73.2569 49.3084 72.6138 49.3084 71.8207C49.3084 71.0275 48.6654 70.3845 47.8723 70.3845Z" fill="#1F75AF"/>
</svg>
