<svg width="94" height="81" viewBox="0 0 94 81" fill="none" xmlns="http://www.w3.org/2000/svg">
<path fill-rule="evenodd" clip-rule="evenodd" d="M79.9207 44.84H87.3207C88.1381 44.84 88.8007 45.5026 88.8007 46.32V72.96C88.8007 73.7774 88.1381 74.44 87.3207 74.44H86.7553L88.6527 78.2184C88.8826 78.6785 88.8572 79.225 88.5855 79.6617C88.3139 80.0984 87.835 80.3628 87.3207 80.36H81.4007C80.8397 80.3603 80.3268 80.0434 80.0761 79.5416L77.5261 74.44H57.7207V78.88C57.7207 79.6974 57.0581 80.36 56.2407 80.36H32.5607C31.7433 80.36 31.0807 79.6974 31.0807 78.88V74.44H11.2753L8.72529 79.5416C8.47454 80.0434 7.96165 80.3603 7.40069 80.36H1.48069C0.967697 80.3602 0.491164 80.0948 0.221313 79.6585C-0.0485384 79.2222 -0.0732173 78.6773 0.156091 78.2184L2.04605 74.44H1.48069C0.66331 74.44 0.000691419 73.7774 0.000691419 72.96V46.32C0.000691419 45.5026 0.66331 44.84 1.48069 44.84H8.88069V38.92C8.88069 35.6505 11.5312 33 14.8007 33H74.0007C77.2702 33 79.9207 35.6505 79.9207 38.92V44.84ZM3.87533 77.4H6.48605L7.96605 74.44H5.35533L3.87533 77.4ZM8.88069 71.48H2.96069V47.8H8.88069V71.48ZM51.8007 35.96H37.0007C35.3659 35.96 34.0407 37.2852 34.0407 38.92H54.7607C54.7607 37.2852 53.4355 35.96 51.8007 35.96ZM34.0407 56.68V53.72H54.7607V56.68H34.0407ZM51.8007 71.48V59.64H45.8807V71.48H51.8007ZM31.4966 41.88H57.3048L55.0848 50.76H33.7166L31.4966 41.88ZM14.8007 35.96C13.1659 35.96 11.8407 37.2852 11.8407 38.92V57.5029C12.7366 56.9702 13.7584 56.6861 14.8007 56.68H31.0807V52.4206L28.1651 40.7596C28.0543 40.3174 28.1535 39.8489 28.434 39.4895C28.7144 39.1301 29.1448 38.92 29.6007 38.92H31.0807C31.0868 37.8777 31.3709 36.8559 31.9036 35.96H14.8007ZM14.8007 59.64H34.0407V62.6H11.8407C11.8407 60.9652 13.1659 59.64 14.8007 59.64ZM11.8407 65.56V71.48H34.0407V65.56H11.8407ZM42.9207 77.4H34.0407V74.44H42.9207V77.4ZM37.0007 71.48H42.9207V59.64H37.0007V71.48ZM54.7607 77.4H45.8807V74.44H54.7607V77.4ZM54.7607 71.48H76.9607V65.56H54.7607V71.48ZM54.7607 62.6V59.64H74.0007C75.6355 59.64 76.9607 60.9652 76.9607 62.6H54.7607ZM74.0007 56.68C75.043 56.6861 76.0648 56.9702 76.9607 57.5029V38.92C76.9607 37.2852 75.6355 35.96 74.0007 35.96H56.8978C57.4305 36.8559 57.7146 37.8777 57.7207 38.92H59.2007C59.6566 38.92 60.087 39.1301 60.3674 39.4895C60.6479 39.8489 60.7471 40.3174 60.6363 40.7596L57.7207 52.4206V56.68H74.0007ZM82.3153 77.4L80.8353 74.44H83.4461L84.9261 77.4H82.3153ZM79.9207 71.48H85.8407V47.8H79.9207V71.48Z" fill="#1F75AF"/>
<path d="M71.04 38.56H66.6V41.52H71.04V50.4H74V41.52C74 39.8852 72.6747 38.56 71.04 38.56Z" fill="#1B1B1B"/>
<path d="M42.92 44.48H45.88V47.44H42.92V44.48Z" fill="#1B1B1B"/>
<circle cx="44" cy="19" r="9.6" stroke="#1F75AF" stroke-width="2.8"/>
<path fill-rule="evenodd" clip-rule="evenodd" d="M39.4997 20.7984C39.8149 22.7216 41.7097 24.2 44 24.2C46.2903 24.2 48.1851 22.7216 48.5003 20.7984H39.4997Z" fill="#1B1B1B"/>
<path d="M44.88 15.44H47.28V17.64H44.88V15.44Z" fill="#1B1B1B"/>
<path d="M40.78 15.44H43.18V17.64H40.78V15.44Z" fill="#1B1B1B"/>
<path fill-rule="evenodd" clip-rule="evenodd" d="M87.7843 0C88.3647 0 88.911 0.276025 89.245 0.729307L89.3307 0.857249L93.7512 8.14793C94.4281 9.26467 93.6457 10.6643 92.346 10.7595L92.2048 10.7646H91.6722V15.9859C91.6722 16.6286 91.1342 17.1496 90.4707 17.1496C89.8486 17.1496 89.3369 16.6917 89.2754 16.1048L89.2692 15.9859V13.0489C88.4505 14.5588 86.9614 15.6763 85.1867 16.0257L85.192 16.9611L85.201 29.0614L85.2178 44.5544H82.8134V16.0257C80.3047 15.5318 78.3658 13.5037 78.0874 11.0006L78.0662 10.7646H75.7954C74.4447 10.7646 73.5959 9.3774 74.1956 8.24186L74.2655 8.12124L78.8692 0.830714C79.1657 0.361044 79.683 0.0544051 80.2449 0.00656027L80.3991 0H87.7843ZM80.4765 10.7646C80.6748 12.4776 82.1794 13.8135 84 13.8135C85.7556 13.8135 87.2173 12.5714 87.4973 10.9467L87.5235 10.7646H80.4765ZM80.7409 2.32747H87.4355L91.1399 8.43716H76.8828L80.7409 2.32747Z" fill="black"/>
</svg>
