<svg width="90" height="75" viewBox="0 0 90 75" fill="none" xmlns="http://www.w3.org/2000/svg">
<path fill-rule="evenodd" clip-rule="evenodd" d="M88.5 34.5H87V33C86.9969 31.3915 86.4704 29.8278 85.5 28.545V10.5C85.4934 4.70375 80.7962 0.00661295 75 0H69C63.2038 0.00661295 58.5066 4.70375 58.5 10.5V28.545C57.8091 29.4594 57.3417 30.5227 57.135 31.65C55.8234 30.5875 54.188 30.0054 52.5 30H49.5V27.285C52.2818 25.679 53.9967 22.7121 54 19.5V7.5C54 6.67157 53.3284 6 52.5 6H46.83C45.9835 5.0496 44.7727 4.50418 43.5 4.5H33C32.1716 4.5 31.5 5.17157 31.5 6V9C31.5089 11.7287 33.3579 14.1078 36 14.79V19.5C36.0033 22.7121 37.7182 25.679 40.5 27.285V30H37.5C35.812 30.0054 34.1766 30.5875 32.865 31.65C32.214 28.0923 29.1167 25.506 25.5 25.5H22.5V23.37C25.2283 22.1734 26.993 19.4791 27 16.5V10.5C27 6.35786 23.6421 3 19.5 3C19.1737 3.00317 18.848 3.02823 18.525 3.075C17.0505 2.04837 15.2967 1.49865 13.5 1.5C8.52944 1.5 4.5 5.52944 4.5 10.5C4.5 11.3284 5.17157 12 6 12H9V16.5C9.00697 19.4791 10.7717 22.1734 13.5 23.37V25.5H10.5C6.35786 25.5 3 28.8579 3 33V34.5H1.5C0.671573 34.5 0 35.1716 0 36V42C0 42.8284 0.671573 43.5 1.5 43.5H3V67.5C3 68.3284 3.67157 69 4.5 69H24V73.5C24 74.3284 24.6716 75 25.5 75H64.5C65.3284 75 66 74.3284 66 73.5V69H85.5C86.3284 69 87 68.3284 87 67.5V43.5H88.5C89.3284 43.5 90 42.8284 90 42V36C90 35.1716 89.3284 34.5 88.5 34.5ZM61.5 10.5C61.5 6.35786 64.8579 3 69 3H75C79.1421 3 82.5 6.35786 82.5 10.5V26.13C81.5548 25.7132 80.533 25.4986 79.5 25.5H76.5V24.285C79.2757 22.6729 80.9884 19.7099 81 16.5V10.5C81 9.67157 80.3284 9 79.5 9H78.36C77.7864 9.00115 77.2624 8.67509 77.01 8.16L76.5 7.14V6H73.5V7.5C73.5 8.32843 72.8284 9 72 9H64.5C63.6716 9 63 9.67157 63 10.5V16.5C62.9357 19.7221 64.6707 22.712 67.5 24.255V25.5H64.5C63.467 25.4986 62.4452 25.7132 61.5 26.13V10.5ZM67.755 20.76C68.2892 21.2838 68.9144 21.7057 69.6 22.005C71.1371 22.665 72.8779 22.665 74.415 22.005C76.5914 21.0379 77.9957 18.8816 78 16.5V11.985C76.9349 11.8986 75.9352 11.436 75.18 10.68C74.3376 11.5251 73.1933 12.0001 72 12H66V16.5C66.0021 18.0955 66.6326 19.626 67.755 20.76ZM73.5 25.365V27C73.5 27.8284 72.8284 28.5 72 28.5C71.1716 28.5 70.5 27.8284 70.5 27V25.365C71.4919 25.545 72.5081 25.545 73.5 25.365ZM64.5 28.5C62.0178 28.5074 60.0074 30.5178 60 33V34.5H84V33C83.9926 30.5178 81.9822 28.5074 79.5 28.5H76.23C75.6005 30.2971 73.9042 31.5003 72 31.5003C70.0958 31.5003 68.3995 30.2971 67.77 28.5H64.5ZM37.5 12C35.8452 11.9951 34.5049 10.6548 34.5 9V7.5H43.5C44.3284 7.5 45 8.17157 45 9V10.5H48V9H51V10.5C51 11.3284 50.3284 12 49.5 12H37.5ZM39 15V19.5C39 22.8137 41.6863 25.5 45 25.5C48.3137 25.5 51 22.8137 51 19.5V14.73C50.519 14.9046 50.0117 14.9959 49.5 15H39ZM46.5 28.365V31.5C46.5 32.3284 45.8284 33 45 33C44.1716 33 43.5 32.3284 43.5 31.5V28.365C44.4919 28.545 45.5081 28.545 46.5 28.365ZM37.5 33C35.0178 33.0074 33.0074 35.0178 33 37.5V40.5H57V37.5C56.9926 35.0178 54.9822 33.0074 52.5 33H49.23C48.6005 34.7971 46.9042 36.0003 45 36.0003C43.0958 36.0003 41.3995 34.7971 40.77 33H37.5ZM7.695 9C8.19036 7.02755 9.65898 5.44483 11.5889 4.80354C13.5189 4.16225 15.6427 4.55127 17.22 5.835C17.5791 6.11981 18.0488 6.22479 18.495 6.12C18.825 6.04577 19.1618 6.00556 19.5 6C21.4059 6.00526 23.1038 7.20519 23.745 9H7.695ZM12 12V16.5C12.0074 18.9822 14.0178 20.9926 16.5 21H19.5C21.9822 20.9926 23.9926 18.9822 24 16.5V12H12ZM19.5 24V27C19.5 27.8284 18.8284 28.5 18 28.5C17.1716 28.5 16.5 27.8284 16.5 27V24H19.5ZM10.5 28.5C8.0178 28.5074 6.00741 30.5178 6 33V34.5H30V33C29.9926 30.5178 27.9822 28.5074 25.5 28.5H22.23C21.6005 30.2971 19.9042 31.5003 18 31.5003C16.0958 31.5003 14.3995 30.2971 13.77 28.5H10.5ZM3 40.5V37.5H30V40.5H3ZM6 66H24V49.5H21C20.1716 49.5 19.5 48.8284 19.5 48V43.5H6V66ZM27 72V49.5H63V72H27ZM22.5 43.5V46.5H67.5V43.5H22.5ZM66 66V49.5H69C69.8284 49.5 70.5 48.8284 70.5 48V43.5H84V66H66ZM60 37.5V40.5H87V37.5H60Z" fill="#1F75AF"/>
<path d="M56.1199 54H51.6799V56.96H56.1199V65.84H59.0799V56.96C59.0799 55.3252 57.7547 54 56.1199 54Z" fill="#1B1B1B"/>
<path d="M34.6401 67.84H39.0801V64.88H34.6401V56H31.6801V64.88C31.6801 66.5147 33.0053 67.84 34.6401 67.84Z" fill="#1B1B1B"/>
<path d="M10 58.92H12.96V61.88H10V58.92Z" fill="#1B1B1B"/>
<path d="M77 58.92H79.96V61.88H77V58.92Z" fill="#1B1B1B"/>
</svg>
