<svg width="56" height="66" viewBox="0 0 56 66" fill="none" xmlns="http://www.w3.org/2000/svg">
<path fill-rule="evenodd" clip-rule="evenodd" d="M36.8746 20.7967C37.0513 20.9736 37.2911 21.0728 37.5412 21.0726C37.5685 21.0726 37.5967 21.0717 37.625 21.0688C37.9031 21.0441 38.1559 20.8972 38.3151 20.6677L47.7023 7.12176C47.9149 6.8151 47.9264 6.41182 47.7315 6.09359L44.2694 0.449038C44.1353 0.230202 43.9177 0.0756092 43.6669 0.0210407C43.416 -0.0335277 43.1538 0.0166586 42.9409 0.159984L27.9327 10.2684C27.6996 10.4256 27.549 10.6788 27.522 10.9586C27.4951 11.2385 27.5946 11.5158 27.7934 11.7146L36.8746 20.7967ZM37.4093 18.6679L29.9326 11.192L43.1782 2.27092L45.8051 6.55401L37.4093 18.6679Z" fill="#1F75AF"/>
<path d="M19.373 21.0717C19.3448 21.0717 19.3166 21.0717 19.2883 21.0717C19.01 21.0468 18.7572 20.8995 18.5982 20.6697L9.21191 7.11804C8.99889 6.81117 8.98744 6.40738 9.18272 6.08893L12.6476 0.449084C12.7828 0.229962 13.0019 0.0757691 13.2537 0.0224031C13.5056 -0.0309629 13.7684 0.0211542 13.9808 0.166621L16.7386 2.04971C17.1599 2.34575 17.2653 2.92533 16.9751 3.35069C16.6849 3.77605 16.1068 3.8894 15.6775 3.60514L13.7351 2.27568L11.1091 6.55123L19.5039 18.667L26.9854 11.1949L24.3595 9.42011C24.0719 9.23559 23.9069 8.90981 23.9283 8.56884C23.9497 8.22787 24.154 7.92523 24.4623 7.77804C24.7706 7.63085 25.1345 7.6622 25.413 7.85997L28.9909 10.2741C29.2239 10.4315 29.3743 10.6847 29.4011 10.9646C29.4279 11.2444 29.3282 11.5216 29.1293 11.7203L20.0434 20.7958C19.8657 20.9736 19.6244 21.0729 19.373 21.0717Z" fill="#1F75AF"/>
<path d="M21.2402 7.13417C21.0529 7.1344 20.8699 7.0783 20.7149 6.97317L19.199 5.95159C18.7849 5.65488 18.6819 5.08266 18.9665 4.6602C19.2512 4.23774 19.8202 4.11824 20.2507 4.39052L21.7675 5.41209C22.1108 5.64367 22.2625 6.07234 22.1412 6.46828C22.02 6.86422 21.6543 7.13448 21.2402 7.13417Z" fill="#1F75AF"/>
<path d="M32.7185 24.1035H24.2023C23.8234 24.1031 23.4817 23.8756 23.3351 23.5263L21.0104 17.99C20.8167 17.5123 21.0432 16.9675 21.5185 16.768C21.9939 16.5685 22.5413 16.7883 22.7466 17.2613L24.8293 22.2204H32.0914L34.1628 17.2622C34.2927 16.9519 34.5782 16.7344 34.9119 16.6917C35.2455 16.649 35.5766 16.7875 35.7804 17.0552C35.9843 17.3228 36.0298 17.6788 35.9 17.9891L33.5866 23.5254C33.4402 23.8754 33.0979 24.1033 32.7185 24.1035Z" fill="#1F75AF"/>
<path fill-rule="evenodd" clip-rule="evenodd" d="M27.7275 65.5512C27.9061 65.7767 28.178 65.9081 28.4656 65.9081C28.7533 65.9081 29.0252 65.7767 29.2038 65.5512L39.106 53.0438C39.2769 52.8291 39.3457 52.5506 39.2943 52.2811L33.6451 22.9841C33.5597 22.5408 33.1719 22.2204 32.7205 22.2205H24.2042C23.7532 22.2209 23.3658 22.5411 23.2805 22.9841L17.6313 52.2811C17.5797 52.5509 17.6484 52.8298 17.8196 53.0447L27.7275 65.5512ZM28.4656 63.4497L19.5615 52.2143L24.98 24.1035H31.9427L37.3604 52.2143L28.4656 63.4497Z" fill="#1F75AF"/>
<path d="M25.3227 61.9441C24.9603 61.9437 24.6303 61.7352 24.4742 61.4081C24.318 61.081 24.3635 60.6933 24.5912 60.4113L36.4442 45.7138C36.7708 45.309 37.3637 45.2455 37.7685 45.5721C38.1734 45.8986 38.2368 46.4915 37.9102 46.8964L26.0562 61.5939C25.8773 61.8156 25.6076 61.9443 25.3227 61.9441Z" fill="#1F75AF"/>
<path d="M21.4624 57.0765C21.0999 57.076 20.7699 56.8676 20.6138 56.5405C20.4577 56.2134 20.5032 55.8257 20.7308 55.5436L34.9481 37.9368C35.2778 37.5433 35.8618 37.4864 36.2612 37.8088C36.6607 38.1312 36.7282 38.7141 36.4132 39.1194L22.1958 56.7262C22.0169 56.9479 21.7473 57.0767 21.4624 57.0765Z" fill="#1F75AF"/>
<path d="M19.1462 50.3256C18.7838 50.3251 18.4538 50.1167 18.2976 49.7896C18.1415 49.4625 18.187 49.0748 18.4146 48.7927L33.4417 30.1596C33.7682 29.7548 34.3611 29.6913 34.766 30.0179C35.1708 30.3444 35.2342 30.9373 34.9077 31.3422L19.8806 49.9753C19.7015 50.1973 19.4314 50.3261 19.1462 50.3256Z" fill="#1F75AF"/>
<path d="M21.5857 37.6617C21.0675 37.6617 20.6468 37.2431 20.6442 36.7249C20.6439 36.5068 20.7176 36.295 20.8532 36.1242L31.7939 22.5754C32.1254 22.1919 32.7009 22.1396 33.096 22.4571C33.4912 22.7747 33.564 23.348 33.2608 23.7542L22.3465 37.2691C22.1705 37.5144 21.8876 37.6604 21.5857 37.6617Z" fill="#1F75AF"/>
<path d="M51.4314 38.407H49.6885C48.7705 38.407 48.0237 37.694 48.0237 36.8178C48.0237 36.3054 47.5887 35.8902 47.0519 35.8902C46.5151 35.8902 46.0801 36.3054 46.0801 36.8178C46.0801 38.6849 47.6448 40.2086 49.5881 40.2597V42.3124C49.5881 42.8248 50.0231 43.24 50.5599 43.24C51.0967 43.24 51.5317 42.8248 51.5317 42.3124V40.2597C53.4751 40.2086 55.0398 38.6849 55.0398 36.8178V35.5336C55.0398 34.3423 54.2423 33.2946 53.0552 32.9263L48.6653 31.5652C48.2815 31.4461 48.0237 31.1075 48.0237 30.7224V28.8837C48.0237 28.1721 48.6302 27.593 49.3757 27.593H51.7443C52.4899 27.593 53.0964 28.1721 53.0964 28.8837C53.0964 29.3961 53.5314 29.8113 54.0682 29.8113C54.605 29.8113 55.04 29.3961 55.04 28.8837C55.04 27.1491 53.5615 25.7379 51.7443 25.7379H51.5317V23.6876C51.5317 23.1752 51.0967 22.76 50.5599 22.76C50.0231 22.76 49.5881 23.1752 49.5881 23.6876V25.7379H49.3756C47.5585 25.7379 46.08 27.149 46.08 28.8837V30.7224C46.08 31.9138 46.8775 32.9614 48.0646 33.3296L52.4544 34.6907C52.8383 34.8098 53.0961 35.1485 53.0961 35.5336V36.8178C53.0964 37.694 52.3494 38.407 51.4314 38.407Z" fill="white"/>
<path d="M5.35143 38.407H3.60857C2.69055 38.407 1.9437 37.694 1.9437 36.8178C1.9437 36.3054 1.50873 35.8902 0.971916 35.8902C0.435101 35.8902 0.000129572 36.3054 0.000129572 36.8178C0.000129572 38.6849 1.56484 40.2086 3.50815 40.2597V42.3124C3.50815 42.8248 3.94312 43.24 4.47994 43.24C5.01675 43.24 5.45172 42.8248 5.45172 42.3124V40.2597C7.39516 40.2086 8.95987 38.6849 8.95987 36.8178V35.5336C8.95987 34.3423 8.16236 33.2946 6.97522 32.9263L2.58534 31.5652C2.20155 31.4461 1.9437 31.1075 1.9437 30.7224V28.8837C1.9437 28.1721 2.55023 27.593 3.29578 27.593H5.66435C6.4099 27.593 7.01643 28.1721 7.01643 28.8837C7.01643 29.3961 7.4514 29.8113 7.98821 29.8113C8.52503 29.8113 8.96 29.3961 8.96 28.8837C8.96 27.1491 7.48159 25.7379 5.66435 25.7379H5.45172V23.6876C5.45172 23.1752 5.01675 22.76 4.47994 22.76C3.94312 22.76 3.50815 23.1752 3.50815 23.6876V25.7379H3.29565C1.47854 25.7379 0 27.149 0 28.8837V30.7224C0 31.9138 0.797513 32.9614 1.98465 33.3296L6.3744 34.6907C6.75832 34.8098 7.01617 35.1485 7.01617 35.5336V36.8178C7.01643 37.694 6.26945 38.407 5.35143 38.407Z" fill="white"/>
</svg>
