<svg width="88" height="87" viewBox="0 0 88 87" fill="none" xmlns="http://www.w3.org/2000/svg">
<path fill-rule="evenodd" clip-rule="evenodd" d="M67.1499 45.1395C61.4165 45.1193 55.9321 47.4891 52.0069 51.6838C46.3613 47.1631 39.3472 44.713 32.1251 44.7404H32.0682C23.3881 44.7588 15.3333 48.1452 9.36347 54.3082C3.29821 60.5289 -0.0182965 69.0313 7.59247e-05 78.257C0.00363187 78.762 0.200987 79.245 0.550062 79.6073C0.906249 79.9654 1.39104 80.1646 1.89539 80.1593L51.6466 80.0641C51.7045 80.1319 51.7623 80.1948 51.8201 80.2578C51.8759 80.3185 51.9318 80.3794 51.988 80.4448C58.5196 87.3828 68.9024 89.0055 77.2275 84.3903C85.5525 79.7744 89.7118 70.0907 87.3382 60.8471C84.9646 51.6035 76.6609 45.1425 67.1499 45.1395ZM3.84761 76.3357C4.24587 68.86 7.12678 62.0314 12.0731 56.9528C17.3234 51.5315 24.4306 48.5449 32.0682 48.5449H32.1251C38.4997 48.5199 44.6918 50.6803 49.6754 54.6698C45.4764 61.179 45.1997 69.4834 48.9553 76.2602L3.84761 76.3357ZM50.0926 66.0637C50.0926 75.519 57.729 83.184 67.1499 83.184C76.5708 83.184 84.2072 75.519 84.2072 66.0637C84.2072 56.6095 76.5708 48.944 67.1499 48.944C57.729 48.944 50.0926 56.6095 50.0926 66.0637Z" fill="#1F75AF"/>
<path fill-rule="evenodd" clip-rule="evenodd" d="M52.1202 20.1069C52.1202 31.2111 43.1509 40.2132 32.0872 40.2132C21.0276 40.2025 12.0649 31.2063 12.0542 20.1069C12.0542 9.00209 21.0235 0 32.0872 0C43.1509 0 52.1202 9.00209 52.1202 20.1069ZM48.3296 20.1069C48.3296 11.1036 41.0582 3.8045 32.0872 3.8045C23.1209 3.8158 15.8555 11.1078 15.8448 20.1069C15.8448 29.1096 23.1167 36.4087 32.0872 36.4087C41.0582 36.4087 48.3296 29.1096 48.3296 20.1069Z" fill="#1B1B1B"/>
<path d="M73.537 60.2624L64.3822 67.7381L61.0278 63.8004C60.3474 63.0015 59.1514 62.9081 58.3561 63.591C57.5601 64.2739 57.4671 65.4748 58.1475 66.2737L62.6961 71.6182C63.057 72.0393 63.5827 72.2826 64.1369 72.2838C64.5707 72.2885 64.9927 72.1398 65.3299 71.8656L75.9254 63.2103C76.7255 62.5465 76.8422 61.358 76.1874 60.5491C75.5313 59.7395 74.3489 59.6122 73.537 60.2624Z" fill="#1B1B1B"/>
</svg>
