<svg width="90" height="81" viewBox="0 0 90 81" fill="none" xmlns="http://www.w3.org/2000/svg">
<path d="M77.6953 0H12.3047C5.51988 0 0 5.55363 0 12.3799V54.8253C0 61.6516 5.51988 67.2052 12.3047 67.2052H30.1465C31.1171 67.2052 31.9043 66.4133 31.9043 65.4367C31.9043 64.4601 31.1171 63.6681 30.1465 63.6681H12.3047C7.4584 63.6681 3.51562 59.7012 3.51562 54.8253V12.3799C3.51562 7.504 7.4584 3.53712 12.3047 3.53712H77.6953C82.5416 3.53712 86.4844 7.504 86.4844 12.3799V54.8253C86.4844 59.7012 82.5416 63.6681 77.6953 63.6681H64.8397C63.8691 63.6681 63.0819 64.4601 63.0819 65.4367V74.9618L52.3717 64.1861C52.042 63.8545 51.595 63.6681 51.1288 63.6681H46.9336C45.9629 63.6681 45.1758 64.4601 45.1758 65.4367C45.1758 66.4133 45.9629 67.2052 46.9336 67.2052H50.4007L63.5968 80.482C63.933 80.8203 64.3825 81.0002 64.8401 81C65.0665 81 65.295 80.956 65.5124 80.8654C66.1692 80.5916 66.5975 79.9468 66.5975 79.2314V67.2052H77.6953C84.4801 67.2052 90 61.6516 90 54.8253V12.3799C90 5.55363 84.4801 0 77.6953 0Z" fill="#1F75AF"/>
<path d="M39.0707 64.1863C38.7439 63.8571 38.2904 63.6681 37.8281 63.6681C37.3656 63.6681 36.9125 63.8573 36.5854 64.1863C36.2582 64.5152 36.0703 64.9715 36.0703 65.4366C36.0703 65.9018 36.2584 66.3581 36.5854 66.6868C36.9123 67.016 37.3656 67.2052 37.8281 67.2052C38.2904 67.2052 38.7439 67.016 39.0707 66.6868C39.3979 66.3581 39.5859 65.9018 39.5859 65.4366C39.5859 64.9715 39.3977 64.5152 39.0707 64.1863Z" fill="#1B1B1B"/>
<path fill-rule="evenodd" clip-rule="evenodd" d="M79.5427 14.3954C79.0087 14.077 78.3468 14.0659 77.8023 14.3658L60.7172 23.7831V23.0442C60.7172 18.5292 57.0662 14.8559 52.5787 14.8559H17.5274C13.0399 14.8559 9.38892 18.5292 9.38892 23.0442V44.1611C9.38892 48.6761 13.0399 52.3494 17.5274 52.3494H52.5785C57.0661 52.3494 60.717 48.6761 60.717 44.1611V43.4222L77.8021 52.8394C78.0654 52.9844 78.3562 53.0568 78.6467 53.0568C78.957 53.0568 79.2667 52.9742 79.5427 52.8099C80.0769 52.4914 80.4045 51.9131 80.4045 51.2882V15.917C80.4045 15.2924 80.0769 14.7139 79.5427 14.3954ZM57.2014 26.7687V40.4367V44.1611C57.2014 46.7257 55.1275 48.8122 52.5785 48.8122H17.5274C14.9784 48.8122 12.9045 46.7257 12.9045 44.1611V43.8603H26.1665C27.1372 43.8603 27.9243 43.0683 27.9243 42.0917C27.9243 41.1151 27.1372 40.3232 26.1665 40.3232H12.9045V23.0442C12.9045 20.4796 14.9784 18.393 17.5274 18.393H52.5785C55.1275 18.393 57.2014 20.4796 57.2014 23.0442V26.7687ZM60.717 39.389L76.8889 48.3027V18.9025L60.717 27.8163V39.389Z" fill="#1B1B1B"/>
<path d="M32.2777 40.3231H32.2603C31.2896 40.3231 30.5112 41.1151 30.5112 42.0917C30.5112 43.0683 31.307 43.8602 32.2777 43.8602C33.2483 43.8602 34.0355 43.0683 34.0355 42.0917C34.0355 41.1151 33.2483 40.3231 32.2777 40.3231Z" fill="#1B1B1B"/>
</svg>
