<svg width="190" height="104" viewBox="0 0 190 104" fill="none" xmlns="http://www.w3.org/2000/svg">
<path d="M170.981 93.2683C154.762 91.8301 139.536 86.8187 125.602 78.3317C123.525 77.0663 122.587 74.5305 123.338 72.2096L139.987 20.8003C154.191 30.2025 169.808 35.8843 186.507 37.7371C189.528 38.0723 191.038 41.5748 189.2 44.0053C185.46 48.9522 181.696 53.8803 177.908 58.7905C174.85 62.755 173.384 67.7278 173.799 72.7258C174.25 78.1567 174.716 83.5865 175.195 89.0148C175.409 91.4397 173.395 93.4824 170.981 93.2683Z" fill="url(#paint0_linear)"/>
<path d="M131.679 59.5684C129.601 58.303 128.663 55.7672 129.415 53.4463L123.339 72.2094C122.587 74.5303 123.525 77.0658 125.603 78.3315C134.837 83.9564 144.64 88.0528 154.922 90.5957L160.998 71.8326C150.716 69.2895 140.913 65.1933 131.679 59.5684Z" fill="url(#paint1_linear)"/>
<path d="M138.097 39.7483C146.723 45.0027 157.039 49.3115 167.377 52.1362L172.828 35.3032C172.828 35.3032 172.828 35.3032 172.828 35.3032C161.228 32.4342 150.239 27.587 139.987 20.8003L135.833 33.626C135.082 35.9471 136.02 38.4827 138.097 39.7483Z" fill="url(#paint2_linear)"/>
<path d="M173.922 74.1806C169.537 73.6627 165.227 72.8787 160.999 71.8328L154.922 90.5959C160.155 91.89 165.512 92.7834 170.982 93.2683C173.396 93.4823 175.409 91.4396 175.195 89.015C174.759 84.0713 174.335 79.1264 173.922 74.1806Z" fill="#1B1B1B"/>
<path d="M173.799 72.7258C173.384 67.7277 174.85 62.755 177.908 58.7904C178.894 57.5127 179.874 56.2304 180.856 54.9501C176.452 54.3289 171.913 53.3753 167.377 52.1357L160.999 71.8326C165.227 72.8785 169.537 73.6623 173.922 74.1804C173.882 73.6955 173.84 73.2106 173.799 72.7258Z" fill="url(#paint3_linear)"/>
<path d="M163.965 32.6841C155.601 29.7998 147.591 25.8339 139.987 20.8003L123.338 72.2096C122.587 74.5305 123.525 77.0661 125.602 78.3317C139.536 86.8191 154.762 91.8301 170.981 93.2683C173.395 93.4824 175.409 91.4397 175.195 89.015C174.715 83.5865 174.25 78.1567 173.799 72.726C173.404 67.965 174.718 63.2287 177.487 59.363L163.965 32.6841Z" fill="url(#paint4_linear)"/>
<path d="M138.097 39.7481C136.02 38.4826 135.081 35.9468 135.833 33.626L129.414 53.4463C128.663 55.7671 129.601 58.3027 131.678 59.5683C140.913 65.1932 150.715 69.2897 160.998 71.8326L167.377 52.1357C157.039 49.311 146.724 45.0022 138.097 39.7481Z" fill="url(#paint5_linear)"/>
<path d="M189.2 44.0056C191.038 41.5753 189.527 38.0725 186.507 37.7374C181.862 37.2221 177.3 36.4092 172.828 35.3032L167.377 52.1363C171.913 53.3756 176.452 54.3294 180.856 54.9506C183.649 51.3113 186.433 47.6652 189.2 44.0056Z" fill="#1B1B1B"/>
<path d="M167.376 52.1367L160.998 71.8327C150.716 69.2893 140.913 65.194 131.678 59.5674C129.601 58.3022 128.663 55.7666 129.415 53.4466L135.833 33.627C135.082 35.947 136.019 38.4825 138.097 39.7477C146.724 45.0023 157.039 49.3107 167.376 52.1367Z" fill="#1B1B1B"/>
<path d="M174.711 53.8886C172.279 53.3927 169.827 52.8048 167.376 52.1363L169.89 44.3735L174.711 53.8886Z" fill="url(#paint6_linear)"/>
<path d="M150.006 74.712C150.006 74.712 143.6 69.6885 126.019 63.9326L123.339 72.2094C122.584 74.5389 123.538 77.0741 125.623 78.3438C130.116 81.079 134.743 83.4521 139.494 85.4609C142.818 86.8664 146.629 85.14 147.745 81.6951L150.006 74.712Z" fill="url(#paint7_linear)"/>
<path d="M145.545 74.8993C130.33 65.6607 113.577 60.5615 95.6748 59.7292C101.644 41.298 107.612 22.8668 113.581 4.43555C129.869 5.19298 145.204 9.48147 159.295 17.206C163.893 19.7265 166.045 25.1855 164.425 30.1887C160.486 42.3502 147.891 81.2439 147.891 81.2439C148.67 78.8386 147.699 76.2077 145.545 74.8993Z" fill="url(#paint8_linear)"/>
<path d="M154.634 31.6005C152.317 30.3304 149.965 29.155 147.582 28.0708L141.337 47.354C143.72 48.4381 146.072 49.6133 148.389 50.8837C152.987 53.4042 155.139 58.8631 153.518 63.8663C156.046 56.06 158.413 48.7515 159.763 44.5832C161.384 39.58 159.232 34.1208 154.634 31.6005Z" fill="url(#paint9_linear)"/>
<path d="M128.465 21.54L122.22 40.8232C128.794 42.3707 135.174 44.5506 141.337 47.354L147.582 28.0708C141.418 25.2675 135.039 23.0875 128.465 21.54Z" fill="url(#paint10_linear)"/>
<path d="M108.92 18.8301C106.838 25.2577 104.756 31.6856 102.675 38.1132C109.357 38.424 115.879 39.3301 122.22 40.8232L128.465 21.54C122.124 20.0472 115.602 19.1408 108.92 18.8301Z" fill="url(#paint11_linear)"/>
<path d="M122.221 40.8232L115.221 62.4383C121.794 63.9855 128.174 66.1648 134.338 68.9669L141.337 47.354C135.174 44.5507 128.794 42.3707 122.221 40.8232Z" fill="url(#paint12_linear)"/>
<path d="M147.582 28.0711L152.243 13.6768C146.08 10.8706 139.7 8.6913 133.126 7.146L128.465 21.5401C135.039 23.0876 141.418 25.2675 147.582 28.0711Z" fill="url(#paint13_linear)"/>
<path d="M147.891 81.2439C147.891 81.2437 148.949 77.9772 150.546 73.0461L115.835 4.56589C115.085 4.51582 114.335 4.47051 113.581 4.43555C107.612 22.8668 101.643 41.298 95.6743 59.7292C113.577 60.5615 130.33 65.6605 145.544 74.8993C147.699 76.2077 148.67 78.8386 147.891 81.2439Z" fill="url(#paint14_linear)"/>
<path d="M108.92 18.8298C115.602 19.1406 122.123 20.0469 128.465 21.5398L133.126 7.14565C126.785 5.65322 120.263 4.74602 113.58 4.43506L95.6733 59.7295C102.356 60.0405 108.879 60.9455 115.22 62.438L122.22 40.8229C115.879 39.3301 109.357 38.424 102.675 38.113C104.756 31.6851 106.838 25.2575 108.92 18.8298Z" fill="#1B1B1B"/>
<path d="M159.769 44.5636C161.672 38.687 163.363 33.4668 164.424 30.1891C166.045 25.1844 163.893 19.7258 159.296 17.2064C156.978 15.9348 154.627 14.7589 152.243 13.6763L147.582 28.0706C149.965 29.1548 152.317 30.33 154.634 31.6004C159.226 34.1174 161.378 39.5658 159.769 44.5636Z" fill="#1B1B1B"/>
<path d="M148.389 50.8835C146.072 49.6133 143.72 48.4379 141.337 47.3538L134.338 68.9666C138.158 70.7062 141.895 72.6826 145.545 74.8993C146.621 75.5542 147.403 76.5376 147.817 77.6599C148.233 78.7831 148.28 80.0408 147.89 81.2438C147.89 81.2438 150.398 73.5022 153.524 63.8467C155.133 58.8489 152.981 53.4005 148.389 50.8835Z" fill="#1B1B1B"/>
<path d="M128.465 21.54L122.22 40.8232C128.794 42.3707 135.174 44.5506 141.337 47.354L147.582 28.0708C141.418 25.2675 135.039 23.0875 128.465 21.54Z" fill="#1B1B1B"/>
<path d="M123.953 20.5858C119.042 19.6535 114.028 19.067 108.92 18.829L113.581 4.43506C114 4.45448 114.415 4.47606 114.832 4.50044C115.167 4.5231 115.501 4.54339 115.836 4.56605L115.837 4.56928L123.953 20.5858Z" fill="#3D3D3D"/>
<path opacity="0.2" d="M150.544 73.0465L147.89 81.2423C148.206 80.2661 148.235 79.2516 148.012 78.303C147.978 78.158 147.936 78.0134 147.891 77.8701C147.869 77.8015 147.845 77.7294 147.818 77.6593C147.662 77.2376 147.456 76.8382 147.201 76.4674C147.117 76.3423 147.025 76.2206 146.929 76.1053C146.881 76.0477 146.833 75.9903 146.783 75.9321C146.632 75.7629 146.47 75.6012 146.295 75.4491C146.065 75.2484 145.814 75.0633 145.545 74.9001C145.042 74.5933 144.536 74.2942 144.029 73.9977C143.458 73.6604 142.884 73.3332 142.306 73.0078C142.237 72.9714 142.167 72.9317 142.096 72.8919C141.701 72.6708 141.305 72.4522 140.908 72.2387C140.686 72.1188 140.464 71.9988 140.238 71.8805C140.016 71.7605 139.793 71.6431 139.567 71.5249C139.344 71.4075 139.118 71.2916 138.892 71.1759C138.746 71.1009 138.597 71.0236 138.449 70.9476C138.265 70.8542 138.079 70.7599 137.892 70.6682C137.684 70.564 137.474 70.4589 137.263 70.3564C136.904 70.1779 136.542 70.0009 136.181 69.8298C135.727 69.6117 135.271 69.3985 134.814 69.1878C134.655 69.1136 134.498 69.0398 134.338 68.9682L139.85 51.9482L150.544 73.0465Z" fill="#1B1B1B"/>
<path d="M136.479 45.2925C131.84 43.4591 127.082 41.9689 122.221 40.8238L126.896 26.3872L136.479 45.2925Z" fill="#3D3D3D"/>
<path d="M159.763 44.583C159.766 44.5767 159.767 44.5702 159.769 44.564C157.762 50.7635 155.517 57.6938 153.524 63.8471C153.522 63.8534 153.521 63.8599 153.519 63.8661C156.047 56.0598 158.414 48.751 159.763 44.583Z" fill="url(#paint15_linear)"/>
<path d="M154.634 31.6005C152.317 30.3304 149.965 29.155 147.582 28.0708L141.337 47.354C143.72 48.4381 146.072 49.6133 148.389 50.8837C152.981 53.401 155.133 58.8491 153.524 63.8471C155.517 57.6938 157.761 50.7635 159.769 44.564C161.378 39.5659 159.226 34.1176 154.634 31.6005Z" fill="url(#paint16_linear)"/>
<path d="M81.3685 103.902C80.3282 103.562 79.7593 102.44 80.0977 101.395L112.488 1.37456C112.827 0.32947 113.944 -0.241737 114.985 0.0981387C116.025 0.438015 116.594 1.56036 116.255 2.60545L83.8648 102.625C83.5264 103.67 82.4088 104.242 81.3685 103.902Z" fill="#1F75AF"/>
<path d="M19.0186 93.2683C35.238 91.8301 50.4638 86.8187 64.3977 78.3317C66.4753 77.0663 67.4135 74.5305 66.6617 72.2096L50.0131 20.8003C35.8091 30.2025 20.1919 35.8843 3.49252 37.7371C0.472466 38.0723 -1.03789 41.5748 0.799667 44.0053C4.5401 48.9522 8.30416 53.8803 12.0921 58.7905C15.1504 62.755 16.6156 67.7278 16.201 72.7258C15.7502 78.1567 15.2844 83.5865 14.8051 89.0148C14.5909 91.4397 16.6047 93.4824 19.0186 93.2683Z" fill="url(#paint17_linear)"/>
<path d="M58.321 59.5684C60.3986 58.303 61.3368 55.7672 60.585 53.4463L66.6612 72.2094C67.413 74.5303 66.4748 77.0658 64.3972 78.3315C55.1626 83.9564 45.3604 88.0528 35.0777 90.5957L29.0015 71.8326C39.2839 69.2895 49.0866 65.1933 58.321 59.5684Z" fill="url(#paint18_linear)"/>
<path d="M51.9028 39.7483C43.2766 45.0027 32.9611 49.3115 22.6233 52.1362L17.172 35.3032C17.1718 35.3032 17.1716 35.3032 17.1716 35.3032C28.7719 32.4342 39.7609 27.587 50.0133 20.8003L54.1666 33.626C54.9184 35.9471 53.9801 38.4827 51.9028 39.7483Z" fill="url(#paint19_linear)"/>
<path d="M16.0779 74.1806C20.4631 73.6627 24.7729 72.8787 29.0014 71.8328L35.0776 90.5959C29.8449 91.89 24.4882 92.7834 19.0181 93.2683C16.6041 93.4823 14.5906 91.4396 14.8046 89.015C15.2413 84.0713 15.665 79.1264 16.0779 74.1806Z" fill="#1B1B1B"/>
<path d="M16.2006 72.7258C16.6155 67.7277 15.1503 62.755 12.0918 58.7904C11.1061 57.5127 10.1264 56.2304 9.1441 54.9501C13.5475 54.3289 18.087 53.3753 22.6228 52.1357L29.0015 71.8326C24.7727 72.8785 20.4631 73.6623 16.078 74.1804C16.1184 73.6955 16.1605 73.2106 16.2006 72.7258Z" fill="url(#paint20_linear)"/>
<path d="M26.0354 32.6841C34.3991 29.7998 42.4089 25.8339 50.0131 20.8003L66.6617 72.2096C67.4135 74.5305 66.4753 77.0661 64.3977 78.3317C50.464 86.8191 35.238 91.8301 19.0186 93.2683C16.6047 93.4824 14.5909 91.4397 14.8051 89.015C15.2846 83.5865 15.7502 78.1567 16.201 72.726C16.5961 67.965 15.2816 63.2287 12.5127 59.363L26.0354 32.6841Z" fill="url(#paint21_linear)"/>
<path d="M51.9028 39.7481C53.9804 38.4826 54.9186 35.9468 54.1669 33.626L60.5855 53.4463C61.3373 55.7671 60.3993 58.3027 58.3215 59.5683C49.0869 65.1932 39.2846 69.2897 29.002 71.8326L22.6233 52.1357C32.9609 49.311 43.2764 45.0022 51.9028 39.7481Z" fill="url(#paint22_linear)"/>
<path d="M0.79965 44.0056C-1.03791 41.5753 0.472656 38.0725 3.4925 37.7374C8.13828 37.2221 12.7003 36.4092 17.1718 35.3032L22.623 52.1363C18.0873 53.3756 13.548 54.3294 9.14439 54.9506C6.35121 51.3113 3.56662 47.6652 0.79965 44.0056Z" fill="#1B1B1B"/>
<path d="M22.6237 52.1367L29.0022 71.8327C39.2835 69.2893 49.0875 65.194 58.3219 59.5674C60.3994 58.3022 61.3366 55.7666 60.585 53.4466L54.1666 33.627C54.9179 35.947 53.981 38.4825 51.9034 39.7477C43.2755 45.0023 32.9611 49.3107 22.6237 52.1367Z" fill="#1B1B1B"/>
<path d="M15.2886 53.8886C17.7212 53.3927 20.1728 52.8048 22.6235 52.1363L20.1096 44.3735L15.2886 53.8886Z" fill="url(#paint23_linear)"/>
<path d="M39.9937 74.712C39.9937 74.712 46.3997 69.6885 63.981 63.9326L66.6614 72.2094C67.4159 74.5389 66.4625 77.0741 64.3767 78.3438C59.8839 81.079 55.2568 83.4521 50.5056 85.4609C47.1815 86.8664 43.3706 85.14 42.2551 81.6951L39.9937 74.712Z" fill="url(#paint24_linear)"/>
<path d="M44.4555 74.8993C59.6698 65.6607 76.4227 60.5615 94.3252 59.7292C88.3562 41.298 82.3876 22.8668 76.4186 4.43555C60.1313 5.19298 44.7958 9.48147 30.7046 17.206C26.1067 19.7265 23.9548 25.1855 25.5752 30.1887C29.5137 42.3502 42.1091 81.2439 42.1091 81.2439C41.3299 78.8386 42.3006 76.2077 44.4555 74.8993Z" fill="url(#paint25_linear)"/>
<path d="M35.3662 31.6005C37.6835 30.3304 40.035 29.155 42.4182 28.0708L48.6631 47.354C46.2798 48.4381 43.9284 49.6133 41.6111 50.8837C37.0132 53.4042 34.8613 58.8631 36.4817 63.8663C33.9536 56.06 31.5869 48.7515 30.2368 44.5832C28.6164 39.58 30.7683 34.1208 35.3662 31.6005Z" fill="url(#paint26_linear)"/>
<path d="M61.5349 21.54L67.7798 40.8232C61.206 42.3707 54.8264 44.5506 48.663 47.354L42.4181 28.0708C48.5818 25.2675 54.9611 23.0875 61.5349 21.54Z" fill="url(#paint27_linear)"/>
<path d="M81.0803 18.8301C83.162 25.2577 85.2436 31.6856 87.3252 38.1132C80.6429 38.424 74.1213 39.3301 67.7798 40.8232L61.5349 21.54C67.8765 20.0472 74.3983 19.1408 81.0803 18.8301Z" fill="url(#paint28_linear)"/>
<path d="M67.7795 40.8232L74.7793 62.4383C68.2062 63.9855 61.8262 66.1648 55.6619 68.9669L48.6627 47.354C54.8263 44.5507 61.2059 42.3707 67.7795 40.8232Z" fill="url(#paint29_linear)"/>
<path d="M42.4184 28.0711L37.7569 13.6768C43.9199 10.8706 50.2999 8.6913 56.8737 7.146L61.5352 21.5401C54.9614 23.0876 48.582 25.2675 42.4184 28.0711Z" fill="url(#paint30_linear)"/>
<path d="M42.1092 81.2439C42.1092 81.2437 41.0513 77.9772 39.4544 73.0461L74.1654 4.56589C74.9148 4.51582 75.6654 4.47051 76.4191 4.43555C82.3881 22.8668 88.3567 41.298 94.3257 59.7292C76.4232 60.5615 59.6703 65.6605 44.4559 74.8993C42.3006 76.2077 41.33 78.8386 42.1092 81.2439Z" fill="url(#paint31_linear)"/>
<path d="M81.0805 18.8298C74.3984 19.1406 67.8766 20.0469 61.5351 21.5398L56.8736 7.14565C63.2151 5.65322 69.7372 4.74602 76.4199 4.43506L94.3267 59.7295C87.6437 60.0405 81.1213 60.9455 74.7797 62.438L67.7799 40.8229C74.1215 39.3301 80.6433 38.424 87.3253 38.113C85.2437 31.6851 83.1621 25.2575 81.0805 18.8298Z" fill="#1B1B1B"/>
<path d="M30.231 44.5636C28.3279 38.687 26.6375 33.4668 25.5757 30.1891C23.9552 25.1844 26.1075 19.7258 30.7043 17.2064C33.022 15.9348 35.373 14.7589 37.7565 13.6763L42.418 28.0706C40.0347 29.1548 37.6832 30.33 35.3659 31.6004C30.7741 34.1174 28.6222 39.5658 30.231 44.5636Z" fill="#1B1B1B"/>
<path d="M41.6109 50.8835C43.9282 49.6133 46.2797 48.4379 48.6629 47.3538L55.6621 68.9666C51.8418 70.7062 48.1048 72.6826 44.4548 74.8993C43.3793 75.5542 42.5972 76.5376 42.1832 77.6599C41.7671 78.7831 41.72 80.0408 42.1096 81.2438C42.1096 81.2438 39.6023 73.5022 36.4757 63.8467C34.867 58.8489 37.0188 53.4005 41.6109 50.8835Z" fill="#1B1B1B"/>
<path d="M61.5349 21.54L67.7798 40.8232C61.206 42.3707 54.8264 44.5506 48.663 47.354L42.4181 28.0708C48.5818 25.2675 54.9611 23.0875 61.5349 21.54Z" fill="#1B1B1B"/>
<path d="M66.0466 20.5858C70.9575 19.6535 75.972 19.067 81.0801 18.829L76.4186 4.43506C75.9999 4.45448 75.5848 4.47606 75.1678 4.50044C74.8335 4.5231 74.4986 4.54339 74.1643 4.56605L74.1625 4.56928L66.0466 20.5858Z" fill="#3D3D3D"/>
<path opacity="0.2" d="M39.4556 73.0465L42.1098 81.2423C41.7935 80.2661 41.7652 79.2516 41.9882 78.303C42.0219 78.158 42.0638 78.0134 42.1091 77.8701C42.1313 77.8015 42.1553 77.7294 42.1824 77.6593C42.3375 77.2376 42.5442 76.8382 42.799 76.4674C42.8834 76.3423 42.9745 76.2206 43.0705 76.1053C43.1187 76.0477 43.1666 75.9903 43.2173 75.9321C43.3681 75.7629 43.5297 75.6012 43.7052 75.4491C43.9346 75.2484 44.1858 75.0633 44.455 74.9001C44.9584 74.5933 45.4641 74.2942 45.9707 73.9977C46.5418 73.6604 47.1165 73.3332 47.6942 73.0078C47.7629 72.9714 47.8334 72.9317 47.9039 72.8919C48.2988 72.6708 48.6945 72.4522 49.0922 72.2387C49.3143 72.1188 49.5365 71.9988 49.7621 71.8805C49.9842 71.7605 50.2072 71.6431 50.4328 71.5249C50.6558 71.4075 50.8821 71.2916 51.1085 71.1759C51.2535 71.1009 51.4035 71.0236 51.5511 70.9476C51.7346 70.8542 51.9208 70.7599 52.1077 70.6682C52.3157 70.564 52.526 70.4589 52.737 70.3564C53.0958 70.1779 53.4578 70.0009 53.8192 69.8298C54.2734 69.6117 54.7295 69.3985 55.186 69.1878C55.3452 69.1136 55.5021 69.0398 55.6621 68.9682L50.1503 51.9482L39.4556 73.0465Z" fill="#1B1B1B"/>
<path d="M53.5214 45.2925C58.1599 43.4591 62.9178 41.9689 67.7793 40.8238L63.1041 26.3872L53.5214 45.2925Z" fill="#3D3D3D"/>
<path d="M30.2366 44.583C30.2344 44.5767 30.2329 44.5702 30.2308 44.564C32.2385 50.7635 34.4828 57.6938 36.4756 63.8471C36.4776 63.8534 36.4793 63.8599 36.4814 63.8661C33.9532 56.0598 31.5864 48.751 30.2366 44.583Z" fill="url(#paint32_linear)"/>
<path d="M35.3662 31.6005C37.6835 30.3304 40.035 29.155 42.4182 28.0708L48.6631 47.354C46.2798 48.4381 43.9284 49.6133 41.6111 50.8837C37.019 53.401 34.8671 58.8491 36.4759 63.8471C34.4832 57.6938 32.2389 50.7635 30.231 44.564C28.6225 39.5659 30.7743 34.1176 35.3662 31.6005Z" fill="url(#paint33_linear)"/>
<path d="M108.632 103.902C109.672 103.562 110.241 102.44 109.902 101.395L77.5116 1.37456C77.1732 0.32947 76.0556 -0.241737 75.0153 0.0981387C73.9751 0.438015 73.4062 1.56036 73.7445 2.60545L106.135 102.625C106.474 103.67 107.591 104.242 108.632 103.902Z" fill="#1F75AF"/>
<defs>
<linearGradient id="paint0_linear" x1="155.878" y1="73.2986" x2="181.068" y2="80.313" gradientUnits="userSpaceOnUse">
<stop stop-color="#E2EDF2"/>
<stop offset="1" stop-color="#9FC7E2"/>
</linearGradient>
<linearGradient id="paint1_linear" x1="154.876" y1="73.1259" x2="149.04" y2="71.1414" gradientUnits="userSpaceOnUse">
<stop stop-color="#E2EDF2"/>
<stop offset="1" stop-color="#9FC7E2"/>
</linearGradient>
<linearGradient id="paint2_linear" x1="166.568" y1="37.9221" x2="161.01" y2="35.3548" gradientUnits="userSpaceOnUse">
<stop stop-color="#E2EDF2"/>
<stop offset="1" stop-color="#9FC7E2"/>
</linearGradient>
<linearGradient id="paint3_linear" x1="160.082" y1="56.3142" x2="154.133" y2="54.7366" gradientUnits="userSpaceOnUse">
<stop stop-color="#E2EDF2"/>
<stop offset="1" stop-color="#9FC7E2"/>
</linearGradient>
<linearGradient id="paint4_linear" x1="174.592" y1="69.0233" x2="143.591" y2="34.5712" gradientUnits="userSpaceOnUse">
<stop stop-color="#9FC7E2" stop-opacity="0.01"/>
<stop offset="1" stop-color="#9FC7E2"/>
</linearGradient>
<linearGradient id="paint5_linear" x1="147.767" y1="61.6307" x2="163.972" y2="66.9285" gradientUnits="userSpaceOnUse">
<stop stop-color="#654E48"/>
<stop offset="1" stop-color="#503837"/>
</linearGradient>
<linearGradient id="paint6_linear" x1="189.456" y1="53.316" x2="166.065" y2="25.8938" gradientUnits="userSpaceOnUse">
<stop stop-color="#3E2E28" stop-opacity="0.01"/>
<stop offset="1" stop-color="#503837"/>
</linearGradient>
<linearGradient id="paint7_linear" x1="146.574" y1="88.9146" x2="151.617" y2="65.6257" gradientUnits="userSpaceOnUse">
<stop stop-color="#E2EDF2"/>
<stop offset="1" stop-color="#9FC7E2"/>
</linearGradient>
<linearGradient id="paint8_linear" x1="130.785" y1="56.2166" x2="156.721" y2="63.1113" gradientUnits="userSpaceOnUse">
<stop stop-color="#E2EDF2"/>
<stop offset="1" stop-color="#9FC7E2"/>
</linearGradient>
<linearGradient id="paint9_linear" x1="132.722" y1="64.9838" x2="158.818" y2="67.3762" gradientUnits="userSpaceOnUse">
<stop stop-color="#E2EDF2"/>
<stop offset="1" stop-color="#9FC7E2"/>
</linearGradient>
<linearGradient id="paint10_linear" x1="134.642" y1="39.316" x2="143.839" y2="42.2153" gradientUnits="userSpaceOnUse">
<stop stop-color="#E2EDF2"/>
<stop offset="1" stop-color="#9FC7E2"/>
</linearGradient>
<linearGradient id="paint11_linear" x1="130.59" y1="45.0039" x2="150.629" y2="54.0062" gradientUnits="userSpaceOnUse">
<stop stop-color="#E2EDF2"/>
<stop offset="1" stop-color="#9FC7E2"/>
</linearGradient>
<linearGradient id="paint12_linear" x1="125.362" y1="66.1048" x2="146.611" y2="72.0828" gradientUnits="userSpaceOnUse">
<stop stop-color="#E2EDF2"/>
<stop offset="1" stop-color="#9FC7E2"/>
</linearGradient>
<linearGradient id="paint13_linear" x1="136.72" y1="26.7428" x2="157.006" y2="35.3003" gradientUnits="userSpaceOnUse">
<stop stop-color="#E2EDF2"/>
<stop offset="1" stop-color="#9FC7E2"/>
</linearGradient>
<linearGradient id="paint14_linear" x1="139.705" y1="42.2434" x2="99.3443" y2="1.60779" gradientUnits="userSpaceOnUse">
<stop stop-color="#9FC7E2" stop-opacity="0.01"/>
<stop offset="1" stop-color="#9FC7E2"/>
</linearGradient>
<linearGradient id="paint15_linear" x1="154.788" y1="58.8604" x2="158.184" y2="58.9767" gradientUnits="userSpaceOnUse">
<stop stop-color="#E2EDF2"/>
<stop offset="1" stop-color="#9FC7E2"/>
</linearGradient>
<linearGradient id="paint16_linear" x1="131.418" y1="60.1151" x2="152.867" y2="62.0836" gradientUnits="userSpaceOnUse">
<stop stop-color="#E2EDF2"/>
<stop offset="1" stop-color="#9FC7E2"/>
</linearGradient>
<linearGradient id="paint17_linear" x1="34.1215" y1="73.2986" x2="8.93248" y2="80.313" gradientUnits="userSpaceOnUse">
<stop stop-color="#E2EDF2"/>
<stop offset="1" stop-color="#9FC7E2"/>
</linearGradient>
<linearGradient id="paint18_linear" x1="35.1244" y1="73.1259" x2="40.9601" y2="71.1414" gradientUnits="userSpaceOnUse">
<stop stop-color="#E2EDF2"/>
<stop offset="1" stop-color="#9FC7E2"/>
</linearGradient>
<linearGradient id="paint19_linear" x1="23.4316" y1="37.9221" x2="28.9904" y2="35.3548" gradientUnits="userSpaceOnUse">
<stop stop-color="#E2EDF2"/>
<stop offset="1" stop-color="#9FC7E2"/>
</linearGradient>
<linearGradient id="paint20_linear" x1="29.9179" y1="56.3142" x2="35.8674" y2="54.7366" gradientUnits="userSpaceOnUse">
<stop stop-color="#E2EDF2"/>
<stop offset="1" stop-color="#9FC7E2"/>
</linearGradient>
<linearGradient id="paint21_linear" x1="15.408" y1="69.0233" x2="46.409" y2="34.5712" gradientUnits="userSpaceOnUse">
<stop stop-color="#9FC7E2" stop-opacity="0.01"/>
<stop offset="1" stop-color="#9FC7E2"/>
</linearGradient>
<linearGradient id="paint22_linear" x1="42.2333" y1="61.6307" x2="26.0281" y2="66.9285" gradientUnits="userSpaceOnUse">
<stop stop-color="#654E48"/>
<stop offset="1" stop-color="#503837"/>
</linearGradient>
<linearGradient id="paint23_linear" x1="0.543962" y1="53.316" x2="23.9346" y2="25.8938" gradientUnits="userSpaceOnUse">
<stop stop-color="#3E2E28" stop-opacity="0.01"/>
<stop offset="1" stop-color="#503837"/>
</linearGradient>
<linearGradient id="paint24_linear" x1="43.4255" y1="88.9146" x2="38.3829" y2="65.6257" gradientUnits="userSpaceOnUse">
<stop stop-color="#E2EDF2"/>
<stop offset="1" stop-color="#9FC7E2"/>
</linearGradient>
<linearGradient id="paint25_linear" x1="59.215" y1="56.2166" x2="33.2793" y2="63.1113" gradientUnits="userSpaceOnUse">
<stop stop-color="#E2EDF2"/>
<stop offset="1" stop-color="#9FC7E2"/>
</linearGradient>
<linearGradient id="paint26_linear" x1="57.2776" y1="64.9838" x2="31.1821" y2="67.3762" gradientUnits="userSpaceOnUse">
<stop stop-color="#E2EDF2"/>
<stop offset="1" stop-color="#9FC7E2"/>
</linearGradient>
<linearGradient id="paint27_linear" x1="55.3576" y1="39.316" x2="46.1613" y2="42.2153" gradientUnits="userSpaceOnUse">
<stop stop-color="#E2EDF2"/>
<stop offset="1" stop-color="#9FC7E2"/>
</linearGradient>
<linearGradient id="paint28_linear" x1="59.4104" y1="45.0039" x2="39.3715" y2="54.0062" gradientUnits="userSpaceOnUse">
<stop stop-color="#E2EDF2"/>
<stop offset="1" stop-color="#9FC7E2"/>
</linearGradient>
<linearGradient id="paint29_linear" x1="64.6383" y1="66.1048" x2="43.389" y2="72.0828" gradientUnits="userSpaceOnUse">
<stop stop-color="#E2EDF2"/>
<stop offset="1" stop-color="#9FC7E2"/>
</linearGradient>
<linearGradient id="paint30_linear" x1="53.2797" y1="26.7428" x2="32.9945" y2="35.3003" gradientUnits="userSpaceOnUse">
<stop stop-color="#E2EDF2"/>
<stop offset="1" stop-color="#9FC7E2"/>
</linearGradient>
<linearGradient id="paint31_linear" x1="50.2953" y1="42.2434" x2="90.6557" y2="1.60779" gradientUnits="userSpaceOnUse">
<stop stop-color="#9FC7E2" stop-opacity="0.01"/>
<stop offset="1" stop-color="#9FC7E2"/>
</linearGradient>
<linearGradient id="paint32_linear" x1="35.2117" y1="58.8604" x2="31.8155" y2="58.9767" gradientUnits="userSpaceOnUse">
<stop stop-color="#E2EDF2"/>
<stop offset="1" stop-color="#9FC7E2"/>
</linearGradient>
<linearGradient id="paint33_linear" x1="58.5824" y1="60.1151" x2="37.1325" y2="62.0836" gradientUnits="userSpaceOnUse">
<stop stop-color="#E2EDF2"/>
<stop offset="1" stop-color="#9FC7E2"/>
</linearGradient>
</defs>
</svg>
