<svg width="30" height="30" viewBox="0 0 30 30" fill="none" xmlns="http://www.w3.org/2000/svg">
<path d="M24.1406 7.96875C24.1406 8.29216 24.4032 8.55469 24.7266 8.55469C25.05 8.55469 25.3125 8.29216 25.3125 7.96875C25.3125 7.64534 25.05 7.38281 24.7266 7.38281C24.4032 7.38281 24.1406 7.64534 24.1406 7.96875Z" fill="#1F75AF"/>
<path d="M26.4844 14.9998C26.4844 15.7503 26.4091 16.4994 26.2608 17.2264C26.196 17.5434 26.4007 17.8528 26.7177 17.9176C26.7573 17.9258 26.7966 17.9297 26.8355 17.9297C27.1081 17.9297 27.3524 17.7381 27.4091 17.4607C27.5732 16.6567 27.6563 15.8288 27.6563 14.9998C27.6563 13.1548 27.2562 11.3793 26.4668 9.7227C26.3277 9.43064 25.9782 9.30659 25.6859 9.44575C25.3936 9.58491 25.2698 9.93464 25.4089 10.2269C26.1226 11.7247 26.4844 13.3306 26.4844 14.9998Z" fill="#1F75AF"/>
<path fill-rule="evenodd" clip-rule="evenodd" d="M17.3437 20.2734H17.9297C18.2533 20.2734 18.5156 20.5357 18.5156 20.8594V23.2031C18.5156 23.5268 18.2533 23.7891 17.9297 23.7891H12.0703C11.7467 23.7891 11.4844 23.5268 11.4844 23.2031V20.8594C11.4844 20.5357 11.7467 20.2734 12.0703 20.2734H12.6562V15.5859H12.0703C11.7467 15.5859 11.4844 15.3236 11.4844 15V12.6562C11.4844 12.3326 11.7467 12.0703 12.0703 12.0703H16.7578C17.0814 12.0703 17.3437 12.3326 17.3437 12.6562V20.2734ZM12.6562 22.6172H17.3437V21.4453H16.7578C16.4344 21.4453 16.1719 21.183 16.1719 20.8594V13.2422H12.6562V14.4141H13.2422C13.5658 14.4141 13.8281 14.6764 13.8281 15V20.8594C13.8281 21.183 13.5658 21.4453 13.2422 21.4453H12.6562V22.6172Z" fill="#1F75AF"/>
<path fill-rule="evenodd" clip-rule="evenodd" d="M17.3437 8.55469C17.3437 9.84695 16.2923 10.8984 15 10.8984C13.7077 10.8984 12.6562 9.84695 12.6562 8.55469C12.6562 7.26242 13.7077 6.21094 15 6.21094C16.2923 6.21094 17.3437 7.26242 17.3437 8.55469ZM16.1719 8.55469C16.1719 7.90855 15.6461 7.38281 15 7.38281C14.3539 7.38281 13.8281 7.90855 13.8281 8.55469C13.8281 9.20082 14.3539 9.72656 15 9.72656C15.6461 9.72656 16.1719 9.20082 16.1719 8.55469Z" fill="#1F75AF"/>
<path fill-rule="evenodd" clip-rule="evenodd" d="M30 15C30 6.90239 23.0845 0 15 0C6.90307 0 0 6.91338 0 15C0 23.0967 6.91337 30 15 30C17.766 30 20.7076 29.2076 22.9323 27.8709L29.2286 29.9698C29.4381 30.0398 29.6706 29.986 29.8283 29.8283C29.9853 29.6716 30.04 29.4392 29.97 29.2289L27.8709 22.9326C29.2074 20.7076 30 17.766 30 15ZM22.5444 26.7336C20.4737 28.0451 17.6534 28.8281 15 28.8281C7.50434 28.8281 1.17187 22.4957 1.17187 15C1.17187 7.50435 7.50434 1.17188 15 1.17188C22.4956 1.17188 28.8281 7.50435 28.8281 15C28.8281 17.6534 28.0451 20.4739 26.7336 22.5444C26.6393 22.6932 26.6169 22.8763 26.6727 23.0434L28.4875 28.4875L23.0433 26.6727C22.874 26.6162 22.6911 26.6407 22.5444 26.7336Z" fill="#1B1B1B"/>
</svg>
