<svg xmlns="http://www.w3.org/2000/svg" viewBox="0 0 121.43 25.16"><defs><style>.cls-1{fill:#fff;}.cls-2{fill:#1f75af;fill-rule:evenodd;}</style></defs><g id="Слой_2" data-name="Слой 2"><g id="Слой_1-2" data-name="Слой 1"><path class="cls-1" d="M47.71,21.5A9.42,9.42,0,0,1,44,20.86a5.5,5.5,0,0,1-2.33-1.71,4,4,0,0,1-.84-2.28.48.48,0,0,1,.5-.5h2.14a.67.67,0,0,1,.43.12.83.83,0,0,1,.31.33,2.43,2.43,0,0,0,1.11,1.37,4.3,4.3,0,0,0,2.35.55,4.84,4.84,0,0,0,2.57-.55,1.81,1.81,0,0,0,.86-1.58,1.45,1.45,0,0,0-.46-1.11,3.5,3.5,0,0,0-1.32-.74c-.57-.21-1.44-.46-2.59-.77a10.31,10.31,0,0,1-4.15-1.77A4,4,0,0,1,41.32,9a4.24,4.24,0,0,1,.75-2.47,5.09,5.09,0,0,1,2.18-1.7,8.26,8.26,0,0,1,3.34-.63,7.83,7.83,0,0,1,3.41.7,5.56,5.56,0,0,1,2.18,1.75A3.85,3.85,0,0,1,54,8.74a.5.5,0,0,1-.51.5H51.26a.69.69,0,0,1-.7-.46,1.88,1.88,0,0,0-1-1.27,3.62,3.62,0,0,0-2-.53,3.76,3.76,0,0,0-2.11.51A1.62,1.62,0,0,0,44.71,9a1.64,1.64,0,0,0,.38,1.11,3.35,3.35,0,0,0,1.2.76,19.7,19.7,0,0,0,2.4.75,16.21,16.21,0,0,1,3.36,1.08,4.38,4.38,0,0,1,1.87,1.51,4.16,4.16,0,0,1,.6,2.33,4.35,4.35,0,0,1-.86,2.69,5.25,5.25,0,0,1-2.4,1.72A9.71,9.71,0,0,1,47.71,21.5Zm10.16-.24a.62.62,0,0,1-.43-.14.6.6,0,0,1-.17-.43V5.06a.58.58,0,0,1,.6-.6h1.9a.74.74,0,0,1,.72.46l4.63,8.64L69.8,4.92a.78.78,0,0,1,.72-.46h1.87a.62.62,0,0,1,.44.17.59.59,0,0,1,.16.43V20.69a.59.59,0,0,1-.16.43.65.65,0,0,1-.44.14h-2A.56.56,0,0,1,70,21.1a.58.58,0,0,1-.17-.41V10.3l-3.36,6.4a.92.92,0,0,1-.81.53h-1a.91.91,0,0,1-.81-.53l-3.36-6.4V20.69a.58.58,0,0,1-.17.41.51.51,0,0,1-.41.16Zm17.83,0a.51.51,0,0,1-.36-.14.49.49,0,0,1-.15-.36l0-.22L81,5.06a.79.79,0,0,1,.84-.6h2.62a.82.82,0,0,1,.84.6L91.1,20.54a.61.61,0,0,1,0,.22.49.49,0,0,1-.15.36.42.42,0,0,1-.33.14H88.56a.69.69,0,0,1-.48-.14.77.77,0,0,1-.22-.31l-1.12-2.93H79.61l-1.13,2.93a.7.7,0,0,1-.7.45Zm10.2-6.14L83.16,7.7l-2.71,7.42Zm8,6.14a.54.54,0,0,1-.4-.16.54.54,0,0,1-.17-.41V5.06a.67.67,0,0,1,.14-.43.6.6,0,0,1,.43-.17h6.22a7,7,0,0,1,4.58,1.37,4.7,4.7,0,0,1,1.68,3.89,4.88,4.88,0,0,1-.86,2.95,4.71,4.71,0,0,1-2.35,1.71l3.5,6.12a.54.54,0,0,1,.07.26.46.46,0,0,1-.16.36.45.45,0,0,1-.34.14H104.1a1,1,0,0,1-.6-.16,1.88,1.88,0,0,1-.36-.48L100,14.93H96.7v5.76a.57.57,0,0,1-.16.41.53.53,0,0,1-.41.16Zm6.15-9a3.15,3.15,0,0,0,2.16-.65A2.37,2.37,0,0,0,103,9.7a2.45,2.45,0,0,0-.74-1.9,3.06,3.06,0,0,0-2.16-.67H96.7v5.09Zm13.51,9a.55.55,0,0,1-.57-.57V7.42h-4.44a.58.58,0,0,1-.58-.58V5.06a.67.67,0,0,1,.14-.43.62.62,0,0,1,.44-.17h12.24a.58.58,0,0,1,.6.6V6.84a.57.57,0,0,1-.17.41.6.6,0,0,1-.43.17h-4.42V20.69a.58.58,0,0,1-.17.41.57.57,0,0,1-.43.16Z"/><path class="cls-1" d="M6.17,21.26a.56.56,0,0,1-.41-.16.58.58,0,0,1-.17-.41V8.26l-3.65,2.8a.48.48,0,0,1-.33.12.57.57,0,0,1-.48-.26l-1-1.3A.65.65,0,0,1,0,9.26a.59.59,0,0,1,.26-.48L5.64,4.63a1,1,0,0,1,.6-.17H8.35A.58.58,0,0,1,8.93,5V20.69a.58.58,0,0,1-.17.41.51.51,0,0,1-.41.16Z"/><path class="cls-2" d="M36.64,3.33a25.23,25.23,0,0,1-5.91,9.25,25.23,25.23,0,0,1,5.91,9.25l-3.33,3.33a71.88,71.88,0,0,0-6.7-8.66A90.19,90.19,0,0,1,17,23.57a2.45,2.45,0,0,1-2.92-.2L14,23.25,12,21.3a84.15,84.15,0,0,0,10.79-8.72A83.26,83.26,0,0,0,12,3.87l2-2a2.44,2.44,0,0,1,3-.32,91.21,91.21,0,0,1,9.6,7.08A72.65,72.65,0,0,0,32.77.81L33.31,0Z"/></g></g></svg>