<svg xmlns="http://www.w3.org/2000/svg" viewBox="0 0 36.24 35.65"><defs><style>.cls-1{fill:#1f75af;fill-rule:evenodd;}</style></defs><g id="Слой_2" data-name="Слой 2"><g id="Слой_1-2" data-name="Слой 1"><path class="cls-1" d="M3.86.41A1.34,1.34,0,0,1,5.56.22c4.53,3,24.57,16.59,30.4,29.38a3.46,3.46,0,0,1-.82,3.87,4,4,0,0,1-6.06-.55A117.05,117.05,0,0,0,.3,5.14.71.71,0,0,1,.2,4.07Z"/><path class="cls-1" d="M3.86,35.24a1.34,1.34,0,0,0,1.7.19c4.53-3,24.57-16.58,30.4-29.38a3.46,3.46,0,0,0-.82-3.87,4,4,0,0,0-6.06.55A117.08,117.08,0,0,1,.3,30.52a.69.69,0,0,0-.1,1.06Z"/></g></g></svg>