<?xml version="1.0" encoding="utf-8"?><svg xmlns="http://www.w3.org/2000/svg" xmlns:xlink="http://www.w3.org/1999/xlink"><symbol fill="none" viewBox="0 0 26 26" id="conversation" xmlns="http://www.w3.org/2000/svg"><path d="M17.57 16.2a.508.508 0 00-.508.507v3.504c0 1.4-1.139 2.539-2.539 2.539H9.041a.508.508 0 00-.508.508v1.01L7.32 23.054a.508.508 0 00-.466-.305h-3.3a2.541 2.541 0 01-2.538-2.54v-7.82c0-1.4 1.139-2.538 2.539-2.538h5.129a.508.508 0 000-1.016h-5.13A3.559 3.559 0 000 12.39v7.82a3.559 3.559 0 003.555 3.555h3.04L8.68 25.85a.508.508 0 00.867-.358l.001-1.727h4.975a3.559 3.559 0 003.555-3.555v-3.504a.508.508 0 00-.508-.508z" fill="#1F75AF"/><path fill-rule="evenodd" clip-rule="evenodd" d="M17.334 0h1.285C22.69 0 26 3.311 26 7.38c0 1.18-.27 2.307-.802 3.35a7.45 7.45 0 01-1.94 2.392v2.938a.508.508 0 01-.867.359l-1.898-1.898a7.38 7.38 0 01-1.874.24h-1.285c-4.07 0-7.38-3.31-7.38-7.38S13.263 0 17.333 0zm4.908 12.874c0-.16.075-.31.202-.405a6.318 6.318 0 002.54-5.088 6.372 6.372 0 00-6.365-6.365h-1.285a6.372 6.372 0 00-6.365 6.365 6.372 6.372 0 006.365 6.365h1.285c.638 0 1.268-.094 1.872-.28a.507.507 0 01.509.126l1.242 1.242v-1.96z" fill="#1F75AF"/><path d="M20.263 5.556a2.155 2.155 0 00-1.993-1.993 2.133 2.133 0 00-1.618.573 2.157 2.157 0 00-.683 1.572.508.508 0 101.015 0c0-.318.128-.613.36-.83a1.135 1.135 0 111.023 1.936.961.961 0 00-.756.943v1.22a.508.508 0 001.015 0v-1.18a2.139 2.139 0 001.637-2.24zm-1.785 5.071a.512.512 0 00-.718 0 .512.512 0 000 .718.511.511 0 00.718 0 .512.512 0 000-.719zm-4.513 5.115H3.25a.508.508 0 100 1.016h10.715a.508.508 0 100-1.016zm.359 2.993a.512.512 0 00-.718 0 .512.512 0 000 .718.512.512 0 00.867-.359.512.512 0 00-.15-.36zm-2.357-.149H3.25a.508.508 0 000 1.016h8.717a.508.508 0 000-1.016zm-1.303-5.688H3.25a.508.508 0 000 1.016h7.414a.508.508 0 000-1.016z" fill="#1B1B1B"/></symbol><symbol fill="none" viewBox="0 0 30 30" id="economy" xmlns="http://www.w3.org/2000/svg"><path d="M16.172 13.066a.586.586 0 100 1.173.586.586 0 000-1.173z" fill="#1B1B1B"/><path fill-rule="evenodd" clip-rule="evenodd" d="M19.905 9.378a9.892 9.892 0 00-2.9-6.46A9.898 9.898 0 0010.038 0h-.017a2.864 2.864 0 00-.12 0h-.017a9.899 9.899 0 00-6.967 2.916A9.898 9.898 0 00.001 9.883V9.9L0 9.96a9.898 9.898 0 002.917 7.044 9.89 9.89 0 006.461 2.9C9.503 25.306 14.266 30 19.688 30 25.18 30 30 25.181 30 19.687c0-5.42-4.693-10.184-10.095-10.309zM6.985 1.695c-.705.897-1.29 2.118-1.697 3.593-1.475.406-2.696.992-3.593 1.696a8.874 8.874 0 015.29-5.289zm-2.289 7.68a18.14 18.14 0 01.29-2.772c-1.99.656-3.354 1.674-3.717 2.772h3.427zm0 1.172c.028.955.126 1.882.29 2.772-1.994-.657-3.354-1.673-3.717-2.772h3.427zm-3.011 2.385a8.762 8.762 0 002.061 3.244 8.761 8.761 0 003.243 2.061c-.706-.896-1.293-2.12-1.701-3.603-1.483-.408-2.707-.995-3.603-1.702zm7.69 5.72c-1.099-.362-2.115-1.722-2.772-3.717.89.165 1.817.262 2.772.29v3.427zm-3.12-4.985c.988.223 2.034.352 3.12.386v-3.506H5.869a16.61 16.61 0 00.385 3.12zm3.12-4.292H5.869a16.61 16.61 0 01.385-3.12 16.614 16.614 0 013.121-.386v3.506zM6.603 4.987a18.14 18.14 0 012.772-.29V1.268c-1.098.363-2.116 1.728-2.772 3.718zm11.624 1.997c-.897-.704-2.118-1.29-3.593-1.696-.406-1.475-.992-2.696-1.697-3.593a8.874 8.874 0 015.29 5.29zm-3.001 2.391h3.427c-.364-1.099-1.729-2.116-3.718-2.772.165.89.262 1.817.29 2.772zm-4.68-8.106c1.099.363 2.117 1.728 2.773 3.718a18.147 18.147 0 00-2.772-.29V1.268zm3.122 4.985a16.609 16.609 0 00-3.121-.385v3.506h3.506a16.618 16.618 0 00-.386-3.12zm-3.121 4.293h3.506c-.007.21-.017.42-.03.627a11.035 11.035 0 00-2.848 2.848 16.2 16.2 0 01-.628.03v-3.505zm0 9.14c0 4.87 4.271 9.141 9.14 9.141 4.87 0 9.141-4.271 9.141-9.14 0-4.87-4.271-9.141-9.14-9.141-.11 0-.22.002-.328.006-4.592.183-8.624 4.215-8.807 8.806a8.339 8.339 0 00-.006.328z" fill="#1B1B1B"/><path d="M25.16 14.216c-1.476-1.475-3.47-2.321-5.473-2.321-.454 0-.91.04-1.358.12a.586.586 0 10.208 1.154 6.53 6.53 0 011.15-.103c3.528 0 6.622 3.094 6.622 6.621 0 3.528-3.094 6.622-6.622 6.622-3.527 0-6.62-3.094-6.62-6.622 0-1.274.528-2.758 1.413-3.97a.586.586 0 00-.946-.69c-1.026 1.403-1.64 3.146-1.64 4.66 0 2.003.847 3.997 2.322 5.472 1.475 1.475 3.47 2.322 5.472 2.322 2.002 0 3.996-.847 5.471-2.322s2.322-3.47 2.322-5.471c0-2.003-.847-3.997-2.322-5.472z" fill="#1B1B1B"/><path fill-rule="evenodd" clip-rule="evenodd" d="M20.86 19.102h-.587v-2.344h.586c.323 0 .586.263.586.586a.586.586 0 001.172 0 1.76 1.76 0 00-1.758-1.758h-.586V15a.586.586 0 10-1.171 0v.586h-.586a1.76 1.76 0 00-1.758 1.758v1.172c0 .969.788 1.757 1.758 1.757h.586v2.344h-.586a.587.587 0 01-.586-.586.586.586 0 00-1.172 0c0 .97.788 1.758 1.758 1.758h.586v.586a.586.586 0 101.171 0v-.586h.586a1.76 1.76 0 001.758-1.758V20.86a1.76 1.76 0 00-1.758-1.757zm-1.758 0h-.586a.587.587 0 01-.586-.586v-1.172c0-.323.262-.586.586-.586h.586v2.344zm1.757 3.515a.587.587 0 00.586-.586V20.86a.587.587 0 00-.586-.586h-.586v2.344h.586z" fill="#1F75AF"/><path d="M20.86 1.523h-1.172a.586.586 0 000 1.172h1.171a.586.586 0 000-1.172zm3.515 0h-1.172a.586.586 0 000 1.172h1.172a.586.586 0 000-1.172zm3.515 7.032a.586.586 0 00-.585.586v1.171a.586.586 0 101.172 0v-1.17a.586.586 0 00-.586-.586zm0-3.515a.586.586 0 00-.585.585v1.172a.586.586 0 001.172 0V5.625a.586.586 0 00-.586-.586zm-1.171-3.517a.586.586 0 100 1.172c.323 0 .586.263.586.586a.586.586 0 001.172 0 1.76 1.76 0 00-1.758-1.758z" fill="#1F75AF"/><path d="M10.313 27.305H9.14a.586.586 0 000 1.172h1.171a.586.586 0 000-1.172zm-3.516 0H5.625a.586.586 0 000 1.172h1.172a.586.586 0 000-1.172zM2.11 19.102a.586.586 0 00-.587.585v1.172a.586.586 0 001.172 0v-1.172a.586.586 0 00-.586-.585zm0 3.515a.586.586 0 00-.587.586v1.172a.586.586 0 001.172 0v-1.172a.586.586 0 00-.586-.586zm1.171 4.688a.587.587 0 01-.586-.586.586.586 0 10-1.172 0 1.76 1.76 0 001.758 1.758.586.586 0 000-1.172z" fill="#1B1B1B"/></symbol><symbol fill="none" viewBox="0 0 40 40" id="karaoke" xmlns="http://www.w3.org/2000/svg"><path fill-rule="evenodd" clip-rule="evenodd" d="M37.534 23.395a1.38 1.38 0 011.206.223c.344.263.54.68.54 1.145v9.46c0 1.59-1.458 2.883-3.25 2.883-1.793 0-3.251-1.294-3.251-2.884 0-1.588 1.458-2.88 3.25-2.88a3.55 3.55 0 011.688.419v-3.198l-7.963 2.117a1.5 1.5 0 01-.183.037v6.4c0 1.59-1.459 2.883-3.251 2.883-1.794 0-3.253-1.294-3.253-2.883s1.46-2.881 3.253-2.881c.617 0 1.195.153 1.687.419v-7.308c0-.81.578-1.574 1.345-1.777l8.182-2.175zM24.63 37.117c0 .716.773 1.32 1.689 1.32.914 0 1.687-.604 1.687-1.32 0-.715-.773-1.32-1.687-1.32-.916 0-1.69.605-1.69 1.32zm11.399-1.574c-.915 0-1.688-.605-1.688-1.32 0-.715.773-1.32 1.688-1.32.914 0 1.687.605 1.687 1.32 0 .715-.773 1.32-1.687 1.32zm1.503-8.548c.068-.017.184-.158.184-.267v-1.765l-7.963 2.117h-.002c-.065.018-.181.159-.181.268v1.764l7.962-2.117zm-32.83-9.963c1.894 0 3.44-1.34 3.491-3.004l.003-.087V9.303l5.64-1.5c.81-.213 1.421-1.02 1.421-1.877v-2.16c0-.484-.204-.92-.56-1.194a1.445 1.445 0 00-1.262-.235L8.053 3.769c-.81.217-1.42 1.023-1.42 1.876v5.725a3.805 3.805 0 00-1.931-.516c-1.927 0-3.495 1.386-3.495 3.089s1.568 3.089 3.495 3.089zM8.196 6.725v-1.08c0-.15.15-.337.26-.367l5.238-1.393v2.041c0 .151-.147.338-.259.367l-5.24 1.394v-.962zm-1.564 7.218c0-.828-.884-1.527-1.93-1.527-1.047 0-1.931.7-1.931 1.527s.884 1.527 1.93 1.527c1.047 0 1.931-.7 1.931-1.527z" fill="#1B1B1B"/><path d="M10.229 28.645a.78.78 0 101.106 1.104l2.41-2.41a.78.78 0 10-1.107-1.104l-2.409 2.41z" fill="#1B1B1B"/><path fill-rule="evenodd" clip-rule="evenodd" d="M27.534 22.646l-1.729 1.727a2.502 2.502 0 01-2.916.45L9.07 37.43c-.545.5-1.229.749-1.904.749a2.69 2.69 0 01-.951-.174l-.97.97a3.049 3.049 0 01-2.173.897 3.05 3.05 0 01-2.173-.898A3.042 3.042 0 010 36.806c0-.822.319-1.594.898-2.173l1.018-1.018a2.79 2.79 0 01.625-2.707l12.617-13.811a2.498 2.498 0 01.45-2.915l1.729-1.725a11.32 11.32 0 011.625-7.05 2.705 2.705 0 01-.386-1.398c0-.728.282-1.41.794-1.921a2.725 2.725 0 013.322-.408 11.362 11.362 0 0113.979 1.647 11.335 11.335 0 011.645 13.968 2.723 2.723 0 01-.407 3.32 2.723 2.723 0 01-3.324.407 11.32 11.32 0 01-7.051 1.624zM22.109 3.192a1.157 1.157 0 00-1.634 0 1.145 1.145 0 00-.335.817c0 .31.12.6.335.816L35.17 19.51c.451.449 1.184.45 1.634 0 .45-.45.45-1.183 0-1.633l-4.867-4.866a.78.78 0 111.106-1.104l4.174 4.173a9.776 9.776 0 00-1.65-11.65 9.8 9.8 0 00-11.661-1.65l4.175 4.171a.78.78 0 11-1.106 1.105l-4.867-4.864zm-2.047 3.43l13.31 13.301a9.783 9.783 0 01-5.77 1.158l-8.7-8.697a9.766 9.766 0 011.16-5.762zM3.072 38.31c.405 0 .783-.156 1.066-.44l.806-.805-2.134-2.133-.805.805c-.284.284-.44.664-.44 1.068s.156.782.44 1.064c.283.285.662.44 1.067.44zm4.942-2.032c-.482.44-1.194.451-1.623.023l-2.719-2.717c-.427-.427-.416-1.14.025-1.623l1.286-1.408 4.44 4.438-1.41 1.287zm-1.976-6.88l4.542 4.539 7.691-7.017-5.211-5.208-7.022 7.686zm13.39-3.532l-5.313-5.309 2.072-2.269 2.756 2.753 2.755 2.754-2.27 2.07zm-2.714-9.26l6.668 6.662a.934.934 0 001.319 0l1.44-1.44-7.985-7.98-1.442 1.44a.932.932 0 000 1.317z" fill="#1F75AF"/><path d="M30.009 10.763a.78.78 0 00.553-1.334l-.003-.002a.78.78 0 10-1.103 1.107.78.78 0 00.553.23z" fill="#1B1B1B"/></symbol><symbol fill="none" viewBox="0 0 24 23" id="letter" xmlns="http://www.w3.org/2000/svg"><path fill-rule="evenodd" clip-rule="evenodd" d="M24 9.363a.495.495 0 00-.24-.429l-4.148-2.392v-5.48A1.053 1.053 0 0018.57 0H5.431c-.575 0-1.044.477-1.044 1.063v5.479L.241 8.934a.49.49 0 00-.24.43v13.153c0 .267.212.483.474.483h23.05a.479.479 0 00.475-.483V9.364zm-1.466-.025l-2.921 1.557V7.652l2.921 1.686zM18.57.966H5.431a.097.097 0 00-.095.097V11.4L12 14.952l6.664-3.552V1.063a.097.097 0 00-.095-.097zM4.387 10.895L1.466 9.338l2.921-1.686v3.243zM.95 22.034h22.1V10.153l-10.83 5.772a.466.466 0 01-.44 0L.95 10.152v11.882z" fill="#1F75AF"/><path d="M6.704 4.604h10.53a.479.479 0 00.474-.483.479.479 0 00-.475-.483H6.703a.479.479 0 00-.474.483.48.48 0 00.475.483zm0 1.9h10.53a.479.479 0 00.474-.483.479.479 0 00-.475-.483H6.703a.479.479 0 00-.474.483.48.48 0 00.475.483zm0 1.914h10.53a.479.479 0 00.474-.483.479.479 0 00-.475-.483H6.703a.479.479 0 00-.474.483.48.48 0 00.475.483zm0 1.908h10.53a.479.479 0 00.474-.483.479.479 0 00-.475-.483H6.703a.479.479 0 00-.474.483.48.48 0 00.475.483zm2.063 10.282c0 .267.212.483.474.483h12.49a.479.479 0 00.475-.483.479.479 0 00-.475-.483H9.241a.479.479 0 00-.474.483z" fill="#1B1B1B"/><ellipse cx="7.109" cy="20.608" rx=".474" ry=".483" fill="#1B1B1B"/></symbol><symbol fill="none" viewBox="0 0 70 70" id="library" xmlns="http://www.w3.org/2000/svg"><path d="M31.917 50.713a1.377 1.377 0 00-.967-.4c-.36 0-.712.146-.966.4-.255.254-.401.607-.401.967s.146.712.4.966c.255.255.608.4.967.4.36 0 .713-.145.967-.4.254-.254.4-.605.4-.966 0-.36-.146-.713-.4-.967zM17.601 12.022a1.378 1.378 0 00-.966-.4c-.36 0-.713.145-.967.4-.255.254-.4.607-.4.966a1.372 1.372 0 001.367 1.367c.36 0 .71-.146.966-.4.255-.256.401-.607.401-.967s-.146-.712-.4-.966z" fill="#1B1B1B"/><path fill-rule="evenodd" clip-rule="evenodd" d="M49.257 0h19.376C69.388 0 70 .612 70 1.367v29.944c0 .755-.612 1.367-1.367 1.367h-6.016v20.369a4.106 4.106 0 01-4.101 4.101H38.15V61.8c3.708.072 6.702 3.108 6.702 6.833 0 .755-.612 1.367-1.367 1.367H19.142a1.367 1.367 0 01-1.367-1.367c0-3.725 2.995-6.761 6.703-6.833v-4.652H4.102A4.106 4.106 0 010 53.047V15.723a4.106 4.106 0 014.102-4.102h7.337a1.367 1.367 0 110 2.734H4.102a1.37 1.37 0 00-1.368 1.367v30.762h57.024c.042 0 .084.003.125.006V32.678H22.695a1.367 1.367 0 01-1.367-1.367V1.367C21.328.612 21.94 0 22.695 0h19.376c1.413 0 2.689.595 3.593 1.546A4.946 4.946 0 0149.257 0zm-7.186 2.734H24.063V24.61H42.07c.8 0 1.556.19 2.226.528V4.962a2.229 2.229 0 00-2.226-2.227zm-18.008 27.21v-2.6H42.07c1.227 0 2.226.998 2.226 2.226 0 .13.02.255.053.373H24.062zm-3.32 37.322h21.14a4.11 4.11 0 00-3.867-2.735H24.612a4.11 4.11 0 00-3.868 2.735zm6.469-5.47v-4.648h8.203v4.648h-8.203zm31.304-7.382c.754 0 1.367-.613 1.367-1.367v-3.835a1.39 1.39 0 01-.125.006H2.734v3.829a1.37 1.37 0 001.368 1.367h54.414zm8.75-24.47H46.978c.034-.12.053-.244.053-.374 0-1.228.999-2.226 2.226-2.226h18.009v2.6zm-18.009-5.335h18.009V2.734H49.257a2.229 2.229 0 00-2.226 2.227v20.176a4.93 4.93 0 012.226-.528z" fill="#1F75AF"/><path d="M60.589 6.29h-6.88a1.367 1.367 0 000 2.733h6.88a1.367 1.367 0 000-2.734zm0 6.015h-6.88a1.367 1.367 0 000 2.734h6.88a1.367 1.367 0 000-2.734zm0 6.015h-6.88a1.367 1.367 0 000 2.735h6.88a1.367 1.367 0 000-2.735zM37.62 6.29h-6.88a1.367 1.367 0 000 2.733h6.88a1.367 1.367 0 000-2.734zm0 6.015h-6.88a1.367 1.367 0 000 2.734h6.88a1.367 1.367 0 000-2.734zm0 6.015h-6.88a1.367 1.367 0 000 2.735h6.88a1.367 1.367 0 000-2.735z" fill="#1B1B1B"/><path fill-rule="evenodd" clip-rule="evenodd" d="M8.749 33.633h6.015c.755 0 1.367.612 1.367 1.367v6.016c0 .755-.612 1.367-1.367 1.367H8.75a1.367 1.367 0 01-1.368-1.367V35c0-.755.613-1.367 1.368-1.367zm1.367 6.015h3.281v-3.28h-3.281v3.28zM8.749 21.602h6.015c.755 0 1.367.612 1.367 1.367v6.015c0 .755-.612 1.368-1.367 1.368H8.75a1.367 1.367 0 01-1.368-1.368V22.97c0-.755.613-1.367 1.368-1.367zm1.367 6.015h3.281v-3.281h-3.281v3.281z" fill="#1B1B1B"/><path d="M46.348 39.648H20.576a1.367 1.367 0 000 2.735h25.772a1.367 1.367 0 000-2.735zm7.119.401a1.377 1.377 0 00-.967-.4c-.36 0-.712.146-.967.4-.254.254-.4.607-.4.967s.146.712.4.966c.255.255.607.4.967.4s.712-.145.967-.4c.254-.254.4-.605.4-.966 0-.36-.146-.713-.4-.967z" fill="#1B1B1B"/></symbol><symbol fill="none" viewBox="0 0 30 30" id="money" xmlns="http://www.w3.org/2000/svg"><path d="M29.348 10.465H7.174a.652.652 0 100 1.302h21.522v16.93H1.304v-16.93h1.957a.652.652 0 100-1.302H.652a.652.652 0 00-.652.651V29.35c0 .36.292.65.652.65h28.696a.65.65 0 00.652-.65V11.116a.652.652 0 00-.652-.651z" fill="#1B1B1B"/><path d="M5.857 10.989a.658.658 0 00-.767-.511.691.691 0 00-.234.097.619.619 0 00-.18.18.691.691 0 00-.098.234.65.65 0 001.1.588.656.656 0 00.18-.588z" fill="#1B1B1B"/><path fill-rule="evenodd" clip-rule="evenodd" d="M7.826 20.233c0-3.95 3.218-7.163 7.174-7.163 3.956 0 7.174 3.213 7.174 7.163S18.956 27.395 15 27.395c-3.956 0-7.174-3.213-7.174-7.162zm1.305 0c0 3.231 2.633 5.86 5.87 5.86 3.236 0 5.869-2.629 5.869-5.86 0-3.232-2.633-5.86-5.87-5.86-3.236 0-5.87 2.628-5.87 5.86z" fill="#1B1B1B"/><path fill-rule="evenodd" clip-rule="evenodd" d="M15.652 19.645v-1.577c.403.154.652.437.652.7a.652.652 0 001.305 0c0-1.004-.82-1.823-1.957-2.053v-.39a.652.652 0 00-1.304 0v.39c-1.137.23-1.957 1.049-1.957 2.052 0 1.004.82 1.823 1.957 2.052v1.578c-.403-.154-.652-.437-.652-.7a.652.652 0 00-1.305 0c0 1.004.82 1.823 1.957 2.053v.39a.652.652 0 001.304 0v-.39c1.138-.23 1.957-1.049 1.957-2.052 0-1.004-.82-1.823-1.957-2.053zm-1.304-.179c-.403-.153-.652-.436-.652-.699 0-.262.25-.545.652-.699v1.398zM15.652 21v1.398c.403-.154.653-.437.652-.7 0-.262-.25-.545-.652-.698zm2.576-18.744l1.845 1.842a.651.651 0 010 .92L15.46 9.624a.653.653 0 01-.922 0L9.927 5.02a.65.65 0 010-.921l1.845-1.842a.653.653 0 01.922 0l.35.349V.65a.65.65 0 01.652-.651h2.608c.36 0 .653.292.653.651v1.954l.349-.349a.653.653 0 01.922 0zm-6.917 2.302L15 8.242l3.69-3.684-.923-.92-1.002 1a.653.653 0 01-1.113-.461V1.302h-1.304v2.875a.651.651 0 01-1.114.46l-1-1-.923.921z" fill="#1F75AF"/></symbol><symbol fill="none" viewBox="0 0 50 60" id="saving" xmlns="http://www.w3.org/2000/svg"><path fill-rule="evenodd" clip-rule="evenodd" d="M42.629 15.67a8.457 8.457 0 014.87 2.427A8.516 8.516 0 0150 24.152v28.114C50 56.53 46.541 60 42.29 60H7.71C3.46 60 0 56.53 0 52.266V24.15c0-2.288.888-4.438 2.501-6.055a8.464 8.464 0 016.032-2.505h.331V7.5a1.17 1.17 0 011.168-1.172h4.167A1.17 1.17 0 0115.367 7.5a1.17 1.17 0 01-1.168 1.172H11.2v8.092a1.173 1.173 0 01-1.168 1.172l-1.495-.001h-.004c-1.654 0-3.21.646-4.38 1.819a6.185 6.185 0 00-1.817 4.397v28.115c0 2.972 2.411 5.39 5.374 5.39h19.183a10.309 10.309 0 01-3.762-7.968c0-5.687 4.612-10.313 10.28-10.313 5.669 0 10.28 4.626 10.28 10.313 0 3.206-1.466 6.075-3.762 7.968h2.36c2.964 0 5.375-2.418 5.375-5.39V24.152a6.185 6.185 0 00-1.817-4.398 6.147 6.147 0 00-4.38-1.819h-.006a1.166 1.166 0 01-1.169-1.171V8.672h-9.794A1.17 1.17 0 0129.33 7.5a1.17 1.17 0 011.168-1.172H41.46A1.17 1.17 0 0142.629 7.5v8.17zM25.467 49.687c0 4.394 3.564 7.97 7.944 7.97s7.944-3.576 7.944-7.97c0-4.393-3.563-7.968-7.944-7.968-4.38 0-7.944 3.575-7.944 7.968z" fill="#1B1B1B"/><path d="M33.411 48.68c-.922 0-1.672-.635-1.672-1.414 0-.78.75-1.414 1.672-1.414.922 0 1.672.635 1.672 1.414a1.17 1.17 0 001.168 1.172 1.17 1.17 0 001.169-1.172c0-1.691-1.198-3.124-2.84-3.594v-.166a1.17 1.17 0 00-1.169-1.172 1.17 1.17 0 00-1.168 1.172v.166c-1.642.47-2.84 1.903-2.84 3.594 0 2.072 1.798 3.757 4.008 3.757.922 0 1.672.635 1.672 1.414 0 .78-.75 1.414-1.672 1.414-.922 0-1.672-.634-1.672-1.414a1.17 1.17 0 00-1.168-1.172 1.17 1.17 0 00-1.168 1.172c0 1.691 1.198 3.124 2.84 3.594v.068a1.17 1.17 0 001.168 1.171 1.17 1.17 0 001.169-1.172v-.067c1.642-.47 2.84-1.903 2.84-3.594 0-2.072-1.799-3.757-4.009-3.757z" fill="#1F75AF"/><path fill-rule="evenodd" clip-rule="evenodd" d="M14.705 24.663c0-5.686 4.612-10.312 10.28-10.312 5.669 0 10.28 4.626 10.28 10.312 0 5.686-4.611 10.313-10.28 10.313-5.668 0-10.28-4.627-10.28-10.313zm2.336 0c0 4.394 3.564 7.969 7.944 7.969s7.944-3.575 7.944-7.969-3.564-7.969-7.944-7.969-7.944 3.575-7.944 7.97z" fill="#1B1B1B"/><path d="M24.985 23.655c-.922 0-1.672-.634-1.672-1.413 0-.78.75-1.414 1.672-1.414.922 0 1.672.634 1.672 1.414a1.17 1.17 0 001.168 1.171 1.17 1.17 0 001.169-1.171c0-1.691-1.198-3.125-2.84-3.595v-.166a1.17 1.17 0 00-1.169-1.171 1.17 1.17 0 00-1.168 1.171v.166c-1.642.47-2.84 1.904-2.84 3.595 0 2.072 1.798 3.757 4.008 3.757.922 0 1.672.634 1.672 1.414 0 .78-.75 1.414-1.672 1.414-.922 0-1.672-.635-1.672-1.414a1.17 1.17 0 00-1.168-1.172 1.17 1.17 0 00-1.168 1.172c0 1.69 1.198 3.124 2.84 3.594v.067a1.17 1.17 0 001.168 1.172 1.17 1.17 0 001.168-1.172v-.067c1.643-.47 2.84-1.903 2.84-3.594 0-2.072-1.797-3.758-4.008-3.758zm0-23.655a1.17 1.17 0 00-1.168 1.172v7.637a1.17 1.17 0 001.168 1.172 1.17 1.17 0 001.168-1.172V1.172A1.17 1.17 0 0024.985 0zm17.538 23.751a1.17 1.17 0 00-1.168 1.172v7.637a1.17 1.17 0 001.168 1.172 1.17 1.17 0 001.169-1.172v-7.637a1.17 1.17 0 00-1.169-1.172zM19.845 4.688a1.17 1.17 0 00-1.168 1.171v5.46a1.17 1.17 0 001.168 1.171 1.17 1.17 0 001.168-1.172V5.86a1.17 1.17 0 00-1.168-1.171zM43.35 36.153a1.175 1.175 0 00-.826-.343 1.174 1.174 0 00-1.169 1.172 1.175 1.175 0 001.169 1.172 1.17 1.17 0 001.168-1.172c0-.308-.125-.61-.342-.829z" fill="#1F75AF"/><path d="M19.424 48.681h-3.138a1.17 1.17 0 00-1.169 1.172 1.17 1.17 0 001.169 1.172h3.138a1.17 1.17 0 001.169-1.172 1.17 1.17 0 00-1.169-1.172zm-7.281.343a1.175 1.175 0 00-.826-.343 1.175 1.175 0 00-1.168 1.172 1.17 1.17 0 001.168 1.172 1.17 1.17 0 001.168-1.172c0-.309-.125-.611-.342-.829zm9.486-4.144l-1.916-1.923a1.166 1.166 0 00-1.652 0 1.175 1.175 0 000 1.658l1.916 1.922a1.163 1.163 0 001.652 0c.456-.458.456-1.2 0-1.658z" fill="#1B1B1B"/></symbol><symbol fill="none" viewBox="0 0 40 36" id="speaker" xmlns="http://www.w3.org/2000/svg"><ellipse cx="19.596" cy="35.221" rx=".781" ry=".777" fill="#000"/><path d="M30.398 1.604H8.794a.78.78 0 00-.782.778v32.84c0 .43.35.778.782.778h7.293a.78.78 0 00.783-.779.78.78 0 00-.783-.778h-6.51V3.16h20.038v31.282h-6.51a.78.78 0 00-.782.778c0 .43.35.779.782.779h7.293a.78.78 0 00.783-.779V2.382a.78.78 0 00-.783-.778z" fill="#1F75AF"/><path fill-rule="evenodd" clip-rule="evenodd" d="M3.312.03a.784.784 0 01.968.534l1.85 6.413c.198.69.04 1.452-.437 2.09-.436.586-1.1 1.03-1.872 1.25a3.813 3.813 0 01-1.043.147c-.423 0-.834-.074-1.21-.22C.824 9.953.283 9.39.084 8.7c-.199-.69-.04-1.451.436-2.09.437-.585 1.101-1.03 1.872-1.25a3.704 3.704 0 011.613-.101L2.775.993A.778.778 0 013.312.03zm.077 8.79c.435-.125.817-.373 1.046-.68.108-.145.276-.432.189-.734-.087-.302-.383-.457-.551-.523a1.76 1.76 0 00-.637-.112c-.2 0-.409.029-.612.087-.436.124-.817.372-1.046.68-.108.144-.276.432-.189.733.087.302.383.457.55.523.36.14.815.15 1.25.025zm32.903 11a.783.783 0 01.968.534l1.848 6.412c.2.69.04 1.452-.436 2.09-.436.586-1.101 1.03-1.872 1.25a3.813 3.813 0 01-1.044.147c-.422 0-.833-.073-1.209-.22-.744-.29-1.284-.853-1.483-1.543-.2-.69-.04-1.452.436-2.09.436-.586 1.101-1.03 1.872-1.25a3.705 3.705 0 011.613-.101l-1.23-4.266a.778.778 0 01.537-.963zm.077 8.788c.435-.124.816-.371 1.046-.679.108-.144.276-.432.188-.734-.087-.301-.382-.457-.55-.523a1.76 1.76 0 00-.637-.112c-.2 0-.409.03-.613.087-.435.125-.816.372-1.045.68-.108.144-.276.432-.19.734.088.301.383.457.552.523.358.14.813.149 1.249.024zM2.206 21.333a3.664 3.664 0 011.614.097c.771.22 1.436.663 1.872 1.248.476.639.635 1.401.436 2.091-.311 1.082-1.428 1.761-2.706 1.762-.336 0-.683-.047-1.03-.146-.77-.22-1.436-.664-1.872-1.25-.476-.638-.635-1.4-.436-2.09l1.848-6.412a.783.783 0 011.505.429l-1.23 4.271zm.618 3.555c.808.23 1.649-.026 1.8-.548.087-.302-.081-.59-.19-.734-.228-.308-.61-.555-1.045-.68a2.21 2.21 0 00-.604-.085c-.583 0-1.083.242-1.196.633-.087.302.08.59.189.734.229.308.61.556 1.046.68zM37.608 9.061c.77.22 1.436.664 1.872 1.25.476.638.635 1.4.436 2.09s-.74 1.252-1.483 1.543c-.376.146-.787.22-1.21.22-.344 0-.697-.049-1.043-.148-.771-.22-1.436-.663-1.872-1.248-.477-.64-.635-1.401-.437-2.091l1.627-5.643c-.255-.05-.577-.1-.96-.137-.763-.073-1.166-.455-1.37-.763-.533-.806-.213-1.87-.175-1.99a.784.784 0 011.492.471c-.065.216-.084.552-.01.663.027.038.127.06.213.069 1.269.121 1.98.374 2.057.402a.778.778 0 01.48.945l-1.23 4.266a3.705 3.705 0 011.613.101zm.252 3.433c.169-.065.464-.22.551-.522.087-.302-.08-.59-.188-.734-.23-.308-.61-.556-1.046-.68a2.248 2.248 0 00-.612-.087 1.76 1.76 0 00-.637.112c-.169.066-.464.222-.551.523-.087.302.08.59.188.734.23.308.61.555 1.046.68.436.123.89.114 1.25-.026z" fill="#1B1B1B"/><ellipse cx="19.597" cy="9.548" rx=".801" ry=".797" fill="#1B1B1B"/><path fill-rule="evenodd" clip-rule="evenodd" d="M11.857 23.913c0 4.246 3.472 7.7 7.74 7.7 4.268 0 7.74-3.454 7.74-7.7 0-4.245-3.472-7.698-7.74-7.698-4.268 0-7.74 3.453-7.74 7.698zm1.562 0c0-3.388 2.771-6.144 6.178-6.144s6.178 2.756 6.178 6.144c0 3.389-2.771 6.145-6.178 6.145s-6.178-2.756-6.178-6.145z" fill="#1F75AF"/><path fill-rule="evenodd" clip-rule="evenodd" d="M15.208 9.572c0 2.407 1.97 4.365 4.39 4.365s4.388-1.958 4.388-4.365-1.969-4.365-4.389-4.365-4.389 1.958-4.389 4.365zm1.563 0a2.822 2.822 0 012.826-2.811 2.822 2.822 0 012.826 2.81 2.822 2.822 0 01-2.826 2.812 2.822 2.822 0 01-2.826-2.811zm-.573 14.341c0 1.865 1.525 3.381 3.399 3.381s3.4-1.516 3.4-3.38c0-1.865-1.526-3.382-3.4-3.382-1.874 0-3.4 1.517-3.4 3.381zm1.562 0c0-1.007.824-1.826 1.837-1.826s1.837.82 1.837 1.827a1.834 1.834 0 01-1.837 1.826 1.834 1.834 0 01-1.837-1.826z" fill="#1B1B1B"/></symbol><symbol fill="none" viewBox="0 0 20 20" id="time" xmlns="http://www.w3.org/2000/svg"><path d="M12.02 18.276a8.186 8.186 0 01-.5.11.81.81 0 00.293 1.592 9.3 9.3 0 00.596-.13.81.81 0 00-.389-1.572zm5.946-10.855a.807.807 0 001.016.514.811.811 0 00.51-1.023 10.16 10.16 0 00-.209-.577.802.802 0 00-1.045-.451.812.812 0 00-.448 1.052c.063.16.122.322.176.485zm-3.333 9.699a8.375 8.375 0 01-.436.271.813.813 0 00-.061 1.364.8.8 0 00.865.04c.175-.103.35-.21.518-.323a.814.814 0 00.228-1.123.8.8 0 00-1.114-.229zm5.359-7.437a.807.807 0 00-.835-.778.808.808 0 00-.772.842c.007.17.009.344.005.514a.81.81 0 00.786.828.807.807 0 00.821-.792 9.67 9.67 0 00-.005-.614zm-2.157 5.307a.8.8 0 00-1.126.162 8.51 8.51 0 01-.32.402.814.814 0 00.15 1.188.8.8 0 001.075-.138c.131-.155.26-.317.381-.48a.814.814 0 00-.16-1.134zm1.182-2.928a.803.803 0 00-1.008.53c-.05.164-.107.327-.168.488a.814.814 0 00.465 1.045.8.8 0 001.037-.469c.073-.19.14-.385.2-.579a.811.811 0 00-.526-1.015zM8.512 18.393a8.258 8.258 0 01-2.062-.66l-.023-.013a8.76 8.76 0 01-.459-.234 8.583 8.583 0 01-.8-.504C1.386 14.3.477 9.016 3.141 5.206a8.385 8.385 0 012.062-2.067l.029-.02a8.354 8.354 0 019.42-.076l-.629.914c-.175.255-.067.44.239.413l2.728-.247a.452.452 0 00.407-.592L16.664.872c-.082-.298-.292-.334-.467-.08l-.63.917A9.871 9.871 0 007.532.314l-.005.001-.03.008A9.91 9.91 0 002 4.035l-.034.042a9.575 9.575 0 00-.348.505l-.022.039A10.04 10.04 0 00.01 10.51v.02c.01.203.025.41.047.612.001.013.004.025.006.038a10.02 10.02 0 002.884 6.033l.01.01.004.004c.393.39.82.752 1.281 1.078a9.875 9.875 0 003.987 1.681.804.804 0 00.933-.654.81.81 0 00-.65-.94z" fill="#1F75AF"/><path d="M9.507 3.53a.653.653 0 00-.651.655v6.529l5.927 3.086a.65.65 0 00.877-.281.657.657 0 00-.28-.883l-5.223-2.72v-5.73a.653.653 0 00-.65-.656z" fill="#fff"/></symbol><symbol fill="none" viewBox="0 0 33 40" id="webcam" xmlns="http://www.w3.org/2000/svg"><path fill-rule="evenodd" clip-rule="evenodd" d="M0 16.667c0 9.19 7.402 16.666 16.5 16.666 9.098 0 16.5-7.476 16.5-16.666C33 7.477 25.598 0 16.5 0 7.402 0 0 7.477 0 16.667zm1.65 0c0-8.27 6.663-15 14.85-15s14.85 6.73 14.85 15-6.663 15-14.85 15-14.85-6.73-14.85-15z" fill="#1F75AF"/><path fill-rule="evenodd" clip-rule="evenodd" d="M8.25 20c0 4.595 3.701 8.333 8.25 8.333 4.549 0 8.25-3.738 8.25-8.333 0-4.595-3.701-8.333-8.25-8.333-4.549 0-8.25 3.738-8.25 8.333zm1.65 0c0-3.677 2.96-6.667 6.6-6.667 3.64 0 6.6 2.99 6.6 6.667 0 3.677-2.96 6.667-6.6 6.667-3.64 0-6.6-2.99-6.6-6.667z" fill="#1B1B1B"/><path fill-rule="evenodd" clip-rule="evenodd" d="M13.2 20c0 1.838 1.48 3.333 3.3 3.333 1.82 0 3.3-1.495 3.3-3.333s-1.48-3.333-3.3-3.333c-1.82 0-3.3 1.495-3.3 3.333zm1.65 0c0-.918.74-1.667 1.65-1.667.91 0 1.65.749 1.65 1.667s-.74 1.667-1.65 1.667c-.91 0-1.65-.749-1.65-1.667z" fill="#1B1B1B"/><path d="M19.491 8.333h-5.98c-1.514 0-2.9-.833-3.623-2.171L8.351 3.315a.837.837 0 01.33-1.13.82.82 0 011.118.333l1.538 2.847a2.467 2.467 0 002.173 1.302h5.981a2.47 2.47 0 002.174-1.304l1.537-2.846a.82.82 0 011.119-.334c.4.22.548.727.33 1.13L23.113 6.16a4.118 4.118 0 01-3.622 2.173z" fill="#1F75AF"/><path d="M6.6 40a.82.82 0 01-.677-.355.839.839 0 01.203-1.16l.408-.288a8.005 8.005 0 003.366-6.53c0-.46.37-.834.825-.834a.83.83 0 01.825.834 9.675 9.675 0 01-4.069 7.895l-.408.288A.818.818 0 016.6 40zm19.8 0a.813.813 0 01-.472-.15l-.408-.288a9.672 9.672 0 01-4.07-7.895c0-.46.37-.834.825-.834a.83.83 0 01.825.834 8 8 0 003.366 6.528l.407.288a.839.839 0 01.203 1.16.82.82 0 01-.676.357z" fill="#1B1B1B"/><path d="M28.875 40H4.125a.83.83 0 01-.825-.833c0-.46.37-.834.825-.834h24.75a.83.83 0 01.825.834.83.83 0 01-.825.833z" fill="#1B1B1B"/></symbol></svg>