<?xml version="1.0" encoding="utf-8"?><svg xmlns="http://www.w3.org/2000/svg" xmlns:xlink="http://www.w3.org/1999/xlink"><symbol viewBox="0 0 20 18" id="baby-boy" xmlns="http://www.w3.org/2000/svg"><path fill-rule="evenodd" clip-rule="evenodd" d="M19.238 8.03a2.603 2.603 0 00-1.351-.705C16.788 3.985 13.601 1.684 10 1.684h-.393c-.943 0-1.71-.756-1.71-1.684H6.723c0 .63.21 1.213.565 1.684h-.372c-.943 0-1.71-.756-1.71-1.684H4.035c0 1.253.83 2.318 1.977 2.693a8.191 8.191 0 00-3.899 4.632 2.604 2.604 0 00-1.35.705A2.526 2.526 0 000 9.842c0 .676.265 1.313.746 1.795a2.6 2.6 0 001.367.721C3.212 15.7 6.398 18 10 18c3.602 0 6.788-2.3 7.887-5.642a2.6 2.6 0 001.367-.721c.481-.482.746-1.12.746-1.795 0-.684-.27-1.327-.762-1.812zm-1.813 3.22l-.44.008-.114.418c-.837 3.044-3.662 5.17-6.871 5.17-3.209 0-6.034-2.126-6.87-5.17l-.116-.418-.44-.008a1.425 1.425 0 01-1.402-1.408c0-.376.149-.73.419-.996.263-.259.612-.405.984-.412l.44-.008.114-.418c.837-3.044 3.662-5.17 6.871-5.17 1.06 0 1.92.847 1.92 1.89 0 1.042-.86 1.89-1.92 1.89s-1.92-.848-1.92-1.89H6.906C6.907 6.406 8.295 7.77 10 7.77s3.093-1.365 3.093-3.043c0-.478-.113-.93-.313-1.333 1.965.823 3.509 2.496 4.09 4.613l.115.418.44.008c.372.007.721.153.984.411.27.267.42.62.42.997 0 .762-.63 1.393-1.404 1.408zm-5.994-1.177c0-1.048.867-1.9 1.931-1.9 1.065 0 1.93.852 1.93 1.9h-1.17a.754.754 0 00-.76-.747.754.754 0 00-.759.747h-1.172zm-4.793-1.9c1.064 0 1.93.852 1.93 1.9h-1.17a.754.754 0 00-.76-.747.754.754 0 00-.758.747H4.707c0-1.048.866-1.9 1.93-1.9zM10 13.446a2.12 2.12 0 01-1.813-1.02l-1.01.586a3.302 3.302 0 005.645 0l-1.01-.586A2.12 2.12 0 0110 13.447z"/></symbol><symbol viewBox="0 0 18 19" id="chat-bubble" xmlns="http://www.w3.org/2000/svg"><path fill-rule="evenodd" clip-rule="evenodd" d="M.165 18.834a.562.562 0 00.58.136l3.646-1.253A8.933 8.933 0 009 19c4.963 0 9-4.059 9-9.048C18 4.964 13.963.905 9 .905S0 4.964 0 9.952a9.05 9.05 0 001.277 4.634L.03 18.252a.568.568 0 00.135.582zm4.599-2.216a.564.564 0 00-.485-.058l-2.813.967.961-2.828a.568.568 0 00-.058-.488 7.917 7.917 0 01-1.244-4.259c0-4.365 3.533-7.916 7.875-7.916 4.342 0 7.875 3.551 7.875 7.916 0 4.366-3.533 7.917-7.875 7.917-1.5 0-2.965-.432-4.236-1.25z"/><path d="M11.822 9.246c.388 0 .703.316.703.707-.037.937-1.37.937-1.407 0 0-.39.315-.707.704-.707zm-3.518.707c0 .39.315.707.704.707.933-.038.933-1.377 0-1.414a.705.705 0 00-.704.707zm-2.814 0c0 .39.315.707.704.707.933-.038.933-1.377 0-1.414a.705.705 0 00-.704.707z"/></symbol><symbol viewBox="0 0 24 23" id="clicker" xmlns="http://www.w3.org/2000/svg"><path d="M23.531 13.94a.467.467 0 00.469-.465v-3.02a.465.465 0 00-.469-.465h-8.906a.472.472 0 00-.42.262l-2.88-2.854 1.882-1.866a1.422 1.422 0 00.425-1.017 1.421 1.421 0 00-.425-1.017 1.455 1.455 0 00-.62-.364L9.4 2.214a.47.47 0 00-.581.316.467.467 0 00.319.576l3.186.92a.517.517 0 01.22.129.5.5 0 01.15.36.5.5 0 01-.15.36L10.33 7.069a.458.458 0 000 .657l4.565 4.526a.348.348 0 010 .496l-2.035 2.018a.353.353 0 01-.5 0L7.793 10.24a.468.468 0 00-.662 0l-2.214 2.194a.51.51 0 01-.363.15.51.51 0 01-.493-.367L.96 1.657a.563.563 0 01.145-.561.571.571 0 01.567-.144l3.416.986a.471.471 0 00.581-.316.464.464 0 00-.318-.576L1.933.058A1.528 1.528 0 00.442.44 1.492 1.492 0 00.06 1.917l3.102 10.56a1.437 1.437 0 00.846.93 1.462 1.462 0 001.572-.316l1.883-1.866 4.234 4.198c.24.238.572.375.911.375h.005a1.295 1.295 0 00.91-.375l.633-.627v7.74a.466.466 0 00.469.464h8.906a.467.467 0 00.469-.465v-4.878a.468.468 0 00-.469-.465.468.468 0 00-.468.465v4.414h-7.97v-8.205l.466-.46c.241-.24.379-.57.379-.906a1.28 1.28 0 00-.379-.905l-.465-.462v-.214h7.969v2.556c0 .256.21.464.468.464z"/><ellipse cx="23.531" cy="15.566" rx=".469" ry=".465"/><path d="M3.866 6.162a.464.464 0 00-.316.578l.89 2.974a.468.468 0 00.9-.265l-.891-2.973a.47.47 0 00-.583-.314zm15.681 11.423c0-.57.269-1.109.738-1.477a2 2 0 00.757-1.717c-.067-.953-.826-1.742-1.765-1.836a1.97 1.97 0 00-2.168 1.98c0 .257.21.465.47.465a.467.467 0 00.468-.464 1.037 1.037 0 011.136-1.056c.49.049.888.468.924.976.025.36-.126.705-.405.924a2.798 2.798 0 00-1.093 2.205v.071c0 .257.21.465.47.465a.467.467 0 00.468-.465v-.07z"/><ellipse cx="19.078" cy="19.515" rx=".469" ry=".465"/><ellipse cx="7.245" cy="2.076" rx=".469" ry=".465"/></symbol><symbol viewBox="0 0 10 16" id="clip" xmlns="http://www.w3.org/2000/svg"><path d="M6.429 0c-.954 0-1.851.378-2.526 1.065a3.646 3.646 0 00-1.046 2.571v6.546c0 1.203.961 2.182 2.143 2.182s2.143-.98 2.143-2.182V6.405a.72.72 0 00-.714-.727.72.72 0 00-.715.727v3.777c0 .4-.32.727-.714.727a.722.722 0 01-.714-.727V3.636c0-.582.223-1.13.627-1.542a2.11 2.11 0 011.516-.64c1.181 0 2.142.98 2.142 2.182v7.273c0 2.005-1.602 3.636-3.571 3.636-.954 0-1.85-.378-2.525-1.065a3.646 3.646 0 01-1.046-2.57V3.635a.72.72 0 00-.715-.727.72.72 0 00-.714.727v7.273c0 1.36.52 2.638 1.465 3.6A4.923 4.923 0 005 16c2.757 0 5-2.284 5-5.09V3.635C10 1.631 8.398 0 6.429 0z"/></symbol><symbol viewBox="0 0 21.92 21.92" id="close" xmlns="http://www.w3.org/2000/svg"><g data-name="Слой 2"><g class="aecls-1" data-name="Слой 1"><path class="aecls-2" d="M0 .707L.707 0 21.92 21.213l-.707.707z"/><path class="aecls-2" d="M0 21.213L21.213 0l.707.707L.707 21.92z"/></g></g></symbol><symbol viewBox="0 0 24 24" id="delete" xmlns="http://www.w3.org/2000/svg"><path d="M7.05 5.636L18.364 16.95l-1.414 1.414L5.636 7.05z"/><path d="M18.364 7.05L7.05 18.364 5.636 16.95 16.95 5.636z"/></symbol><symbol viewBox="0 0 14.45 14.45" id="delete2" xmlns="http://www.w3.org/2000/svg"><defs><style>.agcls-1{fill:#8c8c8c}</style></defs><g id="agСлой_2" data-name="Слой 2"><g id="agСлой_1-2" data-name="Слой 1"><path class="agcls-1" d="M.77.13l13.5 13.51a.44.44 0 010 .63.44.44 0 01-.63 0L.13.77a.47.47 0 010-.64.47.47 0 01.64 0z"/><path class="agcls-1" d="M14.27.77L.77 14.27a.45.45 0 01-.64 0 .45.45 0 010-.63L13.64.13a.45.45 0 01.63 0 .45.45 0 010 .64z"/></g></g></symbol><symbol viewBox="0 0 18 18" id="dishes" xmlns="http://www.w3.org/2000/svg"><path fill-rule="evenodd" clip-rule="evenodd" d="M15.012 7.137c-1.648 0-2.989-1.355-2.989-3.02 0-1.276.171-3.382.178-3.471a.704.704 0 011.402.114c-.002.024-.173 2.139-.173 3.357 0 .89.71 1.613 1.582 1.613.872 0 1.582-.723 1.582-1.613 0-1.22-.172-3.335-.174-3.357a.703.703 0 111.402-.114c.007.089.178 2.195.178 3.47 0 1.666-1.34 3.02-2.988 3.02zm.703-3.727V.703a.703.703 0 10-1.406 0V3.41a.703.703 0 101.406 0zm-2.63 12.858a.7.7 0 01-.349.93A9.1 9.1 0 019 18a8.941 8.941 0 01-6.364-2.636A8.941 8.941 0 010 9a8.94 8.94 0 012.636-6.364A8.941 8.941 0 019 0c.408 0 .818.028 1.22.082a.703.703 0 11-.19 1.394A7.696 7.696 0 009 1.406C4.813 1.406 1.406 4.813 1.406 9S4.813 16.594 9 16.594c1.09 0 2.181-.234 3.155-.676a.703.703 0 01.93.35zm-3.935-1.68a.703.703 0 00-.033-1.406 4.171 4.171 0 01-4.264-4.066 4.139 4.139 0 011.15-2.974 4.14 4.14 0 012.916-1.29 4.34 4.34 0 011.08.121.703.703 0 10.323-1.368 5.537 5.537 0 00-5.337 1.567 5.536 5.536 0 00-1.538 3.977 5.579 5.579 0 005.703 5.44zm6.565-5.342v8.05a.703.703 0 11-1.406 0v-8.05a.703.703 0 111.406 0z"/></symbol><symbol viewBox="0 0 12 14" id="down" xmlns="http://www.w3.org/2000/svg"><path d="M11.376 3.146L6 9.398.624 3.146 0 3.876l6 6.978 6-6.978-.624-.73z"/></symbol><symbol viewBox="0 0 16 16" id="edit" xmlns="http://www.w3.org/2000/svg"><path d="M14.767 10.041a.4.4 0 00-.398.4v3.557a1.2 1.2 0 01-1.196 1.201H1.993a1.2 1.2 0 01-1.196-1.201V3.56a1.2 1.2 0 011.195-1.2H5.53a.4.4 0 00.399-.4.4.4 0 00-.399-.401H1.993A2 2 0 000 3.56v10.437A2 2 0 001.992 16h11.181a2 2 0 001.993-2.002v-3.556a.4.4 0 00-.399-.4z"/><path fill-rule="evenodd" clip-rule="evenodd" d="M12.472.528a1.787 1.787 0 012.536 0l.468.47a1.811 1.811 0 010 2.549l-7.11 7.145a.399.399 0 01-.175.103l-3.375.94a.397.397 0 01-.388-.103.402.402 0 01-.102-.39l.935-3.393a.4.4 0 01.102-.176L12.472.528zm-.423 1.557L6.231 7.933 8.107 9.82l5.819-5.848-1.877-1.886zM5.856 8.69l1.5 1.507-2.074.578.574-2.085zm8.633-5.284l.423-.425a1.006 1.006 0 000-1.416l-.468-.47a.992.992 0 00-1.408 0l-.423.425 1.877 1.886z"/></symbol><symbol viewBox="0 0 18 18" id="evening" xmlns="http://www.w3.org/2000/svg"><path fill-rule="evenodd" clip-rule="evenodd" d="M14.723 10.72a3.445 3.445 0 00-3.27-2.299c-.324 0-.64.044-.945.132a4.506 4.506 0 00-3.814-1.572c-.367-.66-1.638-3.36.24-5.777a.74.74 0 00.054-.82.756.756 0 00-.727-.381 6.64 6.64 0 00-2.616.815A6.566 6.566 0 00.492 4.807 6.541 6.541 0 001.1 9.824c.26.46.573.885.93 1.267A3.65 3.65 0 000 14.353C0 16.366 1.646 18 3.67 18h10.66c2.024 0 3.67-1.638 3.67-3.647.004-1.884-1.437-3.438-3.277-3.633zM1.936 5.211A5.09 5.09 0 014.38 2.126c.15-.085.308-.162.466-.232a6.563 6.563 0 00.335 5.477 4.526 4.526 0 00-2.304 2.405 5.052 5.052 0 01-.94-4.565zm1.735 11.287h10.662a2.164 2.164 0 002.172-2.153c0-1.186-.897-2.148-2.172-2.148-.555 0-.845-.096-.937-.632a1.966 1.966 0 00-2.818-1.44.751.751 0 01-.966-.268 3.005 3.005 0 00-2.55-1.395c-1.665 0-3.017 1.34-3.017 2.986 0 .378-.279.723-.654.77A2.161 2.161 0 001.5 14.35c0 1.187.974 2.149 2.172 2.149z"/><path d="M10.883 3.764c1.066-.114 1.466 1.34 1.484 1.41.213.897 1.275.89 1.562 0 .018-.062.415-1.524 1.484-1.41a.75.75 0 00.162-1.49c-1.12-.118-1.91.45-2.425 1.134-.51-.683-1.304-1.256-2.425-1.135a.75.75 0 00.158 1.491z"/></symbol><symbol viewBox="0 0 12 22" id="fb" xmlns="http://www.w3.org/2000/svg"><path d="M7.416 21.879v-9.98h3.348l.502-3.89h-3.85V5.526c0-1.126.311-1.893 1.928-1.893l2.058-.001V.152a28.016 28.016 0 00-3-.152c-2.97 0-5.003 1.813-5.003 5.14v2.87H.041v3.89h3.358v9.979h4.017z"/></symbol><symbol viewBox="0 0 22 22" id="google" xmlns="http://www.w3.org/2000/svg"><path fill-rule="evenodd" clip-rule="evenodd" d="M14.478 6.318A5.743 5.743 0 0011 5.156c-2.364 0-4.395 1.426-5.298 3.46L1.92 4.831A10.953 10.953 0 0111 0c2.565 0 5.062.908 7.03 2.558a.646.646 0 01.042.95l-2.751 2.75a.644.644 0 01-.843.06zm7.329 2.628a10.916 10.916 0 01-3.217 9.978l-3.643-3.643a5.771 5.771 0 001.294-1.703h-5.198a.644.644 0 01-.645-.644V9.066c0-.356.289-.644.645-.644h10.13c.31 0 .576.22.634.524zM11 22c2.46 0 4.726-.825 6.557-2.2l-3.711-3.71a5.786 5.786 0 01-2.846.754c-2.364 0-4.395-1.426-5.298-3.46L1.92 17.169A10.955 10.955 0 0011 22zM5.156 11c0 .318.045.624.094.928l-4.044 4.045A10.877 10.877 0 010 11c0-1.791.44-3.478 1.206-4.973l4.044 4.045c-.05.304-.094.61-.094.928z"/></symbol><symbol viewBox="0 0 3.68 12.47" id="info" xmlns="http://www.w3.org/2000/svg"><g data-name="Слой 2"><path class="ancls-1" d="M0 1.84a1.84 1.84 0 111.84 1.84A1.85 1.85 0 010 1.84zm1.17 0a.67.67 0 10.67-.67.67.67 0 00-.67.67zM0 6.86a1.84 1.84 0 113.68 0v3.77a1.84 1.84 0 01-3.68 0zm1.84 4.44a.67.67 0 00.67-.67V6.86a.67.67 0 10-1.34 0v3.77a.68.68 0 00.67.67z" data-name="Слой 1"/></g></symbol><symbol viewBox="0 0 24 22" id="invoice" xmlns="http://www.w3.org/2000/svg"><path fill-rule="evenodd" clip-rule="evenodd" d="M21.558 0c.097 0 .192.027.274.078A2.542 2.542 0 0124 2.575v7.776c0 .29-.235.524-.526.524h-3.546v7.852a3.28 3.28 0 01-3.516 3.262H3.34a.539.539 0 01-.108.011A3.23 3.23 0 010 18.78v-2.42c0-.288.235-.523.526-.523h2.831L3.45 2.404C3.45 1.08 4.545 0 5.892 0h15.666zM1.052 16.885v1.896a2.178 2.178 0 002.035 2.166.522.522 0 01.074-.006h11.074a3.252 3.252 0 01-.869-2.214v-1.842H1.052zm17.824-14.31v16.152a2.21 2.21 0 01-.65 1.56 2.207 2.207 0 01-1.507.662.526.526 0 00-.087-.008h-.184a2.243 2.243 0 01-2.03-2.214v-2.366a.525.525 0 00-.526-.524H4.41l.092-13.429a1.377 1.377 0 011.39-1.36h13.507a2.493 2.493 0 00-.522 1.527zm1.052 0v7.252h3.02V2.575a1.507 1.507 0 00-1.51-1.478c-.824 0-1.496.657-1.51 1.478z"/><path d="M6.754 5.675h4.983a.525.525 0 100-1.048H6.754a.525.525 0 100 1.048zm9.294 2.697H6.754a.525.525 0 100 1.048h9.294a.525.525 0 100-1.048zm0 3.745H6.754a.525.525 0 100 1.048h9.294a.525.525 0 100-1.048z"/></symbol><symbol viewBox="0 0 20 20" id="key" xmlns="http://www.w3.org/2000/svg"><circle cx="14.219" cy="5.471" r="1.25"/><path d="M19.784 6.482c-.417-1.063-1.182-2.595-2.457-3.865C16.056 1.352 14.539.61 13.49.21a3.14 3.14 0 00-3.332.706L7.091 3.968a3.126 3.126 0 00-.652 3.466c.161.362.336.716.523 1.059L.23 15.226a.781.781 0 00-.23.554v3.437c0 .432.35.781.781.781H4.22c.431 0 .781-.35.781-.78V17.81h1.406c.432 0 .782-.35.782-.781v-1.407h1.406a.781.781 0 100-1.562H6.406a.781.781 0 00-.781.781v1.406H4.219a.781.781 0 00-.782.782v1.406H1.563v-2.333L8.49 9.174a.781.781 0 00.116-.957 12.64 12.64 0 01-.74-1.418 1.555 1.555 0 01.328-1.723l3.067-3.054a1.576 1.576 0 011.672-.354c.907.347 2.215.985 3.291 2.057 1.084 1.078 1.744 2.405 2.106 3.328a1.55 1.55 0 01-.35 1.667l-3.105 3.09a1.573 1.573 0 01-1.72.336 10.148 10.148 0 01-1.406-.718.781.781 0 10-.817 1.332c.514.315 1.06.594 1.623.829 1.178.49 2.52.226 3.422-.67l3.105-3.091a3.113 3.113 0 00.702-3.346z"/></symbol><symbol viewBox="0 0 16 16" id="key2" xmlns="http://www.w3.org/2000/svg"><path fill-rule="evenodd" clip-rule="evenodd" d="M5.014 5.408C5.014 2.426 7.478 0 10.507 0 13.536 0 16 2.426 16 5.408s-2.464 5.407-5.493 5.407a5.532 5.532 0 01-1.95-.35l-1.273 1.254a.404.404 0 01-.283.115h-.862v.848a.397.397 0 01-.4.394h-.392v.386c0 .218-.18.394-.4.394h-.98v.965a.391.391 0 01-.117.28l-.798.784a.403.403 0 01-.283.115H.4a.397.397 0 01-.4-.394v-2.83a.39.39 0 01.117-.278L5.37 7.327a5.3 5.3 0 01-.356-1.92zm3.61 4.232a4.72 4.72 0 001.883.387c2.587 0 4.692-2.072 4.693-4.62 0-2.546-2.105-4.619-4.693-4.619-2.587 0-4.693 2.073-4.693 4.62 0 .645.133 1.268.393 1.854a.39.39 0 01-.08.433l-.003.004L.8 12.939v.713l4.383-4.316a.364.364 0 01.51 0 .35.35 0 010 .502L.8 14.655v.557h1.802l.564-.554v-1.196c0-.217.179-.394.4-.394h.979v-.386c0-.218.18-.394.4-.394h.393v-.848c0-.218.179-.394.4-.394h1.096l1.344-1.324.004-.003a.405.405 0 01.44-.079z"/><path fill-rule="evenodd" clip-rule="evenodd" d="M10.68 3.762a1.49 1.49 0 011.499-1.476c.826 0 1.5.662 1.5 1.476a1.49 1.49 0 01-1.5 1.476 1.49 1.49 0 01-1.5-1.476zm.8 0c0 .38.313.688.699.688a.694.694 0 00.698-.688.694.694 0 00-.698-.688.694.694 0 00-.7.688z"/></symbol><symbol viewBox="0 0 20 8" id="left-arrow" xmlns="http://www.w3.org/2000/svg"><path d="M19.375 3.355H2.139L4.33 1.102A.66.66 0 004.333.19.611.611 0 003.45.188L.184 3.543a.66.66 0 000 .914l3.265 3.355c.245.251.64.25.884-.002a.66.66 0 00-.002-.912L2.14 4.645h17.236A.635.635 0 0020 4a.635.635 0 00-.625-.645z"/></symbol><symbol viewBox="0 0 512 512" id="lock" xmlns="http://www.w3.org/2000/svg"><path d="M18.75 24H5.25A2.253 2.253 0 013 21.75v-10.5C3 10.009 4.01 9 5.25 9h13.5C19.99 9 21 10.009 21 11.25v10.5c0 1.241-1.01 2.25-2.25 2.25zM5.25 10.5a.75.75 0 00-.75.75v10.5c0 .414.337.75.75.75h13.5a.75.75 0 00.75-.75v-10.5a.75.75 0 00-.75-.75z"/><path d="M17.25 10.5a.75.75 0 01-.75-.75V6c0-2.481-2.019-4.5-4.5-4.5S7.5 3.519 7.5 6v3.75a.75.75 0 01-1.5 0V6c0-3.309 2.691-6 6-6s6 2.691 6 6v3.75a.75.75 0 01-.75.75zM12 17c-1.103 0-2-.897-2-2s.897-2 2-2 2 .897 2 2-.897 2-2 2zm0-2.5a.5.5 0 10.002 1.002A.5.5 0 0012 14.5z"/><path d="M12 20a.75.75 0 01-.75-.75V16.5a.75.75 0 011.5 0v2.75A.75.75 0 0112 20z"/></symbol><symbol viewBox="0 0 20 15" id="mail" xmlns="http://www.w3.org/2000/svg"><path fill-rule="evenodd" clip-rule="evenodd" d="M17.472.066H2.528A2.53 2.53 0 000 2.594v9.595a2.53 2.53 0 002.528 2.527h14.944A2.53 2.53 0 0020 12.19V2.594A2.53 2.53 0 0017.472.066zm-.395 1.63L10 7.165 2.922 1.697h14.155zM1.63 12.19c0 .495.403.897.898.897h14.944a.898.898 0 00.898-.897V2.76l-7.872 6.08a.814.814 0 01-.996 0L1.63 2.76v9.43z"/></symbol><symbol viewBox="0 0 18 18" id="night" xmlns="http://www.w3.org/2000/svg"><path fill-rule="evenodd" clip-rule="evenodd" d="M14.8 4.781a.527.527 0 01-1.054 0c0-.872-.71-1.582-1.582-1.582a.527.527 0 110-1.054c.858 0 1.582-.741 1.582-1.618a.527.527 0 111.055 0c0 .877.724 1.618 1.582 1.618a.527.527 0 010 1.054c-.872 0-1.582.71-1.582 1.582zm-.527-2.659c-.154.208-.332.39-.536.545.203.151.384.331.536.534a2.66 2.66 0 01.537-.534 2.717 2.717 0 01-.537-.545zM10.055 3.2c.29 0 .527.235.527.527a2.64 2.64 0 002.637 2.636.527.527 0 110 1.055 2.64 2.64 0 00-2.637 2.637.527.527 0 01-1.055 0 2.64 2.64 0 00-2.636-2.637.527.527 0 010-1.055 2.64 2.64 0 002.636-2.636c0-.292.236-.528.528-.528zM8.79 6.89a3.72 3.72 0 011.265 1.265 3.72 3.72 0 011.264-1.264 3.72 3.72 0 01-1.264-1.265A3.72 3.72 0 018.79 6.891z"/><path fill-rule="evenodd" clip-rule="evenodd" d="M17.995 10.22C17.396 14.607 13.522 18 9 18c-4.955 0-9-4.044-9-9C0 4.484 3.388.604 7.78.005a.527.527 0 01.363.962c-1.748 1.16-2.834 3.228-2.834 5.396a6.335 6.335 0 006.328 6.328c2.168 0 4.236-1.086 5.396-2.834a.527.527 0 01.962.363zM4.254 6.363c0-1.744.608-3.434 1.66-4.758A8.06 8.06 0 001.054 9c0 4.381 3.565 7.945 7.946 7.945a8.06 8.06 0 007.395-4.86 7.693 7.693 0 01-4.758 1.661c-4.071 0-7.383-3.312-7.383-7.383z"/></symbol><symbol viewBox="0 0 15 20" id="notification" xmlns="http://www.w3.org/2000/svg"><path fill-rule="evenodd" clip-rule="evenodd" d="M14.743 13.927l-.897-.608V8.047c0-3.357-2.54-6.121-5.77-6.419V.586A.581.581 0 007.5 0a.581.581 0 00-.577.586v1.042c-3.23.298-5.77 3.062-5.77 6.419v5.272l-.896.608a.588.588 0 00-.257.487v2.344c0 .323.258.586.577.586H4.38C4.65 18.853 5.946 20 7.5 20s2.85-1.147 3.12-2.656h3.803a.582.582 0 00.577-.586v-2.344a.588.588 0 00-.257-.487zM7.5 18.828c-.915 0-1.69-.627-1.937-1.484h3.874c-.247.857-1.022 1.484-1.937 1.484zm-6.346-2.656h12.692v-1.444l-.897-.608a.588.588 0 01-.257-.487V8.047c0-2.908-2.329-5.274-5.192-5.274S2.308 5.14 2.308 8.047v5.586a.588.588 0 01-.257.487l-.897.608v1.444z"/></symbol><symbol viewBox="0 0 14.4 20.01" id="phone" xmlns="http://www.w3.org/2000/svg"><g data-name="Слой 2"><path d="M12.77 14.82l.42.69a3.25 3.25 0 01.63 2.49 1.92 1.92 0 01-1.15 1.15 10.16 10.16 0 01-3.59.85 4.71 4.71 0 01-1.45-.2C5.12 19 3 16.6 1.41 12.74s-1.85-7-.65-9.37c1-2 3.75-3.1 4-3.18A2.21 2.21 0 015.58 0c1.5 0 2 1.73 2.12 2.38l.19.79c.24.92 1 3.73-1 4.53l-.7.3-.19.07a1.28 1.28 0 00-.85.66c-.14.32-.17 1 .41 2.22s1.21 2 1.75 2a1.45 1.45 0 00.69-.23 1.76 1.76 0 01.2-.09l.73-.32a2 2 0 01.75-.15c1.32 0 2.32 1.42 3.09 2.66zm-.63 3.11a.63.63 0 00.39-.32c.06-.17 0-.55-.5-1.4l-.41-.7c-1-1.65-1.63-2-2-2a.64.64 0 00-.23.05l-.72.31-.12.06a2.75 2.75 0 01-1.2.32c-1.14 0-2.11-.89-3-2.74a4.13 4.13 0 01-.43-3.3 2.56 2.56 0 011.65-1.4h.08l.73-.31c.62-.27.62-1.32.2-2.99l-.19-.79c-.24-.91-.51-1.37-.81-1.37a1 1 0 00-.36.09S2.74 2.44 2 4c-1 2-.77 4.75.7 8.23s3.22 5.58 5.3 6.25a3.31 3.31 0 001 .14 9 9 0 003-.68z" fill-rule="evenodd" data-name="Слой 1"/></g></symbol><symbol viewBox="0 0 20 20" id="play" xmlns="http://www.w3.org/2000/svg"><path d="M17.071 2.929A9.935 9.935 0 0010 0a9.935 9.935 0 00-7.071 2.929A9.935 9.935 0 000 10a9.935 9.935 0 002.929 7.071A9.935 9.935 0 0010 20a9.985 9.985 0 005.174-1.441.781.781 0 00-.81-1.337A8.422 8.422 0 0110 18.437c-4.652 0-8.438-3.785-8.438-8.437 0-4.652 3.786-8.438 8.438-8.438 4.652 0 8.438 3.786 8.438 8.438a8.403 8.403 0 01-1.431 4.683.781.781 0 001.299.868A9.961 9.961 0 0020 10a9.935 9.935 0 00-2.929-7.071z"/><path fill-rule="evenodd" clip-rule="evenodd" d="M7.407 5.912a1.74 1.74 0 011.76.003l4.408 2.558c.55.32.878.89.878 1.527 0 .637-.328 1.208-.878 1.527l-4.409 2.558c-.275.16-.579.24-.882.24-.3 0-.602-.079-.877-.237a1.747 1.747 0 01-.883-1.53V7.442c0-.64.33-1.211.883-1.53zm.975 6.822l4.408-2.558a.194.194 0 00.1-.176.194.194 0 00-.1-.176L8.382 7.266a.192.192 0 00-.097-.027.196.196 0 00-.098.027.193.193 0 00-.1.176v5.116c0 .098.054.15.1.176a.186.186 0 00.195 0z"/></symbol><symbol viewBox="0 0 24 24" id="question" xmlns="http://www.w3.org/2000/svg"><path fill-rule="evenodd" clip-rule="evenodd" d="M22.258 16.939l1.648 4.795a1.698 1.698 0 01-.408 1.764 1.698 1.698 0 01-1.764.408l-4.795-1.648a11.772 11.772 0 01-5.184 1.215h-.019a11.665 11.665 0 01-8.218-3.371 11.656 11.656 0 01-3.516-8.176 11.69 11.69 0 013.436-8.489A11.69 11.69 0 0111.927.002a11.656 11.656 0 018.175 3.516 11.666 11.666 0 013.37 8.237 11.771 11.771 0 01-1.214 5.184zm-.062 5.621a.275.275 0 00.296-.068.275.275 0 00.068-.296l-1.746-5.08a.712.712 0 01.044-.565 10.334 10.334 0 001.191-4.798c.01-5.607-4.542-10.24-10.145-10.329a10.234 10.234 0 00-7.46 3.02 10.235 10.235 0 00-3.02 7.46c.089 5.603 4.725 10.155 10.329 10.145a10.332 10.332 0 004.798-1.19.71.71 0 01.564-.045l5.081 1.746z"/><path d="M11.62 17.004c-.371 0-.728.327-.71.711.017.386.312.712.71.712.373 0 .73-.328.712-.712-.017-.385-.312-.711-.711-.711zm0-11.019a3.544 3.544 0 00-3.539 3.54.712.712 0 001.423 0 2.12 2.12 0 012.117-2.117 2.12 2.12 0 012.117 2.116 2.12 2.12 0 01-2.117 2.117.711.711 0 00-.712.712v2.902a.711.711 0 101.423 0v-2.263a3.546 3.546 0 002.829-3.468 3.544 3.544 0 00-3.54-3.54z"/></symbol><symbol viewBox="0 0 22 22" id="question-2" xmlns="http://www.w3.org/2000/svg"><path fill-rule="evenodd" clip-rule="evenodd" d="M0 11C0 4.92 4.92 0 11 0s11 4.92 11 11-4.92 11-11 11S0 17.08 0 11zm1.467 0c0 5.257 4.276 9.533 9.533 9.533s9.533-4.276 9.533-9.533S16.257 1.467 11 1.467 1.467 5.743 1.467 11zm9.254 2.404a.953.953 0 00-.943.955c0 .508.41.955.943.955a.963.963 0 00.955-.955.963.963 0 00-.955-.955zM8.439 7.836c0-.67.769-1.662 2.443-1.662 1.588 0 2.642.88 2.642 2.046s-1.054 2.01-1.39 2.27c-.681.533-.694.905-.694 1.55 0 .236-.124.508-.731.508-.509 0-.682-.186-.682-.83 0-1.067.47-1.576.83-1.886.075-.063.159-.127.246-.194.393-.302.858-.66.858-1.207 0-.57-.496-.843-1.116-.843-.732 0-.95.32-1.132.589-.133.196-.248.365-.53.365-.335 0-.744-.223-.744-.706z"/></symbol><symbol viewBox="0 0 24 24" id="rocket" xmlns="http://www.w3.org/2000/svg"><path fill-rule="evenodd" clip-rule="evenodd" d="M23.286.16a.702.702 0 01.556.555c.67 3.433-.818 7.825-3.894 11.567a5.429 5.429 0 01-1.034 6.228l-4.543 4.541a.704.704 0 01-1.197-.43l-.445-4.629c-.183.086-.367.169-.55.247a2.262 2.262 0 01-2.526-.488l-3.411-3.408a2.255 2.255 0 01-.488-2.525c.078-.182.16-.362.244-.543l-4.619-.444a.703.703 0 01-.43-1.197l4.543-4.54a5.378 5.378 0 013.06-1.53 5.497 5.497 0 013.16.49C15.443.993 19.818-.515 23.286.16zM8.334 9.941l5.72 5.719a20.193 20.193 0 003.444-2.77c.36-.36.71-.736 1.039-1.116 1.314-1.52 2.34-3.156 3.033-4.78l-4.571-4.568c-2.032.867-4.08 2.26-5.894 4.073a20.181 20.181 0 00-2.77 3.442zm13.211-8.54c.338 0 .67.02.992.06.157 1.255 0 2.645-.435 4.078l-3.647-3.646c1.063-.323 2.106-.492 3.09-.492zM6.487 6.087L2.998 9.574l3.7.356a21.314 21.314 0 013.834-4.834c-1.405-.432-2.987-.067-4.045.991zm5.139 10.86a.864.864 0 01-.98-.19l-3.41-3.408a.863.863 0 01-.188-.979c.167-.391.353-.782.556-1.169l5.191 5.189c-.387.203-.777.39-1.17.557zm2.806 4.056l3.488-3.487a4.023 4.023 0 00.989-4.06 21.325 21.325 0 01-4.834 3.834l.357 3.713z"/><path fill-rule="evenodd" clip-rule="evenodd" d="M13.88 6.872a2.3 2.3 0 013.247 0 2.297 2.297 0 01-1.624 3.918 2.297 2.297 0 01-1.624-3.918zm1.623 2.512a.89.89 0 10-.002-1.779.89.89 0 00.002 1.779z"/><path d="M6.87 17.133a.704.704 0 00-.995 0L.206 22.8a.703.703 0 10.994.994l5.67-5.667a.703.703 0 000-.994zm-4.168.657l1.915-1.915a.703.703 0 10-.994-.994l-1.915 1.914a.703.703 0 10.994.994zm5.426 1.595l-1.914 1.914a.703.703 0 10.994.994l1.915-1.914a.703.703 0 10-.995-.994z"/></symbol><symbol viewBox="0 0 12 12" id="search" xmlns="http://www.w3.org/2000/svg"><path fill-rule="evenodd" clip-rule="evenodd" d="M5.285 0A5.29 5.29 0 000 5.285a5.29 5.29 0 005.285 5.284 5.26 5.26 0 003.374-1.22l2.508 2.508a.486.486 0 00.69 0c.19-.19.19-.5 0-.69L9.35 8.66a5.26 5.26 0 001.22-3.374A5.29 5.29 0 005.285 0zm0 9.594a4.314 4.314 0 01-4.31-4.31A4.314 4.314 0 015.286.977a4.314 4.314 0 014.308 4.309 4.314 4.314 0 01-4.308 4.309z"/></symbol><symbol viewBox="0 0 16 15" id="star" xmlns="http://www.w3.org/2000/svg"><path d="M15.977 5.696a.466.466 0 00-.378-.314l-4.96-.708L8.42.257A.47.47 0 008 0a.47.47 0 00-.42.257L5.36 4.674.4 5.382a.467.467 0 00-.378.314.455.455 0 00.119.472L3.73 9.606l-.848 4.855a.457.457 0 00.187.451.474.474 0 00.494.035L8 12.655l4.436 2.292c.158.082.35.068.494-.035a.457.457 0 00.186-.45l-.847-4.856 3.59-3.438a.455.455 0 00.118-.472z"/></symbol><symbol viewBox="0 0 20 20" id="sun" xmlns="http://www.w3.org/2000/svg"><path fill-rule="evenodd" clip-rule="evenodd" d="M10 4.974c1.376 0 2.646.582 3.545 1.481.926.9 1.482 2.17 1.482 3.545a5.044 5.044 0 01-1.482 3.545A4.934 4.934 0 0110 15.027a5.044 5.044 0 01-3.545-1.482c-.9-.9-1.481-2.17-1.481-3.545 0-1.376.582-2.645 1.481-3.545A4.934 4.934 0 0110 4.974zm0 8.677a3.66 3.66 0 002.593-1.058A3.66 3.66 0 0013.65 10a3.66 3.66 0 00-1.058-2.593A3.66 3.66 0 0010 6.35a3.66 3.66 0 00-2.593 1.058A3.66 3.66 0 006.35 10a3.66 3.66 0 001.058 2.593A3.66 3.66 0 0010 13.65z"/><path d="M19.312 9.313h-2.037a.7.7 0 00-.688.687.7.7 0 00.688.688h2.037A.7.7 0 0020 10a.7.7 0 00-.688-.688zM10 16.587a.7.7 0 00-.688.688v2.037A.7.7 0 0010 20a.7.7 0 00.688-.688v-2.037a.7.7 0 00-.688-.688zm7.064-.476l-1.455-1.455c-.239-.264-.688-.264-.953 0a.67.67 0 000 .953l1.455 1.455a.67.67 0 00.953 0 .67.67 0 000-.953zM10 0a.7.7 0 00-.688.688v2.037a.7.7 0 00.688.688.7.7 0 00.688-.688V.688A.7.7 0 0010 0zm7.09 2.937a.67.67 0 00-.952 0l-1.456 1.455a.67.67 0 000 .952c.239.265.688.265.953 0L17.09 3.89a.67.67 0 000-.952zM2.725 9.313H.688A.7.7 0 000 10c0 .37.291.688.688.688h2.037A.7.7 0 003.413 10a.7.7 0 00-.688-.688zm2.592 5.343c-.238-.264-.687-.264-.952 0L2.91 16.111a.67.67 0 000 .953.67.67 0 00.952 0l1.455-1.455a.67.67 0 000-.953zm0-10.264L3.862 2.937a.67.67 0 00-.952 0 .67.67 0 000 .952l1.455 1.455a.67.67 0 00.952 0 .67.67 0 000-.952z"/></symbol><symbol viewBox="0 0 20 15" id="sunrise" xmlns="http://www.w3.org/2000/svg"><path d="M10 3.736a.578.578 0 00.586-.57V.57A.578.578 0 0010 0a.578.578 0 00-.586.57v2.596c0 .315.262.57.586.57zm9.414 5.425h-2.668a.578.578 0 00-.586.57c0 .315.263.57.586.57h2.668a.578.578 0 00.586-.57.578.578 0 00-.586-.57zm-15.574.57a.578.578 0 00-.586-.57H.586a.578.578 0 00-.586.57c0 .315.262.57.586.57h2.668a.578.578 0 00.586-.57zm11.626-4.717c.15 0 .3-.056.414-.167l1.44-1.401a.56.56 0 000-.806.597.597 0 00-.829 0l-1.44 1.4a.56.56 0 000 .807.593.593 0 00.415.167zM4.12 4.847a.593.593 0 00.414.167c.15 0 .3-.056.415-.167a.56.56 0 000-.807l-1.44-1.4a.597.597 0 00-.829 0 .56.56 0 000 .806l1.44 1.4z"/><path fill-rule="evenodd" clip-rule="evenodd" d="M14.666 11.634h2.566c.323 0 .586.255.586.57 0 .315-.263.57-.586.57H2.768a.578.578 0 01-.586-.57c0-.315.263-.57.586-.57h2.566a4.812 4.812 0 01-.392-1.903C4.942 7.017 7.21 4.81 10 4.81s5.059 2.208 5.059 4.922a4.81 4.81 0 01-.393 1.903zM10 5.949c-2.143 0-3.887 1.697-3.887 3.782a3.7 3.7 0 00.528 1.903h6.718a3.695 3.695 0 00.528-1.903c0-2.085-1.744-3.782-3.887-3.782z"/><path d="M13.68 13.86H6.32a.578.578 0 00-.587.57c0 .314.263.57.586.57h7.362a.578.578 0 00.586-.57.578.578 0 00-.586-.57z"/></symbol><symbol viewBox="0 0 20 18" id="tools" xmlns="http://www.w3.org/2000/svg"><path fill-rule="evenodd" clip-rule="evenodd" d="M.588 2.149H3.75C4.02.92 5.096 0 6.38 0c1.486 0 2.694 1.233 2.694 2.749 0 1.515-1.208 2.748-2.694 2.748-1.284 0-2.36-.92-2.63-2.148H.588a.594.594 0 01-.588-.6c0-.331.263-.6.588-.6zm4.274.6c0-.854.681-1.549 1.518-1.549s1.518.695 1.518 1.549-.68 1.548-1.518 1.548c-.837 0-1.518-.694-1.518-1.548zm5.758.6h8.792a.594.594 0 00.588-.6c0-.331-.263-.6-.588-.6H10.62a.594.594 0 00-.588.6c0 .331.263.6.588.6zM11.584 9c0 1.515 1.208 2.748 2.694 2.748 1.284 0 2.36-.92 2.63-2.148h2.504A.594.594 0 0020 9c0-.331-.263-.6-.588-.6h-2.504c-.27-1.228-1.346-2.148-2.63-2.148-1.486 0-2.694 1.233-2.694 2.748zm1.176 0c0-.854.681-1.548 1.518-1.548s1.518.694 1.518 1.548c0 .854-.681 1.548-1.518 1.548S12.76 9.854 12.76 9zM.588 9.6h9.45a.594.594 0 00.588-.6c0-.331-.263-.6-.588-.6H.588A.594.594 0 000 9c0 .331.263.6.588.6zm2.504 5.051H.588a.594.594 0 00-.588.6c0 .332.263.6.588.6h2.504C3.362 17.08 4.438 18 5.722 18c1.486 0 2.694-1.233 2.694-2.749 0-1.515-1.208-2.748-2.694-2.748-1.284 0-2.36.92-2.63 2.148zm1.112.6c0 .854.681 1.549 1.518 1.549s1.518-.695 1.518-1.549-.681-1.548-1.518-1.548-1.518.694-1.518 1.548zm15.208.6h-9.45a.594.594 0 01-.588-.6c0-.331.263-.6.588-.6h9.45c.325 0 .588.269.588.6 0 .332-.263.6-.588.6z"/></symbol><symbol viewBox="0 0 10 15" id="triangle" xmlns="http://www.w3.org/2000/svg"><g data-name="Слой 2"><path d="M0 15V0l10 7.5zM1.25 2.5v10l6.67-5z" data-name="Слой 1"/></g></symbol><symbol viewBox="0 0 20 22" id="user" xmlns="http://www.w3.org/2000/svg"><path fill-rule="evenodd" clip-rule="evenodd" d="M.019 20.64c0-5.529 3.544-8.574 9.981-8.574 6.437 0 9.982 3.046 9.982 8.575 0 .432-.35.782-.782.782H.8a.782.782 0 01-.781-.782zM10 13.63c-5.263 0-8.082 2.095-8.39 6.229h16.78c-.308-4.134-3.127-6.229-8.39-6.229zM4.814 5.29C4.814 2.274 7.044 0 10 0c2.957 0 5.186 2.274 5.186 5.29 0 3.104-2.326 5.63-5.186 5.63S4.814 8.393 4.814 5.29zm1.564 0c0 2.242 1.625 4.066 3.622 4.066 1.998 0 3.623-1.824 3.623-4.066 0-2.124-1.557-3.726-3.623-3.726-2.099 0-3.622 1.567-3.622 3.726z"/></symbol><symbol viewBox="0 0 17 20" id="user-2" xmlns="http://www.w3.org/2000/svg"><path fill-rule="evenodd" clip-rule="evenodd" d="M11.529 9.274a5.117 5.117 0 002.123-4.146C13.652 2.301 11.34 0 8.5 0 5.66 0 3.348 2.3 3.348 5.128a5.12 5.12 0 002.123 4.146C2.275 10.49 0 13.575 0 17.18A2.83 2.83 0 002.833 20h11.334A2.83 2.83 0 0017 17.18c0-3.605-2.275-6.689-5.471-7.906zM4.894 5.128c0-1.98 1.618-3.59 3.606-3.59 1.988 0 3.606 1.61 3.606 3.59 0 1.98-1.618 3.59-3.606 3.59-1.988 0-3.606-1.61-3.606-3.59zM1.545 17.18c0 .706.578 1.282 1.288 1.282h11.334c.71 0 1.288-.576 1.288-1.282 0-3.818-3.12-6.924-6.955-6.924s-6.955 3.106-6.955 6.924z"/></symbol></svg>