<svg width="16" height="15" viewBox="0 0 16 15" fill="none" xmlns="http://www.w3.org/2000/svg">
<path d="M15.977 5.69589C15.9219 5.52909 15.7752 5.40754 15.5987 5.38235L10.6386 4.67398L8.42033 0.256782C8.3414 0.0995373 8.17843 0 8.00002 0C7.82159 0 7.65865 0.0995373 7.57968 0.256782L5.36132 4.67398L0.401338 5.38235C0.224807 5.40754 0.0780893 5.52909 0.0229645 5.69586C-0.0321915 5.86266 0.0138083 6.04573 0.141589 6.16812L3.73057 9.60644L2.88345 14.4615C2.85326 14.6343 2.92558 14.8089 3.06992 14.912C3.15158 14.9703 3.24829 15 3.34548 15C3.42011 15 3.49498 14.9825 3.56354 14.9471L7.99999 12.6548L12.4363 14.9471C12.5942 15.0287 12.7856 15.0151 12.9299 14.912C13.0743 14.8089 13.1466 14.6343 13.1164 14.4614L12.269 9.60644L15.8584 6.16809C15.9862 6.04573 16.0322 5.86266 15.977 5.69589Z" fill="#E7E7E7"/>
</svg>
