<svg width="14" height="17" viewBox="0 0 14 17" fill="none" xmlns="http://www.w3.org/2000/svg">
<path fill-rule="evenodd" clip-rule="evenodd" d="M3.19055 4.62482C3.19055 6.80744 4.89955 8.58317 7.00008 8.58317C9.10061 8.58317 10.8096 6.80747 10.8096 4.62485C10.8096 2.44223 9.10061 0.666504 7.00008 0.666504C4.89955 0.666504 3.19055 2.44221 3.19055 4.62482ZM4.14294 4.62485C4.14294 2.98777 5.42457 1.6561 7.00008 1.6561C8.57559 1.6561 9.85722 2.9878 9.85722 4.62485C9.85722 6.26191 8.57562 7.59361 7.00008 7.59361C5.42454 7.59361 4.14294 6.26194 4.14294 4.62485Z" fill="#1B1B1B"/>
<path fill-rule="evenodd" clip-rule="evenodd" d="M0.809568 16.5H13.1905C13.4537 16.5 13.6667 16.2787 13.6667 16.0051V12.5991C13.6667 12.0879 13.4151 11.6076 13.0101 11.3443C9.43772 9.02734 4.5656 9.02685 0.989534 11.3447C0.58495 11.6076 0.333374 12.0879 0.333374 12.5991V16.0052C0.333374 16.2787 0.546352 16.5 0.809568 16.5ZM12.7143 15.5104H1.28576L1.28579 12.5992C1.28579 12.4266 1.36578 12.2672 1.49412 12.1841C4.76649 10.0614 9.23588 10.0629 12.5055 12.1836C12.6343 12.2672 12.7143 12.4266 12.7143 12.5991V15.5104Z" fill="#1B1B1B"/>
</svg>
