<svg id="Layer_1" data-name="Layer 1" xmlns="http://www.w3.org/2000/svg" viewBox="0 0 59.475 59.575"><title>zoom</title><path d="M-21.775,29.275a27.1,27.1,0,0,0-38.2,0,27.1,27.1,0,0,0,0,38.2,26.87273,26.87273,0,0,0,19.1,7.9,27.00527,27.00527,0,0,0,17.6-6.5l12.1,12.1,2.8-2.8-12.1-12.2A27.00677,27.00677,0,0,0-21.775,29.275Zm-35.4,35.4a22.93511,22.93511,0,0,1,0-32.5,23.03246,23.03246,0,0,1,16.3-6.8,22.92724,22.92724,0,0,1,16.3,6.7,22.93511,22.93511,0,0,1,0,32.5A23.14719,23.14719,0,0,1-57.175,64.675Z" transform="translate(67.85 -21.4)" style="fill:#fff"/><polygon points="28.975 16.975 24.975 16.975 24.975 24.975 16.975 24.975 16.975 28.975 24.975 28.975 24.975 36.975 28.975 36.975 28.975 28.975 36.975 28.975 36.975 24.975 28.975 24.975 28.975 16.975" style="fill:#fff"/></svg>