<svg width="57" height="14" viewBox="0 0 57 14" fill="none" xmlns="http://www.w3.org/2000/svg">
<path d="M53.0665 13.3998C53.1691 13.3998 53.2578 13.3625 53.3325 13.2878C53.4071 13.2131 53.4445 13.1245 53.4445 13.0218V12.0698C53.9298 12.0045 54.3638 11.8878 54.7465 11.7198C55.1291 11.5518 55.4535 11.3418 55.7195 11.0898C55.9855 10.8378 56.1885 10.5531 56.3285 10.2358C56.4685 9.91847 56.5385 9.5778 56.5385 9.2138C56.5385 8.83114 56.4848 8.49047 56.3775 8.1918C56.2701 7.89314 56.0928 7.62947 55.8455 7.4008C55.5981 7.17214 55.2808 6.97614 54.8935 6.8128C54.5061 6.64947 54.0325 6.50714 53.4725 6.3858C52.9591 6.2738 52.5228 6.1758 52.1635 6.0918C51.8041 6.0078 51.5101 5.9168 51.2815 5.8188C51.0528 5.7208 50.8871 5.60414 50.7845 5.4688C50.6818 5.33347 50.6305 5.15847 50.6305 4.9438C50.6305 4.76647 50.6771 4.6078 50.7705 4.4678C50.8638 4.3278 50.9921 4.2088 51.1555 4.1108C51.3188 4.0128 51.5101 3.93814 51.7295 3.8868C51.9488 3.83547 52.1798 3.8098 52.4225 3.8098C52.9825 3.8098 53.4048 3.89614 53.6895 4.0688C53.9741 4.24147 54.1865 4.44447 54.3265 4.6778C54.3918 4.78047 54.4641 4.86214 54.5435 4.9228C54.6228 4.98347 54.7418 5.0138 54.9005 5.0138H55.8805C55.9831 5.0138 56.0741 4.97881 56.1535 4.9088C56.2328 4.8388 56.2678 4.7478 56.2585 4.6358C56.2398 4.4118 56.1698 4.17147 56.0485 3.9148C55.9271 3.65814 55.7498 3.41314 55.5165 3.1798C55.2831 2.94647 54.9938 2.7388 54.6485 2.5568C54.3031 2.3748 53.9018 2.2418 53.4445 2.1578V1.1778C53.4445 1.07514 53.4071 0.986471 53.3325 0.911805C53.2578 0.837138 53.1691 0.799805 53.0665 0.799805H51.9325C51.8298 0.799805 51.7411 0.837138 51.6665 0.911805C51.5918 0.986471 51.5545 1.07514 51.5545 1.1778V2.1298C51.1438 2.20447 50.7658 2.32347 50.4205 2.4868C50.0751 2.65014 49.7788 2.85547 49.5315 3.1028C49.2841 3.35014 49.0905 3.6278 48.9505 3.9358C48.8105 4.2438 48.7405 4.5798 48.7405 4.9438C48.7405 5.3638 48.7965 5.72547 48.9085 6.0288C49.0205 6.33214 49.1908 6.5958 49.4195 6.8198C49.6481 7.0438 49.9375 7.2328 50.2875 7.3868C50.6375 7.5408 51.0458 7.6738 51.5125 7.7858C52.0258 7.91647 52.4785 8.0238 52.8705 8.1078C53.2625 8.1918 53.5915 8.28047 53.8575 8.3738C54.1235 8.46714 54.3218 8.57914 54.4525 8.7098C54.5831 8.84047 54.6485 9.00847 54.6485 9.2138C54.6485 9.42847 54.5878 9.60814 54.4665 9.7528C54.3451 9.89747 54.1865 10.0188 53.9905 10.1168C53.7945 10.2148 53.5658 10.2848 53.3045 10.3268C53.0431 10.3688 52.7725 10.3898 52.4925 10.3898C52.1378 10.3898 51.8415 10.3595 51.6035 10.2988C51.3655 10.2381 51.1671 10.1611 51.0085 10.0678C50.8498 9.97447 50.7238 9.86714 50.6305 9.7458C50.5371 9.62447 50.4578 9.50314 50.3925 9.3818C50.3365 9.2698 50.2665 9.1858 50.1825 9.1298C50.0985 9.0738 49.9771 9.0458 49.8185 9.0458H48.8385C48.7358 9.0458 48.6448 9.0808 48.5655 9.1508C48.4861 9.2208 48.4511 9.3118 48.4605 9.4238C48.4791 9.77847 48.5725 10.1028 48.7405 10.3968C48.9085 10.6908 49.1301 10.9498 49.4055 11.1738C49.6808 11.3978 50.0028 11.5868 50.3715 11.7408C50.7401 11.8948 51.1345 12.0045 51.5545 12.0698V13.0218C51.5545 13.1245 51.5918 13.2131 51.6665 13.2878C51.7411 13.3625 51.8298 13.3998 51.9325 13.3998H53.0665Z" fill="#C1C1C1"/>
<path d="M37.0669 13.3998C37.1696 13.3998 37.2583 13.3625 37.3329 13.2878C37.4076 13.2131 37.4449 13.1245 37.4449 13.0218V12.0698C37.9303 12.0045 38.3643 11.8878 38.7469 11.7198C39.1296 11.5518 39.4539 11.3418 39.7199 11.0898C39.9859 10.8378 40.1889 10.5531 40.3289 10.2358C40.4689 9.91847 40.5389 9.5778 40.5389 9.2138C40.5389 8.83114 40.4853 8.49047 40.3779 8.1918C40.2706 7.89314 40.0933 7.62947 39.8459 7.4008C39.5986 7.17214 39.2813 6.97614 38.8939 6.8128C38.5066 6.64947 38.0329 6.50714 37.4729 6.3858C36.9596 6.2738 36.5233 6.1758 36.1639 6.0918C35.8046 6.0078 35.5106 5.9168 35.2819 5.8188C35.0533 5.7208 34.8876 5.60414 34.7849 5.4688C34.6823 5.33347 34.6309 5.15847 34.6309 4.9438C34.6309 4.76647 34.6776 4.6078 34.7709 4.4678C34.8643 4.3278 34.9926 4.2088 35.1559 4.1108C35.3193 4.0128 35.5106 3.93814 35.7299 3.8868C35.9493 3.83547 36.1803 3.8098 36.4229 3.8098C36.9829 3.8098 37.4053 3.89614 37.6899 4.0688C37.9746 4.24147 38.1869 4.44447 38.3269 4.6778C38.3923 4.78047 38.4646 4.86214 38.5439 4.9228C38.6233 4.98347 38.7423 5.0138 38.9009 5.0138H39.8809C39.9836 5.0138 40.0746 4.97881 40.1539 4.9088C40.2333 4.8388 40.2683 4.7478 40.2589 4.6358C40.2403 4.4118 40.1703 4.17147 40.0489 3.9148C39.9276 3.65814 39.7503 3.41314 39.5169 3.1798C39.2836 2.94647 38.9943 2.7388 38.6489 2.5568C38.3036 2.3748 37.9023 2.2418 37.4449 2.1578V1.1778C37.4449 1.07514 37.4076 0.986471 37.3329 0.911805C37.2583 0.837138 37.1696 0.799805 37.0669 0.799805H35.9329C35.8303 0.799805 35.7416 0.837138 35.6669 0.911805C35.5923 0.986471 35.5549 1.07514 35.5549 1.1778V2.1298C35.1443 2.20447 34.7663 2.32347 34.4209 2.4868C34.0756 2.65014 33.7793 2.85547 33.5319 3.1028C33.2846 3.35014 33.0909 3.6278 32.9509 3.9358C32.8109 4.2438 32.7409 4.5798 32.7409 4.9438C32.7409 5.3638 32.7969 5.72547 32.9089 6.0288C33.0209 6.33214 33.1913 6.5958 33.4199 6.8198C33.6486 7.0438 33.9379 7.2328 34.2879 7.3868C34.6379 7.5408 35.0463 7.6738 35.5129 7.7858C36.0263 7.91647 36.4789 8.0238 36.8709 8.1078C37.2629 8.1918 37.5919 8.28047 37.8579 8.3738C38.1239 8.46714 38.3223 8.57914 38.4529 8.7098C38.5836 8.84047 38.6489 9.00847 38.6489 9.2138C38.6489 9.42847 38.5883 9.60814 38.4669 9.7528C38.3456 9.89747 38.1869 10.0188 37.9909 10.1168C37.7949 10.2148 37.5663 10.2848 37.3049 10.3268C37.0436 10.3688 36.7729 10.3898 36.4929 10.3898C36.1383 10.3898 35.8419 10.3595 35.6039 10.2988C35.3659 10.2381 35.1676 10.1611 35.0089 10.0678C34.8503 9.97447 34.7243 9.86714 34.6309 9.7458C34.5376 9.62447 34.4583 9.50314 34.3929 9.3818C34.3369 9.2698 34.2669 9.1858 34.1829 9.1298C34.0989 9.0738 33.9776 9.0458 33.8189 9.0458H32.8389C32.7363 9.0458 32.6453 9.0808 32.5659 9.1508C32.4866 9.2208 32.4516 9.3118 32.4609 9.4238C32.4796 9.77847 32.5729 10.1028 32.7409 10.3968C32.9089 10.6908 33.1306 10.9498 33.4059 11.1738C33.6813 11.3978 34.0033 11.5868 34.3719 11.7408C34.7406 11.8948 35.1349 12.0045 35.5549 12.0698V13.0218C35.5549 13.1245 35.5923 13.2131 35.6669 13.2878C35.7416 13.3625 35.8303 13.3998 35.9329 13.3998H37.0669Z" fill="#C1C1C1"/>
<path d="M21.0674 13.3998C21.1701 13.3998 21.2588 13.3625 21.3334 13.2878C21.4081 13.2131 21.4454 13.1245 21.4454 13.0218V12.0698C21.9308 12.0045 22.3648 11.8878 22.7474 11.7198C23.1301 11.5518 23.4544 11.3418 23.7204 11.0898C23.9864 10.8378 24.1894 10.5531 24.3294 10.2358C24.4694 9.91847 24.5394 9.5778 24.5394 9.2138C24.5394 8.83114 24.4858 8.49047 24.3784 8.1918C24.2711 7.89314 24.0938 7.62947 23.8464 7.4008C23.5991 7.17214 23.2818 6.97614 22.8944 6.8128C22.5071 6.64947 22.0334 6.50714 21.4734 6.3858C20.9601 6.2738 20.5238 6.1758 20.1644 6.0918C19.8051 6.0078 19.5111 5.9168 19.2824 5.8188C19.0538 5.7208 18.8881 5.60414 18.7854 5.4688C18.6828 5.33347 18.6314 5.15847 18.6314 4.9438C18.6314 4.76647 18.6781 4.6078 18.7714 4.4678C18.8648 4.3278 18.9931 4.2088 19.1564 4.1108C19.3198 4.0128 19.5111 3.93814 19.7304 3.8868C19.9498 3.83547 20.1808 3.8098 20.4234 3.8098C20.9834 3.8098 21.4058 3.89614 21.6904 4.0688C21.9751 4.24147 22.1874 4.44447 22.3274 4.6778C22.3928 4.78047 22.4651 4.86214 22.5444 4.9228C22.6238 4.98347 22.7428 5.0138 22.9014 5.0138H23.8814C23.9841 5.0138 24.0751 4.97881 24.1544 4.9088C24.2338 4.8388 24.2688 4.7478 24.2594 4.6358C24.2408 4.4118 24.1708 4.17147 24.0494 3.9148C23.9281 3.65814 23.7508 3.41314 23.5174 3.1798C23.2841 2.94647 22.9948 2.7388 22.6494 2.5568C22.3041 2.3748 21.9028 2.2418 21.4454 2.1578V1.1778C21.4454 1.07514 21.4081 0.986471 21.3334 0.911805C21.2588 0.837138 21.1701 0.799805 21.0674 0.799805H19.9334C19.8308 0.799805 19.7421 0.837138 19.6674 0.911805C19.5928 0.986471 19.5554 1.07514 19.5554 1.1778V2.1298C19.1448 2.20447 18.7668 2.32347 18.4214 2.4868C18.0761 2.65014 17.7798 2.85547 17.5324 3.1028C17.2851 3.35014 17.0914 3.6278 16.9514 3.9358C16.8114 4.2438 16.7414 4.5798 16.7414 4.9438C16.7414 5.3638 16.7974 5.72547 16.9094 6.0288C17.0214 6.33214 17.1918 6.5958 17.4204 6.8198C17.6491 7.0438 17.9384 7.2328 18.2884 7.3868C18.6384 7.5408 19.0468 7.6738 19.5134 7.7858C20.0268 7.91647 20.4794 8.0238 20.8714 8.1078C21.2634 8.1918 21.5924 8.28047 21.8584 8.3738C22.1244 8.46714 22.3228 8.57914 22.4534 8.7098C22.5841 8.84047 22.6494 9.00847 22.6494 9.2138C22.6494 9.42847 22.5888 9.60814 22.4674 9.7528C22.3461 9.89747 22.1874 10.0188 21.9914 10.1168C21.7954 10.2148 21.5668 10.2848 21.3054 10.3268C21.0441 10.3688 20.7734 10.3898 20.4934 10.3898C20.1388 10.3898 19.8424 10.3595 19.6044 10.2988C19.3664 10.2381 19.1681 10.1611 19.0094 10.0678C18.8508 9.97447 18.7248 9.86714 18.6314 9.7458C18.5381 9.62447 18.4588 9.50314 18.3934 9.3818C18.3374 9.2698 18.2674 9.1858 18.1834 9.1298C18.0994 9.0738 17.9781 9.0458 17.8194 9.0458H16.8394C16.7368 9.0458 16.6458 9.0808 16.5664 9.1508C16.4871 9.2208 16.4521 9.3118 16.4614 9.4238C16.4801 9.77847 16.5734 10.1028 16.7414 10.3968C16.9094 10.6908 17.1311 10.9498 17.4064 11.1738C17.6818 11.3978 18.0038 11.5868 18.3724 11.7408C18.7411 11.8948 19.1354 12.0045 19.5554 12.0698V13.0218C19.5554 13.1245 19.5928 13.2131 19.6674 13.2878C19.7421 13.3625 19.8308 13.3998 19.9334 13.3998H21.0674Z" fill="#C1C1C1"/>
<path d="M5.06792 13.3998C5.17059 13.3998 5.25926 13.3625 5.33392 13.2878C5.40859 13.2131 5.44592 13.1245 5.44592 13.0218V12.0698C5.93126 12.0045 6.36526 11.8878 6.74792 11.7198C7.13059 11.5518 7.45492 11.3418 7.72092 11.0898C7.98692 10.8378 8.18992 10.5531 8.32992 10.2358C8.46992 9.91847 8.53992 9.5778 8.53992 9.2138C8.53992 8.83114 8.48626 8.49047 8.37892 8.1918C8.27159 7.89314 8.09426 7.62947 7.84692 7.4008C7.59959 7.17214 7.28226 6.97614 6.89492 6.8128C6.50759 6.64947 6.03392 6.50714 5.47392 6.3858C4.96059 6.2738 4.52426 6.1758 4.16492 6.0918C3.80559 6.0078 3.51159 5.9168 3.28292 5.8188C3.05426 5.7208 2.88859 5.60414 2.78592 5.4688C2.68326 5.33347 2.63192 5.15847 2.63192 4.9438C2.63192 4.76647 2.67859 4.6078 2.77192 4.4678C2.86526 4.3278 2.99359 4.2088 3.15692 4.1108C3.32026 4.0128 3.51159 3.93814 3.73092 3.8868C3.95026 3.83547 4.18126 3.8098 4.42392 3.8098C4.98392 3.8098 5.40626 3.89614 5.69092 4.0688C5.97559 4.24147 6.18792 4.44447 6.32792 4.6778C6.39326 4.78047 6.46559 4.86214 6.54492 4.9228C6.62426 4.98347 6.74326 5.0138 6.90192 5.0138H7.88192C7.98459 5.0138 8.07559 4.97881 8.15492 4.9088C8.23426 4.8388 8.26926 4.7478 8.25992 4.6358C8.24126 4.4118 8.17126 4.17147 8.04992 3.9148C7.92859 3.65814 7.75126 3.41314 7.51792 3.1798C7.28459 2.94647 6.99526 2.7388 6.64992 2.5568C6.30459 2.3748 5.90326 2.2418 5.44592 2.1578V1.1778C5.44592 1.07514 5.40859 0.986471 5.33392 0.911805C5.25926 0.837138 5.17059 0.799805 5.06792 0.799805H3.93392C3.83126 0.799805 3.74259 0.837138 3.66792 0.911805C3.59326 0.986471 3.55592 1.07514 3.55592 1.1778V2.1298C3.14526 2.20447 2.76726 2.32347 2.42192 2.4868C2.07659 2.65014 1.78026 2.85547 1.53292 3.1028C1.28559 3.35014 1.09192 3.6278 0.951923 3.9358C0.811923 4.2438 0.741923 4.5798 0.741923 4.9438C0.741923 5.3638 0.797923 5.72547 0.909923 6.0288C1.02192 6.33214 1.19226 6.5958 1.42092 6.8198C1.64959 7.0438 1.93892 7.2328 2.28892 7.3868C2.63892 7.5408 3.04726 7.6738 3.51392 7.7858C4.02726 7.91647 4.47992 8.0238 4.87192 8.1078C5.26392 8.1918 5.59292 8.28047 5.85892 8.3738C6.12492 8.46714 6.32326 8.57914 6.45392 8.7098C6.58459 8.84047 6.64992 9.00847 6.64992 9.2138C6.64992 9.42847 6.58926 9.60814 6.46792 9.7528C6.34659 9.89747 6.18792 10.0188 5.99192 10.1168C5.79592 10.2148 5.56726 10.2848 5.30592 10.3268C5.04459 10.3688 4.77392 10.3898 4.49392 10.3898C4.13926 10.3898 3.84292 10.3595 3.60492 10.2988C3.36692 10.2381 3.16859 10.1611 3.00992 10.0678C2.85126 9.97447 2.72526 9.86714 2.63192 9.7458C2.53859 9.62447 2.45926 9.50314 2.39392 9.3818C2.33792 9.2698 2.26792 9.1858 2.18392 9.1298C2.09992 9.0738 1.97859 9.0458 1.81992 9.0458H0.839923C0.737256 9.0458 0.646256 9.0808 0.566923 9.1508C0.48759 9.2208 0.45259 9.3118 0.461923 9.4238C0.48059 9.77847 0.573923 10.1028 0.741923 10.3968C0.909923 10.6908 1.13159 10.9498 1.40692 11.1738C1.68226 11.3978 2.00426 11.5868 2.37292 11.7408C2.74159 11.8948 3.13592 12.0045 3.55592 12.0698V13.0218C3.55592 13.1245 3.59326 13.2131 3.66792 13.2878C3.74259 13.3625 3.83126 13.3998 3.93392 13.3998H5.06792Z" fill="#1F75AF"/>
</svg>
