<svg width="57" height="14" viewBox="0 0 57 14" fill="none" xmlns="http://www.w3.org/2000/svg">
<path d="M52.606 13.3998C52.7087 13.3998 52.7973 13.3625 52.872 13.2878C52.9467 13.2131 52.984 13.1245 52.984 13.0218V12.0698C53.4693 12.0045 53.9033 11.8878 54.286 11.7198C54.6687 11.5518 54.993 11.3418 55.259 11.0898C55.525 10.8378 55.728 10.5531 55.868 10.2358C56.008 9.91847 56.078 9.5778 56.078 9.2138C56.078 8.83114 56.0243 8.49047 55.917 8.1918C55.8097 7.89314 55.6323 7.62947 55.385 7.4008C55.1377 7.17214 54.8203 6.97614 54.433 6.8128C54.0457 6.64947 53.572 6.50714 53.012 6.3858C52.4987 6.2738 52.0623 6.1758 51.703 6.0918C51.3437 6.0078 51.0497 5.9168 50.821 5.8188C50.5923 5.7208 50.4267 5.60414 50.324 5.4688C50.2213 5.33347 50.17 5.15847 50.17 4.9438C50.17 4.76647 50.2167 4.6078 50.31 4.4678C50.4033 4.3278 50.5317 4.2088 50.695 4.1108C50.8583 4.0128 51.0497 3.93814 51.269 3.8868C51.4883 3.83547 51.7193 3.8098 51.962 3.8098C52.522 3.8098 52.9443 3.89614 53.229 4.0688C53.5137 4.24147 53.726 4.44447 53.866 4.6778C53.9313 4.78047 54.0037 4.86214 54.083 4.9228C54.1623 4.98347 54.2813 5.0138 54.44 5.0138H55.42C55.5227 5.0138 55.6137 4.97881 55.693 4.9088C55.7723 4.8388 55.8073 4.7478 55.798 4.6358C55.7793 4.4118 55.7093 4.17147 55.588 3.9148C55.4667 3.65814 55.2893 3.41314 55.056 3.1798C54.8227 2.94647 54.5333 2.7388 54.188 2.5568C53.8427 2.3748 53.4413 2.2418 52.984 2.1578V1.1778C52.984 1.07514 52.9467 0.986471 52.872 0.911805C52.7973 0.837138 52.7087 0.799805 52.606 0.799805H51.472C51.3693 0.799805 51.2807 0.837138 51.206 0.911805C51.1313 0.986471 51.094 1.07514 51.094 1.1778V2.1298C50.6833 2.20447 50.3053 2.32347 49.96 2.4868C49.6147 2.65014 49.3183 2.85547 49.071 3.1028C48.8237 3.35014 48.63 3.6278 48.49 3.9358C48.35 4.2438 48.28 4.5798 48.28 4.9438C48.28 5.3638 48.336 5.72547 48.448 6.0288C48.56 6.33214 48.7303 6.5958 48.959 6.8198C49.1877 7.0438 49.477 7.2328 49.827 7.3868C50.177 7.5408 50.5853 7.6738 51.052 7.7858C51.5653 7.91647 52.018 8.0238 52.41 8.1078C52.802 8.1918 53.131 8.28047 53.397 8.3738C53.663 8.46714 53.8613 8.57914 53.992 8.7098C54.1227 8.84047 54.188 9.00847 54.188 9.2138C54.188 9.42847 54.1273 9.60814 54.006 9.7528C53.8847 9.89747 53.726 10.0188 53.53 10.1168C53.334 10.2148 53.1053 10.2848 52.844 10.3268C52.5827 10.3688 52.312 10.3898 52.032 10.3898C51.6773 10.3898 51.381 10.3595 51.143 10.2988C50.905 10.2381 50.7067 10.1611 50.548 10.0678C50.3893 9.97447 50.2633 9.86714 50.17 9.7458C50.0767 9.62447 49.9973 9.50314 49.932 9.3818C49.876 9.2698 49.806 9.1858 49.722 9.1298C49.638 9.0738 49.5167 9.0458 49.358 9.0458H48.378C48.2753 9.0458 48.1843 9.0808 48.105 9.1508C48.0257 9.2208 47.9907 9.3118 48 9.4238C48.0187 9.77847 48.112 10.1028 48.28 10.3968C48.448 10.6908 48.6697 10.9498 48.945 11.1738C49.2203 11.3978 49.5423 11.5868 49.911 11.7408C50.2797 11.8948 50.674 12.0045 51.094 12.0698V13.0218C51.094 13.1245 51.1313 13.2131 51.206 13.2878C51.2807 13.3625 51.3693 13.3998 51.472 13.3998H52.606Z" fill="#C1C1C1"/>
<path d="M36.6065 13.3998C36.7092 13.3998 36.7978 13.3625 36.8725 13.2878C36.9472 13.2131 36.9845 13.1245 36.9845 13.0218V12.0698C37.4698 12.0045 37.9038 11.8878 38.2865 11.7198C38.6692 11.5518 38.9935 11.3418 39.2595 11.0898C39.5255 10.8378 39.7285 10.5531 39.8685 10.2358C40.0085 9.91847 40.0785 9.5778 40.0785 9.2138C40.0785 8.83114 40.0248 8.49047 39.9175 8.1918C39.8102 7.89314 39.6328 7.62947 39.3855 7.4008C39.1382 7.17214 38.8208 6.97614 38.4335 6.8128C38.0462 6.64947 37.5725 6.50714 37.0125 6.3858C36.4992 6.2738 36.0628 6.1758 35.7035 6.0918C35.3442 6.0078 35.0502 5.9168 34.8215 5.8188C34.5928 5.7208 34.4272 5.60414 34.3245 5.4688C34.2218 5.33347 34.1705 5.15847 34.1705 4.9438C34.1705 4.76647 34.2172 4.6078 34.3105 4.4678C34.4038 4.3278 34.5322 4.2088 34.6955 4.1108C34.8588 4.0128 35.0502 3.93814 35.2695 3.8868C35.4888 3.83547 35.7198 3.8098 35.9625 3.8098C36.5225 3.8098 36.9448 3.89614 37.2295 4.0688C37.5142 4.24147 37.7265 4.44447 37.8665 4.6778C37.9318 4.78047 38.0042 4.86214 38.0835 4.9228C38.1628 4.98347 38.2818 5.0138 38.4405 5.0138H39.4205C39.5232 5.0138 39.6142 4.97881 39.6935 4.9088C39.7728 4.8388 39.8078 4.7478 39.7985 4.6358C39.7798 4.4118 39.7098 4.17147 39.5885 3.9148C39.4672 3.65814 39.2898 3.41314 39.0565 3.1798C38.8232 2.94647 38.5338 2.7388 38.1885 2.5568C37.8432 2.3748 37.4418 2.2418 36.9845 2.1578V1.1778C36.9845 1.07514 36.9472 0.986471 36.8725 0.911805C36.7978 0.837138 36.7092 0.799805 36.6065 0.799805H35.4725C35.3698 0.799805 35.2812 0.837138 35.2065 0.911805C35.1318 0.986471 35.0945 1.07514 35.0945 1.1778V2.1298C34.6838 2.20447 34.3058 2.32347 33.9605 2.4868C33.6152 2.65014 33.3188 2.85547 33.0715 3.1028C32.8242 3.35014 32.6305 3.6278 32.4905 3.9358C32.3505 4.2438 32.2805 4.5798 32.2805 4.9438C32.2805 5.3638 32.3365 5.72547 32.4485 6.0288C32.5605 6.33214 32.7308 6.5958 32.9595 6.8198C33.1882 7.0438 33.4775 7.2328 33.8275 7.3868C34.1775 7.5408 34.5858 7.6738 35.0525 7.7858C35.5658 7.91647 36.0185 8.0238 36.4105 8.1078C36.8025 8.1918 37.1315 8.28047 37.3975 8.3738C37.6635 8.46714 37.8618 8.57914 37.9925 8.7098C38.1232 8.84047 38.1885 9.00847 38.1885 9.2138C38.1885 9.42847 38.1278 9.60814 38.0065 9.7528C37.8852 9.89747 37.7265 10.0188 37.5305 10.1168C37.3345 10.2148 37.1058 10.2848 36.8445 10.3268C36.5832 10.3688 36.3125 10.3898 36.0325 10.3898C35.6778 10.3898 35.3815 10.3595 35.1435 10.2988C34.9055 10.2381 34.7072 10.1611 34.5485 10.0678C34.3898 9.97447 34.2638 9.86714 34.1705 9.7458C34.0772 9.62447 33.9978 9.50314 33.9325 9.3818C33.8765 9.2698 33.8065 9.1858 33.7225 9.1298C33.6385 9.0738 33.5172 9.0458 33.3585 9.0458H32.3785C32.2758 9.0458 32.1848 9.0808 32.1055 9.1508C32.0262 9.2208 31.9912 9.3118 32.0005 9.4238C32.0192 9.77847 32.1125 10.1028 32.2805 10.3968C32.4485 10.6908 32.6702 10.9498 32.9455 11.1738C33.2208 11.3978 33.5428 11.5868 33.9115 11.7408C34.2802 11.8948 34.6745 12.0045 35.0945 12.0698V13.0218C35.0945 13.1245 35.1318 13.2131 35.2065 13.2878C35.2812 13.3625 35.3698 13.3998 35.4725 13.3998H36.6065Z" fill="#C1C1C1"/>
<path d="M20.607 13.3998C20.7097 13.3998 20.7983 13.3625 20.873 13.2878C20.9477 13.2131 20.985 13.1245 20.985 13.0218V12.0698C21.4703 12.0045 21.9043 11.8878 22.287 11.7198C22.6697 11.5518 22.994 11.3418 23.26 11.0898C23.526 10.8378 23.729 10.5531 23.869 10.2358C24.009 9.91847 24.079 9.5778 24.079 9.2138C24.079 8.83114 24.0253 8.49047 23.918 8.1918C23.8107 7.89314 23.6333 7.62947 23.386 7.4008C23.1387 7.17214 22.8213 6.97614 22.434 6.8128C22.0467 6.64947 21.573 6.50714 21.013 6.3858C20.4997 6.2738 20.0633 6.1758 19.704 6.0918C19.3447 6.0078 19.0507 5.9168 18.822 5.8188C18.5933 5.7208 18.4277 5.60414 18.325 5.4688C18.2223 5.33347 18.171 5.15847 18.171 4.9438C18.171 4.76647 18.2177 4.6078 18.311 4.4678C18.4043 4.3278 18.5327 4.2088 18.696 4.1108C18.8593 4.0128 19.0507 3.93814 19.27 3.8868C19.4893 3.83547 19.7203 3.8098 19.963 3.8098C20.523 3.8098 20.9453 3.89614 21.23 4.0688C21.5147 4.24147 21.727 4.44447 21.867 4.6778C21.9323 4.78047 22.0047 4.86214 22.084 4.9228C22.1633 4.98347 22.2823 5.0138 22.441 5.0138H23.421C23.5237 5.0138 23.6147 4.97881 23.694 4.9088C23.7733 4.8388 23.8083 4.7478 23.799 4.6358C23.7803 4.4118 23.7103 4.17147 23.589 3.9148C23.4677 3.65814 23.2903 3.41314 23.057 3.1798C22.8237 2.94647 22.5343 2.7388 22.189 2.5568C21.8437 2.3748 21.4423 2.2418 20.985 2.1578V1.1778C20.985 1.07514 20.9477 0.986471 20.873 0.911805C20.7983 0.837138 20.7097 0.799805 20.607 0.799805H19.473C19.3703 0.799805 19.2817 0.837138 19.207 0.911805C19.1323 0.986471 19.095 1.07514 19.095 1.1778V2.1298C18.6843 2.20447 18.3063 2.32347 17.961 2.4868C17.6157 2.65014 17.3193 2.85547 17.072 3.1028C16.8247 3.35014 16.631 3.6278 16.491 3.9358C16.351 4.2438 16.281 4.5798 16.281 4.9438C16.281 5.3638 16.337 5.72547 16.449 6.0288C16.561 6.33214 16.7313 6.5958 16.96 6.8198C17.1887 7.0438 17.478 7.2328 17.828 7.3868C18.178 7.5408 18.5863 7.6738 19.053 7.7858C19.5663 7.91647 20.019 8.0238 20.411 8.1078C20.803 8.1918 21.132 8.28047 21.398 8.3738C21.664 8.46714 21.8623 8.57914 21.993 8.7098C22.1237 8.84047 22.189 9.00847 22.189 9.2138C22.189 9.42847 22.1283 9.60814 22.007 9.7528C21.8857 9.89747 21.727 10.0188 21.531 10.1168C21.335 10.2148 21.1063 10.2848 20.845 10.3268C20.5837 10.3688 20.313 10.3898 20.033 10.3898C19.6783 10.3898 19.382 10.3595 19.144 10.2988C18.906 10.2381 18.7077 10.1611 18.549 10.0678C18.3903 9.97447 18.2643 9.86714 18.171 9.7458C18.0777 9.62447 17.9983 9.50314 17.933 9.3818C17.877 9.2698 17.807 9.1858 17.723 9.1298C17.639 9.0738 17.5177 9.0458 17.359 9.0458H16.379C16.2763 9.0458 16.1853 9.0808 16.106 9.1508C16.0267 9.2208 15.9917 9.3118 16.001 9.4238C16.0197 9.77847 16.113 10.1028 16.281 10.3968C16.449 10.6908 16.6707 10.9498 16.946 11.1738C17.2213 11.3978 17.5433 11.5868 17.912 11.7408C18.2807 11.8948 18.675 12.0045 19.095 12.0698V13.0218C19.095 13.1245 19.1323 13.2131 19.207 13.2878C19.2817 13.3625 19.3703 13.3998 19.473 13.3998H20.607Z" fill="#1F75AF"/>
<path d="M4.60747 13.3998C4.71014 13.3998 4.79881 13.3625 4.87347 13.2878C4.94814 13.2131 4.98547 13.1245 4.98547 13.0218V12.0698C5.47081 12.0045 5.90481 11.8878 6.28747 11.7198C6.67014 11.5518 6.99447 11.3418 7.26047 11.0898C7.52647 10.8378 7.72947 10.5531 7.86947 10.2358C8.00947 9.91847 8.07947 9.5778 8.07947 9.2138C8.07947 8.83114 8.02581 8.49047 7.91847 8.1918C7.81114 7.89314 7.63381 7.62947 7.38647 7.4008C7.13914 7.17214 6.82181 6.97614 6.43447 6.8128C6.04714 6.64947 5.57347 6.50714 5.01347 6.3858C4.50014 6.2738 4.06381 6.1758 3.70447 6.0918C3.34514 6.0078 3.05114 5.9168 2.82247 5.8188C2.59381 5.7208 2.42814 5.60414 2.32547 5.4688C2.22281 5.33347 2.17147 5.15847 2.17147 4.9438C2.17147 4.76647 2.21814 4.6078 2.31147 4.4678C2.40481 4.3278 2.53314 4.2088 2.69647 4.1108C2.85981 4.0128 3.05114 3.93814 3.27047 3.8868C3.48981 3.83547 3.72081 3.8098 3.96347 3.8098C4.52347 3.8098 4.94581 3.89614 5.23047 4.0688C5.51514 4.24147 5.72747 4.44447 5.86747 4.6778C5.93281 4.78047 6.00514 4.86214 6.08447 4.9228C6.16381 4.98347 6.28281 5.0138 6.44147 5.0138H7.42147C7.52414 5.0138 7.61514 4.97881 7.69447 4.9088C7.77381 4.8388 7.80881 4.7478 7.79947 4.6358C7.78081 4.4118 7.71081 4.17147 7.58947 3.9148C7.46814 3.65814 7.29081 3.41314 7.05747 3.1798C6.82414 2.94647 6.53481 2.7388 6.18947 2.5568C5.84414 2.3748 5.44281 2.2418 4.98547 2.1578V1.1778C4.98547 1.07514 4.94814 0.986471 4.87347 0.911805C4.79881 0.837138 4.71014 0.799805 4.60747 0.799805H3.47347C3.37081 0.799805 3.28214 0.837138 3.20747 0.911805C3.13281 0.986471 3.09547 1.07514 3.09547 1.1778V2.1298C2.68481 2.20447 2.30681 2.32347 1.96147 2.4868C1.61614 2.65014 1.31981 2.85547 1.07247 3.1028C0.82514 3.35014 0.631474 3.6278 0.491474 3.9358C0.351474 4.2438 0.281474 4.5798 0.281474 4.9438C0.281474 5.3638 0.337474 5.72547 0.449474 6.0288C0.561474 6.33214 0.731807 6.5958 0.960474 6.8198C1.18914 7.0438 1.47847 7.2328 1.82847 7.3868C2.17847 7.5408 2.58681 7.6738 3.05347 7.7858C3.56681 7.91647 4.01947 8.0238 4.41147 8.1078C4.80347 8.1918 5.13247 8.28047 5.39847 8.3738C5.66447 8.46714 5.86281 8.57914 5.99347 8.7098C6.12414 8.84047 6.18947 9.00847 6.18947 9.2138C6.18947 9.42847 6.12881 9.60814 6.00747 9.7528C5.88614 9.89747 5.72747 10.0188 5.53147 10.1168C5.33547 10.2148 5.10681 10.2848 4.84547 10.3268C4.58414 10.3688 4.31347 10.3898 4.03347 10.3898C3.67881 10.3898 3.38247 10.3595 3.14447 10.2988C2.90647 10.2381 2.70814 10.1611 2.54947 10.0678C2.39081 9.97447 2.26481 9.86714 2.17147 9.7458C2.07814 9.62447 1.99881 9.50314 1.93347 9.3818C1.87747 9.2698 1.80747 9.1858 1.72347 9.1298C1.63947 9.0738 1.51814 9.0458 1.35947 9.0458H0.379474C0.276807 9.0458 0.185807 9.0808 0.106474 9.1508C0.0271403 9.2208 -0.00785965 9.3118 0.00147368 9.4238C0.0201403 9.77847 0.113474 10.1028 0.281474 10.3968C0.449474 10.6908 0.67114 10.9498 0.946474 11.1738C1.22181 11.3978 1.54381 11.5868 1.91247 11.7408C2.28114 11.8948 2.67547 12.0045 3.09547 12.0698V13.0218C3.09547 13.1245 3.13281 13.2131 3.20747 13.2878C3.28214 13.3625 3.37081 13.3998 3.47347 13.3998H4.60747Z" fill="#1F75AF"/>
</svg>
