<svg width="50" height="50" viewBox="0 0 50 50" fill="none" xmlns="http://www.w3.org/2000/svg">
<g filter="url(#filter0_i)">
<path d="M25 48C37.7025 48 48 37.7025 48 25C48 12.2975 37.7025 2 25 2C12.2975 2 2 12.2975 2 25C2 37.7025 12.2975 48 25 48Z" fill="#1BAA3A"/>
</g>
<path fill-rule="evenodd" clip-rule="evenodd" d="M25 40C33.2843 40 40 33.2843 40 25C40 16.7157 33.2843 10 25 10C16.7157 10 10 16.7157 10 25C10 33.2843 16.7157 40 25 40Z" fill="white"/>
<path fill-rule="evenodd" clip-rule="evenodd" d="M25 0C31.6778 0 37.9559 2.60049 42.6776 7.32236C47.3995 12.0441 50 18.3223 50 25C50 31.6777 47.3995 37.9558 42.6776 42.6776C37.9558 47.3995 31.6777 50 25 50C18.3223 50 12.0442 47.3995 7.32236 42.6776C2.60049 37.9558 0 31.6775 0 24.9999C0 18.3223 2.60059 12.0442 7.32236 7.32236C12.0441 2.60049 18.3222 0 25 0ZM25 47.066C30.8941 47.066 36.4354 44.7707 40.603 40.603C44.7708 36.4354 47.066 30.8941 47.066 25C47.066 19.1059 44.7707 13.5646 40.603 9.39697C36.4353 5.2293 30.894 2.93398 25 2.93398C19.106 2.93398 13.5646 5.2293 9.39707 9.39697C5.2293 13.5647 2.93389 19.1058 2.93389 24.9999C2.93389 30.894 5.2293 36.4353 9.39697 40.603C13.5646 44.7708 19.1059 47.066 25 47.066Z" fill="black"/>
<path fill-rule="evenodd" clip-rule="evenodd" d="M8.50781 25C8.50781 15.9062 15.9062 8.508 24.9999 8.508C34.0937 8.508 41.4919 15.9063 41.4919 25.0001C41.4919 34.0938 34.0936 41.4921 24.9999 41.4921C15.9061 41.4921 8.50781 34.0937 8.50781 25ZM11.4418 25C11.4418 32.476 17.524 38.558 24.9999 38.558C32.4758 38.558 38.5579 32.4759 38.5579 24.9999C38.5579 17.5239 32.4758 11.4419 24.9999 11.4419C17.524 11.4419 11.4418 17.524 11.4418 25Z" fill="black"/>
<path d="M32.92 19.4725C32.355 18.8918 31.4261 18.8794 30.8455 19.4444L22.5751 27.4943L19.1723 24.0914C18.5994 23.5185 17.6705 23.5185 17.0976 24.0914C16.5248 24.6644 16.5247 25.5932 17.0976 26.166L21.5238 30.5922C21.5399 30.6083 21.5574 30.6224 21.5741 30.6376C21.5925 30.6543 21.6103 30.6719 21.6293 30.6875C21.6488 30.7036 21.6695 30.7179 21.6897 30.7329C21.7093 30.7474 21.7284 30.7627 21.7485 30.7762C21.7697 30.7903 21.7919 30.8025 21.8136 30.8154C21.8337 30.8274 21.8535 30.8402 21.8741 30.8513C21.8972 30.8635 21.9211 30.8736 21.9446 30.8846C21.9647 30.8939 21.9846 30.9042 22.005 30.9125C22.0304 30.9229 22.0564 30.9311 22.0822 30.94C22.1016 30.9466 22.1207 30.9543 22.1402 30.9602C22.1682 30.9686 22.1968 30.9746 22.2251 30.9813C22.243 30.9855 22.2607 30.9908 22.2788 30.9943C22.3107 31.0006 22.3428 31.0043 22.3749 31.0084C22.3898 31.0104 22.4046 31.0134 22.4196 31.0149C22.4668 31.0194 22.5141 31.0218 22.5614 31.0218C22.608 31.0218 22.6544 31.0195 22.7008 31.0151C22.7151 31.0138 22.7294 31.0109 22.7438 31.0091C22.7757 31.0051 22.8076 31.0014 22.8391 30.9953C22.8572 30.9918 22.8751 30.9866 22.8931 30.9824C22.9205 30.9761 22.9482 30.9703 22.9754 30.9623C22.9952 30.9565 23.0147 30.9487 23.0344 30.9421C23.0592 30.9337 23.0842 30.926 23.1086 30.9161C23.1291 30.9079 23.149 30.8978 23.1692 30.8886C23.1921 30.8781 23.2153 30.8685 23.2378 30.8567C23.2581 30.8462 23.2777 30.8338 23.2976 30.8222C23.3191 30.8097 23.341 30.798 23.3619 30.7842C23.3815 30.7714 23.4003 30.7567 23.4194 30.7429C23.4397 30.7282 23.4604 30.7142 23.4801 30.6983C23.4983 30.6835 23.5157 30.6671 23.5334 30.6513C23.5504 30.6362 23.5682 30.6223 23.5846 30.6062L32.892 21.5469C33.4725 20.9817 33.4851 20.0529 32.92 19.4725Z" fill="black"/>
<defs>
<filter id="filter0_i" x="2" y="2" width="46" height="46" filterUnits="userSpaceOnUse" color-interpolation-filters="sRGB">
<feFlood flood-opacity="0" result="BackgroundImageFix"/>
<feBlend mode="normal" in="SourceGraphic" in2="BackgroundImageFix" result="shape"/>
<feColorMatrix in="SourceAlpha" type="matrix" values="0 0 0 0 0 0 0 0 0 0 0 0 0 0 0 0 0 0 127 0" result="hardAlpha"/>
<feOffset dx="4" dy="3"/>
<feComposite in2="hardAlpha" operator="arithmetic" k2="-1" k3="1"/>
<feColorMatrix type="matrix" values="0 0 0 0 0.984314 0 0 0 0 0.992157 0 0 0 0 0.992157 0 0 0 1 0"/>
<feBlend mode="normal" in2="shape" result="effect1_innerShadow"/>
</filter>
</defs>
</svg>
