<svg width="20" height="18" viewBox="0 0 20 18" fill="none" xmlns="http://www.w3.org/2000/svg">
<g filter="url(#filter0_i)">
<path d="M0.988281 14.4272C0.988281 14.4272 4.45082 9.93046 4.09803 1.8063L19.3161 1.72852L19.3573 16.7193L3.9318 16.8214L3.9886 14.5742" fill="#BC0319"/>
</g>
<path fill-rule="evenodd" clip-rule="evenodd" d="M3.47399 15.0537H0.579038C0.335245 15.0537 0.117622 14.9011 0.0345947 14.6719C-0.0483552 14.4426 0.0210849 14.186 0.208369 14.03C1.70054 12.7608 3.47399 9.47806 3.47399 5.21091V1.73697C3.47399 1.41721 3.73322 1.15798 4.05298 1.15798H6.98652V0.57899C6.98652 0.259233 7.24576 0 7.56551 0C7.88527 0 8.1445 0.259233 8.1445 0.57899V1.15798H11.0395V0.57899C11.0395 0.259233 11.2987 0 11.6184 0C11.9382 0 12.1974 0.259233 12.1974 0.57899V1.15798H15.131V0.57899C15.131 0.259233 15.3902 0 15.71 0C16.0297 0 16.289 0.259233 16.289 0.57899V1.15798H19.1839C19.5037 1.15798 19.7629 1.41721 19.7629 1.73697V16.7907C19.7629 17.1105 19.5037 17.3697 19.1839 17.3697H4.05298C3.73322 17.3697 3.47399 17.1105 3.47399 16.7907V15.0537ZM18.6049 16.2117V11.1918C17.8548 12.9596 16.7767 14.3398 16.0806 14.9195C15.9766 15.0063 15.8454 15.0537 15.71 15.0537H4.63197V16.2117H18.6049ZM4.63197 2.31596H6.98652V2.89495C6.98652 3.2147 7.24576 3.47394 7.56551 3.47394C7.88527 3.47394 8.1445 3.2147 8.1445 2.89495V2.31596H11.0394V2.89495C11.0394 3.2147 11.2987 3.47394 11.6184 3.47394C11.9382 3.47394 12.1974 3.2147 12.1974 2.89495V2.31596H15.131V2.89495C15.131 3.2147 15.3902 3.47394 15.71 3.47394C16.0297 3.47394 16.289 3.2147 16.289 2.89495V2.31596H18.6049V4.63192H4.63197V2.31596ZM18.5946 5.78951H4.62205C4.52651 8.67257 3.67671 11.6268 1.89601 13.8958H15.4829C17.0545 12.3523 18.4642 9.46243 18.5946 5.78951Z" fill="black"/>
<defs>
<filter id="filter0_i" x="0.988281" y="1.72852" width="18.369" height="15.0928" filterUnits="userSpaceOnUse" color-interpolation-filters="sRGB">
<feFlood flood-opacity="0" result="BackgroundImageFix"/>
<feBlend mode="normal" in="SourceGraphic" in2="BackgroundImageFix" result="shape"/>
<feColorMatrix in="SourceAlpha" type="matrix" values="0 0 0 0 0 0 0 0 0 0 0 0 0 0 0 0 0 0 127 0" result="hardAlpha"/>
<feOffset dx="2" dy="2"/>
<feComposite in2="hardAlpha" operator="arithmetic" k2="-1" k3="1"/>
<feColorMatrix type="matrix" values="0 0 0 0 0.984314 0 0 0 0 0.992157 0 0 0 0 0.992157 0 0 0 1 0"/>
<feBlend mode="normal" in2="shape" result="effect1_innerShadow"/>
</filter>
</defs>
</svg>
