<svg width="20" height="19" viewBox="0 0 20 19" fill="none" xmlns="http://www.w3.org/2000/svg">
<g filter="url(#filter0_i)">
<path d="M8.55428 0.506836C3.07848 0.506546 0.483398 3.20861 0.483398 8.50018C0.483398 13.8081 3.09603 17.6225 8.55428 17.6219C14.0482 17.6213 17.6648 14.2758 17.6648 9.00018C17.6648 3.71586 14.0377 0.507126 8.55428 0.506836Z" fill="#DBDDE0"/>
</g>
<path d="M19.7527 8.66135L17.6127 7.15268C17.225 6.87936 16.6891 7.15768 16.6891 7.63159V8.55432H6.4141C6.09051 8.55432 5.82812 8.81666 5.82812 9.1403C5.82812 9.46393 6.09051 9.72623 6.4141 9.72623H16.689V10.6489C16.689 11.126 17.2278 11.3991 17.6126 11.1278L19.7526 9.61916C20.0794 9.38893 20.086 8.89682 19.7527 8.66135Z" fill="black"/>
<path d="M16.8153 12.9031C16.5352 12.7412 16.1767 12.8368 16.0146 13.117C14.6382 15.4965 12.0653 17.0939 9.12512 17.0939C4.73973 17.0939 1.17191 13.5261 1.17191 9.14074C1.17191 4.75535 4.73973 1.18754 9.12512 1.18754C12.0673 1.18754 14.639 2.78648 16.0146 5.16445C16.1766 5.44461 16.5352 5.54019 16.8152 5.37828C17.0954 5.21625 17.1911 4.85777 17.0291 4.57766C15.446 1.84102 12.4894 0.015625 9.12512 0.015625C4.08164 0.015625 0 4.09684 0 9.14074C0 14.1842 4.08121 18.2659 9.12512 18.2659C12.4909 18.2659 15.4467 16.4392 17.0291 13.7037C17.1911 13.4236 17.0954 13.0652 16.8153 12.9031Z" fill="black"/>
<defs>
<filter id="filter0_i" x="0.483398" y="0.506836" width="17.1814" height="17.1151" filterUnits="userSpaceOnUse" color-interpolation-filters="sRGB">
<feFlood flood-opacity="0" result="BackgroundImageFix"/>
<feBlend mode="normal" in="SourceGraphic" in2="BackgroundImageFix" result="shape"/>
<feColorMatrix in="SourceAlpha" type="matrix" values="0 0 0 0 0 0 0 0 0 0 0 0 0 0 0 0 0 0 127 0" result="hardAlpha"/>
<feOffset dx="2" dy="2"/>
<feComposite in2="hardAlpha" operator="arithmetic" k2="-1" k3="1"/>
<feColorMatrix type="matrix" values="0 0 0 0 0.984314 0 0 0 0 0.992157 0 0 0 0 0.992157 0 0 0 1 0"/>
<feBlend mode="normal" in2="shape" result="effect1_innerShadow"/>
</filter>
</defs>
</svg>
