<svg width="20" height="19" viewBox="0 0 20 19" fill="none" xmlns="http://www.w3.org/2000/svg">
<g filter="url(#filter0_i)">
<path d="M2 5H18V18H2V5Z" fill="#BC0319"/>
</g>
<path fill-rule="evenodd" clip-rule="evenodd" d="M18.75 4.98816H14.795C15.0787 4.79441 15.3225 4.60191 15.4925 4.42941C16.5 3.41566 16.5 1.76566 15.4925 0.751914C14.5138 -0.233086 12.8062 -0.234336 11.8263 0.751914C11.285 1.29566 9.84625 3.50941 10.045 4.98816H9.955C10.1525 3.50941 8.715 1.29566 8.17375 0.751914C7.19375 -0.234336 5.48625 -0.233086 4.5075 0.751914C3.5 1.76566 3.5 3.41566 4.50625 4.42941C4.6775 4.60191 4.92125 4.79441 5.205 4.98816H1.25C0.56125 4.98816 0 5.54941 0 6.23816V9.36316C0 9.70816 0.28 9.98816 0.625 9.98816H1.25V17.4882C1.25 18.1769 1.81125 18.7382 2.5 18.7382H17.5C18.1887 18.7382 18.75 18.1769 18.75 17.4882V9.98816H19.375C19.72 9.98816 20 9.70816 20 9.36316V6.23816C20 5.54941 19.4387 4.98816 18.75 4.98816ZM5.39375 1.63316C5.6475 1.37816 5.98375 1.23816 6.34125 1.23816C6.6975 1.23816 7.03375 1.37816 7.2875 1.63316C8.13 2.48066 8.9675 4.64566 8.67625 4.94691C8.67625 4.94691 8.62375 4.98816 8.445 4.98816C7.58125 4.98816 5.9325 4.09066 5.39375 3.54816C4.87 3.02066 4.87 2.16066 5.39375 1.63316ZM2.5 17.4882H9.375V9.98816H2.5V17.4882ZM9.375 8.73816H1.25V6.23816H8.445H9.375V8.73816ZM14.6063 1.63316C14.1 1.12566 13.22 1.12441 12.7125 1.63316C11.87 2.48066 11.0325 4.64566 11.3225 4.94691C11.3238 4.94816 11.3763 4.98816 11.555 4.98816C12.4187 4.98816 14.0675 4.09066 14.6063 3.54816C15.13 3.02066 15.13 2.16066 14.6063 1.63316ZM17.5 17.4882H10.625V9.98816H17.5V17.4882ZM10.625 8.73816H18.75V6.23816H11.555H10.625V8.73816Z" fill="black"/>
<defs>
<filter id="filter0_i" x="2" y="5" width="16" height="13" filterUnits="userSpaceOnUse" color-interpolation-filters="sRGB">
<feFlood flood-opacity="0" result="BackgroundImageFix"/>
<feBlend mode="normal" in="SourceGraphic" in2="BackgroundImageFix" result="shape"/>
<feColorMatrix in="SourceAlpha" type="matrix" values="0 0 0 0 0 0 0 0 0 0 0 0 0 0 0 0 0 0 127 0" result="hardAlpha"/>
<feOffset dx="2" dy="2"/>
<feComposite in2="hardAlpha" operator="arithmetic" k2="-1" k3="1"/>
<feColorMatrix type="matrix" values="0 0 0 0 0.984314 0 0 0 0 0.992157 0 0 0 0 0.992157 0 0 0 1 0"/>
<feBlend mode="normal" in2="shape" result="effect1_innerShadow"/>
</filter>
</defs>
</svg>
