<svg width="20" height="26" viewBox="0 0 20 26" fill="none" xmlns="http://www.w3.org/2000/svg">
<g filter="url(#filter0_i)">
<path d="M15.3391 15.4842H14.4498C15.5548 15.3154 16.4243 14.8476 17.0422 14.1465C18.3247 12.6915 18.2344 10.5962 18.052 8.99L17.922 7.93345L17.9012 7.74211C17.695 5.64692 16.8175 3.71561 15.4305 2.29814C13.9791 0.815105 12.0513 0 10.0018 0C7.95237 0 6.02452 0.817553 4.57321 2.30068C3.26327 3.6394 2.40781 5.43961 2.14306 7.40046L2.08169 7.94127L1.97704 8.78661L1.92754 9.22382C1.76393 10.7944 1.7373 12.7575 2.96157 14.1464C3.57946 14.8475 4.44891 15.3154 5.55397 15.4841H4.66452C2.02874 15.4841 0.0214844 20.0218 0.0214844 22.2794C0.0214844 22.5317 0.167392 22.7743 0.395915 22.8816C3.93811 24.5444 7.27802 25.0661 10.0572 25.0661C11.5202 25.0661 12.8281 24.9265 13.9277 24.7332C17.391 24.1243 19.5596 22.9222 19.6503 22.8712C19.8554 22.7559 19.9823 22.5138 19.9823 22.2787C19.9823 20.021 17.975 15.4842 15.3391 15.4842Z" fill="#DBDDE0"/>
</g>
<path fill-rule="evenodd" clip-rule="evenodd" d="M15.3391 15.4842H14.4498C15.5548 15.3154 16.4243 14.8476 17.0422 14.1465C18.3247 12.6915 18.2344 10.5962 18.052 8.99L17.922 7.93345L17.9012 7.74211C17.695 5.64692 16.8175 3.71561 15.4305 2.29814C13.9791 0.815105 12.0513 0 10.0018 0C7.95237 0 6.02452 0.817553 4.57321 2.30068C3.26327 3.6394 2.40781 5.43961 2.14306 7.40046L2.08169 7.94127L1.97704 8.78661L1.92754 9.22382C1.76393 10.7944 1.7373 12.7575 2.96157 14.1464C3.57946 14.8475 4.44891 15.3154 5.55397 15.4841H4.66452C2.02874 15.4841 0.0214844 20.0218 0.0214844 22.2794C0.0214844 22.5317 0.167392 22.7743 0.395915 22.8816C3.93811 24.5444 7.27802 25.0661 10.0572 25.0661C11.5202 25.0661 12.8281 24.9265 13.9277 24.7332C17.391 24.1243 19.5596 22.9222 19.6503 22.8712C19.8554 22.7559 19.9823 22.5138 19.9823 22.2787C19.9823 20.021 17.975 15.4842 15.3391 15.4842ZM12.1959 15.006V16.3322L10.0165 18.8428L7.89212 16.4046V15.0489C8.48283 15.5202 9.23794 15.8138 10.0299 15.8138C10.8458 15.8138 11.5208 15.5025 12.1959 15.006ZM9.17608 19.8704L7.0544 17.5272L7.41735 21.0108L9.12883 19.8983L9.17608 19.8704ZM12.9492 17.5271L12.5862 21.0107L10.8748 19.8982C10.8593 19.8882 10.8435 19.8788 10.8276 19.8703L12.9492 17.5271ZM10.6231 3.36557C10.6621 3.48633 11.6852 6.41983 15.5867 7.72034C16.3258 8.04456 16.5887 9.13603 16.1646 10.3391C15.8989 11.0919 15.4227 11.6872 14.9114 11.9315C14.8 11.9846 14.663 12.0213 14.5511 12.0413C14.2654 12.6155 13.8839 13.1879 13.462 13.7073V14.3414C14.559 14.2538 15.4909 13.9091 16.0173 13.3117C16.8867 12.3256 16.9026 10.7242 16.7818 9.39792L16.7346 8.9427L16.6568 8.30626L16.5796 7.61801C16.1074 3.94338 13.3813 1.30338 10.0081 1.30338C6.55642 1.30338 3.78503 4.06759 3.41018 7.87603C3.40417 7.93708 3.39847 8.00036 3.39259 8.06557L3.39259 8.06559C3.37915 8.21471 3.36481 8.37387 3.34385 8.53932C3.16461 9.95705 2.91752 12.0993 3.98621 13.3117C4.52621 13.9244 5.44503 14.2721 6.62646 14.3484V13.7836C6.20452 13.2458 5.78073 12.6468 5.48115 12.0455C5.19448 12.0012 4.85726 11.848 4.59499 11.5946C4.27718 11.2875 4.00461 10.8416 3.82714 10.3392C3.40283 9.13561 3.67802 8.04422 4.41726 7.72025C7.59753 6.66017 8.8733 4.48824 9.25053 3.67868L9.31259 3.53966L9.42011 3.26796C9.52903 3.05057 9.75277 2.90895 10.0019 2.90895C10.2866 2.90895 10.5382 3.09392 10.6231 3.36557ZM5.67372 16.7501L6.23279 22.1598C6.25625 22.3852 6.39541 22.6042 6.59997 22.7018C6.68891 22.7443 6.78461 22.7763 6.88022 22.7763C7.00418 22.7763 7.12764 22.7464 7.23507 22.6766L9.83845 20.9872C9.90351 20.9448 9.9576 20.8936 10.0019 20.8349C10.0462 20.8935 10.1002 20.9468 10.1653 20.9892L12.7687 22.6818C12.8761 22.7516 12.9995 22.7871 13.1235 22.7871C13.219 22.7871 13.3149 22.7662 13.4038 22.7237C13.6083 22.6261 13.7474 22.3851 13.7709 22.1598L14.33 16.7501H15.3392C16.8089 16.7501 18.4525 19.9146 18.6588 21.8735L18.4371 21.9782L18.1314 22.1167C17.235 22.5126 15.6954 23.104 13.7022 23.4544C10.7767 23.9689 6.28916 24.0589 1.34705 21.8545C1.56182 19.8945 3.19963 16.7501 4.66452 16.7501H5.67372ZM13.474 8.23291C11.6491 7.26245 10.5852 5.98295 10.0017 5.03865C9.41819 5.98304 8.35431 7.26827 6.5295 8.23873C6.14626 8.43548 5.9353 8.54052 5.89661 8.55384L5.59566 8.67882C5.39028 8.75865 5.17611 8.83263 4.95727 8.90751C4.91347 9.03224 4.876 9.39949 5.0549 9.90624C5.22832 10.3979 5.47845 10.6596 5.59516 10.7378C5.73018 10.6871 5.87937 10.6823 6.01912 10.7262C6.19752 10.7824 6.34326 10.9126 6.41895 11.0835C7.11954 12.6651 8.48174 14.5122 10.0154 14.5122C11.5457 14.5122 12.9071 12.671 13.6078 11.094C13.681 10.9293 13.8193 10.8027 13.9896 10.7437C14.1252 10.6967 14.2713 10.697 14.4059 10.7412C14.5213 10.6656 14.7741 10.405 14.9491 9.90895C15.1277 9.40245 15.0903 9.03823 15.0465 8.9135C14.7183 8.80118 14.4071 8.68481 14.1139 8.55384C14.1168 8.55693 14.1105 8.55512 14.0952 8.54842L13.474 8.23291Z" fill="black"/>
<defs>
<filter id="filter0_i" x="0.0214844" y="0" width="19.9608" height="25.0661" filterUnits="userSpaceOnUse" color-interpolation-filters="sRGB">
<feFlood flood-opacity="0" result="BackgroundImageFix"/>
<feBlend mode="normal" in="SourceGraphic" in2="BackgroundImageFix" result="shape"/>
<feColorMatrix in="SourceAlpha" type="matrix" values="0 0 0 0 0 0 0 0 0 0 0 0 0 0 0 0 0 0 127 0" result="hardAlpha"/>
<feOffset dx="2" dy="2"/>
<feComposite in2="hardAlpha" operator="arithmetic" k2="-1" k3="1"/>
<feColorMatrix type="matrix" values="0 0 0 0 0.984314 0 0 0 0 0.992157 0 0 0 0 0.992157 0 0 0 1 0"/>
<feBlend mode="normal" in2="shape" result="effect1_innerShadow"/>
</filter>
</defs>
</svg>
