<svg width="20" height="20" viewBox="0 0 20 20" fill="none" xmlns="http://www.w3.org/2000/svg">
<path d="M19.4047 18.8281H17.0634V6.54555C17.7378 6.30434 18.2217 5.6593 18.2217 4.90312C18.2217 3.94152 17.4393 3.15918 16.4775 3.15918C15.5157 3.15918 14.7332 3.94152 14.7332 4.90312C14.7332 5.65926 15.2171 6.3043 15.8915 6.54555V18.8281H13.8248V16.4126C14.4991 16.1714 14.9831 15.5263 14.9831 14.7702C14.9831 13.8086 14.2006 13.0262 13.2388 13.0262C12.277 13.0262 11.4946 13.8086 11.4946 14.7702C11.4946 15.5263 11.9785 16.1714 12.6529 16.4126V18.8281H10.5861V4.7848C11.2605 4.54359 11.7445 3.89855 11.7445 3.14238C11.7445 2.18078 10.962 1.39844 10.0002 1.39844C9.0384 1.39844 8.25594 2.18078 8.25594 3.14238C8.25594 3.89852 8.73988 4.54355 9.41426 4.7848V18.8281H7.31871V9.39996C8.00805 9.16695 8.50586 8.51461 8.50586 7.74777C8.50586 6.78617 7.7234 6.00383 6.7616 6.00383C5.7998 6.00383 5.01734 6.78613 5.01734 7.74777C5.01734 8.49309 5.48758 9.13043 6.14687 9.37957V18.8281H4.10891V3.6416C4.78332 3.40039 5.26727 2.75535 5.26727 1.99918C5.26727 1.03758 4.48477 0.255234 3.52297 0.255234C2.56117 0.255234 1.77863 1.03762 1.77863 1.99922C1.77863 2.75535 2.26258 3.40039 2.93695 3.64164V18.8281H1.18164V0.585938C1.18164 0.262344 0.919297 0 0.595703 0C0.272109 0 0.00976562 0.262344 0.00976562 0.585938V19.4141C0.00976562 19.7377 0.272109 20 0.595703 20H19.4047C19.7283 20 19.9906 19.7377 19.9906 19.4141C19.9906 19.0905 19.7283 18.8281 19.4047 18.8281Z" fill="#BC0319"/>
<path fill-rule="evenodd" clip-rule="evenodd" d="M17.0634 18.8281H19.4047C19.7283 18.8281 19.9906 19.0905 19.9906 19.4141C19.9906 19.7377 19.7283 20 19.4047 20H0.595703C0.272109 20 0.00976562 19.7377 0.00976562 19.4141V0.585938C0.00976562 0.262344 0.272109 0 0.595703 0C0.919297 0 1.18164 0.262344 1.18164 0.585938V18.8281H2.93695V3.64164C2.26258 3.40039 1.77863 2.75535 1.77863 1.99922C1.77863 1.03762 2.56117 0.255234 3.52297 0.255234C4.48477 0.255234 5.26727 1.03758 5.26727 1.99918C5.26727 2.75535 4.78332 3.40039 4.10891 3.6416V18.8281H6.14687V9.37957C5.48758 9.13043 5.01734 8.49309 5.01734 7.74777C5.01734 6.78613 5.7998 6.00383 6.7616 6.00383C7.7234 6.00383 8.50586 6.78617 8.50586 7.74777C8.50586 8.51461 8.00805 9.16695 7.31871 9.39996V18.8281H9.41426V4.7848C8.73988 4.54355 8.25594 3.89852 8.25594 3.14238C8.25594 2.18078 9.0384 1.39844 10.0002 1.39844C10.962 1.39844 11.7445 2.18078 11.7445 3.14238C11.7445 3.89855 11.2605 4.54359 10.5861 4.7848V18.8281H12.6529V16.4126C11.9785 16.1714 11.4946 15.5263 11.4946 14.7702C11.4946 13.8086 12.277 13.0262 13.2388 13.0262C14.2006 13.0262 14.9831 13.8086 14.9831 14.7702C14.9831 15.5263 14.4991 16.1714 13.8248 16.4126V18.8281H15.8915V6.54555C15.2171 6.3043 14.7332 5.65926 14.7332 4.90312C14.7332 3.94152 15.5157 3.15918 16.4775 3.15918C17.4393 3.15918 18.2217 3.94152 18.2217 4.90312C18.2217 5.6593 17.7378 6.30434 17.0634 6.54555V18.8281ZM17.0498 4.90312C17.0498 4.5877 16.7931 4.33105 16.4775 4.33105C16.1618 4.33105 15.905 4.58766 15.905 4.90312C15.905 5.21859 16.1618 5.4752 16.4775 5.4752C16.7931 5.4752 17.0498 5.21855 17.0498 4.90312ZM13.2388 14.1982C13.5545 14.1982 13.8112 14.4548 13.8112 14.7702C13.8112 15.0857 13.5545 15.3423 13.2388 15.3423C12.9232 15.3423 12.6664 15.0857 12.6664 14.7702C12.6664 14.4548 12.9232 14.1982 13.2388 14.1982ZM10.5726 3.14238C10.5726 2.82695 10.3158 2.57031 10.0002 2.57031C9.68457 2.57031 9.42781 2.82691 9.42781 3.14238C9.42781 3.45785 9.68457 3.71445 10.0002 3.71445C10.3158 3.71445 10.5726 3.45781 10.5726 3.14238ZM6.76156 7.17574C7.07719 7.17574 7.33395 7.43234 7.33395 7.74781C7.33395 8.06328 7.07719 8.31988 6.76156 8.31988C6.44594 8.31988 6.18918 8.06324 6.18918 7.74781C6.18918 7.43238 6.44594 7.17574 6.76156 7.17574ZM4.09535 1.99922C4.09535 1.68379 3.83855 1.42715 3.52293 1.42715C3.2073 1.42715 2.95051 1.68379 2.95051 1.99922C2.95051 2.31465 3.2073 2.57129 3.52293 2.57129C3.83855 2.57129 4.09535 2.31465 4.09535 1.99922Z" fill="black"/>
</svg>
