<svg width="26" height="20" viewBox="0 0 26 20" fill="none" xmlns="http://www.w3.org/2000/svg">
<path fill-rule="evenodd" clip-rule="evenodd" d="M25.9998 3.22533V2.81507C25.9998 1.27036 24.7431 0.0136719 23.1984 0.0136719H2.8014C1.25668 0.0136719 0 1.27036 0 2.81507V3.22533V3.22833V16.6851C0 18.2297 1.25668 19.4864 2.8014 19.4864H23.1986C24.7432 19.4864 25.9998 18.2297 25.9998 16.6851V3.22833V3.22533ZM2.8014 1.53711H23.1984C23.903 1.53711 24.4764 2.11038 24.4764 2.81507V2.81543L14.2746 9.61656C13.5956 10.0693 12.4043 10.0692 11.7254 9.61661L1.52344 2.81537V2.81502C1.52344 2.11038 2.09671 1.53711 2.8014 1.53711ZM2.8014 17.9629H23.1986C23.9031 17.9629 24.4764 17.3897 24.4764 16.6851V4.64629L15.1197 10.8842C14.5254 11.2804 13.7625 11.4785 12.9999 11.4785C12.2372 11.4785 11.4747 11.2804 10.8803 10.8842L1.52344 4.64629V16.6851C1.52344 17.3897 2.09671 17.9629 2.8014 17.9629Z" fill="#DBDBDB"/>
</svg>
