<svg width="20" height="22" viewBox="0 0 20 22" fill="none" xmlns="http://www.w3.org/2000/svg">
<g filter="url(#filter0_i)">
<path d="M17.0953 15.0545L13.2757 14.3253V12.3191C13.6579 11.762 13.9159 11.1039 14.006 10.3906H14.2014C15.4675 10.3906 16.4976 9.36059 16.4976 8.09449C16.4976 7.35957 16.1501 6.70469 15.6112 6.2841V5.61125C15.6112 2.51719 13.0941 0 10 0C6.90594 0 4.38875 2.51719 4.38875 5.61125V6.2841C3.84992 6.70465 3.50242 7.35957 3.50242 8.09449C3.50242 9.36059 4.53246 10.3906 5.79855 10.3906H5.99398C6.0841 11.1039 6.34207 11.762 6.72434 12.3192V14.3252L2.90473 15.0544C1.2216 15.3757 0 16.8526 0 18.5661V22H20V18.5661C20 16.8526 18.7784 15.3757 17.0953 15.0545Z" fill="#BC0319"/>
</g>
<path fill-rule="evenodd" clip-rule="evenodd" d="M17.0953 15.0545L13.2757 14.3253V12.3191C13.6579 11.762 13.9159 11.1039 14.006 10.3906H14.2014C15.4675 10.3906 16.4976 9.36059 16.4976 8.09449C16.4976 7.35957 16.1501 6.70469 15.6112 6.2841V5.61125C15.6112 2.51719 13.0941 0 10 0C6.90594 0 4.38875 2.51719 4.38875 5.61125V6.2841C3.84992 6.70465 3.50242 7.35957 3.50242 8.09449C3.50242 9.36059 4.53246 10.3906 5.79855 10.3906H5.99398C6.0841 11.1039 6.34207 11.762 6.72434 12.3192V14.3252L2.90473 15.0544C1.2216 15.3757 0 16.8526 0 18.5661V22H20V18.5661C20 16.8526 18.7784 15.3757 17.0953 15.0545ZM7.89621 13.4639C8.50941 13.86 9.22988 14.0886 10 14.0886C10.7701 14.0886 11.4906 13.86 12.1038 13.4639V14.6424C11.6343 15.3505 10.8587 15.7689 10 15.7689C9.14133 15.7689 8.3657 15.3505 7.89621 14.6425V13.4639ZM10 1.17188C7.55211 1.17188 5.56063 3.16336 5.56063 5.61125V5.81066C5.63887 5.80258 5.7182 5.79836 5.79855 5.79836H6.02848C6.29238 4.71387 7.27195 3.90625 8.43652 3.90625H8.56855L8.68777 3.96285C9.52172 4.35875 10.4782 4.35875 11.3122 3.96285L11.4314 3.90625H11.5635C12.728 3.90625 13.7076 4.71387 13.9715 5.79836H14.2014C14.2818 5.79836 14.3611 5.80258 14.4394 5.81066V5.61125C14.4394 3.16336 12.4479 1.17188 10 1.17188ZM5.79852 9.21875C5.17859 9.21875 4.67426 8.71441 4.67426 8.09449C4.67426 7.47457 5.17859 6.97023 5.79852 6.97023H7.13035V6.3843C7.13035 5.70293 7.65477 5.14176 8.32117 5.08316C9.39609 5.54844 10.6039 5.54844 11.6788 5.08316C12.3452 5.14176 12.8696 5.70293 12.8696 6.3843V6.97023H14.2014C14.8214 6.97023 15.3257 7.47457 15.3257 8.09449C15.3257 8.71441 14.8214 9.21875 14.2014 9.21875H12.8696V9.8243C12.8696 11.5294 11.5823 12.9167 9.99996 12.9167C8.41766 12.9167 7.13031 11.5295 7.13031 9.8243V9.21875H5.79852ZM15.9654 20.8281H18.8281V18.5661C18.8281 17.4143 18.007 16.4215 16.8756 16.2055L12.9621 15.4584C12.2672 16.3935 11.188 16.9407 10 16.9407C8.81211 16.9407 7.73289 16.3935 7.03793 15.4584L3.12449 16.2055C1.99305 16.4215 1.17188 17.4143 1.17188 18.5661V20.8281H4.03461V17.7474H5.20648V20.8281H14.7935V17.7474H15.9654V20.8281Z" fill="black"/>
<defs>
<filter id="filter0_i" x="0" y="0" width="20" height="22" filterUnits="userSpaceOnUse" color-interpolation-filters="sRGB">
<feFlood flood-opacity="0" result="BackgroundImageFix"/>
<feBlend mode="normal" in="SourceGraphic" in2="BackgroundImageFix" result="shape"/>
<feColorMatrix in="SourceAlpha" type="matrix" values="0 0 0 0 0 0 0 0 0 0 0 0 0 0 0 0 0 0 127 0" result="hardAlpha"/>
<feOffset dx="2" dy="2"/>
<feComposite in2="hardAlpha" operator="arithmetic" k2="-1" k3="1"/>
<feColorMatrix type="matrix" values="0 0 0 0 0.984314 0 0 0 0 0.992157 0 0 0 0 0.992157 0 0 0 1 0"/>
<feBlend mode="normal" in2="shape" result="effect1_innerShadow"/>
</filter>
</defs>
</svg>
