<svg width="20" height="20" viewBox="0 0 20 20" fill="none" xmlns="http://www.w3.org/2000/svg">
<g filter="url(#filter0_i)">
<path d="M19.2434 15.6412C18.7485 14.7465 18.0291 13.9864 17.1629 13.443L13.8673 11.3756C13.994 11.2114 14.1105 11.0391 14.2157 10.8594H14.4531C15.6378 10.8594 16.6016 9.89559 16.6016 8.71094V6.01562C16.6016 4.9427 15.811 4.05098 14.7818 3.89234C14.3227 1.6732 12.3531 0 10 0C7.30762 0 5.11719 2.19043 5.11719 4.88281V8.39844C5.11719 9.5182 5.49633 10.5509 6.13262 11.3756L2.83711 13.443C1.97094 13.9864 1.25148 14.7465 0.756523 15.6412C0.261562 16.536 0 17.5494 0 18.5719V19.4141C0 19.7377 0.262344 20 0.585938 20H19.4141C19.7377 20 20 19.7377 20 19.4141V18.5719C20 17.5494 19.7384 16.536 19.2434 15.6412Z" fill="#BC0319"/>
</g>
<path fill-rule="evenodd" clip-rule="evenodd" d="M17.1629 13.443C18.0291 13.9864 18.7485 14.7465 19.2434 15.6412C19.7384 16.536 20 17.5494 20 18.5719V19.4141C20 19.7377 19.7377 20 19.4141 20H0.585938C0.262344 20 0 19.7377 0 19.4141V18.5719C0 17.5494 0.261562 16.536 0.756523 15.6412C1.25148 14.7465 1.97094 13.9864 2.83711 13.443L6.13262 11.3756C5.49633 10.5509 5.11719 9.5182 5.11719 8.39844V4.88281C5.11719 2.19043 7.30762 0 10 0C12.3531 0 14.3227 1.6732 14.7818 3.89234C15.811 4.05098 16.6016 4.9427 16.6016 6.01562V8.71094C16.6016 9.89559 15.6378 10.8594 14.4531 10.8594H14.2157C14.1105 11.0391 13.994 11.2114 13.8673 11.3756L17.1629 13.443ZM12.9018 5H13.7109V4.88281C13.7109 2.8366 12.0462 1.17188 10 1.17188C7.95379 1.17188 6.28906 2.8366 6.28906 4.88281V4.98805H7.105C7.79305 4.98805 8.4609 4.70328 8.93723 4.20676L9.57723 3.53969C9.68773 3.42449 9.84047 3.35938 10 3.35938H10.0011C10.1611 3.35969 10.314 3.42535 10.4243 3.54121L11.0632 4.21203C11.5401 4.71277 12.2103 5 12.9018 5ZM7.10496 6.15992C8.11059 6.15992 9.0866 5.74375 9.78281 5.01805L9.99844 4.79332L10.2145 5.02027C10.9116 5.75211 11.8911 6.17188 12.9018 6.17188H13.7109V8.39844C13.7109 8.85148 13.6292 9.28578 13.4799 9.6875H10.8203C10.4967 9.6875 10.2344 9.94984 10.2344 10.2734C10.2344 10.597 10.4967 10.8594 10.8203 10.8594H12.775C12.0946 11.6256 11.1029 12.1094 10 12.1094C7.95379 12.1094 6.28906 10.4446 6.28906 8.39844V6.15992H7.10496ZM12.5243 12.5767C11.7872 13.0237 10.9232 13.2812 10 13.2812C9.07684 13.2812 8.21277 13.0237 7.4757 12.5767C7.61191 13.8493 8.69188 14.8438 10 14.8438C11.3081 14.8438 12.3881 13.8493 12.5243 12.5767ZM15.4297 6.01562V8.71094C15.4297 9.15691 15.1291 9.53375 14.7199 9.65016C14.826 9.25051 14.8828 8.83102 14.8828 8.39844V5.13895C15.2064 5.2982 15.4297 5.63125 15.4297 6.01562ZM1.17188 18.8281H18.8281V18.5719C18.8281 16.8807 17.9728 15.3345 16.5402 14.4357L13.6947 12.6506C13.5196 14.5352 11.9296 16.0156 10 16.0156C8.07043 16.0156 6.48039 14.5352 6.30535 12.6506L3.45988 14.4357C2.02719 15.3344 1.17188 16.8807 1.17188 18.5719V18.8281Z" fill="black"/>
<path d="M16.25 16.4844H13.125C12.8014 16.4844 12.5391 16.7467 12.5391 17.0703C12.5391 17.3939 12.8014 17.6562 13.125 17.6562H16.25C16.5736 17.6562 16.8359 17.3939 16.8359 17.0703C16.8359 16.7467 16.5736 16.4844 16.25 16.4844Z" fill="black"/>
<defs>
<filter id="filter0_i" x="0" y="0" width="20" height="20" filterUnits="userSpaceOnUse" color-interpolation-filters="sRGB">
<feFlood flood-opacity="0" result="BackgroundImageFix"/>
<feBlend mode="normal" in="SourceGraphic" in2="BackgroundImageFix" result="shape"/>
<feColorMatrix in="SourceAlpha" type="matrix" values="0 0 0 0 0 0 0 0 0 0 0 0 0 0 0 0 0 0 127 0" result="hardAlpha"/>
<feOffset dx="2" dy="2"/>
<feComposite in2="hardAlpha" operator="arithmetic" k2="-1" k3="1"/>
<feColorMatrix type="matrix" values="0 0 0 0 0.984314 0 0 0 0 0.992157 0 0 0 0 0.992157 0 0 0 1 0"/>
<feBlend mode="normal" in2="shape" result="effect1_innerShadow"/>
</filter>
</defs>
</svg>
