<svg width="20" height="23" viewBox="0 0 20 23" fill="none" xmlns="http://www.w3.org/2000/svg">
<g filter="url(#filter0_i)">
<path fill-rule="evenodd" clip-rule="evenodd" d="M8.88889 2.88889C8.88889 4.48182 7.59293 5.77778 6 5.77778C4.40707 5.77778 3.11111 4.48182 3.11111 2.88889C3.11111 1.29596 4.40707 0 6 0C7.59293 0 8.88889 1.29596 8.88889 2.88889ZM0 14.4444V10.4444C0 8.60644 1.49533 7.11111 3.33333 7.11111H9.33333V22.7556H2.66667V16.3302C2.45809 16.4042 2.23364 16.4444 2 16.4444C0.8972 16.4444 0 15.5472 0 14.4444ZM16.6667 7.11111H10.6667V22.7556H17.3333V16.3302C17.5419 16.4042 17.7664 16.4444 18 16.4444C19.1028 16.4444 20 15.5472 20 14.4444V10.4444C20 8.60644 18.5047 7.11111 16.6667 7.11111ZM16.8889 2.88889C16.8889 4.48182 15.5929 5.77778 14 5.77778C12.4071 5.77778 11.1111 4.48182 11.1111 2.88889C11.1111 1.29596 12.4071 0 14 0C15.5929 0 16.8889 1.29596 16.8889 2.88889Z" fill="#DBDDE0"/>
</g>
<path fill-rule="evenodd" clip-rule="evenodd" d="M16.8891 2.88889C16.8891 4.48182 15.5932 5.77778 14.0002 5.77778C12.4073 5.77778 11.1113 4.48182 11.1113 2.88889C11.1113 1.29596 12.4073 0 14.0002 0C15.5932 0 16.8891 1.29596 16.8891 2.88889ZM15.5558 2.88889C15.5558 2.03116 14.858 1.33333 14.0002 1.33333C13.1425 1.33333 12.4447 2.03116 12.4447 2.88889C12.4447 3.74662 13.1425 4.44444 14.0002 4.44444C14.858 4.44444 15.5558 3.74662 15.5558 2.88889Z" fill="black"/>
<path fill-rule="evenodd" clip-rule="evenodd" d="M10.666 7.10938H16.666C18.504 7.10938 19.9993 8.60471 19.9993 10.4427V14.4427C19.9993 15.5455 19.1021 16.4427 17.9993 16.4427C17.7657 16.4427 17.5413 16.4024 17.3327 16.3285V22.7538H10.666V7.10938ZM17.9993 15.1094C18.3669 15.1094 18.666 14.8103 18.666 14.4427V10.4427C18.666 9.33991 17.7688 8.44271 16.666 8.44271H11.9993V21.4205H13.3327V14.4427H14.666V21.4205H15.9993V9.77604H17.3327V14.4427C17.3327 14.8103 17.6317 15.1094 17.9993 15.1094Z" fill="black"/>
<path fill-rule="evenodd" clip-rule="evenodd" d="M8.88911 2.88889C8.88911 4.48182 7.59315 5.77778 6.00022 5.77778C4.40728 5.77778 3.11133 4.48182 3.11133 2.88889C3.11133 1.29596 4.40728 0 6.00022 0C7.59315 0 8.88911 1.29596 8.88911 2.88889ZM7.55577 2.88889C7.55577 2.03116 6.85795 1.33333 6.00022 1.33333C5.14248 1.33333 4.44466 2.03116 4.44466 2.88889C4.44466 3.74662 5.14248 4.44444 6.00022 4.44444C6.85795 4.44444 7.55577 3.74662 7.55577 2.88889Z" fill="black"/>
<path fill-rule="evenodd" clip-rule="evenodd" d="M0 14.4427V10.4427C0 8.60471 1.49533 7.10938 3.33333 7.10938H9.33333V22.7538H2.66667V16.3285C2.45809 16.4024 2.23364 16.4427 2 16.4427C0.8972 16.4427 0 15.5455 0 14.4427ZM6.66667 21.4205H8V8.44271H3.33333C2.23053 8.44271 1.33333 9.33991 1.33333 10.4427V14.4427C1.33333 14.8103 1.6324 15.1094 2 15.1094C2.3676 15.1094 2.66667 14.8103 2.66667 14.4427V9.77604H4V21.4205H5.33333V14.4427H6.66667V21.4205Z" fill="black"/>
<defs>
<filter id="filter0_i" x="0" y="0" width="20" height="22.7556" filterUnits="userSpaceOnUse" color-interpolation-filters="sRGB">
<feFlood flood-opacity="0" result="BackgroundImageFix"/>
<feBlend mode="normal" in="SourceGraphic" in2="BackgroundImageFix" result="shape"/>
<feColorMatrix in="SourceAlpha" type="matrix" values="0 0 0 0 0 0 0 0 0 0 0 0 0 0 0 0 0 0 127 0" result="hardAlpha"/>
<feOffset dx="2" dy="2"/>
<feComposite in2="hardAlpha" operator="arithmetic" k2="-1" k3="1"/>
<feColorMatrix type="matrix" values="0 0 0 0 0.984314 0 0 0 0 0.992157 0 0 0 0 0.992157 0 0 0 1 0"/>
<feBlend mode="normal" in2="shape" result="effect1_innerShadow"/>
</filter>
</defs>
</svg>
