<svg width="20" height="20" viewBox="0 0 20 20" fill="none" xmlns="http://www.w3.org/2000/svg">
<g filter="url(#filter0_i)">
<path d="M9.99817 0C4.52362 -0.000305176 0 4.42993 0 10C0 15.5873 4.54071 20.0006 9.99771 20C15.4904 19.9994 19.9954 15.5533 19.9954 10C19.9954 4.43756 15.4803 0.000305176 9.99817 0Z" fill="#DBDDE0"/>
</g>
<path fill-rule="evenodd" clip-rule="evenodd" d="M0 10C0 4.42993 4.52362 -0.00030516 9.99817 1.57655e-08C15.4803 0.000305192 19.9954 4.43756 19.9954 10C19.9954 15.5533 15.4904 19.9994 9.99771 20C4.54071 20.0006 0 15.5873 0 10ZM1.17615 10C1.17615 14.8643 5.13336 18.8216 9.99771 18.8216C14.8621 18.8216 18.8193 14.8643 18.8193 10C18.8193 5.13565 14.8621 1.17844 9.99771 1.17844C5.13336 1.17844 1.17615 5.13565 1.17615 10Z" fill="black"/>
<path fill-rule="evenodd" clip-rule="evenodd" d="M8.90457 6.72417L13.4769 8.90022C14.402 9.34059 14.4032 10.6585 13.4769 11.0996C11.6544 11.9499 10.5515 12.4855 9.85711 12.8227C8.73741 13.3664 8.67983 13.3944 8.38043 13.3944C7.72919 13.3944 7.16309 12.8681 7.16309 12.1758V7.82402C7.16309 6.93352 8.09235 6.33827 8.90457 6.72417ZM8.33923 12.1758C8.33923 12.2067 8.37143 12.2272 8.39874 12.2135C12.8164 10.1112 13.0056 10.0332 12.9989 10.0089C12.9982 10.0061 12.995 10.0041 12.995 9.99992C12.995 9.99579 12.9982 9.99373 12.9989 9.99101C13.0056 9.9666 12.817 9.88894 8.39874 7.78633C8.38821 7.78108 8.37934 7.77522 8.3719 7.77667C8.31699 7.78733 8.33923 8.19529 8.33923 12.1758Z" fill="black"/>
<defs>
<filter id="filter0_i" x="0" y="0" width="19.9954" height="20" filterUnits="userSpaceOnUse" color-interpolation-filters="sRGB">
<feFlood flood-opacity="0" result="BackgroundImageFix"/>
<feBlend mode="normal" in="SourceGraphic" in2="BackgroundImageFix" result="shape"/>
<feColorMatrix in="SourceAlpha" type="matrix" values="0 0 0 0 0 0 0 0 0 0 0 0 0 0 0 0 0 0 127 0" result="hardAlpha"/>
<feOffset dx="2" dy="2"/>
<feComposite in2="hardAlpha" operator="arithmetic" k2="-1" k3="1"/>
<feColorMatrix type="matrix" values="0 0 0 0 0.984314 0 0 0 0 0.992157 0 0 0 0 0.992157 0 0 0 1 0"/>
<feBlend mode="normal" in2="shape" result="effect1_innerShadow"/>
</filter>
</defs>
</svg>
