<svg width="20" height="20" viewBox="0 0 20 20" fill="none" xmlns="http://www.w3.org/2000/svg">
<g filter="url(#filter0_i)">
<path d="M10.6276 20H9.37238C8.35719 20 7.53121 19.1741 7.53121 18.1589V17.7342C7.09961 17.5963 6.68027 17.4223 6.27742 17.2138L5.97648 17.5147C5.24762 18.2445 4.08008 18.2231 3.37238 17.5145L2.48523 16.6273C1.77629 15.9192 1.7559 14.752 2.48547 14.0232L2.78617 13.7225C2.5777 13.3197 2.40367 12.9004 2.26574 12.4688H1.84113C0.825976 12.4688 0 11.6428 0 10.6276V9.37238C0 8.35719 0.825976 7.53125 1.84117 7.53125H2.26578C2.40371 7.09961 2.57773 6.68031 2.78621 6.27746L2.48527 5.97656C1.75613 5.2482 1.77625 4.08094 2.48551 3.37246L3.37273 2.48527C4.08207 1.77496 5.24934 1.75723 5.9768 2.48551L6.27746 2.78617C6.68031 2.57773 7.09965 2.40367 7.53125 2.26574V1.84113C7.53125 0.825937 8.35719 0 9.37242 0H10.6276C11.6428 0 12.4688 0.825937 12.4688 1.84113V2.26578C12.9004 2.40367 13.3197 2.57773 13.7225 2.78621L14.0235 2.48527C14.7523 1.75551 15.9199 1.77691 16.6276 2.48555L17.5147 3.37266C18.2237 4.08082 18.2441 5.24797 17.5145 5.97676L17.2138 6.27746C17.4223 6.68031 17.5963 7.09957 17.7342 7.53125H18.1588C19.174 7.53125 20 8.35719 20 9.37238V10.6276C20 11.6428 19.174 12.4688 18.1588 12.4688H17.7342C17.5963 12.9004 17.4223 13.3197 17.2138 13.7225L17.5147 14.0235C18.2439 14.7518 18.2237 15.9191 17.5145 16.6276L16.6273 17.5148C15.9179 18.2251 14.7507 18.2428 14.0232 17.5145L13.7225 17.2139C13.3197 17.4223 12.9004 17.5964 12.4688 17.7343V18.1589C12.4688 19.1741 11.6428 20 10.6276 20Z" fill="#BC0319"/>
</g>
<path fill-rule="evenodd" clip-rule="evenodd" d="M9.37238 20H10.6276C11.6428 20 12.4688 19.1741 12.4688 18.1589V17.7343C12.9004 17.5964 13.3197 17.4223 13.7225 17.2139L14.0232 17.5145C14.7507 18.2428 15.9179 18.2251 16.6273 17.5148L17.5145 16.6276C18.2237 15.9191 18.2439 14.7518 17.5147 14.0235L17.2138 13.7225C17.4223 13.3197 17.5963 12.9004 17.7342 12.4688H18.1588C19.174 12.4688 20 11.6428 20 10.6276V9.37238C20 8.35719 19.174 7.53125 18.1588 7.53125H17.7342C17.5963 7.09957 17.4223 6.68031 17.2138 6.27746L17.5145 5.97676C18.2441 5.24797 18.2237 4.08082 17.5147 3.37266L16.6276 2.48555C15.9199 1.77691 14.7523 1.75551 14.0235 2.48527L13.7225 2.78621C13.3197 2.57773 12.9004 2.40367 12.4688 2.26578V1.84113C12.4688 0.825937 11.6428 0 10.6276 0H9.37242C8.35719 0 7.53125 0.825937 7.53125 1.84113V2.26574C7.09965 2.40367 6.68031 2.57773 6.27746 2.78617L5.9768 2.48551C5.24934 1.75723 4.08207 1.77496 3.37273 2.48527L2.48551 3.37246C1.77625 4.08094 1.75613 5.2482 2.48527 5.97656L2.78621 6.27746C2.57773 6.68031 2.40371 7.09961 2.26578 7.53125H1.84117C0.825976 7.53125 0 8.35719 0 9.37238V10.6276C0 11.6428 0.825976 12.4688 1.84113 12.4688H2.26574C2.40367 12.9004 2.5777 13.3197 2.78617 13.7225L2.48547 14.0232C1.7559 14.752 1.77629 15.9192 2.48523 16.6273L3.37238 17.5145C4.08008 18.2231 5.24762 18.2445 5.97648 17.5147L6.27742 17.2138C6.68027 17.4223 7.09961 17.5963 7.53121 17.7342V18.1589C7.53121 19.1741 8.35719 20 9.37238 20ZM8.26359 16.7264C7.63531 16.5642 7.03297 16.3142 6.47332 15.9832C6.19 15.8156 5.90004 15.9339 5.76066 16.0732L5.14762 16.6863C4.88301 16.9513 4.45863 16.9437 4.20133 16.6861L3.31363 15.7984C3.05586 15.5409 3.04895 15.1167 3.31387 14.8521L3.92672 14.2392C4.11586 14.0501 4.15289 13.7569 4.01676 13.5266C3.68582 12.967 3.43578 12.3647 3.27363 11.7364C3.20684 11.4777 2.97352 11.2969 2.70629 11.2969H1.84117C1.47215 11.2969 1.17188 10.9966 1.17188 10.6276V9.37238C1.17188 9.00336 1.47215 8.70312 1.84117 8.70309H2.70633C2.97352 8.70309 3.20688 8.52234 3.27367 8.26359C3.43582 7.63527 3.68582 7.03293 4.0168 6.47332C4.15293 6.24309 4.1159 5.94988 3.92676 5.76074L3.31367 5.14766C3.0482 4.8825 3.0568 4.45816 3.31391 4.20137L4.20168 3.31363C4.45937 3.05551 4.88371 3.04938 5.14793 3.31391L5.76074 3.92676C5.94988 4.1159 6.24305 4.15293 6.47336 4.0168C7.03301 3.68582 7.63535 3.43578 8.26363 3.27363C8.52238 3.20687 8.70316 2.97352 8.70316 2.70629V1.84113C8.70316 1.47211 9.00344 1.17188 9.37246 1.17188H10.6277C10.9967 1.17188 11.297 1.47211 11.297 1.84113V2.70637C11.297 2.97359 11.4777 3.20695 11.7365 3.27371C12.3648 3.43586 12.9671 3.6859 13.5268 4.01688C13.757 4.15305 14.0502 4.11602 14.2394 3.92684L14.8524 3.31375C15.117 3.04879 15.5414 3.05633 15.7987 3.31398L16.6864 4.20168C16.9442 4.45914 16.9511 4.88336 16.6862 5.14797L16.0733 5.76082C15.8842 5.94996 15.8471 6.24316 15.9833 6.4734C16.3142 7.03301 16.5643 7.63535 16.7264 8.26367C16.7932 8.52238 17.0265 8.70316 17.2938 8.70316H18.1589C18.5279 8.70316 18.8282 9.0034 18.8282 9.37242V10.6277C18.8282 10.9967 18.5279 11.2969 18.1589 11.2969H17.2938C17.0266 11.2969 16.7932 11.4777 16.7264 11.7364C16.5643 12.3647 16.3143 12.9671 15.9833 13.5267C15.8471 13.7569 15.8842 14.0501 16.0733 14.2393L16.6864 14.8523C16.9519 15.1175 16.9433 15.5418 16.6862 15.7986L15.7984 16.6864C15.5407 16.9445 15.1164 16.9506 14.8521 16.6861L14.2393 16.0732C14.0502 15.8841 13.757 15.847 13.5267 15.9832C12.9671 16.3142 12.3647 16.5642 11.7364 16.7264C11.4777 16.7931 11.2969 17.0265 11.2969 17.2937V18.1589C11.2969 18.5279 10.9966 18.8281 10.6276 18.8281H9.37242C9.0034 18.8281 8.70312 18.5279 8.70312 18.1589V17.2937C8.70312 17.0265 8.52234 16.7931 8.26359 16.7264Z" fill="black"/>
<path fill-rule="evenodd" clip-rule="evenodd" d="M5.64844 10C5.64844 12.3995 7.60051 14.3516 10 14.3516C12.3995 14.3516 14.3516 12.3995 14.3516 10C14.3516 7.60055 12.3995 5.64844 10 5.64844C7.60051 5.64844 5.64844 7.60055 5.64844 10ZM6.82031 10C6.82031 8.24672 8.24668 6.82031 10 6.82031C11.7533 6.82031 13.1797 8.24672 13.1797 10C13.1797 11.7533 11.7533 13.1797 10 13.1797C8.24672 13.1797 6.82031 11.7533 6.82031 10Z" fill="black"/>
<defs>
<filter id="filter0_i" x="0" y="0" width="20" height="20" filterUnits="userSpaceOnUse" color-interpolation-filters="sRGB">
<feFlood flood-opacity="0" result="BackgroundImageFix"/>
<feBlend mode="normal" in="SourceGraphic" in2="BackgroundImageFix" result="shape"/>
<feColorMatrix in="SourceAlpha" type="matrix" values="0 0 0 0 0 0 0 0 0 0 0 0 0 0 0 0 0 0 127 0" result="hardAlpha"/>
<feOffset dx="2" dy="2"/>
<feComposite in2="hardAlpha" operator="arithmetic" k2="-1" k3="1"/>
<feColorMatrix type="matrix" values="0 0 0 0 0.984314 0 0 0 0 0.992157 0 0 0 0 0.992157 0 0 0 1 0"/>
<feBlend mode="normal" in2="shape" result="effect1_innerShadow"/>
</filter>
</defs>
</svg>
