<svg width="20" height="20" viewBox="0 0 20 20" fill="none" xmlns="http://www.w3.org/2000/svg">
<g filter="url(#filter0_i)">
<path d="M19.4141 4.6875H18.4375V2.92969C18.4375 2.60609 18.1752 2.34375 17.8516 2.34375H8.82078L8.17305 0.400664C8.09328 0.161367 7.86938 0 7.61719 0H0.585938C0.262344 0 0 0.262344 0 0.585938V16.9922C0 18.1768 0.963789 19.1406 2.14844 19.1406H17.8516C19.0362 19.1406 20 18.1768 20 16.9922V5.27344C20 4.94984 19.7377 4.6875 19.4141 4.6875Z" fill="#DBDDE0"/>
</g>
<path fill-rule="evenodd" clip-rule="evenodd" d="M19.4141 4.6875H18.4375V2.92969C18.4375 2.60609 18.1752 2.34375 17.8516 2.34375H8.82078L8.17305 0.400664C8.09328 0.161367 7.86938 0 7.61719 0H0.585938C0.262344 0 0 0.262344 0 0.585938V16.9922C0 18.1768 0.963789 19.1406 2.14844 19.1406H17.8516C19.0362 19.1406 20 18.1768 20 16.9922V5.27344C20 4.94984 19.7377 4.6875 19.4141 4.6875ZM3.125 5.27344V16.9922C3.125 17.5307 2.68691 17.9688 2.14844 17.9688C1.60996 17.9688 1.17188 17.5307 1.17188 16.9922V1.17188H7.19484L7.84254 3.11496C7.92234 3.35426 8.14625 3.51562 8.39844 3.51562H17.2656V4.6875H3.71094C3.38734 4.6875 3.125 4.94984 3.125 5.27344ZM17.8516 17.9688C18.39 17.9688 18.8281 17.5307 18.8281 16.9922V5.85938H4.29688V16.9922C4.29688 17.3436 4.21203 17.6756 4.06184 17.9688H17.8516Z" fill="black"/>
<path fill-rule="evenodd" clip-rule="evenodd" d="M10 14.8438C10 15.813 9.21145 16.6016 8.24219 16.6016C7.27293 16.6016 6.48438 15.813 6.48438 14.8438C6.48438 13.8745 7.27293 13.086 8.24219 13.086C8.44762 13.086 8.64473 13.1217 8.82812 13.1868V8.98441C8.82812 8.70812 9.02113 8.46937 9.29133 8.41148L14.7601 7.23961C14.933 7.20246 15.1136 7.24562 15.2512 7.35687C15.3888 7.46812 15.4688 7.63558 15.4688 7.81253V14.0626C15.4688 15.0318 14.6802 15.8204 13.7109 15.8204C12.7417 15.8204 11.9531 15.0318 11.9531 14.0626C11.9531 13.0933 12.7417 12.3048 13.7109 12.3048C13.9164 12.3048 14.1135 12.3405 14.2969 12.4055V10.8811L10 11.8018V14.8438ZM13.125 14.0625C13.125 14.3856 13.3879 14.6485 13.7109 14.6485C14.034 14.6485 14.2969 14.3856 14.2969 14.0625C14.2969 13.7394 14.034 13.4766 13.7109 13.4766C13.3879 13.4766 13.125 13.7394 13.125 14.0625ZM14.2969 8.53734V9.68261L10 10.6034V9.45808L14.2969 8.53734ZM8.82812 14.8438C8.82812 14.5207 8.56527 14.2578 8.24219 14.2578C7.9191 14.2578 7.65625 14.5207 7.65625 14.8438C7.65625 15.1669 7.9191 15.4297 8.24219 15.4297C8.56527 15.4297 8.82812 15.1669 8.82812 14.8438Z" fill="black"/>
<defs>
<filter id="filter0_i" x="0" y="0" width="20" height="19.1406" filterUnits="userSpaceOnUse" color-interpolation-filters="sRGB">
<feFlood flood-opacity="0" result="BackgroundImageFix"/>
<feBlend mode="normal" in="SourceGraphic" in2="BackgroundImageFix" result="shape"/>
<feColorMatrix in="SourceAlpha" type="matrix" values="0 0 0 0 0 0 0 0 0 0 0 0 0 0 0 0 0 0 127 0" result="hardAlpha"/>
<feOffset dx="2" dy="2"/>
<feComposite in2="hardAlpha" operator="arithmetic" k2="-1" k3="1"/>
<feColorMatrix type="matrix" values="0 0 0 0 0.984314 0 0 0 0 0.992157 0 0 0 0 0.992157 0 0 0 1 0"/>
<feBlend mode="normal" in2="shape" result="effect1_innerShadow"/>
</filter>
</defs>
</svg>
