<svg width="20" height="22" viewBox="0 0 20 22" fill="none" xmlns="http://www.w3.org/2000/svg">
<g filter="url(#filter0_i)">
<path d="M18.75 10.1075C18.75 3.07285 18.7697 3.52102 18.7041 3.35919C18.8445 3.0124 18.6512 2.62535 18.2967 2.52406L9.54671 0.0240625C9.4345 -0.00802083 9.31554 -0.00802083 9.20333 0.0240625L0.453333 2.52406C0.184958 2.60069 0 2.84594 0 3.12502C0 3.4041 0.184958 3.64931 0.453292 3.72598L3.75 4.66785C3.75 4.69615 3.75 4.72227 3.75 4.74665C3.75 4.95844 3.75 5.0281 3.75 5.02694C3.75 5.37152 3.75 6.09273 3.75 7.49998C3.75 9.92823 5.00283 12.0373 6.82792 13.0716L6.48313 13.7611C4.79633 13.8576 3.22029 14.5763 2.00962 15.8093C0.713708 17.1291 0 18.8689 0 20.7084C0 21.0535 0.279833 21.3334 0.625 21.3334H18.125C18.4702 21.3334 18.75 21.0535 18.75 20.7084C18.75 18.869 18.0363 17.1292 16.7404 15.8094C15.5298 14.5765 13.9537 13.8583 12.2671 13.7616L11.922 13.0716C13.7472 12.0374 15 9.92827 15 7.50002C15 7.3459 15 4.70973 15 4.6679L17.5 3.9536V10.1075C16.7725 10.3655 16.25 11.0602 16.25 11.875V13.125C16.25 13.4702 16.5298 13.75 16.875 13.75H19.375C19.7202 13.75 20 13.4702 20 13.125V11.875C20 11.0602 19.4775 10.3655 18.75 10.1075Z" fill="#BC0319"/>
</g>
<path fill-rule="evenodd" clip-rule="evenodd" d="M18.7182 3.39035C18.7543 3.46999 18.7543 3.56608 18.7519 6.29702V6.29954C18.7511 7.22933 18.75 8.46427 18.75 10.1075C19.4775 10.3655 20 11.0602 20 11.875V13.125C20 13.4702 19.7202 13.75 19.375 13.75H16.875C16.5298 13.75 16.25 13.4702 16.25 13.125V11.875C16.25 11.0602 16.7725 10.3655 17.5 10.1075V3.9536L15 4.6679V7.50002C15 9.92827 13.7472 12.0374 11.922 13.0716L12.2671 13.7616C13.9537 13.8583 15.5298 14.5765 16.7404 15.8094C18.0363 17.1292 18.75 18.869 18.75 20.7084C18.75 21.0535 18.4702 21.3334 18.125 21.3334H0.625C0.279833 21.3334 0 21.0535 0 20.7084C0 18.8689 0.713708 17.1291 2.00962 15.8093C3.22029 14.5763 4.79633 13.8576 6.48313 13.7611L6.82792 13.0716C5.00283 12.0373 3.75 9.92823 3.75 7.49998V5.02694V4.74665V4.66785L0.453292 3.72598C0.184958 3.64931 0 3.4041 0 3.12502C0 2.84594 0.184958 2.60069 0.453333 2.52406L9.20333 0.0240625C9.31554 -0.00802083 9.4345 -0.00802083 9.54671 0.0240625L18.2967 2.52406C18.6512 2.62535 18.8445 3.0124 18.7041 3.35919C18.7077 3.36803 18.711 3.37505 18.7141 3.38157L18.7182 3.39035ZM1.2835 20.0834H8.75V18.3143L6.54717 15.01C3.80267 15.1709 1.57946 17.3372 1.2835 20.0834ZM7.59621 14.3301L7.98312 13.5562C8.42842 13.6826 8.89475 13.75 9.375 13.75C9.85525 13.75 10.3215 13.6826 10.7668 13.5563L11.1537 14.3301L9.375 16.9983L7.59621 14.3301ZM17.4665 20.0834C17.1705 17.3372 14.9473 15.1709 12.2028 15.01L10 18.3143V20.0834H17.4665ZM9.375 12.5C7.25467 12.5 5.48204 10.7671 5.08383 8.47556C6.40375 9.06444 7.87908 9.37502 9.375 9.37502C10.8708 9.37502 12.3462 9.06448 13.6661 8.47569C13.2679 10.7672 11.4953 12.5 9.375 12.5ZM13.4431 7.20085C13.593 7.12727 13.7 6.9751 13.7363 6.79452L13.7412 6.77111C13.751 6.72209 13.751 6.67114 13.7504 5.93049C13.7502 5.70141 13.75 5.40636 13.75 5.02498C12.6911 5.32753 11.895 5.55558 11.2951 5.72743L11.295 5.72744C9.52733 6.23379 9.46315 6.25218 9.39946 6.2506L9.39217 6.25036C9.38708 6.25018 9.38162 6.24998 9.375 6.24998C9.36841 6.24998 9.36296 6.25018 9.35789 6.25036H9.35788L9.35055 6.2506C9.2868 6.25215 9.22256 6.23375 7.45927 5.72865L7.45922 5.72864C6.85882 5.55666 6.06143 5.32824 5 5.02498V6.65773C5 6.86873 5.10296 7.10056 5.30679 7.20069C6.53725 7.80535 7.944 8.12498 9.375 8.12498C10.8059 8.12498 12.2126 7.80544 13.4431 7.20085ZM9.375 4.97502L2.90004 3.12502L9.375 1.27498L15.85 3.12498L9.375 4.97502ZM17.5 11.875V12.5H18.75V11.875C18.75 11.5304 18.4696 11.25 18.125 11.25C17.7804 11.25 17.5 11.5304 17.5 11.875Z" fill="black"/>
<path d="M14.375 17.5H13.125C12.7798 17.5 12.5 17.7798 12.5 18.125C12.5 18.4702 12.7798 18.75 13.125 18.75H14.375C14.7202 18.75 15 18.4702 15 18.125C15 17.7798 14.7202 17.5 14.375 17.5Z" fill="black"/>
<defs>
<filter id="filter0_i" x="0" y="0" width="20" height="21.3334" filterUnits="userSpaceOnUse" color-interpolation-filters="sRGB">
<feFlood flood-opacity="0" result="BackgroundImageFix"/>
<feBlend mode="normal" in="SourceGraphic" in2="BackgroundImageFix" result="shape"/>
<feColorMatrix in="SourceAlpha" type="matrix" values="0 0 0 0 0 0 0 0 0 0 0 0 0 0 0 0 0 0 127 0" result="hardAlpha"/>
<feOffset dx="2" dy="2"/>
<feComposite in2="hardAlpha" operator="arithmetic" k2="-1" k3="1"/>
<feColorMatrix type="matrix" values="0 0 0 0 0.984314 0 0 0 0 0.992157 0 0 0 0 0.992157 0 0 0 1 0"/>
<feBlend mode="normal" in2="shape" result="effect1_innerShadow"/>
</filter>
</defs>
</svg>
