<svg width="30" height="26" viewBox="0 0 30 26" fill="none" xmlns="http://www.w3.org/2000/svg">
<path fill-rule="evenodd" clip-rule="evenodd" d="M21.0395 0.0292969C25.7805 0.0292969 29.7141 3.73489 29.9947 8.46565C30.0467 9.34113 29.7097 10.1395 29.0462 10.7133C28.5333 11.1568 27.916 11.3878 27.2655 11.3878C27.0742 11.3878 26.8801 11.3679 26.6851 11.3276L25.9751 11.1806V20.6319C25.9751 23.2029 23.8833 25.2946 21.3121 25.2946H8.68763C6.1166 25.2946 4.02485 23.2029 4.02485 20.6319V11.1806L3.31463 11.3276C2.45564 11.5052 1.61701 11.2871 0.953485 10.7133C0.289957 10.1395 -0.0467282 9.34113 0.00522799 8.46565C0.285837 3.73489 4.2194 0.0292969 8.96046 0.0292969H21.0395ZM21.3121 23.5357C22.9133 23.5357 24.2161 22.2331 24.2161 20.6319H24.2159V10.8165L21.9468 10.3471C20.7776 10.1051 19.9017 9.14886 19.7673 7.96738C19.6593 7.01866 18.858 6.30318 17.9031 6.30318H12.0966C11.1417 6.30318 10.3404 7.01866 10.2324 7.96738C10.098 9.14886 9.22207 10.1051 8.05294 10.3471L5.78381 10.8165V20.6319C5.78381 22.2329 7.08637 23.5357 8.68763 23.5357H21.3121ZM27.8956 9.38278C27.6452 9.5993 27.366 9.67232 27.0417 9.60503L22.3034 8.6245C21.8735 8.53569 21.5643 8.19969 21.5151 7.76871C21.3061 5.93033 19.7534 4.54422 17.9031 4.54422H12.0966C10.2465 4.54422 8.69381 5.93033 8.48461 7.76871C8.43563 8.19969 8.12641 8.53569 7.69657 8.6245L2.95826 9.60503C2.63394 9.67209 2.3547 9.5993 2.1043 9.38278C1.85368 9.16626 1.74153 8.9003 1.76098 8.56979C1.98666 4.76715 5.14889 1.78825 8.96046 1.78825H21.0392C24.8508 1.78825 28.013 4.76715 28.2387 8.56979C28.2582 8.90007 28.146 9.16603 27.8956 9.38278ZM10.1227 16.0304H11.0609C11.5466 16.0304 11.9405 16.4241 11.9405 16.91C11.9405 17.3957 11.5466 17.7894 11.0609 17.7894H10.1227C9.63703 17.7894 9.24313 17.3957 9.24313 16.91C9.24313 16.4241 9.63703 16.0304 10.1227 16.0304ZM11.0609 19.5486H10.1227C9.63703 19.5486 9.24313 19.9422 9.24313 20.4279C9.24313 20.9138 9.63703 21.3075 10.1227 21.3075H11.0609C11.5466 21.3075 11.9405 20.9138 11.9405 20.4279C11.9405 19.9422 11.5466 19.5486 11.0609 19.5486ZM11.0126 14.2712H10.0747C9.58874 14.2712 9.19506 13.8776 9.19506 13.3916C9.19506 12.906 9.58874 12.5123 10.0747 12.5123H11.0126C11.4985 12.5123 11.8922 12.906 11.8922 13.3916C11.8922 13.8776 11.4985 14.2712 11.0126 14.2712ZM15.4689 12.5123H14.5308C14.0451 12.5123 13.6514 12.906 13.6514 13.3916C13.6514 13.8776 14.0451 14.2712 14.5308 14.2712H15.4689C15.9546 14.2712 16.3485 13.8776 16.3485 13.3916C16.3485 12.906 15.9546 12.5123 15.4689 12.5123ZM14.5308 16.0304H15.4689C15.9546 16.0304 16.3485 16.4241 16.3485 16.91C16.3485 17.3957 15.9546 17.7894 15.4689 17.7894H14.5308C14.0451 17.7894 13.6514 17.3957 13.6514 16.91C13.6514 16.4241 14.0451 16.0304 14.5308 16.0304ZM15.4689 19.5486H14.5308C14.0451 19.5486 13.6514 19.9422 13.6514 20.4279C13.6514 20.9138 14.0451 21.3075 14.5308 21.3075H15.4689C15.9546 21.3075 16.3485 20.9138 16.3485 20.4279C16.3485 19.9422 15.9546 19.5486 15.4689 19.5486ZM18.9871 12.5123H19.9253C20.411 12.5123 20.8049 12.906 20.8049 13.3916C20.8049 13.8776 20.411 14.2712 19.9253 14.2712H18.9871C18.5014 14.2712 18.1075 13.8776 18.1075 13.3916C18.1075 12.906 18.5014 12.5123 18.9871 12.5123ZM19.9253 16.0304H18.9871C18.5014 16.0304 18.1075 16.4241 18.1075 16.91C18.1075 17.3957 18.5014 17.7894 18.9871 17.7894H19.9253C20.411 17.7894 20.8049 17.3957 20.8049 16.91C20.8049 16.4241 20.411 16.0304 19.9253 16.0304ZM18.9871 19.5486H19.9253C20.411 19.5486 20.8049 19.9422 20.8049 20.4279C20.8049 20.9138 20.411 21.3075 19.9253 21.3075H18.9871C18.5014 21.3075 18.1075 20.9138 18.1075 20.4279C18.1075 19.9422 18.5014 19.5486 18.9871 19.5486Z" fill="black"/>
</svg>
