<svg width="26" height="28" viewBox="0 0 26 28" fill="none" xmlns="http://www.w3.org/2000/svg">
<path fill-rule="evenodd" clip-rule="evenodd" d="M13.0005 15.4091C16.8504 15.4091 19.9506 10.7816 19.9506 6.95005C19.9506 3.11787 16.8327 0 13.0005 0C9.16819 0 6.05032 3.11787 6.05032 6.95014C6.05032 10.7816 9.15052 15.4091 13.0005 15.4091ZM13.0005 1.82898C15.8243 1.82898 18.1216 4.12632 18.1216 6.95014C18.1216 9.87269 15.7105 13.5802 13.0005 13.5802C10.2904 13.5802 7.87929 9.87269 7.87929 6.95014C7.87929 4.12632 10.1766 1.82898 13.0005 1.82898ZM25.6177 24.2784L25.9738 26.4156C26.018 26.6808 25.9433 26.9519 25.7694 27.157C25.5958 27.3622 25.3405 27.4804 25.0717 27.4804H0.929152C0.660362 27.4804 0.405081 27.3622 0.231408 27.157C0.0576431 26.9519 -0.0171185 26.6808 0.0271093 26.4156L0.383244 24.2785C1.12503 19.8281 4.93815 16.598 9.44984 16.598H16.5511C21.0629 16.598 24.8759 19.8281 25.6177 24.2784ZM13.0005 19.3301L14.063 18.427H11.9379L13.0005 19.3301ZM21.4595 25.6515V23.5481C21.4595 23.0431 21.0501 22.6336 20.545 22.6336C20.04 22.6336 19.6305 23.043 19.6305 23.5481V25.6515H6.37037V23.5481C6.37037 23.0431 5.96094 22.6336 5.45584 22.6336C4.95073 22.6336 4.5413 23.043 4.5413 23.5481V25.6515H2.00875L2.18742 24.5793C2.76349 21.1225 5.65282 18.5852 9.12239 18.4343L12.4082 21.227C12.5789 21.3721 12.7897 21.4447 13.0005 21.4447C13.2112 21.4447 13.422 21.3721 13.5927 21.227L16.8785 18.4343C20.3481 18.5852 23.2373 21.1225 23.8135 24.5792L23.9922 25.6515H21.4595Z" fill="#DBDBDB"/>
</svg>
