<svg width="20" height="20" viewBox="0 0 20 20" fill="none" xmlns="http://www.w3.org/2000/svg">
<g filter="url(#filter0_i)">
<path d="M9.99817 0C4.52362 -0.000305176 0 4.42993 0 10C0 15.5873 4.54071 20.0006 9.99771 20C15.4904 19.9994 19.9954 15.5533 19.9954 10C19.9954 4.43756 15.4803 0.000305176 9.99817 0Z" fill="#BC0319"/>
</g>
<path fill-rule="evenodd" clip-rule="evenodd" d="M10 0C12.6711 0 15.1823 1.04019 17.0711 2.92892C18.9598 4.81766 20 7.3288 20 10C20 12.6711 18.9598 15.1823 17.0711 17.0711C15.1823 18.9598 12.6711 20 10 20C7.3288 20 4.81766 18.9598 2.92892 17.0711C1.04019 15.1823 0 12.6711 0 10C0 7.3288 1.04019 4.81766 2.92892 2.92892C4.81766 1.04019 7.3288 0 10 0ZM10 13.0963C7.51831 13.0963 5.43152 14.8726 5.01328 17.2807C6.43311 18.2562 8.15094 18.8281 10 18.8281C11.8491 18.8281 13.5669 18.2562 14.9867 17.2807C14.5685 14.8726 12.4818 13.0963 10 13.0963ZM6.82037 8.74481C6.82037 6.99142 8.24677 5.56519 10 5.56519C11.7532 5.56519 13.1796 6.99158 13.1796 8.74481C13.1796 10.498 11.7532 11.9244 10 11.9244C8.24677 11.9244 6.82037 10.498 6.82037 8.74481ZM14.182 13.5352C15.06 14.3297 15.6863 15.3468 16.0017 16.4679C17.739 14.8546 18.8281 12.5523 18.8281 10C18.8281 5.13214 14.8679 1.17188 10 1.17188C5.13214 1.17188 1.17188 5.13214 1.17188 10C1.17188 12.5522 2.26105 14.8544 3.99826 16.4677C4.31366 15.3467 4.94019 14.3295 5.81802 13.535C6.35666 13.0475 6.96991 12.663 7.62894 12.3918C6.43768 11.6147 5.6485 10.2702 5.6485 8.74481C5.6485 6.34537 7.60056 4.39331 10 4.39331C12.3994 4.39331 14.3517 6.34537 14.3517 8.74481C14.3517 10.2702 13.5625 11.6147 12.3711 12.3918C13.0302 12.663 13.6433 13.0476 14.182 13.5352Z" fill="black"/>
<defs>
<filter id="filter0_i" x="0" y="0" width="19.9954" height="20" filterUnits="userSpaceOnUse" color-interpolation-filters="sRGB">
<feFlood flood-opacity="0" result="BackgroundImageFix"/>
<feBlend mode="normal" in="SourceGraphic" in2="BackgroundImageFix" result="shape"/>
<feColorMatrix in="SourceAlpha" type="matrix" values="0 0 0 0 0 0 0 0 0 0 0 0 0 0 0 0 0 0 127 0" result="hardAlpha"/>
<feOffset dx="2" dy="2"/>
<feComposite in2="hardAlpha" operator="arithmetic" k2="-1" k3="1"/>
<feColorMatrix type="matrix" values="0 0 0 0 0.984314 0 0 0 0 0.992157 0 0 0 0 0.992157 0 0 0 1 0"/>
<feBlend mode="normal" in2="shape" result="effect1_innerShadow"/>
</filter>
</defs>
</svg>
