<svg width="20" height="22" viewBox="0 0 20 22" fill="none" xmlns="http://www.w3.org/2000/svg">
<g filter="url(#filter0_i)">
<path d="M11.4999 0.5C11.4999 0.5 19.4237 6.94474 19.4237 21L17.6136 18.0854L12.9995 17.6996L11.4999 14.7622L13.7933 12.964L10.6675 11.5709L11.4999 9.67203L9.03613 7.82486C9.03613 7.82486 11.4999 5.28625 11.4999 2.64313" fill="#BC0319"/>
</g>
<path d="M5.12802 17.6994C4.97048 17.6994 4.81293 17.6393 4.69277 17.5191C2.57897 15.4053 2.57897 11.9659 4.69277 9.85215C4.93313 9.61178 5.32291 9.61178 5.56332 9.85215C5.80372 10.0925 5.80372 10.4823 5.56332 10.7227C3.92954 12.3565 3.92954 15.0148 5.56332 16.6485C5.80372 16.8889 5.80372 17.2787 5.56332 17.5191C5.44311 17.6393 5.28557 17.6994 5.12802 17.6994Z" fill="black"/>
<path d="M7.43746 15.8011C7.27992 15.8011 7.12237 15.741 7.00221 15.6208C5.93546 14.554 5.93546 12.8183 7.00221 11.7516C7.24257 11.5112 7.63235 11.5112 7.87275 11.7516C8.11316 11.9919 8.11316 12.3817 7.87275 12.6221C7.28603 13.2088 7.28603 14.1635 7.87275 14.7502C8.11316 14.9906 8.11316 15.3804 7.87275 15.6208C7.75251 15.741 7.59501 15.8011 7.43746 15.8011Z" fill="black"/>
<path d="M2.81279 19.5471C2.65524 19.5471 2.4977 19.4869 2.37754 19.3667C-0.754751 16.2345 -0.754751 11.1378 2.37754 8.00547C2.61794 7.76511 3.00772 7.76511 3.24808 8.00547C3.48848 8.24583 3.48848 8.63561 3.24808 8.87601C0.595818 11.5283 0.595818 15.8439 3.24808 18.4962C3.48848 18.7366 3.48848 19.1263 3.24808 19.3667C3.12788 19.4869 2.97033 19.5471 2.81279 19.5471Z" fill="black"/>
<path d="M18.8085 21.0118C18.574 21.0118 18.3499 20.8771 18.2471 20.6495L17.4172 18.8117C17.2884 18.5266 17.002 18.3455 16.6904 18.3513C15.5975 18.3704 14.2551 18.3906 13.5701 18.3771C12.8332 18.3625 12.4037 18.0496 12.1731 17.7897C11.8537 17.4297 11.7072 16.9378 11.7605 16.4047C11.7913 16.0957 11.7079 15.9905 11.5416 15.7809C11.4159 15.6224 11.2593 15.4251 11.1838 15.1441C11.0693 14.7176 11.2367 14.2528 11.6103 13.9598C11.627 13.9468 11.6444 13.9345 11.6623 13.9232L12.8992 13.1451L11.0506 12.4438C11.0349 12.4378 11.0194 12.4312 11.0041 12.4239C10.5626 12.2135 10.3181 11.7309 10.4097 11.2504L10.6488 9.99508C10.6732 9.86712 10.645 9.73818 10.5695 9.63201C10.494 9.52581 10.3814 9.4569 10.2525 9.43794L9.03553 9.25906C8.69873 9.20948 8.41002 8.99658 8.26319 8.68957C8.11635 8.3826 8.13182 8.02421 8.30455 7.73104L10.6241 3.79391C10.9769 3.19504 11.1161 2.48643 11.0161 1.79859L10.8569 0.70426C10.808 0.367828 11.041 0.055404 11.3775 0.00648642C11.7139 -0.0424312 12.0263 0.190625 12.0752 0.527057L12.2344 1.62138C12.3747 2.58578 12.1795 3.57928 11.6848 4.41888L9.52409 8.08651L10.4316 8.21993C10.8957 8.28821 11.3009 8.53629 11.5728 8.91844C11.8446 9.30059 11.946 9.76477 11.8582 10.2255L11.6436 11.352L13.7212 12.1402C14.0875 12.2792 14.3393 12.6077 14.3782 12.9976C14.4171 13.3875 14.2352 13.7593 13.9036 13.968L12.4186 14.9021C12.4445 14.938 12.4772 14.9793 12.5061 15.0158C12.7156 15.2798 13.0661 15.7216 12.9855 16.5272C12.9747 16.6356 12.9744 16.8377 13.0941 16.9727C13.2162 17.1103 13.4336 17.1429 13.5945 17.1462C14.259 17.1593 15.5866 17.1393 16.6688 17.1203C17.4737 17.1078 18.2078 17.5713 18.5392 18.305L19.3692 20.1427C19.5091 20.4526 19.3713 20.8172 19.0615 20.9571C18.9793 20.9942 18.8932 21.0118 18.8085 21.0118Z" fill="black"/>
<defs>
<filter id="filter0_i" x="9.03613" y="0.5" width="10.3875" height="20.5" filterUnits="userSpaceOnUse" color-interpolation-filters="sRGB">
<feFlood flood-opacity="0" result="BackgroundImageFix"/>
<feBlend mode="normal" in="SourceGraphic" in2="BackgroundImageFix" result="shape"/>
<feColorMatrix in="SourceAlpha" type="matrix" values="0 0 0 0 0 0 0 0 0 0 0 0 0 0 0 0 0 0 127 0" result="hardAlpha"/>
<feOffset dx="2" dy="2"/>
<feComposite in2="hardAlpha" operator="arithmetic" k2="-1" k3="1"/>
<feColorMatrix type="matrix" values="0 0 0 0 0.984314 0 0 0 0 0.992157 0 0 0 0 0.992157 0 0 0 1 0"/>
<feBlend mode="normal" in2="shape" result="effect1_innerShadow"/>
</filter>
</defs>
</svg>
