<svg width="20" height="17" viewBox="0 0 20 17" fill="none" xmlns="http://www.w3.org/2000/svg">
<g filter="url(#filter0_i)">
<rect x="1" width="18" height="16" fill="#BC0319"/>
</g>
<path fill-rule="evenodd" clip-rule="evenodd" d="M18 0.0195312H2.00196C0.898078 0.0195312 0 0.91757 0 2.02149V2.02161V14.2934C0 15.3962 0.897177 16.2934 2 16.2934H18C19.1028 16.2934 20 15.3962 20 14.2934V2.01957C20 0.916747 19.1028 0.0195312 18 0.0195312ZM1.17647 2.02149C1.17647 1.56635 1.54678 1.196 2.00196 1.196H18C18.4541 1.196 18.8235 1.56545 18.8235 2.01953V3.02526C18.5722 2.91118 18.2935 2.8471 18 2.8471H2.00196C1.54584 2.8471 1.17647 2.47777 1.17647 2.02161V2.02149ZM2 15.1169H18C18.4541 15.1169 18.8235 14.7474 18.8235 14.2933V11.776H14.6369L14.6328 11.7759L14.628 11.7755L14.6231 11.7753C13.4133 11.7677 12.4314 10.7816 12.4314 9.57004C12.4314 8.35651 13.4166 7.36886 14.6291 7.36463L14.6341 7.36434L14.6369 7.36424H18.8235V4.90345V4.84706C18.8235 4.39298 18.4541 4.02353 18 4.02353H2.00196C1.71251 4.02353 1.43247 3.96251 1.17647 3.84655V14.2933C1.17647 14.7474 1.54588 15.1169 2 15.1169ZM18.8235 10.5995H16.5867C16.9209 9.9693 16.9349 9.19749 16.5868 8.54071H18.8235V10.5995ZM15.6661 9.57004C15.6661 9.00255 15.2045 8.5409 14.637 8.5409C14.0695 8.5409 13.6078 9.00255 13.6078 9.57004C13.6078 10.1375 14.0695 10.5992 14.637 10.5992C15.2045 10.5992 15.6661 10.1375 15.6661 9.57004Z" fill="black"/>
<defs>
<filter id="filter0_i" x="1" y="0" width="18" height="16" filterUnits="userSpaceOnUse" color-interpolation-filters="sRGB">
<feFlood flood-opacity="0" result="BackgroundImageFix"/>
<feBlend mode="normal" in="SourceGraphic" in2="BackgroundImageFix" result="shape"/>
<feColorMatrix in="SourceAlpha" type="matrix" values="0 0 0 0 0 0 0 0 0 0 0 0 0 0 0 0 0 0 127 0" result="hardAlpha"/>
<feOffset dx="2" dy="2"/>
<feComposite in2="hardAlpha" operator="arithmetic" k2="-1" k3="1"/>
<feColorMatrix type="matrix" values="0 0 0 0 0.984314 0 0 0 0 0.992157 0 0 0 0 0.992157 0 0 0 1 0"/>
<feBlend mode="normal" in2="shape" result="effect1_innerShadow"/>
</filter>
</defs>
</svg>
