<svg width="73" height="42" viewBox="0 0 73 42" fill="none" xmlns="http://www.w3.org/2000/svg">
<path d="M69.9576 0.921407C70.5533 0.345695 71.5029 0.36189 72.0786 0.957581C72.6543 1.55327 72.6381 2.50288 72.0424 3.07859L69.9576 0.921407ZM50.4545 16.642L50.0093 15.2096L50.4545 16.642ZM0.1875 42L2.17476 24.7939L16.0821 35.118L0.1875 42ZM69.679 5.26496C69.0631 5.81901 68.1146 5.76888 67.5606 5.15299C67.0065 4.53711 67.0567 3.58868 67.6726 3.03463L69.679 5.26496ZM62.9046 7.1158C63.5477 6.59367 64.4924 6.69179 65.0145 7.33496C65.5367 7.97813 65.4385 8.9228 64.7954 9.44493L62.9046 7.1158ZM59.652 13.3462C58.973 13.8208 58.0378 13.6551 57.5632 12.9761C57.0885 12.2971 57.2542 11.3619 57.9332 10.8873L59.652 13.3462ZM52.7047 14.0864C53.4447 13.7141 54.3465 14.0122 54.7188 14.7523C55.0911 15.4924 54.7929 16.3941 54.0529 16.7664L52.7047 14.0864ZM48.0834 18.9019C47.2854 19.1243 46.4582 18.6576 46.2358 17.8596C46.0134 17.0616 46.4801 16.2344 47.2781 16.012L48.0834 18.9019ZM41.7248 17.4473C42.5295 17.2504 43.3415 17.7431 43.5384 18.5478C43.7353 19.3525 43.2426 20.1645 42.4379 20.3613L41.7248 17.4473ZM36.8201 21.725C36.0157 21.9232 35.203 21.4319 35.0047 20.6275C34.8065 19.8231 35.2979 19.0104 36.1022 18.8121L36.8201 21.725ZM30.4586 20.2864C31.256 20.0619 32.0845 20.5264 32.3089 21.3239C32.5334 22.1213 32.0689 22.9497 31.2715 23.1742L30.4586 20.2864ZM25.8419 24.8719C25.0599 25.1454 24.2043 24.7333 23.9307 23.9513C23.6572 23.1693 24.0693 22.3137 24.8513 22.0401L25.8419 24.8719ZM19.3563 24.2288C20.1108 23.8867 20.9997 24.2211 21.3418 24.9756C21.6839 25.7301 21.3496 26.619 20.5951 26.9611L19.3563 24.2288ZM15.6142 29.5519C14.9022 29.9754 13.9817 29.7417 13.5581 29.0297C13.1345 28.3178 13.3683 27.3973 14.0802 26.9737L15.6142 29.5519ZM9.14923 30.3338C9.80327 29.8253 10.7457 29.9434 11.2541 30.5974C11.7626 31.2514 11.6446 32.1938 10.9905 32.7023L9.14923 30.3338ZM6.80294 36.4056C6.21796 36.9922 5.26822 36.9935 4.68163 36.4085C4.09503 35.8235 4.09372 34.8738 4.6787 34.2872L6.80294 36.4056ZM0.735741 38.7459C1.2476 38.0945 2.19058 37.9814 2.84196 38.4933C3.49334 39.0051 3.60645 39.9481 3.09459 40.5995L0.735741 38.7459ZM71 2C72.0424 3.07859 72.0424 3.07862 72.0423 3.07866C72.0423 3.07868 72.0423 3.07871 72.0423 3.07875C72.0422 3.07881 72.0421 3.07889 72.042 3.07898C72.0418 3.07916 72.0416 3.07939 72.0413 3.07968C72.0407 3.08025 72.0399 3.08102 72.0389 3.082C72.0369 3.08396 72.034 3.08675 72.0302 3.09034C72.0228 3.09752 72.0119 3.10794 71.9978 3.1215C71.9696 3.14861 71.9281 3.18827 71.8741 3.23968C71.7661 3.3425 71.6079 3.49238 71.4043 3.68297C70.9973 4.06409 70.4089 4.60835 69.679 5.26496L67.6726 3.03463C68.3859 2.39295 68.9595 1.86232 69.3538 1.49311C69.5509 1.30853 69.7031 1.16439 69.8054 1.06699C69.8566 1.01829 69.8953 0.981279 69.9208 0.95675C69.9336 0.944487 69.9431 0.935344 69.9493 0.92942C69.9523 0.926458 69.9546 0.924301 69.956 0.922962C69.9567 0.922292 69.9571 0.921827 69.9574 0.921567C69.9575 0.921437 69.9576 0.921359 69.9577 0.921332C69.9577 0.921319 69.9577 0.921319 69.9577 0.921331C69.9577 0.921337 69.9576 0.921356 69.9576 0.92136C69.9576 0.921382 69.9576 0.921407 71 2ZM64.7954 9.44493C63.1988 10.7411 61.4434 12.094 59.652 13.3462L57.9332 10.8873C59.6507 9.68676 61.3475 8.37986 62.9046 7.1158L64.7954 9.44493ZM54.0529 16.7664C52.9829 17.3047 51.9209 17.7571 50.8996 18.0745L50.0093 15.2096C50.8308 14.9543 51.7362 14.5736 52.7047 14.0864L54.0529 16.7664ZM50.8996 18.0745C49.9668 18.3643 49.0275 18.6388 48.0834 18.9019L47.2781 16.012C48.1983 15.7555 49.109 15.4894 50.0093 15.2096L50.8996 18.0745ZM42.4379 20.3613C40.5517 20.8229 38.7132 21.2584 36.8201 21.725L36.1022 18.8121C37.975 18.3506 39.8901 17.8962 41.7248 17.4473L42.4379 20.3613ZM31.2715 23.1742C29.4472 23.6877 27.6351 24.2445 25.8419 24.8719L24.8513 22.0401C26.7161 21.3878 28.5894 20.8126 30.4586 20.2864L31.2715 23.1742ZM20.5951 26.9611C18.9064 27.7267 17.2437 28.5823 15.6142 29.5519L14.0802 26.9737C15.8141 25.9421 17.5763 25.0358 19.3563 24.2288L20.5951 26.9611ZM10.9905 32.7023C9.56128 33.8134 8.16335 35.0414 6.80294 36.4056L4.6787 34.2872C6.12953 32.8324 7.62216 31.521 9.14923 30.3338L10.9905 32.7023Z" fill="url(#paint0_linear)"/>
<defs>
<linearGradient id="paint0_linear" x1="-35.2188" y1="22" x2="-0.960215" y2="-38.6483" gradientUnits="userSpaceOnUse">
<stop stop-color="#1BAA3A"/>
<stop offset="1" stop-color="#FFC745"/>
</linearGradient>
</defs>
</svg>
