<svg width="132" height="629" viewBox="0 0 132 629" fill="none" xmlns="http://www.w3.org/2000/svg">
<path d="M92.8195 300.272C92.1412 301.475 92.5663 302.999 93.769 303.678C94.9716 304.356 96.4964 303.931 97.1746 302.728L92.8195 300.272ZM0.894531 622L29.1125 628.089L20.277 600.607L0.894531 622ZM7.50415 622.501C8.81271 622.06 9.51641 620.642 9.07591 619.334C8.63542 618.025 7.21753 617.322 5.90897 617.762L7.50415 622.501ZM16.8262 613.738C15.5455 614.254 14.9255 615.711 15.4415 616.992C15.9574 618.272 17.4139 618.892 18.6946 618.376L16.8262 613.738ZM29.7123 613.505C30.9548 612.903 31.4739 611.407 30.8717 610.165C30.2695 608.922 28.7741 608.403 27.5317 609.006L29.7123 613.505ZM37.8775 603.485C36.6869 604.184 36.2885 605.716 36.9877 606.907C37.6869 608.098 39.2189 608.496 40.4095 607.797L37.8775 603.485ZM50.5687 601.202C51.6904 600.397 51.947 598.835 51.1419 597.713C50.3367 596.591 48.7748 596.335 47.6531 597.14L50.5687 601.202ZM56.7269 589.902C55.6945 590.818 55.6006 592.399 56.5173 593.431C57.434 594.464 59.0141 594.557 60.0466 593.641L56.7269 589.902ZM68.6608 585.081C69.5826 584.053 69.4966 582.473 68.4687 581.551C67.4408 580.629 65.8602 580.715 64.9384 581.743L68.6608 585.081ZM72.1289 572.693C71.3366 573.824 71.611 575.383 72.7418 576.175C73.8726 576.967 75.4315 576.693 76.2238 575.562L72.1289 572.693ZM82.5892 565.199C83.2402 563.981 82.7809 562.466 81.5632 561.816C80.3456 561.165 78.8308 561.624 78.1798 562.842L82.5892 565.199ZM83.0409 552.327C82.5331 553.611 83.1623 555.063 84.4463 555.571C85.7302 556.079 87.1827 555.45 87.6905 554.166L83.0409 552.327ZM91.5519 542.658C91.9242 541.329 91.148 539.949 89.8185 539.577C88.4889 539.205 87.1093 539.981 86.7371 541.311L91.5519 542.658ZM89.3547 529.96C89.1039 531.318 90.0011 532.622 91.3588 532.872C92.7166 533.123 94.0206 532.226 94.2715 530.868L89.3547 529.96ZM95.9963 518.926C96.143 517.553 95.1489 516.321 93.776 516.175C92.4031 516.028 91.1712 517.022 91.0246 518.395L95.9963 518.926ZM91.8885 506.706C91.8288 508.086 92.8986 509.252 94.278 509.312C95.6574 509.372 96.8241 508.302 96.8838 506.923L91.8885 506.706ZM97.0845 494.914C97.0735 493.534 95.9453 492.423 94.5646 492.434C93.1839 492.445 92.0736 493.574 92.0847 494.954L97.0845 494.914ZM91.7405 483.177C91.8078 484.556 92.9803 485.62 94.3594 485.552C95.7385 485.485 96.8018 484.312 96.7345 482.933L91.7405 483.177ZM95.9539 470.994C95.843 469.618 94.6375 468.592 93.2612 468.703C91.885 468.814 90.8592 470.019 90.97 471.395L95.9539 470.994ZM89.8752 459.618C90.0182 460.991 91.2473 461.988 92.6206 461.845C93.9939 461.703 94.9913 460.473 94.8484 459.1L89.8752 459.618ZM93.5126 447.248C93.3479 445.877 92.1031 444.899 90.7323 445.064C89.3614 445.229 88.3836 446.473 88.5483 447.844L93.5126 447.248ZM87.0744 436.07C87.2511 437.44 88.5045 438.406 89.8738 438.23C91.2432 438.053 92.21 436.799 92.0332 435.43L87.0744 436.07ZM90.4928 423.637C90.3134 422.268 89.0582 421.304 87.6892 421.483C86.3202 421.663 85.3558 422.918 85.5351 424.287L90.4928 423.637ZM84.0119 412.484C84.1844 413.854 85.4347 414.825 86.8046 414.652C88.1745 414.48 89.1452 413.23 88.9728 411.86L84.0119 412.484ZM87.5578 400.088C87.4025 398.716 86.1643 397.729 84.7924 397.885C83.4205 398.04 82.4342 399.278 82.5895 400.65L87.5578 400.088ZM81.3604 388.774C81.4874 390.149 82.7048 391.16 84.0797 391.033C85.4546 390.907 86.4662 389.689 86.3393 388.314L81.3604 388.774ZM85.4202 376.538C85.3347 375.16 84.1482 374.112 82.7702 374.198C81.3921 374.283 80.3443 375.47 80.4299 376.848L85.4202 376.538ZM79.9216 364.87C79.9503 366.25 81.0927 367.346 82.4731 367.317C83.8535 367.289 84.9492 366.146 84.9205 364.766L79.9216 364.87ZM84.9817 353.021C85.0283 351.641 83.9474 350.485 82.5675 350.438C81.1875 350.392 80.0311 351.473 79.9846 352.853L84.9817 353.021ZM80.7993 340.83C80.6553 342.203 81.6517 343.433 83.0249 343.577C84.398 343.721 85.628 342.725 85.772 341.352L80.7993 340.83ZM87.4858 329.841C87.7529 328.486 86.8712 327.172 85.5165 326.905C84.1619 326.638 82.8473 327.519 82.5802 328.874L87.4858 329.841ZM85.5755 317.086C85.1586 318.402 85.8878 319.807 87.2041 320.224C88.5204 320.641 89.9253 319.912 90.3422 318.596L85.5755 317.086ZM94.5331 307.845C95.1214 306.596 94.5857 305.107 93.3366 304.518C92.0875 303.93 90.598 304.466 90.0097 305.715L94.5331 307.845ZM100.076 297.451C100.728 296.234 100.271 294.718 99.0535 294.066C97.8365 293.414 96.3213 293.872 95.6692 295.089L100.076 297.451ZM100.957 284.686C100.358 285.93 100.882 287.424 102.126 288.023C103.37 288.621 104.864 288.098 105.463 286.854L100.957 284.686ZM110.396 275.99C110.939 274.72 110.35 273.251 109.08 272.708C107.811 272.165 106.342 272.755 105.799 274.024L110.396 275.99ZM110.163 263.143C109.678 264.436 110.333 265.877 111.626 266.362C112.919 266.846 114.36 266.191 114.845 264.899L110.163 263.143ZM118.778 253.637C119.203 252.324 118.483 250.914 117.17 250.489C115.856 250.063 114.447 250.783 114.021 252.097L118.778 253.637ZM117.367 240.899C117.002 242.23 117.786 243.606 119.117 243.971C120.449 244.336 121.824 243.552 122.189 242.22L117.367 240.899ZM125.073 230.667C125.377 229.32 124.531 227.982 123.184 227.678C121.837 227.374 120.499 228.22 120.195 229.567L125.073 230.667ZM122.509 218.09C122.267 219.45 123.173 220.748 124.532 220.99C125.892 221.232 127.19 220.326 127.432 218.967L122.509 218.09ZM129.259 207.166C129.439 205.797 128.476 204.541 127.107 204.361C125.738 204.18 124.482 205.144 124.302 206.512L129.259 207.166ZM125.574 194.871C125.454 196.247 126.472 197.459 127.848 197.578C129.223 197.698 130.435 196.68 130.555 195.304L125.574 194.871ZM131.327 183.403C131.387 182.024 130.317 180.858 128.937 180.798C127.558 180.739 126.391 181.809 126.332 183.188L131.327 183.403ZM126.586 171.483C126.585 172.864 127.704 173.983 129.085 173.984C130.465 173.985 131.585 172.866 131.586 171.485L126.586 171.483ZM131.343 159.571C131.287 158.191 130.122 157.119 128.743 157.175C127.363 157.232 126.291 158.396 126.347 159.776L131.343 159.571ZM125.63 148.086C125.742 149.462 126.948 150.487 128.325 150.374C129.701 150.262 130.725 149.055 130.613 147.679L125.63 148.086ZM129.41 135.829C129.244 134.458 127.998 133.481 126.628 133.648C125.257 133.814 124.281 135.06 124.447 136.43L129.41 135.829ZM122.814 124.825C123.032 126.188 124.314 127.116 125.678 126.898C127.041 126.68 127.97 125.398 127.751 124.035L122.814 124.825ZM125.652 112.312C125.384 110.957 124.068 110.077 122.714 110.345C121.36 110.613 120.479 111.929 120.747 113.283L125.652 112.312ZM118.261 101.818C118.578 103.162 119.924 103.995 121.268 103.679C122.612 103.362 123.445 102.016 123.128 100.672L118.261 101.818ZM120.195 89.1278C119.832 87.7957 118.458 87.0102 117.126 87.3733C115.794 87.7364 115.008 89.1106 115.371 90.4428L120.195 89.1278ZM112.091 79.1691C112.499 80.4882 113.899 81.2267 115.218 80.8187C116.537 80.4107 117.276 79.0106 116.868 77.6916L112.091 79.1691ZM113.161 66.3785C112.71 65.0737 111.286 64.3819 109.981 64.8334C108.677 65.2849 107.985 66.7086 108.436 68.0134L113.161 66.3785ZM104.423 56.9989C104.917 58.2883 106.362 58.9334 107.651 58.4397C108.941 57.946 109.586 56.5004 109.092 55.211L104.423 56.9989ZM104.671 44.1991C104.136 42.9263 102.67 42.3282 101.397 42.8633C100.125 43.3983 99.5265 44.8639 100.062 46.1367L104.671 44.1991ZM95.314 35.34C95.8904 36.5946 97.3748 37.1444 98.6294 36.5679C99.8841 35.9915 100.434 34.5071 99.8574 33.2525L95.314 35.34ZM94.7351 22.5744C94.117 21.3397 92.6151 20.8399 91.3804 21.458C90.1458 22.076 89.6459 23.578 90.264 24.8126L94.7351 22.5744ZM84.8315 14.4265C85.4939 15.6379 87.013 16.083 88.2244 15.4205C89.4358 14.7581 89.8809 13.239 89.2184 12.0276L84.8315 14.4265ZM83.2301 1.60937C82.5136 0.42911 80.976 0.0531368 79.7957 0.769615C78.6155 1.48609 78.2395 3.02371 78.956 4.20397L83.2301 1.60937ZM18.6946 618.376C22.54 616.827 26.2102 615.202 29.7123 613.505L27.5317 609.006C24.1364 610.651 20.5705 612.23 16.8262 613.738L18.6946 618.376ZM40.4095 607.797C44.0017 605.687 47.3847 603.487 50.5687 601.202L47.6531 597.14C44.5974 599.333 41.3428 601.45 37.8775 603.485L40.4095 607.797ZM60.0466 593.641C63.1503 590.885 66.0167 588.03 68.6608 585.081L64.9384 581.743C62.4226 584.548 59.6908 587.27 56.7269 589.902L60.0466 593.641ZM76.2238 575.562C78.5796 572.2 80.6949 568.742 82.5892 565.199L78.1798 562.842C76.3779 566.212 74.3672 569.498 72.1289 572.693L76.2238 575.562ZM87.6905 554.166C89.1787 550.403 90.4587 546.564 91.5519 542.658L86.7371 541.311C85.6877 545.059 84.4619 548.734 83.0409 552.327L87.6905 554.166ZM94.2715 530.868C94.9977 526.938 95.566 522.955 95.9963 518.926L91.0246 518.395C90.6067 522.308 90.0559 526.165 89.3547 529.96L94.2715 530.868ZM96.8838 506.923C97.0557 502.952 97.1168 498.947 97.0845 494.914L92.0847 494.954C92.1163 498.91 92.0563 502.83 91.8885 506.706L96.8838 506.923ZM96.7345 482.933C96.541 478.971 96.2755 474.989 95.9539 470.994L90.97 471.395C91.288 475.345 91.5499 479.274 91.7405 483.177L96.7345 482.933ZM94.8484 459.1C94.4376 455.153 93.9874 451.2 93.5126 447.248L88.5483 447.844C89.0206 451.776 89.4678 455.703 89.8752 459.618L94.8484 459.1ZM92.0332 435.43C91.5249 431.491 91.0062 427.556 90.4928 423.637L85.5351 424.287C86.0492 428.21 86.5668 432.138 87.0744 436.07L92.0332 435.43ZM88.9728 411.86C88.4759 407.912 87.9992 403.987 87.5578 400.088L82.5895 400.65C83.034 404.576 83.5133 408.523 84.0119 412.484L88.9728 411.86ZM86.3393 388.314C85.9731 384.349 85.6613 380.421 85.4202 376.538L80.4299 376.848C80.6745 380.788 80.9905 384.767 81.3604 388.774L86.3393 388.314ZM84.9205 364.766C84.8376 360.789 84.8518 356.871 84.9817 353.021L79.9846 352.853C79.8512 356.804 79.8371 360.813 79.9216 364.87L84.9205 364.766ZM85.772 341.352C86.1842 337.423 86.7482 333.583 87.4858 329.841L82.5802 328.874C81.8107 332.778 81.2255 336.768 80.7993 340.83L85.772 341.352ZM90.3422 318.596C91.5154 314.891 92.904 311.304 94.5331 307.845L90.0097 305.715C88.2794 309.389 86.8112 313.184 85.5755 317.086L90.3422 318.596ZM97.1746 302.728C98.1667 300.969 99.1338 299.21 100.076 297.451L95.6692 295.089C94.7437 296.816 93.7939 298.544 92.8195 300.272L97.1746 302.728ZM105.463 286.854C107.207 283.229 108.85 279.607 110.396 275.99L105.799 274.024C104.282 277.574 102.669 281.128 100.957 284.686L105.463 286.854ZM114.845 264.899C116.256 261.136 117.565 257.382 118.778 253.637L114.021 252.097C112.832 255.769 111.547 259.452 110.163 263.143L114.845 264.899ZM122.189 242.22C123.248 238.355 124.208 234.503 125.073 230.667L120.195 229.567C119.347 233.329 118.406 237.108 117.367 240.899L122.189 242.22ZM127.432 218.967C128.136 215.012 128.743 211.077 129.259 207.166L124.302 206.512C123.796 210.35 123.2 214.21 122.509 218.09L127.432 218.967ZM130.555 195.304C130.902 191.308 131.157 187.34 131.327 183.403L126.332 183.188C126.165 187.053 125.914 190.949 125.574 194.871L130.555 195.304ZM131.586 171.485C131.588 167.475 131.505 163.502 131.343 159.571L126.347 159.776C126.506 163.64 126.588 167.543 126.586 171.483L131.586 171.485ZM130.613 147.679C130.287 143.679 129.883 139.728 129.41 135.829L124.447 136.43C124.912 140.266 125.309 144.153 125.63 148.086L130.613 147.679ZM127.751 124.035C127.116 120.063 126.413 116.154 125.652 112.312L120.747 113.283C121.497 117.067 122.189 120.916 122.814 124.825L127.751 124.035ZM123.128 100.672C122.202 96.7413 121.221 92.8914 120.195 89.1278L115.371 90.4428C116.382 94.1522 117.349 97.9459 118.261 101.818L123.128 100.672ZM116.868 77.6916C115.667 73.8099 114.427 70.0365 113.161 66.3785L108.436 68.0134C109.685 71.6211 110.907 75.342 112.091 79.1691L116.868 77.6916ZM109.092 55.211C107.626 51.3822 106.146 47.7081 104.671 44.1991L100.062 46.1367C101.517 49.5981 102.977 53.2221 104.423 56.9989L109.092 55.211ZM99.8574 33.2525C98.0988 29.4249 96.3796 25.8594 94.7351 22.5744L90.264 24.8126C91.8847 28.0501 93.5797 31.5653 95.314 35.34L99.8574 33.2525ZM89.2184 12.0276C86.8356 7.67018 84.7834 4.16825 83.2301 1.60937L78.956 4.20397C80.4731 6.70313 82.4874 10.1398 84.8315 14.4265L89.2184 12.0276Z" fill="#FFC745"/>
</svg>
