<svg width="294" height="429" viewBox="0 0 294 429" fill="none" xmlns="http://www.w3.org/2000/svg">
<path d="M3.33484 0.284775C1.96686 0.0976915 0.706233 1.055 0.51915 2.42297C0.332067 3.79095 1.28937 5.05158 2.65735 5.23866L3.33484 0.284775ZM108.454 204.215C109.125 203.009 108.692 201.487 107.485 200.815C106.279 200.144 104.756 200.578 104.085 201.784L108.454 204.215ZM293.848 414.762L268.99 400.085L268.708 428.951L293.848 414.762ZM8.40756 6.22888C9.76344 6.48957 11.0739 5.60175 11.3346 4.24587C11.5953 2.88999 10.7075 1.57951 9.35161 1.31881L8.40756 6.22888ZM21.4215 4.00483C20.0823 3.66879 18.7242 4.48202 18.3882 5.82122C18.0522 7.16041 18.8654 8.51845 20.2046 8.85449L21.4215 4.00483ZM31.7685 12.0672C33.0891 12.4701 34.4863 11.726 34.8891 10.4054C35.2919 9.08476 34.5479 7.68761 33.2273 7.28478L31.7685 12.0672ZM44.8232 11.1476C43.525 10.6773 42.0915 11.3485 41.6212 12.6467C41.151 13.9449 41.8222 15.3784 43.1203 15.8487L44.8232 11.1476ZM54.2988 20.2482C55.5687 20.79 57.0375 20.1997 57.5792 18.9297C58.121 17.6598 57.5307 16.191 56.2607 15.6493L54.2988 20.2482ZM67.4122 20.8102C66.178 20.1913 64.6757 20.6902 64.0569 21.9244C63.438 23.1587 63.9368 24.6609 65.1711 25.2798L67.4122 20.8102ZM75.6869 31.0076C76.8752 31.7105 78.4085 31.317 79.1114 30.1287C79.8144 28.9403 79.4209 27.4071 78.2325 26.7041L75.6869 31.0076ZM88.5897 33.3828C87.4604 32.5884 85.901 32.8599 85.1066 33.9893C84.3122 35.1186 84.5838 36.678 85.7131 37.4724L88.5897 33.3828ZM95.1456 44.7491C96.1987 45.642 97.7763 45.5121 98.6692 44.4589C99.5621 43.4058 99.4322 41.8282 98.379 40.9353L95.1456 44.7491ZM107.411 49.4096C106.455 48.4135 104.873 48.3809 103.877 49.337C102.88 50.293 102.848 51.8756 103.804 52.8717L107.411 49.4096ZM111.502 61.8613C112.337 62.9609 113.905 63.1755 115.005 62.3406C116.105 61.5057 116.319 59.9374 115.484 58.8377L111.502 61.8613ZM122.378 69.204C121.689 68.0077 120.16 67.5969 118.964 68.2863C117.768 68.9757 117.357 70.5044 118.046 71.7007L122.378 69.204ZM123.242 82.2788C123.766 83.556 125.226 84.1664 126.504 83.6421C127.781 83.1177 128.391 81.6572 127.867 80.38L123.242 82.2788ZM131.807 92.174C131.458 90.8382 130.092 90.0383 128.756 90.3874C127.42 90.7366 126.62 92.1026 126.969 93.4384L131.807 92.174ZM129.205 105.017C129.38 106.387 130.632 107.355 132.002 107.18C133.371 107.005 134.34 105.752 134.164 104.383L129.205 105.017ZM134.999 116.774C134.986 115.394 133.857 114.285 132.476 114.298C131.095 114.31 129.986 115.44 129.999 116.821L134.999 116.774ZM129.473 128.671C129.342 130.045 130.349 131.267 131.723 131.398C133.098 131.53 134.319 130.523 134.451 129.149L129.473 128.671ZM132.7 141.364C132.956 140.008 132.064 138.7 130.708 138.443C129.351 138.187 128.043 139.078 127.787 140.435L132.7 141.364ZM125.103 152.034C124.741 153.366 125.527 154.74 126.859 155.103C128.191 155.465 129.565 154.679 129.928 153.347L125.103 152.034ZM126.292 165.08C126.744 163.775 126.053 162.351 124.749 161.899C123.444 161.447 122.02 162.138 121.568 163.443L126.292 165.08ZM117.293 174.675C116.765 175.951 117.371 177.413 118.647 177.941C119.923 178.469 121.385 177.863 121.913 176.587L117.293 174.675ZM116.887 187.887C117.479 186.639 116.948 185.148 115.701 184.556C114.454 183.963 112.963 184.494 112.37 185.741L116.887 187.887ZM107.039 196.347C106.392 197.567 106.857 199.08 108.077 199.726C109.297 200.373 110.81 199.907 111.457 198.687L107.039 196.347ZM101.147 207.212C100.504 208.434 100.974 209.946 102.196 210.589C103.418 211.231 104.929 210.762 105.572 209.54L101.147 207.212ZM100.358 220.075C100.938 218.823 100.393 217.337 99.1402 216.756C97.8874 216.176 96.4013 216.721 95.821 217.974L100.358 220.075ZM91.0629 229.057C90.5559 230.341 91.186 231.793 92.4703 232.3C93.7546 232.807 95.2067 232.177 95.7136 230.893L91.0629 229.057ZM91.7296 242.035C92.1499 240.719 91.4243 239.313 90.1091 238.892C88.7939 238.472 87.3871 239.198 86.9668 240.513L91.7296 242.035ZM83.7019 252.221C83.3832 253.564 84.2139 254.912 85.5573 255.231C86.9007 255.549 88.2481 254.719 88.5669 253.375L83.7019 252.221ZM86.3481 264.892C86.5487 263.526 85.6039 262.256 84.2378 262.055C82.8718 261.855 81.6017 262.799 81.4012 264.166L86.3481 264.892ZM80.216 276.291C80.1508 277.67 81.216 278.841 82.5952 278.906C83.9744 278.971 85.1452 277.906 85.2104 276.527L80.216 276.291ZM85.2886 288.182C85.2025 286.804 84.0156 285.757 82.6376 285.843C81.2595 285.929 80.2122 287.116 80.2983 288.494L85.2886 288.182ZM81.7748 300.626C82.0234 301.984 83.3259 302.884 84.684 302.635C86.0422 302.387 86.9417 301.084 86.6931 299.726L81.7748 300.626ZM89.492 311.021C89.077 309.704 87.673 308.973 86.3561 309.388C85.0393 309.803 84.3082 311.207 84.7232 312.524L89.492 311.021ZM89.1322 323.965C89.7078 325.22 91.1918 325.771 92.4468 325.195C93.7018 324.62 94.2526 323.136 93.677 321.881L89.1322 323.965ZM99.1625 332.149C98.4407 330.972 96.9013 330.603 95.7244 331.325C94.5474 332.047 94.1784 333.586 94.9003 334.763L99.1625 332.149ZM101.872 344.805C102.72 345.894 104.291 346.089 105.38 345.24C106.469 344.391 106.664 342.821 105.816 341.731L101.872 344.805ZM113.475 350.577C112.52 349.58 110.938 349.545 109.94 350.5C108.943 351.454 108.908 353.037 109.863 354.034L113.475 350.577ZM118.678 362.433C119.719 363.34 121.298 363.232 122.205 362.191C123.113 361.15 123.004 359.571 121.963 358.664L118.678 362.433ZM131.124 366.01C130.014 365.189 128.448 365.424 127.627 366.534C126.806 367.644 127.041 369.209 128.151 370.03L131.124 366.01ZM138.155 376.882C139.32 377.623 140.865 377.278 141.605 376.112C142.346 374.947 142.001 373.402 140.835 372.662L138.155 376.882ZM150.99 378.663C149.78 377.997 148.26 378.438 147.595 379.648C146.929 380.858 147.371 382.378 148.58 383.044L150.99 378.663ZM159.342 388.567C160.587 389.164 162.08 388.638 162.676 387.392C163.273 386.147 162.747 384.654 161.501 384.058L159.342 388.567ZM172.299 388.891C171.025 388.358 169.561 388.959 169.029 390.233C168.496 391.507 169.097 392.971 170.371 393.504L172.299 388.891ZM181.616 397.897C182.913 398.37 184.348 397.702 184.821 396.405C185.294 395.108 184.626 393.673 183.329 393.2L181.616 397.897ZM194.547 397.02C193.231 396.602 191.826 397.331 191.408 398.647C190.991 399.963 191.719 401.368 193.035 401.786L194.547 397.02ZM204.597 405.201C205.928 405.566 207.304 404.783 207.669 403.451C208.034 402.119 207.251 400.744 205.919 400.379L204.597 405.201ZM217.416 403.3C216.071 402.985 214.726 403.819 214.411 405.163C214.096 406.508 214.93 407.853 216.274 408.168L217.416 403.3ZM228.046 410.706C229.401 410.973 230.716 410.092 230.983 408.737C231.25 407.383 230.368 406.068 229.013 405.801L228.046 410.706ZM240.693 407.893C239.329 407.673 238.046 408.6 237.826 409.963C237.606 411.326 238.533 412.609 239.896 412.829L240.693 407.893ZM251.817 414.545C253.187 414.718 254.438 413.748 254.611 412.379C254.784 411.009 253.814 409.758 252.445 409.585L251.817 414.545ZM264.251 410.874C262.876 410.747 261.659 411.76 261.532 413.135C261.406 414.509 262.418 415.726 263.793 415.853L264.251 410.874ZM275.813 416.744C277.191 416.822 278.372 415.768 278.45 414.389C278.527 413.011 277.473 411.83 276.094 411.752L275.813 416.744ZM287.958 412.204C286.577 412.177 285.436 413.275 285.41 414.655C285.383 416.036 286.48 417.177 287.861 417.203L287.958 412.204ZM2.99609 2.76172C2.65735 5.23866 2.65724 5.23865 2.65714 5.23863C2.65712 5.23863 2.65703 5.23862 2.65699 5.23861C2.6569 5.2386 2.65685 5.23859 2.65682 5.23859C2.65678 5.23858 2.65686 5.2386 2.65708 5.23863C2.65751 5.23869 2.65846 5.23882 2.65993 5.23902C2.66287 5.23943 2.66788 5.24012 2.67495 5.24111C2.68909 5.24309 2.71145 5.24623 2.74191 5.25059C2.80282 5.25929 2.89609 5.27281 3.02065 5.2914C3.26978 5.32858 3.64401 5.38605 4.13475 5.46584C5.11628 5.62544 6.56349 5.87433 8.40756 6.22888L9.35161 1.31881C7.45742 0.954619 5.96289 0.697437 4.93723 0.530661C4.42438 0.447268 4.02866 0.386465 3.75874 0.346178C3.62377 0.326034 3.52025 0.311018 3.44924 0.300871C3.41373 0.295797 3.38636 0.291941 3.36725 0.289269C3.35769 0.287933 3.3502 0.286893 3.34479 0.286145C3.34209 0.285771 3.33991 0.285471 3.33825 0.285242C3.33742 0.285128 3.33672 0.285032 3.33615 0.284954C3.33587 0.284915 3.33561 0.284881 3.3354 0.284851C3.33529 0.284836 3.33515 0.284817 3.33509 0.284809C3.33496 0.284791 3.33484 0.284775 2.99609 2.76172ZM20.2046 8.85449C23.6987 9.73122 27.5914 10.7931 31.7685 12.0672L33.2273 7.28478C28.963 5.98406 24.9892 4.90004 21.4215 4.00483L20.2046 8.85449ZM43.1203 15.8487C46.7503 17.1635 50.4953 18.6256 54.2988 20.2482L56.2607 15.6493C52.3652 13.9874 48.5334 12.4915 44.8232 11.1476L43.1203 15.8487ZM65.1711 25.2798C68.688 27.0433 72.2073 28.9493 75.6869 31.0076L78.2325 26.7041C74.6459 24.5825 71.0244 22.6215 67.4122 20.8102L65.1711 25.2798ZM85.7131 37.4724C88.9462 39.7466 92.1027 42.1693 95.1456 44.7491L98.379 40.9353C95.2132 38.2513 91.9368 35.7371 88.5897 33.3828L85.7131 37.4724ZM103.804 52.8717C106.526 55.7079 109.103 58.7017 111.502 61.8613L115.484 58.8377C112.962 55.5159 110.258 52.3763 107.411 49.4096L103.804 52.8717ZM118.046 71.7007C119.983 75.0617 121.725 78.5851 123.242 82.2788L127.867 80.38C126.264 76.4746 124.423 72.7517 122.378 69.204L118.046 71.7007ZM126.969 93.4384C127.937 97.1419 128.691 100.999 129.205 105.017L134.164 104.383C133.623 100.154 132.829 96.0858 131.807 92.174L126.969 93.4384ZM129.999 116.821C130.035 120.637 129.865 124.586 129.473 128.671L134.451 129.149C134.859 124.895 135.036 120.771 134.999 116.774L129.999 116.821ZM127.787 140.435C127.075 144.195 126.185 148.06 125.103 152.034L129.928 153.347C131.043 149.251 131.963 145.258 132.7 141.364L127.787 140.435ZM121.568 163.443C120.3 167.101 118.878 170.845 117.293 174.675L121.913 176.587C123.534 172.67 124.991 168.835 126.292 165.08L121.568 163.443ZM112.37 185.741C110.723 189.209 108.947 192.744 107.039 196.347L111.457 198.687C113.398 195.023 115.207 191.423 116.887 187.887L112.37 185.741ZM104.085 201.784C103.071 203.606 102.092 205.416 101.147 207.212L105.572 209.54C106.498 207.779 107.459 206.004 108.454 204.215L104.085 201.784ZM95.821 217.974C94.0831 221.726 92.4986 225.42 91.0629 229.057L95.7136 230.893C97.1126 227.349 98.659 223.743 100.358 220.075L95.821 217.974ZM86.9668 240.513C85.6969 244.487 84.6108 248.39 83.7019 252.221L88.5669 253.375C89.4453 249.673 90.4969 245.893 91.7296 242.035L86.9668 240.513ZM81.4012 264.166C80.7946 268.296 80.4027 272.338 80.216 276.291L85.2104 276.527C85.3891 272.743 85.7647 268.865 86.3481 264.892L81.4012 264.166ZM80.2983 288.494C80.5577 292.646 81.0543 296.69 81.7748 300.626L86.6931 299.726C86.0086 295.987 85.5358 292.139 85.2886 288.182L80.2983 288.494ZM84.7232 312.524C85.9636 316.46 87.4389 320.273 89.1322 323.965L93.677 321.881C92.069 318.375 90.6689 314.756 89.492 311.021L84.7232 312.524ZM94.9003 334.763C97.0281 338.232 99.3578 341.579 101.872 344.805L105.816 341.731C103.412 338.647 101.189 335.453 99.1625 332.149L94.9003 334.763ZM109.863 354.034C112.649 356.946 115.593 359.744 118.678 362.433L121.963 358.664C118.986 356.069 116.152 353.374 113.475 350.577L109.863 354.034ZM128.151 370.03C131.373 372.413 134.713 374.696 138.155 376.882L140.835 372.662C137.488 370.536 134.246 368.319 131.124 366.01L128.151 370.03ZM148.58 383.044C152.088 384.973 155.679 386.814 159.342 388.567L161.501 384.058C157.92 382.342 154.412 380.545 150.99 378.663L148.58 383.044ZM170.371 393.504C174.067 395.048 177.819 396.512 181.616 397.897L183.329 393.2C179.602 391.84 175.921 390.404 172.299 388.891L170.371 393.504ZM193.035 401.786C196.86 402.999 200.717 404.137 204.597 405.201L205.919 400.379C202.101 399.332 198.307 398.213 194.547 397.02L193.035 401.786ZM216.274 408.168C220.19 409.086 224.118 409.932 228.046 410.706L229.013 405.801C225.142 405.038 221.273 404.204 217.416 403.3L216.274 408.168ZM239.896 412.829C243.884 413.473 247.861 414.044 251.817 414.545L252.445 409.585C248.545 409.091 244.624 408.528 240.693 407.893L239.896 412.829ZM263.793 415.853C267.84 416.224 271.851 416.521 275.813 416.744L276.094 411.752C272.192 411.532 268.239 411.24 264.251 410.874L263.793 415.853Z" fill="#FFC745"/>
</svg>
