<svg width="100" height="41" viewBox="0 0 100 41" fill="none" xmlns="http://www.w3.org/2000/svg">
<path d="M3.4758 1.73167C3.32761 0.916607 2.54674 0.376002 1.73167 0.524195C0.916607 0.672389 0.376002 1.45326 0.524195 2.26833L3.4758 1.73167ZM99.8125 33L85.7327 22.9125L84.0365 40.1497L99.8125 33ZM2.09428 5.44561C2.57337 6.12145 3.50963 6.28094 4.18547 5.80185C4.86131 5.32276 5.02081 4.3865 4.54172 3.71066L2.09428 5.44561ZM8.32017 7.60632C7.67949 7.08114 6.73437 7.17477 6.20919 7.81546C5.684 8.45614 5.77764 9.40126 6.41832 9.92644L8.32017 7.60632ZM11.3749 13.3993C12.0825 13.8301 13.0053 13.6057 13.4361 12.8981C13.867 12.1905 13.6426 11.2677 12.935 10.8369L11.3749 13.3993ZM17.9487 13.5673C17.205 13.2024 16.3063 13.5095 15.9413 14.2532C15.5764 14.9969 15.8835 15.8956 16.6272 16.2606L17.9487 13.5673ZM22.0477 18.6943C22.8137 19.01 23.6905 18.645 24.0062 17.8791C24.3219 17.1132 23.9569 16.2364 23.191 15.9207L22.0477 18.6943ZM28.6036 17.9883C27.8228 17.7114 26.9654 18.1198 26.6884 18.9005C26.4115 19.6813 26.8199 20.5387 27.6006 20.8157L28.6036 17.9883ZM33.1869 22.6693C33.978 22.915 34.8186 22.4729 35.0644 21.6818C35.3102 20.8907 34.8681 20.0501 34.0769 19.8043L33.1869 22.6693ZM39.6617 21.436C38.863 21.2164 38.0374 21.6859 37.8178 22.4847C37.5981 23.2835 38.0676 24.1091 38.8664 24.3287L39.6617 21.436ZM44.5944 25.8161C45.399 26.0135 46.2112 25.5212 46.4086 24.7167C46.606 23.9121 46.1137 23.0998 45.3092 22.9025L44.5944 25.8161ZM50.9603 24.2163C50.1513 24.0381 49.3509 24.5494 49.1726 25.3584C48.9944 26.1674 49.5057 26.9678 50.3147 27.146L50.9603 24.2163ZM56.0716 28.351C56.8841 28.5125 57.6737 27.9847 57.8353 27.1722C57.9968 26.3597 57.469 25.5701 56.6565 25.4086L56.0716 28.351ZM62.3907 26.4929C61.5754 26.3463 60.7956 26.8884 60.6489 27.7037C60.5023 28.5191 61.0444 29.2989 61.8597 29.4455L62.3907 26.4929ZM67.6289 30.434C68.4465 30.5674 69.2175 30.0127 69.3509 29.1951C69.4843 28.3775 68.9296 27.6065 68.112 27.4731L67.6289 30.434ZM73.8479 28.3655C73.0284 28.244 72.2656 28.8098 72.1441 29.6293C72.0227 30.4488 72.5885 31.2115 73.408 31.333L73.8479 28.3655ZM79.209 32.1532C80.03 32.2638 80.7852 31.688 80.8959 30.867C81.0065 30.046 80.4306 29.2907 79.6096 29.1801L79.209 32.1532ZM85.4078 29.9252C84.5855 29.8245 83.8373 30.4095 83.7366 31.2317C83.636 32.054 84.2209 32.8022 85.0432 32.9029L85.4078 29.9252ZM90.9113 33.5877C91.7346 33.6792 92.4763 33.086 92.5678 32.2626C92.6593 31.4392 92.066 30.6976 91.2426 30.6061L90.9113 33.5877ZM96.9948 31.2155C96.1705 31.1323 95.4349 31.7331 95.3518 32.5573C95.2686 33.3816 95.8694 34.1172 96.6936 34.2003L96.9948 31.2155ZM2 2C0.524195 2.26833 0.524307 2.26894 0.52442 2.26956C0.524459 2.26978 0.524573 2.2704 0.524651 2.27082C0.524806 2.27167 0.524965 2.27253 0.525128 2.27341C0.525452 2.27516 0.525791 2.27697 0.526144 2.27885C0.526851 2.28259 0.527615 2.28657 0.52844 2.29079C0.530089 2.29922 0.531982 2.3086 0.534142 2.3189C0.538462 2.33952 0.543851 2.36386 0.550506 2.39183C0.563817 2.44779 0.582178 2.51824 0.607154 2.6025C0.657132 2.77113 0.733424 2.9945 0.848381 3.26731C1.07857 3.81359 1.46181 4.55341 2.09428 5.44561L4.54172 3.71066C4.03198 2.99159 3.75622 2.44235 3.61296 2.10237C3.5412 1.93206 3.50215 1.81301 3.48348 1.74999C3.47412 1.71844 3.46983 1.70076 3.46906 1.69755C3.46868 1.69594 3.46918 1.69793 3.47036 1.7036C3.47096 1.70643 3.47172 1.71018 3.47264 1.71486C3.4731 1.7172 3.47359 1.71977 3.47412 1.72257C3.47438 1.72397 3.47466 1.72543 3.47494 1.72695C3.47508 1.7277 3.47522 1.72848 3.47537 1.72926C3.47544 1.72966 3.47555 1.73026 3.47558 1.73046C3.47569 1.73106 3.4758 1.73167 2 2ZM6.41832 9.92644C7.75053 11.0185 9.38053 12.185 11.3749 13.3993L12.935 10.8369C11.0492 9.68868 9.5348 8.60198 8.32017 7.60632L6.41832 9.92644ZM16.6272 16.2606C18.2623 17.0629 20.0635 17.8764 22.0477 18.6943L23.191 15.9207C21.2632 15.1261 19.5217 14.3392 17.9487 13.5673L16.6272 16.2606ZM27.6006 20.8157C29.3472 21.4353 31.2068 22.0541 33.1869 22.6693L34.0769 19.8043C32.133 19.2004 30.311 18.594 28.6036 17.9883L27.6006 20.8157ZM38.8664 24.3287C40.6875 24.8294 42.5954 25.3257 44.5944 25.8161L45.3092 22.9025C43.3361 22.4185 41.455 21.9291 39.6617 21.436L38.8664 24.3287ZM50.3147 27.146C52.1638 27.5535 54.0819 27.9555 56.0716 28.351L56.6565 25.4086C54.6864 25.017 52.7886 24.6192 50.9603 24.2163L50.3147 27.146ZM61.8597 29.4455C63.7252 29.781 65.6477 30.1107 67.6289 30.434L68.112 27.4731C66.1463 27.1524 64.2398 26.8254 62.3907 26.4929L61.8597 29.4455ZM73.408 31.333C75.2922 31.6124 77.2255 31.8859 79.209 32.1532L79.6096 29.1801C77.6389 28.9145 75.7188 28.6428 73.8479 28.3655L73.408 31.333ZM85.0432 32.9029C86.9554 33.137 88.9111 33.3655 90.9113 33.5877L91.2426 30.6061C89.2533 30.385 87.3087 30.1579 85.4078 29.9252L85.0432 32.9029Z" fill="#FFC745"/>
</svg>
