<svg width="138" height="344" viewBox="0 0 138 344" fill="none" xmlns="http://www.w3.org/2000/svg">
<path d="M107.275 111.667C108.275 112.62 109.858 112.581 110.81 111.582C111.762 110.582 111.724 108.999 110.724 108.047L107.275 111.667ZM0.21582 343.625L29.0822 343.37L14.4274 318.499L0.21582 343.625ZM6.59762 342.767C7.78123 342.056 8.16442 340.52 7.45348 339.336C6.74255 338.153 5.20672 337.77 4.02311 338.48L6.59762 342.767ZM13.9998 332.259C12.8405 333.009 12.5086 334.557 13.2584 335.716C14.0083 336.875 15.556 337.207 16.7154 336.458L13.9998 332.259ZM26.6184 329.819C27.7525 329.032 28.0336 327.474 27.2462 326.34C26.4588 325.206 24.901 324.925 23.7669 325.712L26.6184 329.819ZM33.3149 318.85C32.207 319.674 31.9767 321.24 32.8006 322.348C33.6245 323.456 35.1906 323.686 36.2985 322.862L33.3149 318.85ZM45.7459 315.595C46.8264 314.735 47.0053 313.162 46.1457 312.082C45.286 311.001 43.7132 310.823 42.6328 311.682L45.7459 315.595ZM51.7098 304.212C50.6585 305.107 50.5317 306.684 51.4268 307.736C52.3218 308.787 53.8996 308.914 54.951 308.019L51.7098 304.212ZM63.9007 300.135C64.921 299.204 64.994 297.623 64.0637 296.603C63.1335 295.583 61.5522 295.51 60.532 296.44L63.9007 300.135ZM69.0781 288.369C68.0912 289.335 68.074 290.918 69.0397 291.905C70.0053 292.891 71.5882 292.909 72.575 291.943L69.0781 288.369ZM80.9509 283.441C81.9014 282.44 81.8601 280.858 80.8587 279.907C79.8572 278.957 78.2748 278.998 77.3243 279.999L80.9509 283.441ZM85.2414 271.328C84.3308 272.366 84.434 273.945 85.4719 274.856C86.5097 275.766 88.0893 275.663 88.9999 274.625L85.2414 271.328ZM96.687 265.489C97.5533 264.414 97.384 262.84 96.3089 261.974C95.2337 261.108 93.6599 261.277 92.7936 262.352L96.687 265.489ZM99.9368 253.069C99.1203 254.182 99.3609 255.747 100.474 256.563C101.588 257.38 103.152 257.139 103.969 256.026L99.9368 253.069ZM110.809 246.201C111.569 245.048 111.25 243.497 110.097 242.738C108.945 241.978 107.394 242.296 106.634 243.449L110.809 246.201ZM112.809 233.5C112.115 234.693 112.519 236.223 113.712 236.918C114.906 237.613 116.436 237.208 117.131 236.015L112.809 233.5ZM122.842 225.472C123.46 224.238 122.961 222.735 121.727 222.117C120.492 221.498 118.99 221.998 118.371 223.232L122.842 225.472ZM123.221 212.65C122.692 213.926 123.297 215.388 124.572 215.917C125.847 216.446 127.31 215.842 127.839 214.566L123.221 212.65ZM132.01 203.247C132.433 201.932 131.71 200.524 130.395 200.102C129.081 199.679 127.673 200.402 127.25 201.717L132.01 203.247ZM130.28 190.534C129.984 191.883 130.838 193.216 132.186 193.511C133.535 193.807 134.868 192.953 135.164 191.605L130.28 190.534ZM137.116 179.65C137.261 178.277 136.266 177.046 134.893 176.901C133.519 176.756 132.289 177.751 132.144 179.124L137.116 179.65ZM132.643 167.626C132.673 169.006 133.815 170.101 135.196 170.072C136.576 170.043 137.671 168.9 137.642 167.519L132.643 167.626ZM136.536 155.39C136.312 154.027 135.026 153.104 133.663 153.328C132.301 153.552 131.378 154.838 131.602 156.2L136.536 155.39ZM128.9 145.076C129.328 146.389 130.739 147.107 132.051 146.679C133.364 146.252 134.082 144.841 133.655 143.528L128.9 145.076ZM128.997 132.258C128.374 131.026 126.87 130.533 125.638 131.156C124.406 131.78 123.913 133.284 124.536 134.516L128.997 132.258ZM118.605 124.691C119.402 125.818 120.962 126.085 122.089 125.287C123.216 124.49 123.484 122.929 122.686 121.802L118.605 124.691ZM115.024 112.397C114.084 111.386 112.502 111.328 111.491 112.268C110.48 113.208 110.422 114.79 111.362 115.801L115.024 112.397ZM106.345 103.804C105.362 102.834 103.779 102.845 102.81 103.828C101.841 104.812 101.852 106.394 102.835 107.364L106.345 103.804ZM94.2358 98.5741C95.183 99.5787 96.7652 99.6253 97.7698 98.6782C98.7745 97.731 98.8211 96.1488 97.8739 95.1442L94.2358 98.5741ZM89.7388 86.1703C88.8322 85.129 87.253 85.0197 86.2117 85.9263C85.1703 86.8329 85.061 88.412 85.9676 89.4534L89.7388 86.1703ZM78.0701 79.9812C78.9308 81.0608 80.5037 81.2384 81.5833 80.3777C82.663 79.517 82.8405 77.9441 81.9798 76.8645L78.0701 79.9812ZM74.6673 67.239C73.8587 66.1198 72.296 65.8679 71.1768 66.6764C70.0575 67.485 69.8057 69.0477 70.6142 70.1669L74.6673 67.239ZM63.6471 59.9801C64.3959 61.1401 65.9433 61.4734 67.1033 60.7245C68.2633 59.9757 68.5966 58.4283 67.8478 57.2683L63.6471 59.9801ZM61.5945 46.9454C60.9145 45.7438 59.3891 45.3209 58.1875 46.0009C56.9858 46.6809 56.563 48.2063 57.243 49.4079L61.5945 46.9454ZM51.5108 38.475C52.1107 39.7186 53.6052 40.2404 54.8487 39.6405C56.0923 39.0406 56.6141 37.5461 56.0142 36.3026L51.5108 38.475ZM51.1876 25.2769C50.6834 23.9916 49.2327 23.3583 47.9473 23.8625C46.662 24.3667 46.0287 25.8174 46.5329 27.1027L51.1876 25.2769ZM42.4993 15.326C42.8847 16.6518 44.2719 17.4142 45.5978 17.0288C46.9236 16.6433 47.686 15.2561 47.3005 13.9303L42.4993 15.326ZM44.64 2.33423C44.4219 0.970845 43.1399 0.0423896 41.7765 0.260464C40.4131 0.478538 39.4846 1.76056 39.7027 3.12394L44.64 2.33423ZM16.7154 336.458C20.0494 334.301 23.3521 332.087 26.6184 329.819L23.7669 325.712C20.5452 327.949 17.2878 330.132 13.9998 332.259L16.7154 336.458ZM36.2985 322.862C39.4911 320.488 42.6419 318.064 45.7459 315.595L42.6328 311.682C39.5716 314.118 36.4639 316.509 33.3149 318.85L36.2985 322.862ZM54.951 308.019C57.9892 305.432 60.9743 302.803 63.9007 300.135L60.532 296.44C57.6479 299.069 54.7054 301.661 51.7098 304.212L54.951 308.019ZM72.575 291.943C75.4355 289.144 78.2294 286.309 80.9509 283.441L77.3243 279.999C74.6461 282.821 71.8955 285.612 69.0781 288.369L72.575 291.943ZM88.9999 274.625C91.6474 271.608 94.212 268.561 96.687 265.489L92.7936 262.352C90.3637 265.368 87.8442 268.361 85.2414 271.328L88.9999 274.625ZM103.969 256.026C106.356 252.771 108.638 249.494 110.809 246.201L106.634 243.449C104.511 246.67 102.276 249.879 99.9368 253.069L103.969 256.026ZM117.131 236.015C119.17 232.512 121.076 228.995 122.842 225.472L118.371 223.232C116.655 226.658 114.798 230.082 112.809 233.5L117.131 236.015ZM127.839 214.566C129.405 210.792 130.799 207.016 132.01 203.247L127.25 201.717C126.083 205.348 124.737 208.995 123.221 212.65L127.839 214.566ZM135.164 191.605C136.041 187.6 136.697 183.612 137.116 179.65L132.144 179.124C131.745 182.893 131.12 186.699 130.28 190.534L135.164 191.605ZM137.642 167.519C137.555 163.431 137.192 159.384 136.536 155.39L131.602 156.2C132.218 159.952 132.561 163.764 132.643 167.626L137.642 167.519ZM133.655 143.528C132.408 139.698 130.86 135.938 128.997 132.258L124.536 134.516C126.283 137.966 127.732 141.489 128.9 145.076L133.655 143.528ZM122.686 121.802C120.408 118.584 117.857 115.446 115.024 112.397L111.362 115.801C114.049 118.692 116.459 121.658 118.605 124.691L122.686 121.802ZM110.724 108.047C109.231 106.625 107.772 105.21 106.345 103.804L102.835 107.364C104.282 108.791 105.762 110.226 107.275 111.667L110.724 108.047ZM97.8739 95.1442C95.0127 92.1092 92.3037 89.1165 89.7388 86.1703L85.9676 89.4534C88.5763 92.4499 91.3297 95.4916 94.2358 98.5741L97.8739 95.1442ZM81.9798 76.8645C79.3662 73.5859 76.9329 70.3753 74.6673 67.239L70.6142 70.1669C72.9264 73.3678 75.4076 76.6414 78.0701 79.9812L81.9798 76.8645ZM67.8478 57.2683C65.5484 53.7063 63.4711 50.2616 61.5945 46.9454L57.243 49.4079C59.1675 52.809 61.2951 56.3368 63.6471 59.9801L67.8478 57.2683ZM56.0142 36.3026C54.1225 32.3809 52.5293 28.6975 51.1876 25.2769L46.5329 27.1027C47.9204 30.64 49.564 34.4391 51.5108 38.475L56.0142 36.3026ZM47.3005 13.9303C45.9018 9.11864 45.0997 5.20869 44.64 2.33423L39.7027 3.12394C40.1941 6.19604 41.0408 10.3087 42.4993 15.326L47.3005 13.9303Z" fill="#FFC745"/>
</svg>
