<svg width="318" height="457" viewBox="0 0 318 457" fill="none" xmlns="http://www.w3.org/2000/svg">
<path d="M3 0.168457C1.61929 0.168457 0.5 1.28775 0.5 2.66846C0.5 4.04917 1.61929 5.16846 3 5.16846V0.168457ZM119.242 193.242L116.799 192.713L119.242 193.242ZM317.987 456.922L308.253 429.746L289.584 451.764L317.987 456.922ZM8.66259 5.46285C10.0388 5.57475 11.2451 4.54986 11.357 3.17369C11.4689 1.79752 10.444 0.5912 9.06782 0.479298L8.66259 5.46285ZM21.0855 1.9903C19.7237 1.76213 18.4349 2.68106 18.2067 4.04279C17.9785 5.40452 18.8975 6.69339 20.2592 6.92156L21.0855 1.9903ZM31.7467 9.30975C33.0865 9.64315 34.443 8.82725 34.7764 7.4874C35.1098 6.14754 34.2939 4.7911 32.954 4.45771L31.7467 9.30975ZM44.5426 7.83221C43.2335 7.39329 41.8165 8.09871 41.3776 9.4078C40.9387 10.7169 41.6441 12.1339 42.9532 12.5728L44.5426 7.83221ZM53.8383 16.737C55.1055 17.2852 56.5772 16.7023 57.1254 15.4351C57.6736 14.1678 57.0907 12.6961 55.8235 12.148L53.8383 16.737ZM66.716 17.4567C65.5042 16.7949 63.9854 17.2408 63.3237 18.4525C62.6619 19.6643 63.1078 21.1831 64.3195 21.8449L66.716 17.4567ZM74.256 27.9177C75.3967 28.6955 76.952 28.4014 77.7299 27.2607C78.5078 26.12 78.2137 24.5646 77.073 23.7867L74.256 27.9177ZM86.7264 31.1321C85.6734 30.2391 84.0958 30.3689 83.2028 31.422C82.3098 32.475 82.4396 34.0526 83.4927 34.9456L86.7264 31.1321ZM91.9272 42.9267C92.8764 43.9294 94.4587 43.9728 95.4614 43.0236C96.4641 42.0745 96.5075 40.4922 95.5584 39.4894L91.9272 42.9267ZM103.414 48.7713C102.582 47.6694 101.014 47.4506 99.9122 48.2826C98.8103 49.1145 98.5915 50.6823 99.4235 51.7841L103.414 48.7713ZM105.883 61.3958C106.59 62.582 108.124 62.9707 109.311 62.264C110.497 61.5574 110.885 60.0229 110.179 58.8368L105.883 61.3958ZM115.833 69.584C115.254 68.3304 113.769 67.783 112.515 68.3615C111.262 68.94 110.714 70.4253 111.293 71.679L115.833 69.584ZM115.645 82.4913C116.098 83.7956 117.523 84.4856 118.827 84.0325C120.131 83.5794 120.821 82.1548 120.368 80.8506L115.645 82.4913ZM123.823 92.4758C123.488 91.1363 122.131 90.3218 120.792 90.6565C119.452 90.9913 118.637 92.3486 118.972 93.6881L123.823 92.4758ZM121.34 105.137C121.566 106.499 122.854 107.42 124.216 107.194C125.578 106.968 126.499 105.68 126.273 104.318L121.34 105.137ZM127.812 116.268C127.683 114.893 126.465 113.883 125.09 114.011C123.716 114.139 122.705 115.358 122.833 116.732L127.812 116.268ZM123.543 128.399C123.584 129.779 124.736 130.865 126.116 130.824C127.496 130.783 128.581 129.631 128.54 128.251L123.543 128.399ZM128.553 140.228C128.59 138.848 127.5 137.699 126.12 137.663C124.74 137.626 123.591 138.715 123.555 140.096L128.553 140.228ZM122.947 151.809C122.841 153.185 123.872 154.387 125.249 154.492C126.625 154.597 127.827 153.567 127.932 152.19L122.947 151.809ZM126.743 164.15C126.91 162.78 125.934 161.534 124.563 161.367C123.193 161.2 121.946 162.177 121.78 163.547L126.743 164.15ZM120.104 175.321C119.883 176.684 120.808 177.968 122.171 178.19C123.534 178.411 124.818 177.486 125.039 176.123L120.104 175.321ZM122.932 187.769C123.202 186.415 122.322 185.099 120.968 184.83C119.614 184.561 118.298 185.44 118.028 186.794L122.932 187.769ZM115.531 198.835C115.263 200.19 116.144 201.505 117.498 201.773C118.853 202.041 120.168 201.16 120.436 199.805L115.531 198.835ZM118.338 211.579C118.554 210.215 117.623 208.935 116.259 208.72C114.895 208.505 113.615 209.436 113.399 210.799L118.338 211.579ZM111.753 222.929C111.598 224.301 112.585 225.539 113.957 225.694C115.329 225.848 116.567 224.861 116.722 223.489L111.753 222.929ZM115.67 235.5C115.754 234.122 114.706 232.937 113.327 232.852C111.949 232.768 110.764 233.816 110.679 235.194L115.67 235.5ZM110.277 247.481C110.273 248.861 111.389 249.984 112.77 249.988C114.15 249.992 115.273 248.876 115.277 247.495L110.277 247.481ZM115.632 259.454C115.544 258.076 114.356 257.03 112.978 257.118C111.6 257.206 110.554 258.394 110.642 259.772L115.632 259.454ZM111.882 272.023C112.074 273.391 113.338 274.344 114.705 274.152C116.072 273.96 117.025 272.696 116.833 271.328L111.882 272.023ZM118.978 283.043C118.671 281.696 117.331 280.854 115.985 281.161C114.639 281.468 113.796 282.808 114.103 284.154L118.978 283.043ZM117.397 296.054C117.827 297.366 119.24 298.081 120.552 297.65C121.864 297.22 122.578 295.808 122.148 294.496L117.397 296.054ZM126.393 305.575C125.836 304.312 124.36 303.74 123.097 304.297C121.833 304.854 121.261 306.33 121.818 307.593L126.393 305.575ZM127.376 318.653C128.057 319.854 129.583 320.276 130.784 319.595C131.985 318.914 132.407 317.388 131.726 316.187L127.376 318.653ZM138.096 326.229C137.301 325.1 135.741 324.83 134.612 325.626C133.484 326.421 133.213 327.981 134.009 329.109L138.096 326.229ZM141.587 338.87C142.482 339.921 144.059 340.048 145.111 339.154C146.162 338.259 146.289 336.681 145.395 335.629L141.587 338.87ZM153.497 344.384C152.52 343.409 150.937 343.411 149.961 344.388C148.986 345.366 148.988 346.949 149.965 347.924L153.497 344.384ZM158.993 356.304C160.036 357.208 161.615 357.096 162.519 356.052C163.424 355.009 163.311 353.43 162.268 352.526L158.993 356.304ZM171.554 360.097C170.46 359.255 168.89 359.46 168.048 360.554C167.206 361.648 167.411 363.218 168.505 364.06L171.554 360.097ZM178.392 371.29C179.525 372.079 181.083 371.801 181.873 370.668C182.662 369.536 182.384 367.977 181.251 367.188L178.392 371.29ZM191.263 373.884C190.102 373.137 188.555 373.472 187.808 374.633C187.06 375.794 187.396 377.341 188.557 378.088L191.263 373.884ZM198.917 384.548C200.098 385.263 201.635 384.886 202.35 383.705C203.066 382.524 202.688 380.987 201.507 380.271L198.917 384.548ZM211.916 386.433C210.722 385.74 209.192 386.147 208.499 387.341C207.806 388.535 208.213 390.065 209.407 390.758L211.916 386.433ZM219.973 396.801C221.175 397.48 222.7 397.056 223.38 395.855C224.059 394.653 223.636 393.127 222.434 392.448L219.973 396.801ZM233.011 398.391C231.806 397.716 230.283 398.146 229.608 399.351C228.934 400.555 229.363 402.079 230.568 402.753L233.011 398.391ZM241.147 408.685C242.35 409.363 243.875 408.937 244.552 407.734C245.23 406.53 244.803 405.006 243.6 404.329L241.147 408.685ZM254.172 410.334C252.974 409.646 251.446 410.059 250.759 411.256C250.071 412.454 250.484 413.982 251.681 414.669L254.172 410.334ZM262.133 420.768C263.32 421.473 264.854 421.082 265.559 419.895C266.264 418.708 265.873 417.174 264.686 416.469L262.133 420.768ZM275.105 422.795C273.932 422.066 272.391 422.425 271.662 423.598C270.933 424.77 271.292 426.312 272.465 427.041L275.105 422.795ZM282.637 433.543C283.79 434.303 285.341 433.983 286.1 432.83C286.859 431.677 286.539 430.126 285.386 429.367L282.637 433.543ZM295.486 436.239C294.357 435.444 292.798 435.714 292.003 436.843C291.208 437.972 291.478 439.532 292.607 440.327L295.486 436.239ZM302.329 447.437C303.428 448.273 304.997 448.06 305.833 446.961C306.668 445.862 306.455 444.294 305.356 443.458L302.329 447.437ZM314.945 451.066C313.882 450.185 312.306 450.332 311.425 451.395C310.544 452.458 310.691 454.034 311.755 454.915L314.945 451.066ZM3 2.66846C3 5.16846 2.99984 5.16846 2.99968 5.16846C2.99964 5.16846 2.99949 5.16846 2.99941 5.16846C2.99924 5.16846 2.99911 5.16846 2.99901 5.16846C2.99881 5.16846 2.99874 5.16846 2.9988 5.16846C2.99893 5.16846 2.99957 5.16846 3.00073 5.16846C3.00304 5.16847 3.00743 5.16848 3.01386 5.16851C3.02673 5.16856 3.04781 5.16869 3.07695 5.16895C3.13524 5.16947 3.22578 5.17055 3.34748 5.17277C3.59089 5.17721 3.95887 5.18622 4.44262 5.2045C5.4102 5.24106 6.84032 5.31467 8.66259 5.46285L9.06782 0.479298C7.16851 0.324857 5.66603 0.24716 4.63141 0.208067C4.11405 0.188518 3.71352 0.178617 3.4387 0.173602C3.30129 0.171094 3.19529 0.169808 3.1218 0.169149C3.08506 0.168819 3.05645 0.168646 3.0361 0.168556C3.02593 0.16851 3.01782 0.168486 3.0118 0.168472C3.00879 0.168466 3.0063 0.168462 3.00433 0.16846C3.00335 0.168459 3.00249 0.168458 3.00177 0.168458C3.00141 0.168457 3.00108 0.168457 3.00079 0.168457C3.00064 0.168457 3.00044 0.168457 3.00037 0.168457C3.00018 0.168457 3 0.168457 3 2.66846ZM20.2592 6.92156C23.7329 7.5036 27.6021 8.27845 31.7467 9.30975L32.954 4.45771C28.672 3.39221 24.675 2.59175 21.0855 1.9903L20.2592 6.92156ZM42.9532 12.5728C46.4969 13.761 50.1443 15.139 53.8383 16.737L55.8235 12.148C51.9904 10.4898 48.2103 9.06193 44.5426 7.83221L42.9532 12.5728ZM64.3195 21.8449C67.6516 23.6646 70.9771 25.6817 74.256 27.9177L77.073 23.7867C73.6505 21.4528 70.1839 19.3505 66.716 17.4567L64.3195 21.8449ZM83.4927 34.9456C86.3857 37.3987 89.2074 40.0534 91.9272 42.9267L95.5584 39.4894C92.7085 36.4788 89.7535 33.6988 86.7264 31.1321L83.4927 34.9456ZM99.4235 51.7841C101.692 54.7886 103.853 57.9882 105.883 61.3958L110.179 58.8368C108.054 55.2707 105.791 51.9197 103.414 48.7713L99.4235 51.7841ZM111.293 71.679C112.872 75.1009 114.328 78.7018 115.645 82.4913L120.368 80.8506C118.999 76.9084 117.481 73.1558 115.833 69.584L111.293 71.679ZM118.972 93.6881C119.887 97.3478 120.68 101.162 121.34 105.137L126.273 104.318C125.591 100.214 124.771 96.2686 123.823 92.4758L118.972 93.6881ZM122.833 116.732C123.184 120.491 123.423 124.378 123.543 128.399L128.54 128.251C128.418 124.127 128.172 120.134 127.812 116.268L122.833 116.732ZM123.555 140.096C123.455 143.891 123.254 147.794 122.947 151.809L127.932 152.19C128.245 148.095 128.451 144.108 128.553 140.228L123.555 140.096ZM121.78 163.547C121.314 167.377 120.757 171.301 120.104 175.321L125.039 176.123C125.703 172.039 126.27 168.049 126.743 164.15L121.78 163.547ZM118.028 186.794C117.64 188.746 117.23 190.719 116.799 192.713L121.686 193.771C122.123 191.75 122.539 189.749 122.932 187.769L118.028 186.794ZM116.799 192.713C116.352 194.777 115.93 196.817 115.531 198.835L120.436 199.805C120.829 197.817 121.245 195.806 121.686 193.771L116.799 192.713ZM113.399 210.799C112.746 214.941 112.198 218.983 111.753 222.929L116.722 223.489C117.158 219.62 117.695 215.651 118.338 211.579L113.399 210.799ZM110.679 235.194C110.421 239.404 110.288 243.498 110.277 247.481L115.277 247.495C115.288 243.613 115.417 239.617 115.67 235.5L110.679 235.194ZM110.642 259.772C110.911 263.986 111.326 268.067 111.882 272.023L116.833 271.328C116.296 267.501 115.893 263.546 115.632 259.454L110.642 259.772ZM114.103 284.154C115.04 288.264 116.141 292.227 117.397 296.054L122.148 294.496C120.941 290.818 119.881 287.004 118.978 283.043L114.103 284.154ZM121.818 307.593C123.508 311.424 125.365 315.106 127.376 318.653L131.726 316.187C129.795 312.783 128.014 309.251 126.393 305.575L121.818 307.593ZM134.009 329.109C136.39 332.489 138.921 335.737 141.587 338.87L145.395 335.629C142.823 332.607 140.386 329.478 138.096 326.229L134.009 329.109ZM149.965 347.924C152.86 350.812 155.874 353.601 158.993 356.304L162.268 352.526C159.23 349.893 156.303 347.184 153.497 344.384L149.965 347.924ZM168.505 364.06C171.718 366.532 175.018 368.938 178.392 371.29L181.251 367.188C177.934 364.876 174.698 362.517 171.554 360.097L168.505 364.06ZM188.557 378.088C191.954 380.275 195.411 382.425 198.917 384.548L201.507 380.271C198.034 378.168 194.616 376.043 191.263 373.884L188.557 378.088ZM209.407 390.758C212.895 392.782 216.421 394.793 219.973 396.801L222.434 392.448C218.892 390.446 215.384 388.445 211.916 386.433L209.407 390.758ZM230.568 402.753C234.081 404.72 237.609 406.693 241.147 408.685L243.6 404.329C240.056 402.333 236.521 400.356 233.011 398.391L230.568 402.753ZM251.681 414.669C255.168 416.673 258.655 418.702 262.133 420.768L264.686 416.469C261.183 414.389 257.676 412.347 254.172 410.334L251.681 414.669ZM272.465 427.041C275.875 429.161 279.268 431.326 282.637 433.543L285.386 429.367C281.978 427.123 278.548 424.936 275.105 422.795L272.465 427.041ZM292.607 440.327C295.883 442.633 299.126 445.001 302.329 447.437L305.356 443.458C302.101 440.981 298.808 438.578 295.486 436.239L292.607 440.327Z" fill="#FFC745"/>
</svg>
