<svg width="91" height="572" viewBox="0 0 91 572" fill="none" xmlns="http://www.w3.org/2000/svg">
<path d="M15.4388 253.424C15.949 254.707 17.4026 255.334 18.6856 254.823C19.9686 254.313 20.5952 252.86 20.0851 251.577L15.4388 253.424ZM76 572L90.284 546.914L61.417 547.087L76 572ZM78.464 565.995C78.4444 564.615 77.3093 563.511 75.9288 563.531C74.5482 563.551 73.4449 564.686 73.4645 566.066L78.464 565.995ZM73.1494 554.036C73.1996 555.416 74.3589 556.494 75.7387 556.443C77.1185 556.393 78.1963 555.234 78.146 553.854L73.1494 554.036ZM77.6059 541.735C77.5341 540.357 76.3581 539.297 74.9792 539.369C73.6004 539.441 72.5409 540.617 72.6127 541.996L77.6059 541.735ZM71.9017 529.907C71.9916 531.285 73.1814 532.329 74.5592 532.239C75.9369 532.149 76.981 530.96 76.8911 529.582L71.9017 529.907ZM76.0346 517.545C75.9287 516.169 74.7269 515.139 73.3502 515.245C71.9736 515.35 70.9435 516.552 71.0494 517.929L76.0346 517.545ZM70.0556 505.882C70.1766 507.258 71.3896 508.274 72.765 508.153C74.1404 508.032 75.1573 506.819 75.0364 505.444L70.0556 505.882ZM73.9108 493.379C73.7753 492.005 72.5516 491.001 71.1776 491.137C69.8035 491.272 68.7994 492.496 68.9349 493.87L73.9108 493.379ZM67.6918 481.892C67.8413 483.264 69.0753 484.256 70.4479 484.106C71.8205 483.957 72.8119 482.723 72.6624 481.35L67.6918 481.892ZM71.289 469.317C71.1255 467.946 69.8815 466.968 68.5105 467.131C67.1395 467.295 66.1607 468.539 66.3242 469.91L71.289 469.317ZM64.8336 457.935C65.0112 459.304 66.2651 460.27 67.6344 460.093C69.0036 459.915 69.9697 458.661 69.7921 457.292L64.8336 457.935ZM68.1715 445.281C67.9798 443.914 66.716 442.961 65.3486 443.152C63.9813 443.344 63.0282 444.608 63.2199 445.975L68.1715 445.281ZM61.4822 434.034C61.6882 435.399 62.962 436.339 64.3273 436.133C65.6925 435.927 66.6323 434.653 66.4263 433.288L61.4822 434.034ZM64.5544 421.316C64.3337 419.953 63.05 419.026 61.687 419.247C60.324 419.468 59.398 420.751 59.6186 422.114L64.5544 421.316ZM57.6263 410.218C57.8619 411.579 59.1557 412.491 60.5162 412.255C61.8767 412.02 62.7886 410.726 62.553 409.365L57.6263 410.218ZM60.4189 397.439C60.1679 396.081 58.8639 395.184 57.5062 395.435C56.1484 395.686 55.2512 396.99 55.5021 398.347L60.4189 397.439ZM53.242 386.504C53.5088 387.858 54.8232 388.74 56.1779 388.473C57.5326 388.207 58.4145 386.892 58.1478 385.537L53.242 386.504ZM55.735 373.664C55.4518 372.312 54.1267 371.446 52.7754 371.729C51.424 372.013 50.5581 373.338 50.8413 374.689L55.735 373.664ZM48.2949 362.906C48.5951 364.254 49.931 365.103 51.2787 364.803C52.6264 364.503 53.4755 363.167 53.1752 361.819L48.2949 362.906ZM50.4625 350.007C50.1446 348.664 48.7976 347.832 47.454 348.15C46.1104 348.468 45.279 349.815 45.5969 351.159L50.4625 350.007ZM42.741 339.45C43.0775 340.789 44.4358 341.602 45.7749 341.265C47.114 340.929 47.9267 339.57 47.5902 338.231L42.741 339.45ZM44.551 326.495C44.1951 325.161 42.8251 324.368 41.4911 324.724C40.157 325.08 39.3641 326.45 39.72 327.784L44.551 326.495ZM36.526 316.165C36.9022 317.494 38.2842 318.266 39.6126 317.889C40.9411 317.513 41.713 316.131 41.3368 314.803L36.526 316.165ZM37.9386 303.16C37.5409 301.838 36.1467 301.088 34.8245 301.486C33.5023 301.884 32.7528 303.278 33.1504 304.6L37.9386 303.16ZM29.5837 293.095C30.0039 294.41 31.4108 295.136 32.726 294.715C34.0412 294.295 34.7667 292.888 34.3465 291.573L29.5837 293.095ZM30.5498 280.049C30.1058 278.741 28.686 278.042 27.3786 278.486C26.0713 278.93 25.3714 280.349 25.8155 281.657L30.5498 280.049ZM21.8342 270.294C22.3035 271.593 23.7366 272.265 25.0351 271.796C26.3336 271.326 27.0058 269.893 26.5365 268.595L21.8342 270.294ZM22.2933 257.221C21.7972 255.932 20.3505 255.29 19.062 255.786C17.7735 256.282 17.1311 257.729 17.6273 259.017L22.2933 257.221ZM17.9165 245.891C17.4428 244.594 16.0075 243.926 14.7106 244.4C13.4136 244.874 12.7463 246.309 13.2199 247.606L17.9165 245.891ZM9.33004 235.928C9.72818 237.25 11.1227 237.999 12.4447 237.601C13.7668 237.203 14.5158 235.808 14.1176 234.486L9.33004 235.928ZM10.9965 222.884C10.678 221.54 9.33073 220.709 7.98724 221.028C6.64376 221.346 5.81283 222.694 6.1313 224.037L10.9965 222.884ZM3.65751 211.967C3.89292 213.328 5.18665 214.24 6.54715 214.004C7.90764 213.769 8.81971 212.475 8.5843 211.115L3.65751 211.967ZM6.90601 199.217C6.75608 197.845 5.52186 196.853 4.14931 197.003C2.77677 197.153 1.78565 198.388 1.93558 199.76L6.90601 199.217ZM0.982971 187.464C1.04619 188.843 2.21555 189.91 3.59481 189.847C4.97407 189.783 6.04094 188.614 5.97773 187.235L0.982971 187.464ZM5.80544 175.214C5.82898 173.834 4.72895 172.696 3.34843 172.672C1.96792 172.648 0.829711 173.749 0.806166 175.129L5.80544 175.214ZM1.4003 162.807C1.29116 164.184 2.31847 165.388 3.69486 165.497C5.07125 165.606 6.27551 164.579 6.38466 163.203L1.4003 162.807ZM7.70103 151.245C7.89354 149.877 6.94125 148.613 5.57402 148.42C4.2068 148.228 2.94238 149.18 2.74987 150.547L7.70103 151.245ZM4.83022 138.394C4.55747 139.747 5.43359 141.066 6.78709 141.339C8.14059 141.611 9.45894 140.735 9.73169 139.382L4.83022 138.394ZM12.447 127.651C12.7962 126.315 11.9964 124.949 10.6606 124.6C9.32477 124.251 7.95878 125.051 7.60957 126.387L12.447 127.651ZM11.0511 114.559C10.6296 115.874 11.3538 117.281 12.6686 117.703C13.9834 118.124 15.391 117.4 15.8124 116.085L11.0511 114.559ZM19.7903 104.711C20.2796 103.42 19.6296 101.976 18.3385 101.487C17.0474 100.998 15.6041 101.648 15.1148 102.939L19.7903 104.711ZM19.759 91.5511C19.2063 92.8164 19.784 94.2902 21.0493 94.8428C22.3145 95.3955 23.7883 94.8178 24.3409 93.5525L19.759 91.5511ZM29.4236 82.6316C30.0353 81.3938 29.5277 79.8945 28.2899 79.2828C27.0521 78.6711 25.5528 79.1786 24.9411 80.4165L29.4236 82.6316ZM30.6434 69.5085C29.9765 70.7175 30.416 72.2382 31.625 72.905C32.834 73.5719 34.3547 73.1324 35.0215 71.9234L30.6434 69.5085ZM41.0892 61.4664C41.8075 60.2873 41.4339 58.7491 40.2548 58.0307C39.0757 57.3124 37.5375 57.6859 36.8191 58.8651L41.0892 61.4664ZM43.4183 48.5228C42.6518 49.6713 42.9615 51.2236 44.11 51.99C45.2584 52.7564 46.8107 52.4467 47.5772 51.2983L43.4183 48.5228ZM54.491 41.3774C55.3029 40.2606 55.0558 38.6971 53.939 37.8852C52.8222 37.0733 51.2587 37.3204 50.4468 38.4372L54.491 41.3774ZM57.8597 28.6527C57.0044 29.7366 57.1898 31.3086 58.2737 32.1639C59.3576 33.0191 60.9297 32.8338 61.7849 31.7498L57.8597 28.6527ZM69.4738 22.3922C70.3714 21.3431 70.2486 19.7649 69.1995 18.8673C68.1504 17.9696 66.5723 18.0924 65.6746 19.1415L69.4738 22.3922ZM73.8571 9.96717C72.9165 10.9779 72.9733 12.5598 73.9841 13.5004C74.9948 14.441 76.5767 14.3842 77.5173 13.3734L73.8571 9.96717ZM85.9467 4.73505C86.9367 3.77262 86.959 2.18987 85.9966 1.19987C85.0342 0.209873 83.4514 0.187527 82.4614 1.14996L85.9467 4.73505ZM78.146 553.854C78.0101 550.121 77.8319 546.073 77.6059 541.735L72.6127 541.996C72.8374 546.308 73.0144 550.33 73.1494 554.036L78.146 553.854ZM76.8911 529.582C76.6401 525.734 76.3556 521.717 76.0346 517.545L71.0494 517.929C71.3688 522.081 71.652 526.079 71.9017 529.907L76.8911 529.582ZM75.0364 505.444C74.692 501.53 74.3175 497.505 73.9108 493.379L68.9349 493.87C69.3398 497.978 69.7128 501.985 70.0556 505.882L75.0364 505.444ZM72.6624 481.35C72.2334 477.414 71.7761 473.4 71.289 469.317L66.3242 469.91C66.8093 473.976 67.2647 477.972 67.6918 481.892L72.6624 481.35ZM69.7921 457.292C69.2798 453.342 68.74 449.336 68.1715 445.281L63.2199 445.975C63.786 450.013 64.3235 454.002 64.8336 457.935L69.7921 457.292ZM66.4263 433.288C65.8298 429.335 65.2062 425.343 64.5544 421.316L59.6186 422.114C60.2675 426.124 60.8884 430.099 61.4822 434.034L66.4263 433.288ZM62.553 409.365C61.8693 405.416 61.1582 401.439 60.4189 397.439L55.5021 398.347C56.2379 402.329 56.9457 406.287 57.6263 410.218L62.553 409.365ZM58.1478 385.537C57.3716 381.596 56.5676 377.637 55.735 373.664L50.8413 374.689C51.6696 378.642 52.4696 382.581 53.242 386.504L58.1478 385.537ZM53.1752 361.819C52.2998 357.89 51.3959 353.951 50.4625 350.007L45.5969 351.159C46.5251 355.081 47.4241 358.998 48.2949 362.906L53.1752 361.819ZM47.5902 338.231C46.6071 334.319 45.5943 330.406 44.551 326.495L39.72 327.784C40.7569 331.67 41.7636 335.561 42.741 339.45L47.5902 338.231ZM41.3368 314.803C40.2354 310.914 39.103 307.032 37.9386 303.16L33.1504 304.6C34.3069 308.445 35.4318 312.302 36.526 316.165L41.3368 314.803ZM34.3465 291.573C33.1142 287.716 31.8489 283.873 30.5498 280.049L25.8155 281.657C27.1045 285.452 28.3603 289.266 29.5837 293.095L34.3465 291.573ZM26.5365 268.595C25.1576 264.78 23.7435 260.987 22.2933 257.221L17.6273 259.017C19.0646 262.75 20.4667 266.511 21.8342 270.294L26.5365 268.595ZM20.0851 251.577C19.3291 249.675 18.6066 247.78 17.9165 245.891L13.2199 247.606C13.9262 249.54 14.6656 251.479 15.4388 253.424L20.0851 251.577ZM14.1176 234.486C12.9444 230.59 11.9064 226.722 10.9965 222.884L6.1313 224.037C7.0642 227.973 8.12811 231.937 9.33004 235.928L14.1176 234.486ZM8.5843 211.115C7.89198 207.113 7.33531 203.147 6.90601 199.217L1.93558 199.76C2.37612 203.793 2.94729 207.863 3.65751 211.967L8.5843 211.115ZM5.97773 187.235C5.7921 183.185 5.73785 179.177 5.80544 175.214L0.806166 175.129C0.736822 179.195 0.792476 183.307 0.982971 187.464L5.97773 187.235ZM6.38466 163.203C6.70489 159.164 7.14728 155.177 7.70103 151.245L2.74987 150.547C2.18233 154.578 1.72872 158.666 1.4003 162.807L6.38466 163.203ZM9.73169 139.382C10.5323 135.409 11.4414 131.498 12.447 127.651L7.60957 126.387C6.58074 130.322 5.65007 134.326 4.83022 138.394L9.73169 139.382ZM15.8124 116.085C17.0518 112.219 18.3824 108.426 19.7903 104.711L15.1148 102.939C13.6772 106.732 12.3179 110.607 11.0511 114.559L15.8124 116.085ZM24.3409 93.5525C25.9708 89.8211 27.6703 86.1794 29.4236 82.6316L24.9411 80.4165C23.1544 84.032 21.4215 87.7449 19.759 91.5511L24.3409 93.5525ZM35.0215 71.9234C37.008 68.322 39.0372 64.8346 41.0892 61.4664L36.8191 58.8651C34.7314 62.292 32.666 65.8415 30.6434 69.5085L35.0215 71.9234ZM47.5772 51.2983C49.8891 47.8341 52.2029 44.5247 54.491 41.3774L50.4468 38.4372C48.1212 41.6361 45.769 45.0003 43.4183 48.5228L47.5772 51.2983ZM61.7849 31.7498C64.4461 28.3772 67.0254 25.2537 69.4738 22.3922L65.6746 19.1415C63.1856 22.0506 60.564 25.2253 57.8597 28.6527L61.7849 31.7498ZM77.5173 13.3734C80.9067 9.73135 83.7884 6.83323 85.9467 4.73505L82.4614 1.14996C80.2484 3.30136 77.3079 6.25906 73.8571 9.96717L77.5173 13.3734Z" fill="url(#paint0_linear)"/>
<defs>
<linearGradient id="paint0_linear" x1="45.4201" y1="-261.398" x2="-123.017" y2="-234.094" gradientUnits="userSpaceOnUse">
<stop stop-color="#FFC745"/>
<stop offset="1" stop-color="#1BAA3A"/>
</linearGradient>
</defs>
</svg>
