<svg width="320" height="496" viewBox="0 0 320 496" fill="none" xmlns="http://www.w3.org/2000/svg">
<path d="M317.93 4.95886C319.175 4.36079 319.699 2.86713 319.101 1.62267C318.503 0.378211 317.009 -0.145795 315.764 0.452272L317.93 4.95886ZM166.52 231.322C166.698 232.691 167.952 233.657 169.322 233.479C170.691 233.301 171.657 232.047 171.479 230.678L166.52 231.322ZM0.792969 495.667L28.8468 488.861L8.92589 467.969L0.792969 495.667ZM6.76136 493.43C7.77881 492.496 7.84697 490.915 6.9136 489.897C5.98024 488.88 4.39879 488.812 3.38135 489.745L6.76136 493.43ZM12.4954 481.96C11.4163 482.821 11.2398 484.394 12.1011 485.473C12.9624 486.552 14.5355 486.729 15.6146 485.868L12.4954 481.96ZM24.9449 478.851C26.0701 478.051 26.3335 476.49 25.5332 475.365C24.7329 474.24 23.1721 473.976 22.0469 474.776L24.9449 478.851ZM31.9124 468.083C30.7547 468.835 30.426 470.384 31.1783 471.542C31.9306 472.699 33.479 473.028 34.6367 472.276L31.9124 468.083ZM44.5877 466.028C45.7667 465.309 46.1401 463.771 45.4217 462.592C44.7032 461.413 43.165 461.039 41.9859 461.758L44.5877 466.028ZM52.1672 455.682C50.9765 456.381 50.5778 457.913 51.2767 459.104C51.9757 460.295 53.5076 460.693 54.6983 459.994L52.1672 455.682ZM64.9 454.05C66.0938 453.357 66.4993 451.827 65.8057 450.633C65.1121 449.439 63.582 449.033 62.3882 449.727L64.9 454.05ZM72.5772 443.771C71.3884 444.473 70.9939 446.006 71.6961 447.195C72.3983 448.384 73.9313 448.778 75.1201 448.076L72.5772 443.771ZM85.285 441.956C86.4605 441.232 86.8262 439.692 86.1019 438.516C85.3775 437.341 83.8374 436.975 82.662 437.7L85.285 441.956ZM92.5703 431.399C91.4172 432.158 91.0982 433.709 91.8577 434.862C92.6172 436.015 94.1676 436.334 95.3207 435.574L92.5703 431.399ZM105.144 428.82C106.264 428.013 106.519 426.451 105.712 425.33C104.905 424.21 103.342 423.956 102.222 424.763L105.144 428.82ZM111.527 417.694C110.451 418.559 110.28 420.133 111.145 421.209C112.01 422.285 113.584 422.456 114.66 421.591L111.527 417.694ZM123.753 413.809C124.772 412.877 124.843 411.296 123.912 410.277C122.98 409.258 121.399 409.187 120.38 410.118L123.753 413.809ZM128.679 401.972C127.73 402.975 127.774 404.557 128.777 405.506C129.78 406.455 131.362 406.411 132.311 405.408L128.679 401.972ZM140.22 396.359C141.086 395.284 140.917 393.71 139.841 392.844C138.766 391.978 137.192 392.148 136.326 393.224L140.22 396.359ZM143.224 383.883C142.451 385.028 142.753 386.582 143.897 387.354C145.041 388.127 146.595 387.825 147.368 386.681L143.224 383.883ZM153.657 376.457C154.33 375.251 153.898 373.728 152.692 373.055C151.487 372.382 149.964 372.814 149.291 374.02L153.657 376.457ZM154.513 363.672C153.942 364.929 154.498 366.411 155.755 366.982C157.013 367.553 158.495 366.997 159.065 365.74L154.513 363.672ZM163.59 354.627C164.061 353.329 163.39 351.895 162.092 351.424C160.794 350.954 159.36 351.624 158.889 352.922L163.59 354.627ZM162.448 341.856C162.073 343.184 162.845 344.566 164.174 344.941C165.503 345.317 166.884 344.544 167.26 343.216L162.448 341.856ZM170.129 331.594C170.416 330.243 169.554 328.915 168.204 328.628C166.853 328.34 165.526 329.202 165.238 330.553L170.129 331.594ZM167.322 319.077C167.115 320.442 168.053 321.717 169.418 321.924C170.784 322.131 172.058 321.193 172.265 319.828L167.322 319.077ZM173.742 307.962C173.877 306.588 172.873 305.365 171.499 305.23C170.125 305.095 168.901 306.099 168.766 307.473L173.742 307.962ZM169.635 295.762C169.564 297.141 170.625 298.316 172.004 298.387C173.383 298.457 174.558 297.396 174.628 296.017L169.635 295.762ZM174.984 284.098C174.997 282.718 173.888 281.588 172.508 281.575C171.127 281.562 169.997 282.671 169.984 284.051L174.984 284.098ZM169.876 272.405C169.913 273.785 171.063 274.873 172.443 274.836C173.823 274.798 174.912 273.648 174.874 272.268L169.876 272.405ZM174.349 260.387C174.265 259.008 173.081 257.959 171.702 258.042C170.324 258.125 169.274 259.31 169.358 260.688L174.349 260.387ZM168.462 248.867C168.587 250.242 169.802 251.256 171.178 251.131C172.553 251.007 173.567 249.791 173.442 248.416L168.462 248.867ZM172.224 236.711C172.064 235.34 170.822 234.358 169.45 234.519C168.079 234.68 167.098 235.922 167.258 237.293L172.224 236.711ZM170.8 224.698C170.667 223.324 169.445 222.318 168.07 222.451C166.696 222.584 165.69 223.806 165.823 225.181L170.8 224.698ZM165.043 212.979C165.086 214.359 166.239 215.444 167.619 215.401C168.999 215.359 170.083 214.206 170.041 212.826L165.043 212.979ZM170.08 200.934C170.132 199.555 169.055 198.394 167.675 198.343C166.296 198.291 165.135 199.368 165.084 200.747L170.08 200.934ZM165.963 188.541C165.816 189.914 166.81 191.146 168.183 191.293C169.556 191.44 170.788 190.446 170.935 189.073L165.963 188.541ZM172.61 177.297C172.852 175.937 171.945 174.639 170.586 174.398C169.227 174.156 167.929 175.062 167.687 176.421L172.61 177.297ZM170.244 164.448C169.91 165.788 170.725 167.145 172.064 167.48C173.404 167.814 174.761 166.999 175.095 165.66L170.244 164.448ZM178.368 154.213C178.792 152.899 178.07 151.49 176.756 151.067C175.442 150.643 174.033 151.365 173.609 152.679L178.368 154.213ZM177.745 141.161C177.236 142.445 177.865 143.898 179.148 144.406C180.432 144.915 181.885 144.286 182.393 143.002L177.745 141.161ZM187.128 132.064C187.716 130.814 187.179 129.325 185.929 128.738C184.68 128.15 183.191 128.687 182.603 129.936L187.128 132.064ZM188.133 119.034C187.472 120.246 187.92 121.765 189.132 122.425C190.345 123.086 191.863 122.638 192.524 121.426L188.133 119.034ZM198.528 111.109C199.256 109.936 198.894 108.395 197.72 107.667C196.547 106.94 195.006 107.301 194.278 108.475L198.528 111.109ZM200.985 98.2723C200.197 99.4058 200.477 100.964 201.61 101.752C202.744 102.54 204.302 102.261 205.09 101.127L200.985 98.2723ZM212.16 91.4868C213.003 90.3937 212.801 88.8238 211.708 87.9802C210.615 87.1367 209.045 87.339 208.201 88.4321L212.16 91.4868ZM215.876 78.9558C214.983 80.0084 215.112 81.5861 216.164 82.4795C217.217 83.373 218.795 83.2439 219.688 82.1913L215.876 78.9558ZM227.632 73.2406C228.57 72.2279 228.51 70.6461 227.497 69.7076C226.485 68.769 224.903 68.8291 223.964 69.8417L227.632 73.2406ZM232.423 61.0869C231.443 62.0602 231.439 63.6431 232.412 64.6224C233.385 65.6018 234.968 65.6067 235.947 64.6334L232.423 61.0869ZM244.595 56.3691C245.611 55.4345 245.677 53.853 244.743 52.8367C243.808 51.8204 242.227 51.7542 241.21 52.6888L244.595 56.3691ZM250.336 44.6045C249.286 45.501 249.161 47.079 250.058 48.129C250.954 49.1791 252.532 49.3036 253.582 48.4071L250.336 44.6045ZM262.853 40.7729C263.934 39.9139 264.114 38.3413 263.255 37.2603C262.396 36.1793 260.823 35.9992 259.742 36.8582L262.853 40.7729ZM269.374 29.4691C268.265 30.2908 268.031 31.8565 268.853 32.966C269.675 34.0755 271.241 34.3088 272.35 33.487L269.374 29.4691ZM282.127 26.496C283.263 25.7118 283.549 24.1548 282.764 23.0184C281.98 21.8821 280.423 21.5967 279.287 22.3809L282.127 26.496ZM289.371 15.6659C288.209 16.4119 287.872 17.9585 288.618 19.1203C289.364 20.2822 290.91 20.6194 292.072 19.8734L289.371 15.6659ZM302.287 13.5632C303.474 12.8587 303.866 11.325 303.161 10.1375C302.457 8.95008 300.923 8.55855 299.736 9.26304L302.287 13.5632ZM310.396 3.22561C309.18 3.87894 308.723 5.39462 309.376 6.61098C310.03 7.82733 311.545 8.28375 312.762 7.63042L310.396 3.22561ZM15.6146 485.868C18.6458 483.448 21.7606 481.116 24.9449 478.851L22.0469 474.776C18.7966 477.088 15.6072 479.476 12.4954 481.96L15.6146 485.868ZM34.6367 472.276C37.9058 470.151 41.2271 468.075 44.5877 466.028L41.9859 461.758C38.5936 463.825 35.2303 465.927 31.9124 468.083L34.6367 472.276ZM54.6983 459.994C58.0819 458.008 61.4844 456.035 64.9 454.05L62.3882 449.727C58.9774 451.709 55.5629 453.689 52.1672 455.682L54.6983 459.994ZM75.1201 448.076C78.5182 446.069 81.9119 444.035 85.285 441.956L82.662 437.7C79.323 439.757 75.9574 441.775 72.5772 443.771L75.1201 448.076ZM95.3207 435.574C98.6335 433.392 101.913 431.147 105.144 428.82L102.222 424.763C99.0549 427.044 95.8334 429.25 92.5703 431.399L95.3207 435.574ZM114.66 421.591C117.757 419.102 120.793 416.514 123.753 413.809L120.38 410.118C117.505 412.746 114.55 415.265 111.527 417.694L114.66 421.591ZM132.311 405.408C135.039 402.525 137.68 399.514 140.22 396.359L136.326 393.224C133.873 396.27 131.32 399.181 128.679 401.972L132.311 405.408ZM147.368 386.681C149.57 383.419 151.67 380.016 153.657 376.457L149.291 374.02C147.374 377.454 145.348 380.737 143.224 383.883L147.368 386.681ZM159.065 365.74C160.682 362.18 162.193 358.479 163.59 354.627L158.889 352.922C157.536 356.653 156.075 360.233 154.513 363.672L159.065 365.74ZM167.26 343.216C168.317 339.475 169.275 335.603 170.129 331.594L165.238 330.553C164.407 334.458 163.475 338.223 162.448 341.856L167.26 343.216ZM172.265 319.828C172.848 315.991 173.342 312.038 173.742 307.962L168.766 307.473C168.374 311.464 167.891 315.33 167.322 319.077L172.265 319.828ZM174.628 296.017C174.826 292.149 174.945 288.177 174.984 284.098L169.984 284.051C169.946 288.063 169.829 291.965 169.635 295.762L174.628 296.017ZM174.874 272.268C174.768 268.399 174.594 264.44 174.349 260.387L169.358 260.688C169.6 264.688 169.771 268.593 169.876 272.405L174.874 272.268ZM173.442 248.416C173.096 244.594 172.691 240.693 172.224 236.711L167.258 237.293C167.72 241.232 168.121 245.089 168.462 248.867L173.442 248.416ZM171.479 230.678C171.218 228.672 170.992 226.678 170.8 224.698L165.823 225.181C166.021 227.215 166.253 229.262 166.52 231.322L171.479 230.678ZM170.041 212.826C169.918 208.806 169.934 204.842 170.08 200.934L165.084 200.747C164.933 204.768 164.917 208.846 165.043 212.979L170.041 212.826ZM170.935 189.073C171.361 185.086 171.923 181.16 172.61 177.297L167.687 176.421C166.98 180.398 166.402 184.438 165.963 188.541L170.935 189.073ZM175.095 165.66C176.065 161.778 177.159 157.962 178.368 154.213L173.609 152.679C172.367 156.532 171.241 160.455 170.244 164.448L175.095 165.66ZM182.393 143.002C183.865 139.285 185.447 135.639 187.128 132.064L182.603 129.936C180.88 133.603 179.256 137.345 177.745 141.161L182.393 143.002ZM192.524 121.426C194.438 117.911 196.444 114.472 198.528 111.109L194.278 108.475C192.146 111.915 190.093 115.435 188.133 119.034L192.524 121.426ZM205.09 101.127C207.381 97.8328 209.742 94.6192 212.16 91.4868L208.201 88.4321C205.735 91.6273 203.325 94.9075 200.985 98.2723L205.09 101.127ZM219.688 82.1913C222.295 79.1196 224.948 76.1358 227.632 73.2406L223.964 69.8417C221.234 72.7881 218.532 75.8263 215.876 78.9558L219.688 82.1913ZM235.947 64.6334C238.819 61.7795 241.707 59.0245 244.595 56.3691L241.21 52.6888C238.277 55.386 235.342 58.1855 232.423 61.0869L235.947 64.6334ZM253.582 48.4071C256.703 45.7429 259.801 43.1979 262.853 40.7729L259.742 36.8582C256.646 39.318 253.503 41.9004 250.336 44.6045L253.582 48.4071ZM272.35 33.487C275.713 30.9967 278.983 28.6659 282.127 26.496L279.287 22.3809C276.099 24.5808 272.784 26.9439 269.374 29.4691L272.35 33.487ZM292.072 19.8734C295.789 17.4868 299.221 15.3824 302.287 13.5632L299.736 9.26304C296.622 11.1104 293.141 13.2456 289.371 15.6659L292.072 19.8734ZM312.762 7.63042C314.428 6.73521 315.728 6.06367 316.607 5.61773C317.047 5.39476 317.382 5.22821 317.604 5.11831C317.716 5.06336 317.799 5.02258 317.854 4.996C317.881 4.9827 317.901 4.97296 317.914 4.96677C317.92 4.96367 317.925 4.96147 317.928 4.96015C317.929 4.95949 317.93 4.95905 317.93 4.95884C317.93 4.95873 317.931 4.95868 317.931 4.95868C317.931 4.95868 317.931 4.9587 317.93 4.95873C317.93 4.95875 317.93 4.95878 317.93 4.95879C317.93 4.95882 317.93 4.95886 316.847 2.70557C315.764 0.452272 315.764 0.452318 315.764 0.452368C315.764 0.45239 315.764 0.452443 315.764 0.452486C315.764 0.452571 315.764 0.452671 315.763 0.452784C315.763 0.453011 315.762 0.453293 315.762 0.453631C315.76 0.454307 315.758 0.455207 315.756 0.45633C315.751 0.458575 315.745 0.461713 315.737 0.465744C315.72 0.473805 315.696 0.485435 315.665 0.50063C315.602 0.53102 315.511 0.575672 315.392 0.634558C315.153 0.752327 314.802 0.927034 314.346 1.15844C313.433 1.62125 312.099 2.31093 310.396 3.22561L312.762 7.63042Z" fill="url(#paint0_linear)"/>
<defs>
<linearGradient id="paint0_linear" x1="162.219" y1="-221.128" x2="-263.159" y2="66.1173" gradientUnits="userSpaceOnUse">
<stop stop-color="#FFC745"/>
<stop offset="1" stop-color="#1BAA3A"/>
</linearGradient>
</defs>
</svg>
