<svg width="180" height="91" viewBox="0 0 180 91" fill="none" xmlns="http://www.w3.org/2000/svg">
<g filter="url(#filter0_i)">
<path d="M164.857 90.7143C173.063 90.7143 179.714 84.0625 179.714 75.8571C179.714 67.6518 173.063 61 164.857 61C156.652 61 150 67.6518 150 75.8571C150 84.0625 156.652 90.7143 164.857 90.7143Z" fill="#FFC745"/>
</g>
<path d="M178.964 75.8571C178.964 83.6483 172.648 89.9643 164.857 89.9643C157.066 89.9643 150.75 83.6483 150.75 75.8571C150.75 68.066 157.066 61.75 164.857 61.75C172.648 61.75 178.964 68.066 178.964 75.8571Z" stroke="black" stroke-width="1.5"/>
<g filter="url(#filter1_i)">
<path d="M14.8571 29.7143C23.0625 29.7143 29.7143 23.0625 29.7143 14.8571C29.7143 6.65177 23.0625 0 14.8571 0C6.65177 0 0 6.65177 0 14.8571C0 23.0625 6.65177 29.7143 14.8571 29.7143Z" fill="#FFC745"/>
</g>
<path d="M28.9643 14.8571C28.9643 22.6483 22.6483 28.9643 14.8571 28.9643C7.06598 28.9643 0.75 22.6483 0.75 14.8571C0.75 7.06598 7.06598 0.75 14.8571 0.75C22.6483 0.75 28.9643 7.06598 28.9643 14.8571Z" stroke="black" stroke-width="1.5"/>
<path d="M41.0841 27.9633C40.5115 27.3646 39.562 27.3434 38.9633 27.9159C38.3646 28.4885 38.3434 29.438 38.9159 30.0367L41.0841 27.9633ZM41.285 32.2211C41.9131 32.7612 42.8602 32.6898 43.4003 32.0616C43.9404 31.4335 43.869 30.4864 43.2408 29.9463L41.285 32.2211ZM47.9918 33.6751C47.3207 33.1894 46.3829 33.3396 45.8972 34.0107C45.4114 34.6818 45.5617 35.6196 46.2328 36.1053L47.9918 33.6751ZM51.4107 39.6001C52.1114 40.042 53.0377 39.8323 53.4797 39.1316C53.9216 38.4308 53.7118 37.5046 53.0111 37.0626L51.4107 39.6001ZM58.2581 40.1666C57.5338 39.7645 56.6207 40.0258 56.2186 40.7501C55.8165 41.4744 56.0778 42.3875 56.8021 42.7896L58.2581 40.1666ZM62.3352 45.6768C63.0791 46.0415 63.9777 45.7341 64.3424 44.9902C64.7071 44.2464 64.3997 43.3478 63.6558 42.9831L62.3352 45.6768ZM69.1819 45.53C68.4217 45.201 67.5386 45.5506 67.2096 46.3109C66.8805 47.0711 67.2301 47.9542 67.9904 48.2832L69.1819 45.53ZM73.7669 50.6298C74.5411 50.9245 75.4077 50.5357 75.7024 49.7615C75.9971 48.9872 75.6083 48.1207 74.8341 47.826L73.7669 50.6298ZM80.5885 49.8763C79.8024 49.6147 78.9532 50.0399 78.6916 50.826C78.4301 51.612 78.8553 52.4613 79.6413 52.7228L80.5885 49.8763ZM85.5847 54.5669C86.3807 54.7965 87.2121 54.3374 87.4417 53.5414C87.6712 52.7454 87.2121 51.914 86.4161 51.6844L85.5847 54.5669ZM92.3128 53.2617C91.5086 53.063 90.6955 53.5539 90.4968 54.3582C90.2981 55.1624 90.789 55.9755 91.5932 56.1742L92.3128 53.2617ZM97.6732 57.5566C98.4842 57.7254 99.2786 57.2048 99.4474 56.3937C99.6162 55.5827 99.0955 54.7884 98.2845 54.6195L97.6732 57.5566ZM104.291 55.7585C103.474 55.6184 102.699 56.1668 102.559 56.9833C102.419 57.7998 102.967 58.5753 103.784 58.7153L104.291 55.7585ZM109.919 59.6601C110.739 59.7724 111.496 59.1981 111.608 58.3773C111.721 57.5565 111.146 56.8001 110.325 56.6878L109.919 59.6601ZM116.395 57.4176C115.571 57.332 114.834 57.9306 114.748 58.7545C114.663 59.5785 115.261 60.3159 116.085 60.4016L116.395 57.4176ZM122.273 60.9468C123.099 61.0067 123.818 60.3855 123.878 59.5593C123.938 58.733 123.317 58.0146 122.49 57.9547L122.273 60.9468ZM128.601 58.3059C127.774 58.2706 127.074 58.913 127.039 59.7406C127.004 60.5683 127.646 61.2679 128.474 61.3032L128.601 58.3059ZM134.68 61.4782C135.509 61.4898 136.19 60.8276 136.201 59.9993C136.213 59.171 135.551 58.4901 134.722 58.4785L134.68 61.4782ZM40 29C38.9159 30.0367 38.916 30.0368 38.9161 30.0369C38.9162 30.037 38.9163 30.0371 38.9163 30.0371C38.9165 30.0373 38.9166 30.0375 38.9168 30.0376C38.9171 30.038 38.9175 30.0384 38.9179 30.0388C38.9188 30.0397 38.9198 30.0408 38.9211 30.0421C38.9235 30.0446 38.9267 30.0479 38.9306 30.0519C38.9384 30.06 38.9491 30.071 38.9628 30.085C38.9901 30.1129 39.0291 30.1525 39.08 30.2033C39.1817 30.3048 39.3306 30.4511 39.5273 30.6382C39.9206 31.0126 40.505 31.5505 41.285 32.2211L43.2408 29.9463C42.5004 29.3097 41.9534 28.8058 41.5954 28.465C41.4164 28.2947 41.2846 28.1651 41.1996 28.0802C41.1571 28.0378 41.1262 28.0065 41.107 27.9868C41.0974 27.977 41.0907 27.9701 41.0869 27.9662C41.0849 27.9642 41.0838 27.9629 41.0833 27.9625C41.0831 27.9622 41.083 27.9622 41.0831 27.9623C41.0832 27.9624 41.0833 27.9625 41.0835 27.9627C41.0836 27.9627 41.0836 27.9628 41.0837 27.9629C41.0838 27.963 41.0839 27.9631 41.0839 27.9631C41.084 27.9632 41.0841 27.9633 40 29ZM46.2328 36.1053C47.7232 37.1841 49.4474 38.3618 51.4107 39.6001L53.0111 37.0626C51.1034 35.8594 49.4321 34.7176 47.9918 33.6751L46.2328 36.1053ZM56.8021 42.7896C58.5175 43.7418 60.3612 44.7091 62.3352 45.6768L63.6558 42.9831C61.7283 42.0382 59.9298 41.0945 58.2581 40.1666L56.8021 42.7896ZM67.9904 48.2832C69.8246 49.077 71.7496 49.8619 73.7669 50.6298L74.8341 47.826C72.8591 47.0743 70.9755 46.3062 69.1819 45.53L67.9904 48.2832ZM79.6413 52.7228C81.5513 53.3584 83.5322 53.9749 85.5847 54.5669L86.4161 51.6844C84.4026 51.1037 82.4604 50.4991 80.5885 49.8763L79.6413 52.7228ZM91.5932 56.1742C93.5612 56.6604 95.5877 57.1225 97.6732 57.5566L98.2845 54.6195C96.2353 54.1931 94.245 53.7391 92.3128 53.2617L91.5932 56.1742ZM103.784 58.7153C105.78 59.0575 107.824 59.3735 109.919 59.6601L110.325 56.6878C108.265 56.4058 106.253 56.095 104.291 55.7585L103.784 58.7153ZM116.085 60.4016C118.105 60.6115 120.168 60.794 122.273 60.9468L122.49 57.9547C120.416 57.8041 118.384 57.6244 116.395 57.4176L116.085 60.4016ZM128.474 61.3032C130.505 61.3898 132.574 61.4487 134.68 61.4782L134.722 58.4785C132.645 58.4494 130.604 58.3912 128.601 58.3059L128.474 61.3032Z" fill="#FFC745"/>
<defs>
<filter id="filter0_i" x="150" y="61" width="29.7143" height="29.7143" filterUnits="userSpaceOnUse" color-interpolation-filters="sRGB">
<feFlood flood-opacity="0" result="BackgroundImageFix"/>
<feBlend mode="normal" in="SourceGraphic" in2="BackgroundImageFix" result="shape"/>
<feColorMatrix in="SourceAlpha" type="matrix" values="0 0 0 0 0 0 0 0 0 0 0 0 0 0 0 0 0 0 127 0" result="hardAlpha"/>
<feOffset dx="2" dy="4"/>
<feComposite in2="hardAlpha" operator="arithmetic" k2="-1" k3="1"/>
<feColorMatrix type="matrix" values="0 0 0 0 0.984314 0 0 0 0 0.992157 0 0 0 0 0.992157 0 0 0 1 0"/>
<feBlend mode="normal" in2="shape" result="effect1_innerShadow"/>
</filter>
<filter id="filter1_i" x="0" y="0" width="29.7143" height="29.7143" filterUnits="userSpaceOnUse" color-interpolation-filters="sRGB">
<feFlood flood-opacity="0" result="BackgroundImageFix"/>
<feBlend mode="normal" in="SourceGraphic" in2="BackgroundImageFix" result="shape"/>
<feColorMatrix in="SourceAlpha" type="matrix" values="0 0 0 0 0 0 0 0 0 0 0 0 0 0 0 0 0 0 127 0" result="hardAlpha"/>
<feOffset dx="2" dy="4"/>
<feComposite in2="hardAlpha" operator="arithmetic" k2="-1" k3="1"/>
<feColorMatrix type="matrix" values="0 0 0 0 0.984314 0 0 0 0 0.992157 0 0 0 0 0.992157 0 0 0 1 0"/>
<feBlend mode="normal" in2="shape" result="effect1_innerShadow"/>
</filter>
</defs>
</svg>
