<svg width="181" height="133" viewBox="0 0 181 133" fill="none" xmlns="http://www.w3.org/2000/svg">
<path d="M34.105 5.46837C35.3432 4.85728 35.8515 3.3582 35.2404 2.12009C34.6293 0.881969 33.1302 0.373663 31.8921 0.984753L34.105 5.46837ZM6.99857 59.4414L9.28268 58.4251L6.99857 59.4414ZM180.999 128.5L164.467 104.835L152.238 130.984L180.999 128.5ZM26.6914 4.02224C25.532 4.77192 25.1998 6.31959 25.9495 7.47904C26.6991 8.6385 28.2468 8.97069 29.4063 8.22101L26.6914 4.02224ZM20.6144 14.9383C21.6398 14.0136 21.7213 12.4328 20.7966 11.4074C19.8719 10.3821 18.2911 10.3005 17.2658 11.2252L20.6144 14.9383ZM9.19211 20.0439C8.37206 21.1547 8.60777 22.72 9.71857 23.54C10.8294 24.3601 12.3946 24.1244 13.2147 23.0136L9.19211 20.0439ZM8.00165 32.4214C8.49038 31.1301 7.83975 29.687 6.54843 29.1983C5.25711 28.7096 3.8141 29.3602 3.32537 30.6515L8.00165 32.4214ZM0.934417 42.6679C0.898028 44.0482 1.98743 45.1966 3.36766 45.233C4.74789 45.2694 5.89629 44.18 5.93268 42.7997L0.934417 42.6679ZM7.38903 53.3335C6.99477 52.0103 5.60248 51.2572 4.27925 51.6514C2.95603 52.0457 2.20294 53.438 2.5972 54.7612L7.38903 53.3335ZM7.23793 66.0244C7.81707 67.2778 9.30262 67.8244 10.556 67.2452C11.8094 66.6661 12.356 65.1806 11.7768 63.9272L7.23793 66.0244ZM16.8633 74.4917C16.243 73.2582 14.7401 72.7611 13.5066 73.3814C12.2731 74.0018 11.776 75.5046 12.3964 76.7381L16.8633 74.4917ZM17.9734 87.2803C18.6466 88.4859 20.1695 88.9174 21.375 88.2443C22.5805 87.5712 23.0121 86.0483 22.339 84.8427L17.9734 87.2803ZM28.3059 94.8661C27.5633 93.7021 26.0177 93.3605 24.8537 94.1031C23.6897 94.8457 23.3481 96.3913 24.0907 97.5553L28.3059 94.8661ZM30.897 107.364C31.7331 108.463 33.3016 108.676 34.4004 107.84C35.4992 107.004 35.7123 105.435 34.8763 104.337L30.897 107.364ZM42.3985 113.121C41.4325 112.135 39.8497 112.118 38.8631 113.084C37.8766 114.05 37.8599 115.633 38.8258 116.619L42.3985 113.121ZM48.1365 124.583C49.271 125.369 50.8287 125.088 51.6155 123.953C52.4023 122.818 52.1205 121.261 50.9859 120.474L48.1365 124.583ZM60.8385 125.569C59.5348 125.114 58.1093 125.803 57.6547 127.106C57.2001 128.41 57.8884 129.835 59.1921 130.29L60.8385 125.569ZM71.4609 132.608C72.8402 132.669 74.008 131.601 74.0692 130.221C74.1304 128.842 73.0618 127.674 71.6824 127.613L71.4609 132.608ZM82.9407 126.844C81.5777 127.065 80.6515 128.349 80.872 129.712C81.0925 131.075 82.3762 132.001 83.7392 131.78L82.9407 126.844ZM95.5271 129.198C96.8633 128.851 97.6645 127.485 97.3167 126.149C96.9689 124.813 95.6038 124.012 94.2676 124.36L95.5271 129.198ZM105.649 121.266C104.317 121.627 103.528 123 103.889 124.332C104.25 125.665 105.622 126.453 106.955 126.093L105.649 121.266ZM118.302 123.283C119.652 122.992 120.511 121.662 120.22 120.313C119.929 118.963 118.599 118.105 117.249 118.395L118.302 123.283ZM129.145 116.399C127.773 116.556 126.789 117.795 126.946 119.167C127.103 120.539 128.342 121.523 129.714 121.366L129.145 116.399ZM141.189 120.774C142.57 120.794 143.705 119.691 143.726 118.311C143.746 116.93 142.643 115.795 141.262 115.775L141.189 120.774ZM153.394 116.806C152.03 116.592 150.751 117.525 150.537 118.889C150.323 120.253 151.256 121.532 152.62 121.746L153.394 116.806ZM163.796 124.294C165.119 124.69 166.512 123.939 166.908 122.616C167.304 121.294 166.553 119.9 165.23 119.504L163.796 124.294ZM176.582 123.676C175.316 123.125 173.843 123.705 173.292 124.971C172.741 126.237 173.321 127.71 174.587 128.26L176.582 123.676ZM32.9986 3.22656C31.8921 0.984753 31.8919 0.984855 31.8917 0.984961C31.8916 0.985001 31.8914 0.985111 31.8912 0.985192C31.8909 0.985354 31.8905 0.98553 31.8901 0.985722C31.8894 0.986106 31.8885 0.986551 31.8874 0.987056C31.8854 0.988067 31.8829 0.98932 31.8799 0.990816C31.8738 0.993808 31.8659 0.997771 31.856 1.0027C31.8364 1.01256 31.8091 1.0263 31.7744 1.0439C31.7052 1.0791 31.6065 1.12975 31.4805 1.19575C31.2286 1.32774 30.8671 1.5212 30.4123 1.77526C29.5032 2.28315 28.2191 3.03449 26.6914 4.02224L29.4063 8.22101C30.8329 7.29858 32.0237 6.60239 32.8508 6.14029C33.2642 5.90936 33.5862 5.73722 33.8007 5.62484C33.9079 5.56866 33.9883 5.52745 34.0397 5.50132C34.0654 5.48826 34.0839 5.47898 34.0948 5.47348C34.1003 5.47073 34.1039 5.46893 34.1057 5.46808C34.1065 5.46765 34.1069 5.46746 34.1068 5.46751C34.1067 5.46754 34.1066 5.46762 34.1063 5.46776C34.1061 5.46783 34.106 5.46792 34.1058 5.46802C34.1057 5.46807 34.1055 5.46816 34.1054 5.46819C34.1052 5.46828 34.105 5.46837 32.9986 3.22656ZM17.2658 11.2252C14.5056 13.7145 11.6908 16.6593 9.19211 20.0439L13.2147 23.0136C15.4752 19.9516 18.0491 17.2518 20.6144 14.9383L17.2658 11.2252ZM3.32537 30.6515C1.93099 34.3358 1.04829 38.3489 0.934417 42.6679L5.93268 42.7997C6.0305 39.0896 6.78763 35.6291 8.00165 32.4214L3.32537 30.6515ZM2.5972 54.7612C3.15281 56.626 3.85461 58.5252 4.71447 60.4577L9.28268 58.4251C8.5068 56.6813 7.88078 54.9839 7.38903 53.3335L2.5972 54.7612ZM4.71447 60.4577C5.561 62.3602 6.40208 64.2154 7.23793 66.0244L11.7768 63.9272C10.9513 62.1405 10.1199 60.3068 9.28268 58.4251L4.71447 60.4577ZM12.3964 76.7381C14.2791 80.4818 16.1371 83.9917 17.9734 87.2803L22.339 84.8427C20.5409 81.6224 18.7165 78.1767 16.8633 74.4917L12.3964 76.7381ZM24.0907 97.5553C26.3852 101.152 28.6518 104.413 30.897 107.364L34.8763 104.337C32.7234 101.507 30.535 98.3601 28.3059 94.8661L24.0907 97.5553ZM38.8258 116.619C41.9435 119.804 45.0407 122.436 48.1365 124.583L50.9859 120.474C48.18 118.528 45.322 116.107 42.3985 113.121L38.8258 116.619ZM59.1921 130.29C63.296 131.721 67.3779 132.427 71.4609 132.608L71.6824 127.613C68.0366 127.451 64.4395 126.825 60.8385 125.569L59.1921 130.29ZM83.7392 131.78C87.6344 131.15 91.5615 130.231 95.5271 129.198L94.2676 124.36C90.369 125.374 86.6132 126.25 82.9407 126.844L83.7392 131.78ZM106.955 126.093C110.657 125.091 114.425 124.118 118.302 123.283L117.249 118.395C113.248 119.257 109.384 120.256 105.649 121.266L106.955 126.093ZM129.714 121.366C133.426 120.941 137.244 120.716 141.189 120.774L141.262 115.775C137.079 115.713 133.045 115.952 129.145 116.399L129.714 121.366ZM152.62 121.746C156.227 122.311 159.948 123.142 163.796 124.294L165.23 119.504C161.165 118.287 157.223 117.406 153.394 116.806L152.62 121.746Z" fill="#FFC745"/>
</svg>
