<svg width="465" height="378" viewBox="0 0 465 378" fill="none" xmlns="http://www.w3.org/2000/svg">
<path d="M211.996 155L209.517 154.678L211.996 155ZM464.457 357L444.258 377.624L436.497 349.819L464.457 357ZM459.351 361.021C458.018 361.382 456.645 360.594 456.284 359.261C455.924 357.928 456.712 356.555 458.044 356.195L459.351 361.021ZM446.296 359.179C447.64 358.86 448.987 359.69 449.307 361.033C449.626 362.376 448.796 363.724 447.453 364.043L446.296 359.179ZM435.6 366.674C434.247 366.953 432.925 366.083 432.646 364.731C432.367 363.379 433.237 362.056 434.59 361.777L435.6 366.674ZM422.686 364.043C424.046 363.806 425.341 364.716 425.578 366.077C425.815 367.437 424.905 368.732 423.545 368.969L422.686 364.043ZM411.464 370.877C410.097 371.071 408.832 370.119 408.639 368.752C408.445 367.385 409.397 366.12 410.764 365.927L411.464 370.877ZM398.821 367.412C400.194 367.265 401.426 368.259 401.573 369.632C401.72 371.005 400.726 372.237 399.353 372.384L398.821 367.412ZM387.173 373.466C385.796 373.563 384.601 372.525 384.504 371.148C384.407 369.77 385.445 368.575 386.823 368.478L387.173 373.466ZM374.795 369.088C376.175 369.046 377.328 370.131 377.37 371.511C377.412 372.891 376.328 374.044 374.948 374.086L374.795 369.088ZM362.697 374.2C361.316 374.182 360.211 373.049 360.229 371.668C360.246 370.288 361.38 369.183 362.76 369.2L362.697 374.2ZM350.744 368.766C352.123 368.849 353.172 370.034 353.089 371.412C353.006 372.791 351.821 373.84 350.443 373.757L350.744 368.766ZM338.215 372.7C336.843 372.544 335.857 371.305 336.013 369.933C336.169 368.561 337.407 367.576 338.779 367.732L338.215 372.7ZM326.906 366.035C328.266 366.271 329.178 367.565 328.942 368.926C328.706 370.286 327.412 371.198 326.051 370.962L326.906 366.035ZM314.005 368.471C312.662 368.147 311.837 366.796 312.162 365.454C312.486 364.112 313.837 363.287 315.179 363.611L314.005 368.471ZM303.666 360.392C304.981 360.812 305.706 362.219 305.285 363.535C304.865 364.85 303.457 365.575 302.142 365.154L303.666 360.392ZM290.552 360.935C289.275 360.411 288.665 358.95 289.19 357.673C289.715 356.396 291.176 355.786 292.453 356.31L290.552 360.935ZM281.642 351.311C282.868 351.946 283.347 353.455 282.713 354.681C282.078 355.907 280.569 356.386 279.343 355.752L281.642 351.311ZM268.641 349.561C267.481 348.813 267.146 347.266 267.894 346.105C268.641 344.944 270.189 344.61 271.349 345.357L268.641 349.561ZM261.698 338.44C262.778 339.3 262.957 340.872 262.097 341.953C261.238 343.033 259.665 343.212 258.584 342.352L261.698 338.44ZM249.306 334.16C248.319 333.194 248.302 331.611 249.268 330.624C250.234 329.638 251.816 329.621 252.803 330.587L249.306 334.16ZM244.76 321.861C245.643 322.923 245.498 324.499 244.437 325.382C243.375 326.265 241.799 326.12 240.916 325.058L244.76 321.861ZM233.488 315.156C232.715 314.012 233.016 312.458 234.16 311.685C235.304 310.912 236.858 311.212 237.631 312.356L233.488 315.156ZM231.435 302.175C232.097 303.387 231.652 304.906 230.441 305.568C229.229 306.23 227.71 305.785 227.048 304.573L231.435 302.175ZM221.591 293.45C221.037 292.186 221.612 290.711 222.877 290.157C224.142 289.602 225.616 290.178 226.17 291.443L221.591 293.45ZM221.846 280.403C222.3 281.707 221.61 283.132 220.306 283.586C219.002 284.039 217.577 283.35 217.124 282.046L221.846 280.403ZM213.513 270.33C213.153 268.997 213.941 267.625 215.274 267.264C216.607 266.903 217.979 267.692 218.34 269.024L213.513 270.33ZM215.579 257.328C215.854 258.681 214.981 260 213.628 260.276C212.275 260.551 210.955 259.677 210.68 258.324L215.579 257.328ZM208.575 246.186C208.377 244.82 209.324 243.551 210.691 243.354C212.057 243.156 213.325 244.103 213.523 245.469L208.575 246.186ZM212.118 233.664C212.248 235.039 211.239 236.258 209.864 236.388C208.489 236.517 207.27 235.508 207.14 234.133L212.118 233.664ZM206.265 221.808C206.198 220.429 207.261 219.256 208.64 219.189C210.019 219.122 211.192 220.186 211.259 221.565L206.265 221.808ZM210.92 209.626C210.932 211.007 209.823 212.136 208.442 212.148C207.062 212.16 205.933 211.051 205.92 209.67L210.92 209.626ZM206.039 197.433C206.077 196.052 207.226 194.964 208.606 195.002C209.986 195.04 211.075 196.19 211.037 197.57L206.039 197.433ZM211.568 185.519C211.485 186.897 210.3 187.947 208.922 187.865C207.544 187.782 206.494 186.597 206.577 185.219L211.568 185.519ZM207.489 173.079C207.612 171.703 208.827 170.689 210.202 170.812C211.577 170.935 212.592 172.15 212.469 173.525L207.489 173.079ZM213.712 161.506C213.552 162.877 212.31 163.859 210.939 163.699C209.568 163.538 208.586 162.297 208.746 160.925L213.712 161.506ZM210.158 148.74C210.276 147.364 211.486 146.344 212.862 146.462C214.238 146.58 215.258 147.791 215.14 149.166L210.158 148.74ZM215.614 137.04C215.627 138.42 214.518 139.55 213.137 139.562C211.756 139.575 210.627 138.466 210.614 137.085L215.614 137.04ZM209.905 125.466C209.746 124.095 210.73 122.855 212.102 122.696C213.473 122.538 214.714 123.522 214.872 124.894L209.905 125.466ZM212.786 112.874C213.101 114.218 212.266 115.564 210.922 115.879C209.578 116.194 208.233 115.359 207.918 114.015L212.786 112.874ZM204.59 102.894C204.114 101.598 204.779 100.161 206.075 99.6852C207.371 99.2092 208.807 99.874 209.283 101.17L204.59 102.894ZM204.372 89.9809C205.004 91.2087 204.52 92.716 203.292 93.3475C202.065 93.979 200.557 93.4956 199.926 92.2678L204.372 89.9809ZM194.002 82.2777C193.228 81.1338 193.529 79.5796 194.673 78.8064C195.817 78.0332 197.371 78.3337 198.144 79.4776L194.002 82.2777ZM190.755 69.7759C191.651 70.8267 191.525 72.4046 190.474 73.3002C189.423 74.1958 187.845 74.0699 186.95 73.0191L190.755 69.7759ZM178.933 64.5381C177.936 63.5829 177.903 62.0004 178.858 61.0034C179.813 60.0064 181.396 59.9726 182.393 60.9278L178.933 64.5381ZM173.242 52.9313C174.321 53.7933 174.497 55.3665 173.635 56.445C172.773 57.5236 171.199 57.6992 170.121 56.8371L173.242 52.9313ZM160.667 49.887C159.524 49.1127 159.225 47.5582 160 46.4151C160.774 45.272 162.328 44.9731 163.472 45.7474L160.667 49.887ZM153.222 39.3192C154.415 40.0129 154.821 41.543 154.127 42.7368C153.433 43.9306 151.903 44.336 150.71 43.6423L153.222 39.3192ZM140.35 38.0435C139.117 37.4232 138.62 35.9204 139.24 34.6868C139.86 33.4533 141.363 32.9561 142.596 33.5764L140.35 38.0435ZM131.676 28.452C132.941 29.0058 133.518 30.48 132.964 31.7448C132.41 33.0096 130.936 33.586 129.671 33.0322L131.676 28.452ZM118.738 28.5552C117.448 28.0617 116.803 26.6162 117.297 25.3267C117.79 24.0373 119.236 23.392 120.525 23.8856L118.738 28.5552ZM109.191 19.8236C110.5 20.2625 111.206 21.6795 110.767 22.9886C110.328 24.2977 108.911 25.0032 107.602 24.5643L109.191 19.8236ZM96.304 21.0172C94.9792 20.6282 94.2206 19.2389 94.6096 17.9141C94.9986 16.5893 96.3879 15.8307 97.7127 16.2197L96.304 21.0172ZM86.1194 13.0344C87.4568 13.3776 88.2627 14.74 87.9195 16.0774C87.5763 17.4147 86.214 18.2207 84.8766 17.8775L86.1194 13.0344ZM73.3482 15.1148C72.0007 14.814 71.1522 13.4777 71.453 12.1302C71.7538 10.7827 73.0901 9.93412 74.4376 10.2349L73.3482 15.1148ZM62.6942 7.79525C64.05 8.0565 64.9373 9.36736 64.676 10.7231C64.4148 12.0789 63.1039 12.9662 61.7481 12.7049L62.6942 7.79525ZM50.0956 10.6268C48.7332 10.403 47.8102 9.11703 48.034 7.75458C48.2578 6.39213 49.5438 5.46912 50.9062 5.69297L50.0956 10.6268ZM38.9828 3.89716C40.3507 4.08473 41.3076 5.3457 41.12 6.71361C40.9324 8.08152 39.6715 9.03838 38.3036 8.85081L38.9828 3.89716ZM26.557 7.39519C25.1847 7.24321 24.1954 6.00752 24.3474 4.6352C24.4993 3.26288 25.735 2.2736 27.1074 2.42558L26.557 7.39519ZM15.1094 1.25891C16.4853 1.37372 17.5077 2.58221 17.3929 3.95814C17.278 5.33407 16.0695 6.3564 14.6936 6.24159L15.1094 1.25891ZM2.95862 5.43885C1.57974 5.36742 0.519867 4.19172 0.591309 2.81286C0.66275 1.434 1.83844 0.374116 3.21729 0.445552L2.95862 5.43885ZM447.453 364.043C443.823 364.906 439.856 365.796 435.6 366.674L434.59 361.777C438.793 360.91 442.712 360.031 446.296 359.179L447.453 364.043ZM423.545 368.969C419.674 369.644 415.638 370.287 411.464 370.877L410.764 365.927C414.882 365.344 418.865 364.709 422.686 364.043L423.545 368.969ZM399.353 372.384C395.379 372.809 391.313 373.175 387.173 373.466L386.823 368.478C390.898 368.192 394.904 367.832 398.821 367.412L399.353 372.384ZM374.948 374.086C370.908 374.21 366.819 374.252 362.697 374.2L362.76 369.2C366.806 369.252 370.823 369.21 374.795 369.088L374.948 374.086ZM350.443 373.757C346.378 373.512 342.297 373.163 338.215 372.7L338.779 367.732C342.769 368.185 346.762 368.526 350.744 368.766L350.443 373.757ZM326.051 370.962C322.017 370.262 317.996 369.436 314.005 368.471L315.179 363.611C319.059 364.549 322.973 365.353 326.906 366.035L326.051 370.962ZM302.142 365.154C298.23 363.903 294.362 362.5 290.552 360.935L292.453 356.31C296.133 357.822 299.875 359.179 303.666 360.392L302.142 365.154ZM279.343 355.752C275.698 353.865 272.125 351.805 268.641 349.561L271.349 345.357C274.696 347.513 278.131 349.494 281.642 351.311L279.343 355.752ZM258.584 342.352C255.389 339.809 252.291 337.082 249.306 334.16L252.803 330.587C255.664 333.387 258.633 336.001 261.698 338.44L258.584 342.352ZM240.916 325.058C238.324 321.941 235.844 318.643 233.488 315.156L237.631 312.356C239.895 315.707 242.275 318.872 244.76 321.861L240.916 325.058ZM227.048 304.573C225.113 301.033 223.291 297.327 221.591 293.45L226.17 291.443C227.813 295.189 229.571 298.765 231.435 302.175L227.048 304.573ZM217.124 282.046C215.814 278.284 214.609 274.38 213.513 270.33L218.34 269.024C219.406 272.964 220.576 276.755 221.846 280.403L217.124 282.046ZM210.68 258.324C209.882 254.402 209.179 250.358 208.575 246.186L213.523 245.469C214.115 249.55 214.802 253.502 215.579 257.328L210.68 258.324ZM207.14 234.133C206.763 230.133 206.47 226.025 206.265 221.808L211.259 221.565C211.461 225.709 211.748 229.741 212.118 233.664L207.14 234.133ZM205.92 209.67C205.886 205.683 205.924 201.604 206.039 197.433L211.037 197.57C210.924 201.683 210.886 205.701 210.92 209.626L205.92 209.67ZM206.577 185.219C206.815 181.252 207.118 177.205 207.489 173.079L212.469 173.525C212.103 177.605 211.803 181.602 211.568 185.519L206.577 185.219ZM208.746 160.925C208.987 158.862 209.244 156.78 209.517 154.678L214.475 155.322C214.205 157.403 213.951 159.464 213.712 161.506L208.746 160.925ZM209.517 154.678C209.778 152.671 209.991 150.691 210.158 148.74L215.14 149.166C214.966 151.192 214.745 153.244 214.475 155.322L209.517 154.678ZM210.614 137.085C210.578 133.087 210.337 129.216 209.905 125.466L214.872 124.894C215.325 128.822 215.576 132.87 215.614 137.04L210.614 137.085ZM207.918 114.015C207.017 110.171 205.902 106.466 204.59 102.894L209.283 101.17C210.665 104.933 211.838 108.832 212.786 112.874L207.918 114.015ZM199.926 92.2678C198.143 88.8025 196.162 85.4743 194.002 82.2777L198.144 79.4776C200.413 82.8339 202.496 86.3331 204.372 89.9809L199.926 92.2678ZM186.95 73.0191C184.435 70.0678 181.756 67.2426 178.933 64.5381L182.393 60.9278C185.33 63.7425 188.125 66.6898 190.755 69.7759L186.95 73.0191ZM170.121 56.8371C167.084 54.41 163.927 52.095 160.667 49.887L163.472 45.7474C166.833 48.0246 170.097 50.4172 173.242 52.9313L170.121 56.8371ZM150.71 43.6423C147.33 41.6787 143.871 39.814 140.35 38.0435L142.596 33.5764C146.202 35.3894 149.75 37.3018 153.222 39.3192L150.71 43.6423ZM129.671 33.0322C126.064 31.4527 122.413 29.962 118.738 28.5552L120.525 23.8856C124.27 25.3188 127.993 26.8391 131.676 28.452L129.671 33.0322ZM107.602 24.5643C103.837 23.302 100.064 22.1214 96.304 21.0172L97.7127 16.2197C101.53 17.3406 105.363 18.5401 109.191 19.8236L107.602 24.5643ZM84.8766 17.8775C80.9924 16.8807 77.1425 15.9618 73.3482 15.1148L74.4376 10.2349C78.2803 11.0928 82.1815 12.0239 86.1194 13.0344L84.8766 17.8775ZM61.7481 12.7049C57.7616 11.9367 53.8681 11.2466 50.0956 10.6268L50.9062 5.69297C54.7214 6.3198 58.6601 7.01788 62.6942 7.79525L61.7481 12.7049ZM38.3036 8.85081C34.157 8.28224 30.2258 7.80151 26.557 7.39519L27.1074 2.42558C30.8165 2.83636 34.7908 3.32236 38.9828 3.89716L38.3036 8.85081ZM14.6936 6.24159C9.88571 5.8404 5.90805 5.59166 2.95862 5.43885L3.21729 0.445552C6.21448 0.600828 10.2447 0.852975 15.1094 1.25891L14.6936 6.24159Z" fill="url(#paint0_linear)"/>
<defs>
<linearGradient id="paint0_linear" x1="227.736" y1="-144.681" x2="504.365" y2="278.362" gradientUnits="userSpaceOnUse">
<stop stop-color="#FFC745"/>
<stop offset="1" stop-color="#1BAA3A"/>
</linearGradient>
</defs>
</svg>
