<svg width="165" height="344" viewBox="0 0 165 344" fill="none" xmlns="http://www.w3.org/2000/svg">
<path d="M139.999 109.857L141.723 108.047L139.999 109.857ZM0.214844 343.625L29.0817 343.438L14.4857 318.532L0.214844 343.625ZM6.59816 342.782C7.78512 342.077 8.17557 340.543 7.47024 339.356C6.76492 338.169 5.23092 337.778 4.04395 338.484L6.59816 342.782ZM14.1433 332.319C12.9734 333.052 12.6193 334.595 13.3525 335.765C14.0856 336.935 15.6284 337.289 16.7984 336.556L14.1433 332.319ZM26.8497 330.095C28.0026 329.335 28.3212 327.785 27.5615 326.632C26.8017 325.479 25.2512 325.16 24.0984 325.92L26.8497 330.095ZM33.9059 319.297C32.7705 320.082 32.4867 321.64 33.2722 322.775C34.0578 323.911 35.615 324.194 36.7505 323.409L33.9059 319.297ZM46.4978 316.503C47.6154 315.692 47.8641 314.129 47.0532 313.011C46.2424 311.894 44.6792 311.645 43.5616 312.456L46.4978 316.503ZM53.0591 305.4C51.9603 306.236 51.7472 307.804 52.5832 308.903C53.4191 310.002 54.9876 310.215 56.0865 309.379L53.0591 305.4ZM65.5093 302.037C66.5884 301.175 66.765 299.602 65.9036 298.523C65.0423 297.444 63.4693 297.267 62.3902 298.129L65.5093 302.037ZM71.5438 290.641C70.4858 291.529 70.3473 293.105 71.2343 294.163C72.1214 295.221 73.6983 295.36 74.7563 294.473L71.5438 290.641ZM83.8157 286.681C84.8509 285.768 84.9495 284.188 84.0359 283.153C83.1223 282.118 81.5425 282.019 80.5073 282.933L83.8157 286.681ZM89.2664 274.993C88.2561 275.934 88.2001 277.516 89.1412 278.526C90.0823 279.536 91.6643 279.592 92.6745 278.651L89.2664 274.993ZM101.311 270.372C102.293 269.402 102.304 267.819 101.334 266.837C100.364 265.854 98.7809 265.844 97.7983 266.814L101.311 270.372ZM106.076 258.385C105.124 259.386 105.164 260.968 106.164 261.92C107.165 262.871 108.747 262.831 109.699 261.831L106.076 258.385ZM117.805 253.01C118.721 251.977 118.627 250.397 117.594 249.481C116.561 248.565 114.981 248.66 114.064 249.693L117.805 253.01ZM121.72 240.721C120.845 241.789 121.001 243.364 122.069 244.239C123.137 245.115 124.712 244.958 125.587 243.891L121.72 240.721ZM132.989 234.45C133.816 233.345 133.591 231.778 132.485 230.951C131.38 230.124 129.813 230.349 128.986 231.455L132.989 234.45ZM135.788 221.878C135.018 223.024 135.323 224.577 136.469 225.347C137.615 226.117 139.169 225.812 139.938 224.665L135.788 221.878ZM146.352 214.491C147.052 213.301 146.655 211.769 145.465 211.069C144.275 210.368 142.742 210.766 142.042 211.956L146.352 214.491ZM147.638 201.645C147.024 202.882 147.529 204.382 148.766 204.996C150.003 205.609 151.503 205.104 152.117 203.867L147.638 201.645ZM157.034 192.819C157.539 191.534 156.906 190.083 155.621 189.578C154.336 189.073 152.885 189.706 152.38 190.991L157.034 192.819ZM156.069 179.986C155.702 181.317 156.484 182.693 157.815 183.06C159.146 183.427 160.522 182.645 160.889 181.314L156.069 179.986ZM163.387 169.357C163.579 167.99 162.625 166.726 161.258 166.535C159.89 166.344 158.627 167.297 158.436 168.665L163.387 169.357ZM159.158 157.217C159.183 158.597 160.321 159.697 161.702 159.673C163.082 159.649 164.182 158.51 164.158 157.129L159.158 157.217ZM162.852 144.879C162.58 143.526 161.262 142.648 159.909 142.92C158.555 143.192 157.678 144.509 157.949 145.863L162.852 144.879ZM154.656 134.976C155.18 136.253 156.641 136.863 157.918 136.338C159.195 135.813 159.805 134.353 159.28 133.075L154.656 134.976ZM153.538 122.15C152.787 120.991 151.239 120.661 150.081 121.412C148.922 122.163 148.592 123.711 149.343 124.87L153.538 122.15ZM142.344 115.829C143.273 116.85 144.854 116.926 145.876 115.997C146.898 115.068 146.973 113.487 146.044 112.465L142.344 115.829ZM137.344 103.804C136.361 102.834 134.778 102.845 133.809 103.828C132.84 104.812 132.851 106.394 133.834 107.364L137.344 103.804ZM125.235 98.5741C126.182 99.5787 127.764 99.6253 128.769 98.6782C129.773 97.731 129.82 96.1488 128.873 95.1442L125.235 98.5741ZM120.738 86.1703C119.831 85.129 118.252 85.0197 117.211 85.9263C116.169 86.8329 116.06 88.412 116.967 89.4534L120.738 86.1703ZM109.069 79.9812C109.93 81.0608 111.503 81.2384 112.582 80.3777C113.662 79.517 113.84 77.9441 112.979 76.8645L109.069 79.9812ZM105.666 67.239C104.858 66.1198 103.295 65.8679 102.176 66.6764C101.057 67.485 100.805 69.0477 101.613 70.1669L105.666 67.239ZM94.6461 59.9801C95.3949 61.1401 96.9424 61.4734 98.1024 60.7245C99.2624 59.9757 99.5957 58.4283 98.8468 57.2683L94.6461 59.9801ZM92.5935 46.9454C91.9135 45.7438 90.3882 45.3209 89.1865 46.0009C87.9849 46.6809 87.562 48.2063 88.242 49.4079L92.5935 46.9454ZM82.5099 38.475C83.1097 39.7186 84.6042 40.2404 85.8478 39.6405C87.0913 39.0406 87.6132 37.5461 87.0133 36.3026L82.5099 38.475ZM82.1866 25.2769C81.6824 23.9916 80.2317 23.3583 78.9463 23.8625C77.661 24.3667 77.0277 25.8174 77.5319 27.1027L82.1866 25.2769ZM73.4983 15.326C73.8837 16.6518 75.271 17.4142 76.5968 17.0288C77.9226 16.6433 78.685 15.2561 78.2996 13.9303L73.4983 15.326ZM75.639 2.33423C75.4209 0.970845 74.1389 0.0423896 72.7755 0.260464C71.4121 0.478538 70.4837 1.76056 70.7017 3.12394L75.639 2.33423ZM16.7984 336.556C20.1496 334.455 23.5024 332.301 26.8497 330.095L24.0984 325.92C20.7827 328.105 17.462 330.239 14.1433 332.319L16.7984 336.556ZM36.7505 323.409C40.0139 321.151 43.2652 318.848 46.4978 316.503L43.5616 312.456C40.3595 314.779 37.1387 317.06 33.9059 319.297L36.7505 323.409ZM56.0865 309.379C59.2547 306.969 62.3979 304.52 65.5093 302.037L62.3902 298.129C59.3095 300.588 56.1969 303.012 53.0591 305.4L56.0865 309.379ZM74.7563 294.473C77.8171 291.907 80.8392 289.308 83.8157 286.681L80.5073 282.933C77.5631 285.531 74.5731 288.102 71.5438 290.641L74.7563 294.473ZM92.6745 278.651C95.61 275.917 98.4912 273.156 101.311 270.372L97.7983 266.814C95.0141 269.562 92.1678 272.29 89.2664 274.993L92.6745 278.651ZM109.699 261.831C112.477 258.91 115.182 255.968 117.805 253.01L114.064 249.693C111.481 252.605 108.816 255.504 106.076 258.385L109.699 261.831ZM125.587 243.891C128.156 240.756 130.626 237.608 132.989 234.45L128.986 231.455C126.669 234.55 124.245 237.641 121.72 240.721L125.587 243.891ZM139.938 224.665C142.213 221.278 144.355 217.885 146.352 214.491L142.042 211.956C140.099 215.258 138.011 218.568 135.788 221.878L139.938 224.665ZM152.117 203.867C153.947 200.177 155.591 196.492 157.034 192.819L152.38 190.991C150.994 194.521 149.409 198.075 147.638 201.645L152.117 203.867ZM160.889 181.314C161.994 177.304 162.834 173.314 163.387 169.357L158.436 168.665C157.914 172.391 157.12 176.168 156.069 179.986L160.889 181.314ZM164.158 157.129C164.085 152.99 163.659 148.901 162.852 144.879L157.949 145.863C158.695 149.576 159.091 153.364 159.158 157.217L164.158 157.129ZM159.28 133.075C157.747 129.344 155.839 125.698 153.538 122.15L149.343 124.87C151.478 128.164 153.241 131.536 154.656 134.976L159.28 133.075ZM146.044 112.465C144.685 110.97 143.245 109.497 141.723 108.047L138.274 111.667C139.712 113.037 141.068 114.424 142.344 115.829L146.044 112.465ZM141.723 108.047C140.23 106.625 138.771 105.21 137.344 103.804L133.834 107.364C135.281 108.791 136.761 110.226 138.274 111.667L141.723 108.047ZM128.873 95.1442C126.012 92.1092 123.303 89.1165 120.738 86.1703L116.967 89.4534C119.575 92.4499 122.329 95.4916 125.235 98.5741L128.873 95.1442ZM112.979 76.8645C110.365 73.5859 107.932 70.3753 105.666 67.239L101.613 70.1669C103.925 73.3678 106.407 76.6414 109.069 79.9812L112.979 76.8645ZM98.8468 57.2683C96.5474 53.7063 94.4701 50.2616 92.5935 46.9454L88.242 49.4079C90.1666 52.809 92.2942 56.3368 94.6461 59.9801L98.8468 57.2683ZM87.0133 36.3026C85.1215 32.3809 83.5283 28.6975 82.1866 25.2769L77.5319 27.1027C78.9194 30.64 80.563 34.4391 82.5099 38.475L87.0133 36.3026ZM78.2996 13.9303C76.9008 9.11864 76.0988 5.20869 75.639 2.33423L70.7017 3.12394C71.1931 6.19604 72.0398 10.3087 73.4983 15.326L78.2996 13.9303Z" fill="url(#paint0_linear)"/>
<defs>
<linearGradient id="paint0_linear" x1="82.6781" y1="-160.838" x2="-172.423" y2="-35.8" gradientUnits="userSpaceOnUse">
<stop stop-color="#FFC745"/>
<stop offset="1" stop-color="#1BAA3A"/>
</linearGradient>
</defs>
</svg>
