<svg width="571" height="207" viewBox="0 0 571 207" fill="none" xmlns="http://www.w3.org/2000/svg">
<path d="M294.48 92.982C293.638 91.8882 292.068 91.6847 290.974 92.5274C289.88 93.37 289.677 94.9398 290.52 96.0336L294.48 92.982ZM0 84.6527L27.6162 76.2455L6.52721 56.5328L0 84.6527ZM5.91567 81.9851C6.85958 80.9774 6.80789 79.3953 5.80021 78.4514C4.79254 77.5075 3.21047 77.5592 2.26656 78.5669L5.91567 81.9851ZM10.6671 69.7631C9.7022 70.7506 9.72055 72.3334 10.7081 73.2984C11.6957 74.2633 13.2785 74.2449 14.2434 73.2574L10.6671 69.7631ZM22.8113 64.7491C23.8066 63.7922 23.8377 62.2096 22.8808 61.2143C21.9239 60.219 20.3413 60.1878 19.346 61.1447L22.8113 64.7491ZM28.2597 52.8761C27.2301 53.7961 27.1412 55.3765 28.0612 56.4061C28.9812 57.4357 30.5616 57.5245 31.5912 56.6046L28.2597 52.8761ZM40.7313 48.7651C41.798 47.8884 41.9521 46.313 41.0754 45.2463C40.1988 44.1796 38.6234 44.0255 37.5567 44.9021L40.7313 48.7651ZM47.1608 37.365C46.0551 38.1919 45.829 39.7586 46.6559 40.8643C47.4828 41.9701 49.0495 42.1961 50.1552 41.3692L47.1608 37.365ZM59.9259 34.4365C61.0723 33.667 61.3777 32.1138 60.6081 30.9674C59.8385 29.8211 58.2854 29.5157 57.139 30.2852L59.9259 34.4365ZM67.506 23.7353C66.3181 24.439 65.9255 25.9725 66.6292 27.1604C67.3329 28.3484 68.8663 28.7409 70.0543 28.0373L67.506 23.7353ZM80.5226 22.2628C81.7521 21.6346 82.2396 20.1287 81.6115 18.8991C80.9833 17.6696 79.4773 17.1821 78.2478 17.8102L80.5226 22.2628ZM89.3595 12.6002C88.0897 13.1423 87.4997 14.6111 88.0418 15.881C88.5838 17.1508 90.0527 17.7408 91.3225 17.1987L89.3595 12.6002ZM102.449 12.9316C103.756 12.4869 104.455 11.0668 104.01 9.75967C103.566 8.45251 102.146 7.75327 100.839 8.19789L102.449 12.9316ZM112.647 4.70881C111.308 5.04461 110.495 6.40251 110.831 7.74177C111.166 9.08102 112.524 9.89448 113.863 9.55868L112.647 4.70881ZM125.514 7.17198C126.877 6.95534 127.807 5.67429 127.59 4.31068C127.374 2.94707 126.093 2.01727 124.729 2.23391L125.514 7.17198ZM136.992 0.860606C135.614 0.950138 134.569 2.13965 134.659 3.51746C134.748 4.89526 135.938 5.93962 137.316 5.85008L136.992 0.860606ZM149.167 5.64351C150.547 5.68532 151.699 4.60045 151.741 3.22037C151.783 1.84029 150.698 0.687618 149.318 0.645801L149.167 5.64351ZM161.61 1.60795C160.241 1.43473 158.99 2.40476 158.816 3.77456C158.643 5.14436 159.613 6.39523 160.983 6.56844L161.61 1.60795ZM172.666 8.6072C174.014 8.90743 175.35 8.05832 175.65 6.71065C175.95 5.36297 175.101 4.02708 173.753 3.72684L172.666 8.6072ZM185.644 6.9441C184.328 6.52495 182.922 7.25162 182.503 8.56717C182.084 9.88272 182.811 11.289 184.126 11.7081L185.644 6.9441ZM195.293 15.7941C196.569 16.3216 198.031 15.7148 198.559 14.4389C199.086 13.1629 198.48 11.7009 197.204 11.1734L195.293 15.7941ZM208.382 16.3147C207.15 15.6906 205.646 16.183 205.022 17.4146C204.398 18.6462 204.89 20.1506 206.122 20.7747L208.382 16.3147ZM216.591 26.5588C217.776 27.2678 219.311 26.8822 220.02 25.6974C220.729 24.5127 220.344 22.9775 219.159 22.2684L216.591 26.5588ZM229.486 28.9103C228.349 28.1277 226.792 28.4153 226.01 29.5528C225.227 30.6903 225.515 32.2468 226.652 33.0295L229.486 28.9103ZM236.25 40.0488C237.341 40.8945 238.911 40.6954 239.757 39.6041C240.603 38.5127 240.404 36.9424 239.312 36.0966L236.25 40.0488ZM248.758 43.8177C247.711 42.9174 246.133 43.0361 245.233 44.0828C244.332 45.1296 244.451 46.7081 245.498 47.6084L248.758 43.8177ZM254.443 55.6757C255.447 56.6235 257.029 56.5778 257.977 55.5738C258.924 54.5697 258.879 52.9875 257.875 52.0397L254.443 55.6757ZM266.585 60.6157C265.621 59.6272 264.038 59.6073 263.05 60.5712C262.061 61.5351 262.041 63.1179 263.005 64.1065L266.585 60.6157ZM271.167 72.7989C272.094 73.8225 273.675 73.9011 274.698 72.9745C275.722 72.0479 275.801 70.4669 274.874 69.4433L271.167 72.7989ZM282.962 78.6952C282.071 77.6407 280.494 77.5082 279.439 78.3994C278.385 79.2906 278.252 80.868 279.143 81.9226L282.962 78.6952ZM286.717 91.1718C287.576 92.2531 289.148 92.4336 290.23 91.575C291.311 90.7163 291.491 89.1437 290.633 88.0625L286.717 91.1718ZM294.301 100.873C295.159 101.955 296.731 102.137 297.813 101.279C298.895 100.421 299.077 98.849 298.219 97.7669L294.301 100.873ZM305.699 106.938C304.811 105.881 303.234 105.743 302.176 106.631C301.119 107.519 300.981 109.096 301.869 110.153L305.699 106.938ZM309.795 119.311C310.714 120.341 312.294 120.43 313.325 119.511C314.355 118.591 314.444 117.011 313.525 115.981L309.795 119.311ZM321.513 124.649C320.561 123.649 318.978 123.61 317.978 124.562C316.978 125.514 316.939 127.096 317.891 128.096L321.513 124.649ZM326.384 136.716C327.37 137.683 328.953 137.666 329.92 136.68C330.886 135.694 330.87 134.111 329.884 133.145L326.384 136.716ZM338.527 141.31C337.506 140.381 335.924 140.455 334.995 141.476C334.066 142.498 334.141 144.079 335.162 145.008L338.527 141.31ZM344.185 152.902C345.242 153.791 346.819 153.654 347.707 152.597C348.596 151.54 348.459 149.963 347.402 149.074L344.185 152.902ZM356.644 156.518C355.551 155.675 353.981 155.878 353.138 156.972C352.295 158.066 352.498 159.635 353.592 160.478L356.644 156.518ZM363.351 167.657C364.481 168.45 366.04 168.176 366.833 167.045C367.625 165.914 367.351 164.355 366.221 163.563L363.351 167.657ZM376.07 170.124C374.902 169.387 373.358 169.735 372.621 170.902C371.883 172.07 372.232 173.614 373.399 174.351L376.07 170.124ZM383.751 180.533C384.954 181.21 386.478 180.784 387.156 179.581C387.833 178.377 387.407 176.853 386.203 176.176L383.751 180.533ZM396.627 181.684C395.389 181.072 393.89 181.58 393.278 182.817C392.666 184.055 393.173 185.554 394.411 186.166L396.627 181.684ZM405.401 191.222C406.672 191.763 408.14 191.172 408.681 189.902C409.222 188.631 408.631 187.163 407.361 186.622L405.401 191.222ZM418.375 190.937C417.075 190.471 415.644 191.148 415.179 192.448C414.714 193.748 415.391 195.179 416.691 195.644L418.375 190.937ZM428.22 199.378C429.546 199.763 430.932 199 431.317 197.674C431.702 196.348 430.939 194.961 429.613 194.576L428.22 199.378ZM441.043 197.508C439.696 197.207 438.36 198.056 438.059 199.403C437.759 200.751 438.607 202.087 439.955 202.388L441.043 197.508ZM451.854 204.645C453.218 204.859 454.497 203.926 454.711 202.562C454.925 201.198 453.992 199.919 452.628 199.705L451.854 204.645ZM464.32 201.149C462.945 201.025 461.729 202.039 461.604 203.414C461.48 204.789 462.493 206.004 463.868 206.129L464.32 201.149ZM475.995 206.829C477.375 206.864 478.522 205.773 478.556 204.393C478.591 203.012 477.5 201.865 476.12 201.831L475.995 206.829ZM487.937 201.741C486.558 201.796 485.484 202.959 485.54 204.339C485.595 205.719 486.759 206.792 488.138 206.736L487.937 201.741ZM500.233 205.858C501.607 205.713 502.603 204.483 502.458 203.11C502.314 201.737 501.084 200.741 499.711 200.885L500.233 205.858ZM511.371 199.282C510.01 199.513 509.094 200.804 509.325 202.165C509.557 203.527 510.848 204.442 512.209 204.211L511.371 199.282ZM524.118 201.796C525.462 201.479 526.294 200.133 525.977 198.789C525.66 197.445 524.314 196.613 522.97 196.93L524.118 201.796ZM534.347 193.867C533.026 194.267 532.279 195.663 532.68 196.984C533.08 198.306 534.476 199.052 535.798 198.652L534.347 193.867ZM547.315 194.758C548.609 194.274 549.265 192.833 548.781 191.54C548.297 190.247 546.857 189.591 545.563 190.074L547.315 194.758ZM556.474 185.578C555.216 186.147 554.658 187.628 555.227 188.886C555.795 190.144 557.277 190.703 558.535 190.134L556.474 185.578ZM569.436 184.702C570.645 184.035 571.085 182.515 570.418 181.306C569.751 180.096 568.231 179.657 567.022 180.323L569.436 184.702ZM14.2434 73.2574C16.8717 70.5674 19.7312 67.7104 22.8113 64.7491L19.346 61.1447C16.2222 64.1479 13.3254 67.0424 10.6671 69.7631L14.2434 73.2574ZM31.5912 56.6046C34.4927 54.0119 37.5415 51.3864 40.7313 48.7651L37.5567 44.9021C34.3093 47.5709 31.2081 50.2416 28.2597 52.8761L31.5912 56.6046ZM50.1552 41.3692C53.3023 39.0158 56.5608 36.6956 59.9259 34.4365L57.139 30.2852C53.6989 32.5947 50.3712 34.9643 47.1608 37.365L50.1552 41.3692ZM70.0543 28.0373C73.4535 26.0237 76.9443 24.0909 80.5226 22.2628L78.2478 17.8102C74.5714 19.6885 70.9894 21.672 67.506 23.7353L70.0543 28.0373ZM91.3225 17.1987C94.9548 15.6482 98.6648 14.2186 102.449 12.9316L100.839 8.19789C96.9294 9.52753 93.1017 11.0027 89.3595 12.6002L91.3225 17.1987ZM113.863 9.55868C117.682 8.60133 121.566 7.79913 125.514 7.17198L124.729 2.23391C120.631 2.88499 116.602 3.71713 112.647 4.70881L113.863 9.55868ZM137.316 5.85008C141.211 5.59694 145.163 5.52218 149.167 5.64351L149.318 0.645801C145.152 0.519569 141.042 0.597395 136.992 0.860606L137.316 5.85008ZM160.983 6.56844C164.833 7.05523 168.728 7.72981 172.666 8.6072L173.753 3.72684C169.663 2.81553 165.614 2.11423 161.61 1.60795L160.983 6.56844ZM184.126 11.7081C187.814 12.883 191.537 14.2411 195.293 15.7941L197.204 11.1734C193.32 9.56785 189.466 8.16184 185.644 6.9441L184.126 11.7081ZM206.122 20.7747C209.585 22.5298 213.076 24.4549 216.591 26.5588L219.159 22.2684C215.545 20.1058 211.952 18.124 208.382 16.3147L206.122 20.7747ZM226.652 33.0295C229.833 35.2177 233.032 37.5554 236.25 40.0488L239.312 36.0966C236.022 33.547 232.747 31.1535 229.486 28.9103L226.652 33.0295ZM245.498 47.6084C248.465 50.1611 251.447 52.8485 254.443 55.6757L257.875 52.0397C254.825 49.1612 251.786 46.422 248.758 43.8177L245.498 47.6084ZM263.005 64.1065C265.716 66.8866 268.437 69.7829 271.167 72.7989L274.874 69.4433C272.103 66.3828 269.34 63.4413 266.585 60.6157L263.005 64.1065ZM279.143 81.9226C281.661 84.9016 284.186 87.9837 286.717 91.1718L290.633 88.0625C288.07 84.8356 285.513 81.7141 282.962 78.6952L279.143 81.9226ZM290.52 96.0336C291.78 97.669 293.04 99.2819 294.301 100.873L298.219 97.7669C296.973 96.1943 295.727 94.5994 294.48 92.982L290.52 96.0336ZM301.869 110.153C304.511 113.3 307.153 116.351 309.795 119.311L313.525 115.981C310.917 113.06 308.308 110.047 305.699 106.938L301.869 110.153ZM317.891 128.096C320.724 131.072 323.556 133.944 326.384 136.716L329.884 133.145C327.097 130.414 324.306 127.583 321.513 124.649L317.891 128.096ZM335.162 145.008C338.175 147.749 341.183 150.379 344.185 152.902L347.402 149.074C344.451 146.594 341.492 144.007 338.527 141.31L335.162 145.008ZM353.592 160.478C356.855 162.993 360.108 165.384 363.351 167.657L366.221 163.563C363.041 161.334 359.848 158.987 356.644 156.518L353.592 160.478ZM373.399 174.351C376.866 176.542 380.317 178.6 383.751 180.533L386.203 176.176C382.844 174.285 379.466 172.27 376.07 170.124L373.399 174.351ZM394.411 186.166C398.1 187.99 401.765 189.673 405.401 191.222L407.361 186.622C403.811 185.11 400.232 183.467 396.627 181.684L394.411 186.166ZM416.691 195.644C420.572 197.033 424.417 198.274 428.22 199.378L429.613 194.576C425.908 193.501 422.16 192.291 418.375 190.937L416.691 195.644ZM439.955 202.388C443.977 203.285 447.945 204.033 451.854 204.645L452.628 199.705C448.823 199.11 444.96 198.382 441.043 197.508L439.955 202.388ZM463.868 206.129C467.99 206.503 472.035 206.73 475.995 206.829L476.12 201.831C472.266 201.735 468.331 201.513 464.32 201.149L463.868 206.129ZM488.138 206.736C492.283 206.57 496.318 206.269 500.233 205.858L499.711 200.885C495.899 201.286 491.971 201.578 487.937 201.741L488.138 206.736ZM512.209 204.211C516.348 203.507 520.322 202.691 524.118 201.796L522.97 196.93C519.272 197.802 515.402 198.596 511.371 199.282L512.209 204.211ZM535.798 198.652C539.927 197.4 543.774 196.082 547.315 194.758L545.563 190.074C542.116 191.364 538.37 192.647 534.347 193.867L535.798 198.652ZM558.535 190.134C563.088 188.075 566.755 186.18 569.436 184.702L567.022 180.323C564.446 181.743 560.897 183.579 556.474 185.578L558.535 190.134Z" fill="#FFC745"/>
</svg>
