<svg width="140" height="140" viewBox="0 0 140 140" fill="none" xmlns="http://www.w3.org/2000/svg">
<g filter="url(#filter0_i)">
<path fill-rule="evenodd" clip-rule="evenodd" d="M137 70C137 107.003 107.003 137 70 137C32.9969 137 3 107.003 3 70C3 32.9969 32.9969 3 70 3C107.003 3 137 32.9969 137 70ZM62.4191 86.3527C61.5187 86.3527 60.6183 86.0042 59.9502 85.3361L49.3776 74.8216C48.0124 73.4564 48.0124 71.249 49.3776 69.8838C50.7427 68.5187 52.9502 68.5187 54.3154 69.8838L62.39 77.9585L85.6556 54.6929C87.0207 53.3278 89.2282 53.3278 90.5934 54.6929C91.9585 56.0581 91.9585 58.2656 90.5934 59.6307L64.888 85.3361C64.1909 86.0042 63.3195 86.3527 62.4191 86.3527Z" fill="#1BAA3A"/>
</g>
<path d="M59.9519 85.3361C60.62 86.0042 61.5204 86.3527 62.4208 86.3527C63.3212 86.3527 64.1926 86.0042 64.8897 85.3361L90.5951 59.6307C91.9602 58.2656 91.9602 56.0581 90.5951 54.693C89.2299 53.3278 87.0225 53.3278 85.6573 54.693L62.3918 77.9585L54.3171 69.8838C52.9519 68.5187 50.7445 68.5187 49.3793 69.8838C48.0142 71.249 48.0142 73.4564 49.3793 74.8216L59.9519 85.3361Z" fill="black"/>
<path d="M33.0534 18.1826C33.7215 18.1826 34.3895 17.9793 34.9995 17.6017C36.597 16.527 37.0327 14.3485 35.958 12.751C34.8833 11.1535 32.7339 10.7178 31.1074 11.7925C29.5099 12.8672 29.0742 15.0166 30.1489 16.6141C30.8169 17.6307 31.9206 18.1826 33.0534 18.1826Z" fill="black"/>
<path d="M22.9732 26.4606C23.8736 26.4606 24.774 26.112 25.4421 25.444C26.8072 24.0788 26.8072 21.8714 25.4421 20.5062C24.0769 19.1411 21.8695 19.1411 20.5043 20.5062C19.1392 21.8714 19.1392 24.0788 20.5043 25.444C21.1724 26.112 22.0728 26.4606 22.9732 26.4606Z" fill="black"/>
<path d="M44.5277 12.0249C44.9634 12.0249 45.4281 11.9378 45.8638 11.7635C47.6356 11.0373 48.4779 8.9751 47.7518 7.20332C47.0256 5.43153 44.9634 4.58921 43.1916 5.31535C41.4198 6.04149 40.5775 8.10373 41.3036 9.87552C41.8555 11.2116 43.1626 12.0249 44.5277 12.0249Z" fill="black"/>
<path d="M12.7519 35.9295C13.3328 36.3361 14.0299 36.5104 14.698 36.5104C15.8307 36.5104 16.9345 35.9585 17.6025 34.971C18.6772 33.3734 18.2415 31.195 16.644 30.1494C15.0465 29.0747 12.8681 29.5104 11.7934 31.1079C10.7187 32.7054 11.1544 34.8548 12.7519 35.9295Z" fill="black"/>
<path d="M7.20333 47.751C7.63902 47.9253 8.10375 48.0124 8.53943 48.0124C9.90458 48.0124 11.2116 47.1992 11.7635 45.8631C12.4896 44.0913 11.6473 42.0581 9.87553 41.3029C8.10375 40.5477 6.07055 41.4191 5.31537 43.1909C4.58922 44.9917 5.43155 47.0249 7.20333 47.751Z" fill="black"/>
<path d="M56.9881 8.24896C57.2205 8.24896 57.4238 8.21991 57.6562 8.19087C59.5441 7.81327 60.7641 5.9834 60.3865 4.09543C60.0089 2.20747 58.179 0.987548 56.291 1.36514C54.4031 1.74273 53.1832 3.57261 53.5607 5.46058C53.9093 7.08713 55.3616 8.24896 56.9881 8.24896Z" fill="black"/>
<path d="M4.06447 60.444C4.29684 60.473 4.5292 60.5021 4.73252 60.5021C6.35908 60.5021 7.81136 59.3403 8.15991 57.6847C8.5375 55.7967 7.31758 53.9668 5.42962 53.5892C3.54165 53.2116 1.71177 54.4315 1.33418 56.3195C0.956588 58.2365 2.1765 60.0664 4.06447 60.444Z" fill="black"/>
<path d="M119.494 20.5062C106.278 7.29046 88.7054 0 70 0C68.083 0 66.5145 1.56846 66.5145 3.48548C66.5145 5.40249 68.083 6.97095 70 6.97095C104.768 6.97095 133.029 35.2324 133.029 70C133.029 104.768 104.768 133.029 70 133.029C35.2324 133.029 6.97095 104.768 6.97095 70C6.97095 68.083 5.40249 66.5145 3.48548 66.5145C1.56846 66.5145 0 68.083 0 70C0 88.7054 7.29046 106.278 20.5062 119.494C33.722 132.71 51.2946 140 70 140C88.7054 140 106.278 132.71 119.494 119.494C132.71 106.278 140 88.7054 140 70C140 51.2946 132.71 33.722 119.494 20.5062Z" fill="black"/>
<defs>
<filter id="filter0_i" x="3" y="3" width="134" height="134" filterUnits="userSpaceOnUse" color-interpolation-filters="sRGB">
<feFlood flood-opacity="0" result="BackgroundImageFix"/>
<feBlend mode="normal" in="SourceGraphic" in2="BackgroundImageFix" result="shape"/>
<feColorMatrix in="SourceAlpha" type="matrix" values="0 0 0 0 0 0 0 0 0 0 0 0 0 0 0 0 0 0 127 0" result="hardAlpha"/>
<feOffset dx="6" dy="5"/>
<feComposite in2="hardAlpha" operator="arithmetic" k2="-1" k3="1"/>
<feColorMatrix type="matrix" values="0 0 0 0 0.984314 0 0 0 0 0.992157 0 0 0 0 0.992157 0 0 0 1 0"/>
<feBlend mode="normal" in2="shape" result="effect1_innerShadow"/>
</filter>
</defs>
</svg>
