<svg width="20" height="20" viewBox="0 0 20 20" fill="none" xmlns="http://www.w3.org/2000/svg">
<g filter="url(#filter0_i)">
<path d="M11.8784 19.8223C16.4975 18.9409 20 14.8722 20 10C20 4.48603 15.514 0 10 0C4.48603 0 0 4.48603 0 10C0 11.9451 0.558764 13.7619 1.52344 15.2993C1.52344 15.2993 3.62857 17.9891 5.43224 18.9262C7.77977 20.1458 11.8784 19.8223 11.8784 19.8223Z" fill="#FFC745"/>
</g>
<path fill-rule="evenodd" clip-rule="evenodd" d="M11.8784 19.8223C16.4975 18.9409 20 14.8722 20 10C20 4.48603 15.514 0 10 0C4.48603 0 0 4.48603 0 10C0 11.9451 0.558764 13.7619 1.52344 15.2993C1.52344 15.2993 3.62857 17.9891 5.43224 18.9262C7.77977 20.1458 11.8784 19.8223 11.8784 19.8223ZM17.8261 10C17.8261 14.3153 14.3153 17.8261 10 17.8261C5.68466 17.8261 2.17391 14.3153 2.17391 10C2.17391 5.68466 5.68466 2.17391 10 2.17391C14.3153 2.17391 17.8261 5.68466 17.8261 10ZM11.5217 11.9701V11.9973C11.5217 12.4696 11.1394 12.8261 10.6324 12.8261H9.01367C8.7466 12.8261 8.47614 12.6582 8.47614 12.337C8.47614 11.7366 7.98956 11.25 7.38918 11.25C6.78881 11.25 6.30223 11.7366 6.30223 12.337C6.30223 13.7967 7.44056 14.9467 8.91198 14.9975V15.5978C8.91198 16.1982 9.39857 16.6848 9.99894 16.6848C10.5993 16.6848 11.0859 16.1982 11.0859 15.5978V14.9682C12.5811 14.7593 13.6957 13.5296 13.6957 11.9971V11.9699C13.6957 10.283 12.3215 8.9105 10.6322 8.9105H9.63634C9.15188 8.9105 8.75722 8.51159 8.75297 8.01949C8.75722 7.53673 9.13553 7.17391 9.63634 7.17391H10.5783C10.8549 7.17391 11.1413 7.35925 11.1413 7.66941C11.1413 8.26957 11.6279 8.75637 12.2283 8.75637C12.8286 8.75637 13.3152 8.26957 13.3152 7.66941C13.3152 6.36676 12.3533 5.27959 11.0859 5.04671V4.34783C11.0859 3.74745 10.5993 3.26087 9.99894 3.26087C9.39857 3.26087 8.91198 3.74745 8.91198 4.34783V5.08428C8.37402 5.21123 7.88128 5.47936 7.48153 5.87041C6.90897 6.43088 6.58946 7.18134 6.57927 7.98786C6.57906 7.99569 6.57906 8.00353 6.57906 8.01137V8.01142V8.02756V8.02761C6.57906 8.03545 6.57906 8.04328 6.57927 8.05112C6.60071 9.72741 7.96387 11.0844 9.63634 11.0844H10.6322C11.1228 11.0844 11.5217 11.4818 11.5217 11.9701Z" fill="black"/>
<defs>
<filter id="filter0_i" x="0" y="0" width="20" height="19.8612" filterUnits="userSpaceOnUse" color-interpolation-filters="sRGB">
<feFlood flood-opacity="0" result="BackgroundImageFix"/>
<feBlend mode="normal" in="SourceGraphic" in2="BackgroundImageFix" result="shape"/>
<feColorMatrix in="SourceAlpha" type="matrix" values="0 0 0 0 0 0 0 0 0 0 0 0 0 0 0 0 0 0 127 0" result="hardAlpha"/>
<feOffset dx="1" dy="4"/>
<feComposite in2="hardAlpha" operator="arithmetic" k2="-1" k3="1"/>
<feColorMatrix type="matrix" values="0 0 0 0 0.984314 0 0 0 0 0.992157 0 0 0 0 0.992157 0 0 0 1 0"/>
<feBlend mode="normal" in2="shape" result="effect1_innerShadow"/>
</filter>
</defs>
</svg>
