<svg width="40" height="53" viewBox="0 0 40 53" fill="none" xmlns="http://www.w3.org/2000/svg">
<g filter="url(#filter0_i)">
<path d="M38.1085 19.9961H34.6343H8.32214H4.84789C3.87041 19.9961 3.07812 20.785 3.07812 21.7582V38.9698C3.07812 46.1526 8.94708 51.9961 16.1611 51.9961H26.7952C34.0092 51.9961 39.8781 46.1525 39.8781 38.9698V21.7582C39.8783 20.785 39.086 19.9961 38.1085 19.9961Z" fill="#BC0319"/>
</g>
<path fill-rule="evenodd" clip-rule="evenodd" d="M37.9622 18.0064H34.2014V10.2159C34.2014 4.58284 29.6186 0 23.9855 0H15.9354C10.3023 0 5.71944 4.58284 5.71944 10.2159V18.0064H1.95868C0.900593 18.0064 0.0429688 18.8641 0.0429688 19.9221V38.634C0.0429688 46.4429 6.39592 52.7957 14.2048 52.7957H25.7159C33.5248 52.7957 39.8778 46.4428 39.8778 38.634V19.9221C39.8779 18.8641 39.0203 18.0064 37.9622 18.0064ZM9.55101 10.2159C9.55101 6.69548 12.4151 3.83142 15.9355 3.83142H23.9858C27.5063 3.83142 30.3702 6.69548 30.3702 10.2159V18.0064H9.55101V10.2159ZM25.7162 48.9643C31.4123 48.9643 36.0465 44.3301 36.0465 38.634V21.8379H3.87454V38.634C3.87454 44.3301 8.50887 48.9643 14.205 48.9643H25.7162Z" fill="black"/>
<path d="M18.0456 42.6044C18.0456 43.6625 18.9032 44.5201 19.9613 44.5201C21.0193 44.5201 21.877 43.6625 21.877 42.6044V37.1348C22.1049 36.8194 22.241 36.4332 22.241 36.0143C22.241 34.9564 21.3832 34.0986 20.3253 34.0986H19.5973C18.5394 34.0986 17.6816 34.9564 17.6816 36.0143C17.6816 36.433 17.8176 36.8194 18.0456 37.1348V42.6044Z" fill="black"/>
<defs>
<filter id="filter0_i" x="3.07812" y="19.9961" width="36.8" height="32" filterUnits="userSpaceOnUse" color-interpolation-filters="sRGB">
<feFlood flood-opacity="0" result="BackgroundImageFix"/>
<feBlend mode="normal" in="SourceGraphic" in2="BackgroundImageFix" result="shape"/>
<feColorMatrix in="SourceAlpha" type="matrix" values="0 0 0 0 0 0 0 0 0 0 0 0 0 0 0 0 0 0 127 0" result="hardAlpha"/>
<feOffset dx="2" dy="4"/>
<feComposite in2="hardAlpha" operator="arithmetic" k2="-1" k3="1"/>
<feColorMatrix type="matrix" values="0 0 0 0 0.984314 0 0 0 0 0.992157 0 0 0 0 0.992157 0 0 0 1 0"/>
<feBlend mode="normal" in2="shape" result="effect1_innerShadow"/>
</filter>
</defs>
</svg>
