<svg width="9" height="14" viewBox="0 0 9 14" fill="none" xmlns="http://www.w3.org/2000/svg">
<g opacity="0.5">
<path d="M4.62113 12.9174L8.4251 9.11346C8.55662 8.98195 8.76986 8.98195 8.90138 9.11346C9.03287 9.24501 9.03287 9.45822 8.90138 9.58975L4.85928 13.6319C4.72775 13.7633 4.51452 13.7633 4.38299 13.6319L0.340885 9.58975C0.211648 9.45593 0.215359 9.2427 0.349174 9.11346C0.479714 8.9874 0.686654 8.9874 0.817174 9.11346L4.62113 12.9174Z" fill="black"/>
</g>
<g opacity="0.5">
<path d="M4.62113 0.818909L8.4251 4.62287C8.55662 4.75438 8.76986 4.75438 8.90138 4.62287C9.03287 4.49132 9.03287 4.27811 8.90138 4.14658L4.85928 0.104475C4.72775 -0.0270123 4.51452 -0.0270123 4.38299 0.104475L0.340885 4.14658C0.211648 4.2804 0.215359 4.49363 0.349174 4.62287C0.479714 4.74893 0.686654 4.74893 0.817174 4.62287L4.62113 0.818909Z" fill="black"/>
</g>
</svg>
