<?xml version="1.0" encoding="utf-8"?><svg xmlns="http://www.w3.org/2000/svg" xmlns:xlink="http://www.w3.org/1999/xlink"><symbol viewBox="0 0 25 12" id="arrow-left" xmlns="http://www.w3.org/2000/svg"><path d="M23.783 5.027H3.308L6.7 1.652A.967.967 0 105.336.282L.284 5.309a.968.968 0 000 1.37l5.052 5.028a.967.967 0 001.364-1.37L3.308 6.96h20.475a.967.967 0 100-1.934z"/></symbol><symbol viewBox="0 0 50 44" id="calendar-6" xmlns="http://www.w3.org/2000/svg"><path fill-rule="evenodd" clip-rule="evenodd" d="M8.79 38.086H1.464a1.465 1.465 0 01-.938-2.59C4.302 32.285 8.79 23.979 8.79 13.184v-8.79c0-.808.656-1.464 1.465-1.464h7.422V1.465a1.465 1.465 0 012.93 0V2.93h7.324V1.465a1.465 1.465 0 012.93 0V2.93h7.421V1.465a1.465 1.465 0 112.93 0V2.93h7.324c.81 0 1.465.656 1.465 1.465V42.48c0 .808-.656 1.464-1.465 1.464H10.254a1.465 1.465 0 01-1.465-1.465v-4.394zm2.929 0v2.93H47.07v-12.7c-1.897 4.472-4.625 7.964-6.386 9.43-.263.22-.595.34-.938.34H11.72zm0-32.227h5.957v1.465a1.465 1.465 0 002.93 0V5.86h7.324v1.465a1.465 1.465 0 002.93 0V5.86h7.421v1.465a1.465 1.465 0 102.93 0V5.86h5.86v5.86H11.718V5.86zm35.326 8.789H11.694c-.242 7.294-2.392 14.768-6.897 20.508h34.375c3.976-3.905 7.542-11.216 7.873-20.508z"/></symbol><symbol viewBox="0 0 21.933 21.933" id="clock" xmlns="http://www.w3.org/2000/svg"><path d="M12.377 9.556H14.7v2.82H9.556v-7.72h2.82v4.9z"/><path d="M10.967 21.933a10.937 10.937 0 007.758-3.208 10.984 10.984 0 000-15.517 10.984 10.984 0 00-15.517 0 10.984 10.984 0 000 15.517 10.937 10.937 0 007.759 3.208zM5.203 5.203a8.126 8.126 0 015.764-2.384 8.126 8.126 0 015.763 2.384 8.16 8.16 0 010 11.527 8.16 8.16 0 01-11.527 0 8.16 8.16 0 010-11.527z"/></symbol><symbol viewBox="0 0 19.092 19.092" id="close" xmlns="http://www.w3.org/2000/svg"><path d="M19.092 2.121l-16.97 16.97L0 16.972 16.97 0z"/><path d="M16.97 19.092L0 2.122 2.121 0l16.97 16.97z"/></symbol><symbol viewBox="0 0 30 30" id="close-2" xmlns="http://www.w3.org/2000/svg"><path d="M1.565.15l28.284 28.285-1.414 1.414L.151 1.565 1.565.151z"/><path d="M29.698 1.414L1.415 29.698 0 28.284 28.284 0 29.7 1.414z"/></symbol><symbol viewBox="0 0 20 21" id="copy" xmlns="http://www.w3.org/2000/svg"><path fill-rule="evenodd" clip-rule="evenodd" d="M15.246 0H7.234v1.702h5.957V6.81h5.107v10.21h-3.83v1.702H20V4.754L15.246 0zm-.352 5.106V2.055l3.051 3.051h-3.051zM5.957 3.404h2.055l4.754 4.754v12.268H0V3.404h5.957zm-4.255 15.32h9.362v-8.511H5.957V5.106H1.702v13.617zM7.66 8.51V5.459l3.051 3.052H7.66z"/></symbol><symbol viewBox="0 0 20 22" id="dialog" xmlns="http://www.w3.org/2000/svg"><path fill-rule="evenodd" clip-rule="evenodd" d="M0 9.625C0 4.311 4.31 0 9.625 0c5.314 0 9.625 4.31 9.625 9.625 0 5.314-4.31 9.625-9.625 9.625a9.418 9.418 0 01-2.267-.298L2.75 22l.03-5.618A9.591 9.591 0 010 9.625zm16.5 0A6.881 6.881 0 009.625 2.75 6.881 6.881 0 002.75 9.625c0 1.813.706 3.526 1.988 4.826l.797.808-.005 1.136-.003.47.314-.207 1.004-.665 1.171.29a6.806 6.806 0 001.609.217A6.881 6.881 0 0016.5 9.625z"/></symbol><symbol viewBox="0 0 12 6" id="down" xmlns="http://www.w3.org/2000/svg"><path d="M5.547 4.962L.728.144a.427.427 0 00-.603.603l5.12 5.12a.427.427 0 00.603 0l5.12-5.12a.427.427 0 00-.603-.603L5.547 4.962z"/></symbol><symbol viewBox="0 0 41.424 60.692" id="edit" xmlns="http://www.w3.org/2000/svg"><path d="M1 60.692a1 1 0 01-.521-.146 1.002 1.002 0 01-.477-.912l.86-14.71a1.005 1.005 0 01.145-.463L27.587.951a2.008 2.008 0 012.741-.663L40.472 6.49a2.006 2.006 0 01.663 2.742L14.554 52.744a1.016 1.016 0 01-.347.341l-12.7 7.47a1 1 0 01-.507.137zm1.844-15.4L2.108 57.88l10.87-6.394L39.427 8.191 29.289 1.996zm10.856 6.93z"/><path d="M36.04 16.643a.994.994 0 01-.521-.147l-11.84-7.24a1 1 0 01-.332-1.375 1 1 0 011.375-.331l11.84 7.24a1 1 0 01.331 1.374.999.999 0 01-.854.479zm-22.37 36.58a.993.993 0 01-.52-.147l-11.841-7.24a1 1 0 01-.332-1.375.999.999 0 011.375-.331l11.84 7.24a1 1 0 01.332 1.374.999.999 0 01-.854.479z"/></symbol><symbol viewBox="0 0 24 18" id="eye" xmlns="http://www.w3.org/2000/svg"><path d="M1 9l-.67-.335a.75.75 0 000 .67L1 9zm22 0l.67.335a.75.75 0 000-.67L23 9zM1 9l.67.336a.236.236 0 01.009-.016l.03-.06c.029-.052.072-.133.13-.236a18.926 18.926 0 012.583-3.511C6.234 3.58 8.8 1.75 12 1.75V.25c-3.8 0-6.734 2.17-8.672 4.237A20.424 20.424 0 00.532 8.289a12.102 12.102 0 00-.202.374v.001L1 9zm11-7.25c3.2 0 5.766 1.83 7.578 3.763a18.926 18.926 0 012.583 3.51 10.754 10.754 0 01.16.297l.007.013.001.003L23 9l.67-.336V8.66c-.002-.001-.003-.003-.004-.006l-.01-.02a7.466 7.466 0 00-.188-.346 20.43 20.43 0 00-2.796-3.802C18.734 2.42 15.8.25 12 .25v1.5zM23 9l-.67-.336-.002.003-.007.013a9.044 9.044 0 01-.16.296 18.926 18.926 0 01-2.583 3.51C17.766 14.421 15.2 16.251 12 16.251v1.5c3.8 0 6.734-2.17 8.672-4.237a20.43 20.43 0 002.796-3.802 12.155 12.155 0 00.187-.345l.011-.021.003-.006.001-.002v-.001L23 9zm-11 7.25c-3.2 0-5.766-1.83-7.578-3.763a18.925 18.925 0 01-2.583-3.51 10.576 10.576 0 01-.168-.313L1 9l-.67.336a2.028 2.028 0 00.054.105 18.263 18.263 0 00.72 1.216 20.426 20.426 0 002.224 2.856C5.266 15.58 8.2 17.75 12 17.75v-1.5zM14.25 9A2.25 2.25 0 0112 11.25v1.5A3.75 3.75 0 0015.75 9h-1.5zM12 11.25A2.25 2.25 0 019.75 9h-1.5A3.75 3.75 0 0012 12.75v-1.5zM9.75 9A2.25 2.25 0 0112 6.75v-1.5A3.75 3.75 0 008.25 9h1.5zM12 6.75A2.25 2.25 0 0114.25 9h1.5A3.75 3.75 0 0012 5.25v1.5z"/></symbol><symbol viewBox="0 0 18 11.473" id="eye-2" xmlns="http://www.w3.org/2000/svg"><path d="M9 0c4.893 0 8.725 5.166 8.886 5.386a.593.593 0 010 .7c-.161.22-3.993 5.387-8.886 5.387S.275 6.306.114 6.086a.594.594 0 010-.7C.274 5.166 4.106 0 9 0zM1.35 5.736c.923 1.12 4.045 4.55 7.65 4.55 3.612 0 6.728-3.427 7.65-4.55-.924-1.12-4.046-4.55-7.65-4.55-3.612 0-6.728 3.428-7.65 4.55z"/><path d="M5.44 5.736A3.565 3.565 0 019 2.176a3.565 3.565 0 013.56 3.56A3.565 3.565 0 019 9.296a3.565 3.565 0 01-3.56-3.56zm1.186 0A2.376 2.376 0 009 8.11a2.376 2.376 0 002.374-2.374A2.376 2.376 0 009 3.363a2.376 2.376 0 00-2.374 2.373z"/></symbol><symbol viewBox="0 0 8 16" id="fb" xmlns="http://www.w3.org/2000/svg"><path d="M.288 8.36h1.72v7.083c0 .14.114.253.254.253h2.917c.14 0 .253-.113.253-.253v-7.05H7.41a.253.253 0 00.252-.224l.3-2.608a.253.253 0 00-.251-.282H5.433V3.644c0-.492.265-.742.788-.742h1.49c.14 0 .253-.114.253-.253V.255a.253.253 0 00-.253-.253H5.658L5.564 0C5.208 0 3.97.07 2.992.97c-1.084.997-.933 2.19-.897 2.398v1.911H.288a.253.253 0 00-.253.253v2.575c0 .14.113.253.253.253z"/></symbol><symbol viewBox="0 0 25 14" id="forward" xmlns="http://www.w3.org/2000/svg"><path d="M23.743 5.693L15.976.376C15.617.13 15.256 0 14.956 0c-.581 0-.94.466-.94 1.246v11.492c0 .78.358 1.245.938 1.245.3 0 .656-.13 1.016-.377l7.77-5.317c.5-.342.777-.803.777-1.298s-.274-.956-.774-1.298zm-14 0L1.976.376C1.617.13 1.256 0 .956 0c-.581 0-.94.466-.94 1.246v11.492c0 .78.358 1.245.938 1.245.3 0 .656-.13 1.016-.377L9.74 8.29c.5-.342.777-.803.777-1.298s-.274-.956-.774-1.298z"/></symbol><symbol viewBox="0 0 16 16" id="inst" xmlns="http://www.w3.org/2000/svg"><path fill-rule="evenodd" clip-rule="evenodd" d="M11.669 0H4.33A4.336 4.336 0 000 4.331v7.338A4.336 4.336 0 004.331 16h7.338A4.336 4.336 0 0016 11.67V4.33A4.336 4.336 0 0011.669 0zM8 12.375A4.38 4.38 0 013.625 8 4.38 4.38 0 018 3.625 4.38 4.38 0 0112.375 8 4.38 4.38 0 018 12.375zm3.187-9.01a1.294 1.294 0 002.585 0c0-.714-.58-1.294-1.293-1.294-.712 0-1.292.58-1.292 1.293z"/></symbol><symbol viewBox="0 0 20 20" id="key" xmlns="http://www.w3.org/2000/svg"><path fill-rule="evenodd" clip-rule="evenodd" d="M9.577 1.79a6.095 6.095 0 112.73 10.198l-1.14 1.14-1.9.634-.72 2.155-2.154.719-.828 2.484-3.837-.58a2.032 2.032 0 01-1.126-3.453l7.414-7.344A6.093 6.093 0 019.577 1.79zm-.626 7.887L2.032 16.53l2.146.325.609-1.826 2.154-.718.719-2.155 2.41-.803 1.032-1.033h.002l.714-.722a4.065 4.065 0 004.942-6.371 4.064 4.064 0 00-6.34 4.994L8.952 9.68l-.001-.002zm4.576-4.655l1.436-1.437L16.4 5.022l-1.437 1.436-1.436-1.436z"/></symbol><symbol viewBox="0 0 6 12" id="left" xmlns="http://www.w3.org/2000/svg"><path d="M.127 5.67L5.265.137a.409.409 0 01.61 0 .492.492 0 01-.002.658L1.041 6l4.832 5.206a.492.492 0 01.001.657.414.414 0 01-.305.137.414.414 0 01-.304-.136L.127 6.33A.484.484 0 010 6c0-.124.046-.242.127-.33z"/></symbol><symbol viewBox="0 0 12 20" id="left-2" xmlns="http://www.w3.org/2000/svg"><path d="M10 20c-.379 0-.742-.15-1.01-.418L.418 11.01a1.429 1.429 0 010-2.02L8.99.418a1.429 1.429 0 112.02 2.02L3.45 10l7.561 7.561A1.428 1.428 0 0110 20z"/></symbol><symbol viewBox="0 0 75.793 67.164" id="loading" xmlns="http://www.w3.org/2000/svg"><path d="M42.21 0a33.717 33.717 0 00-27.158 13.823 2.501 2.501 0 00.548 3.493 2.501 2.501 0 003.493-.548A28.699 28.699 0 0142.21 4.999a28.615 28.615 0 0128.584 28.583A28.617 28.617 0 0142.21 62.166a28.628 28.628 0 01-28.028-22.978l6.313 4.921a2.497 2.497 0 003.51-.435 2.5 2.5 0 00-.436-3.509l-10.606-8.267a2.474 2.474 0 00-1.665-.799c-.035-.004-.069-.009-.104-.011-.023-.001-.045-.007-.068-.007-.04 0-.08.01-.12.012a2.493 2.493 0 00-1.92.951L.527 43.021a2.5 2.5 0 00.435 3.509 2.49 2.49 0 001.535.528 2.5 2.5 0 001.974-.963l4.771-6.121a33.634 33.634 0 0032.966 27.19 33.62 33.62 0 0033.584-33.583A33.62 33.62 0 0042.21 0z"/></symbol><symbol viewBox="0 0 26 20" id="mail" xmlns="http://www.w3.org/2000/svg"><path fill-rule="evenodd" clip-rule="evenodd" d="M26 3.225v-.41A2.805 2.805 0 0023.198.014H2.801A2.805 2.805 0 000 2.815v13.87a2.805 2.805 0 002.801 2.801H23.2a2.804 2.804 0 002.8-2.8V3.224zM2.8 1.537h20.397a1.28 1.28 0 011.278 1.278l-10.2 6.802c-.68.452-1.87.452-2.55 0L1.523 2.815a1.28 1.28 0 011.278-1.278zm0 16.426h20.4a1.28 1.28 0 001.277-1.278V4.646l-9.356 6.238c-.595.396-1.357.595-2.12.595-.763 0-1.525-.199-2.12-.595L1.523 4.646v12.04a1.28 1.28 0 001.278 1.277z"/></symbol><symbol viewBox="0 0 20 20" id="melody" xmlns="http://www.w3.org/2000/svg"><path fill-rule="evenodd" clip-rule="evenodd" d="M19.45.303a1.429 1.429 0 00-1.225-.26L6.796 2.9a1.429 1.429 0 00-1.082 1.386v7.388A4.29 4.29 0 000 15.714 4.29 4.29 0 004.286 20a4.29 4.29 0 004.285-4.286V5.401l8.572-2.143v5.56a4.29 4.29 0 00-5.714 4.04 4.29 4.29 0 004.285 4.285A4.29 4.29 0 0020 12.857V1.43c0-.44-.203-.856-.55-1.126zM4.287 17.143a1.43 1.43 0 01-1.429-1.429 1.43 1.43 0 012.857 0 1.43 1.43 0 01-1.428 1.429zm10-4.286c0 .788.64 1.429 1.428 1.429a1.43 1.43 0 001.429-1.429 1.43 1.43 0 00-1.429-1.428 1.43 1.43 0 00-1.428 1.428z"/></symbol><symbol viewBox="0 0 24 34" id="mouse" xmlns="http://www.w3.org/2000/svg"><g data-name="Group 2"><path d="M14 34h-4A10.01 10.01 0 010 24V10A10.011 10.011 0 0110 0h4a10.011 10.011 0 0110 10v14a10.01 10.01 0 01-10 10zM10 3a7.008 7.008 0 00-7 7v14a7.007 7.007 0 007 7h4a7.007 7.007 0 007-7V10a7.008 7.008 0 00-7-7h-4z"/><path data-name="Rectangle 2" d="M12 10a2 2 0 012 2 2 2 0 01-2 2 2 2 0 01-2-2 2 2 0 012-2z"/></g></symbol><symbol viewBox="0 0 24 24" id="no-eye" xmlns="http://www.w3.org/2000/svg"><path d="M17.94 17.94l.455.596a.75.75 0 00.075-1.126l-.53.53zM12 20v.75h.012L12 20zM1 12l-.66-.355a.75.75 0 00-.01.69L1 12zm5.06-5.94l.53-.53a.75.75 0 00-.985-.066l.455.596zM9.9 4.24l-.17-.73a.75.75 0 00-.36 1.26l.53-.53zM12 4l-.002.75H12V4zm11 8l.661.354a.75.75 0 00.01-.69L23 12zm-2.16 3.19l-.53.53a.75.75 0 001.104-.047l-.574-.483zm-6.171-.559a.75.75 0 00-1.098-1.022l1.098 1.022zM10.39 10.43a.75.75 0 00-1.02-1.1l1.022 1.098zM1.531.469A.75.75 0 00.47 1.53L1.53.47zM22.47 23.53a.75.75 0 101.06-1.06l-1.06 1.06zm-4.985-6.187a9.32 9.32 0 01-5.497 1.907l.024 1.5a10.82 10.82 0 006.383-2.213l-.91-1.194zM12 19.25c-3.2 0-5.766-1.83-7.578-3.763a18.925 18.925 0 01-2.583-3.51 10.736 10.736 0 01-.16-.297l-.007-.013-.001-.003L1 12a82.64 82.64 0 00-.67.337v.002a7.125 7.125 0 00.201.373 20.426 20.426 0 002.796 3.802C5.267 18.579 8.2 20.749 12 20.749v-1.5zM1.66 12.355a17.7 17.7 0 014.855-5.699l-.91-1.192a19.2 19.2 0 00-5.266 6.181l1.322.71zM5.53 6.59l11.88 11.88 1.06-1.06L6.59 5.53 5.53 6.59zm4.54-1.62a8.37 8.37 0 011.928-.22l.004-1.5a9.87 9.87 0 00-2.273.26l.342 1.46zM12 4.75c3.2 0 5.766 1.83 7.578 3.763a18.924 18.924 0 012.583 3.51 10.92 10.92 0 01.16.297l.007.013.001.003L23 12l.67-.336v-.003c-.002-.001-.003-.003-.004-.006l-.01-.02a11.896 11.896 0 00-.187-.345 20.43 20.43 0 00-2.796-3.802C18.733 5.419 15.8 3.249 12 3.249v1.5zm10.339 6.896a17.745 17.745 0 01-2.073 3.061l1.148.966a19.253 19.253 0 002.247-3.32l-1.322-.707zm-.968 3.014L10.43 3.71 9.369 4.77l10.94 10.95 1.062-1.06zm-7.8-1.051a2.25 2.25 0 01-.73.521l.61 1.37c.46-.205.874-.5 1.218-.869L13.57 13.61zm-.73.521a2.25 2.25 0 01-.876.194l.026 1.5c.504-.009 1-.119 1.46-.324l-.61-1.37zm-.876.194a2.252 2.252 0 01-.883-.163l-.561 1.39c.467.19.967.282 1.47.273l-.026-1.5zm-.883-.163a2.249 2.249 0 01-.748-.495l-1.06 1.06c.356.357.78.637 1.247.826l.561-1.39zm-.748-.495a2.248 2.248 0 01-.495-.748l-1.39.561c.188.467.468.891.825 1.248l1.06-1.061zm-.495-.748a2.25 2.25 0 01-.163-.883l-1.5-.026a3.75 3.75 0 00.272 1.47l1.39-.561zm-.163-.883c.005-.302.071-.6.194-.876l-1.37-.61a3.75 3.75 0 00-.324 1.46l1.5.026zm.194-.876c.123-.276.3-.524.521-.73L9.37 9.33a3.75 3.75 0 00-.87 1.218l1.37.61zM.47 1.53l22 22 1.06-1.06-22-22L.47 1.53z"/></symbol><symbol viewBox="0 0 14 24" id="note" xmlns="http://www.w3.org/2000/svg"><path fill-rule="evenodd" clip-rule="evenodd" d="M14 1.745a1 1 0 00-1.243-.97l-3.942.986-.152.045a1.853 1.853 0 00-1.252 1.752v9.583l-.293-.095a5.53 5.53 0 00-1.56-.224A5.565 5.565 0 000 18.381a5.565 5.565 0 005.558 5.558 5.565 5.565 0 005.559-5.558V5.005l2.126-.532a1 1 0 00.757-.97V1.744zM3.706 18.38c0-1.022.83-1.853 1.852-1.853 1.022 0 1.853.831 1.853 1.853a1.855 1.855 0 01-1.853 1.853 1.855 1.855 0 01-1.852-1.853z"/></symbol><symbol viewBox="0 0 20 20" id="note-2" xmlns="http://www.w3.org/2000/svg"><path fill-rule="evenodd" clip-rule="evenodd" d="M19.45.303a1.429 1.429 0 00-1.225-.26L6.796 2.9a1.429 1.429 0 00-1.082 1.386v7.388A4.29 4.29 0 000 15.714 4.29 4.29 0 004.286 20a4.29 4.29 0 004.285-4.286V5.401l8.572-2.143v5.56a4.29 4.29 0 00-5.714 4.04 4.29 4.29 0 004.285 4.285A4.29 4.29 0 0020 12.857V1.43c0-.44-.203-.856-.55-1.126zM4.287 17.143a1.43 1.43 0 01-1.429-1.429 1.43 1.43 0 012.857 0 1.43 1.43 0 01-1.428 1.429zm10-4.286c0 .788.64 1.429 1.428 1.429a1.43 1.43 0 001.429-1.429 1.43 1.43 0 00-1.429-1.428 1.43 1.43 0 00-1.428 1.428z"/></symbol><symbol viewBox="0 0 13 28" id="pause" xmlns="http://www.w3.org/2000/svg"><path d="M2.27 0l-.68.014C.745.014.045.701.045 1.544v24.92c0 .843.76 1.51 1.602 1.51h.005l.622-.005c.844 0 1.486-.675 1.486-1.52V1.53C3.76.687 3.118 0 2.27 0zm8.532 0l-.686.014c-.843 0-1.547.687-1.547 1.53v24.92c0 .843.777 1.51 1.62 1.51h.005l.613-.005c.843 0 1.476-.675 1.476-1.52V1.53c0-.843-.633-1.53-1.481-1.53z"/></symbol><symbol viewBox="0 0 40 40" id="phone" xmlns="http://www.w3.org/2000/svg"><path fill-rule="evenodd" clip-rule="evenodd" d="M33.833 23.968l4.019 3.292c2.616 2.144 2.803 5.821.413 8.211l-.57.57c-4.24 4.24-11.836 5.16-16.966 2.056 0 0-4.344-1.873-10.664-8.193C3.745 23.584 1.87 19.24 1.87 19.24-1.31 14.157-.31 6.512 3.931 2.27l.598-.599c2.388-2.388 6.03-2.183 8.124.466l3.26 4.12c2.08 2.63 1.853 6.713-.522 9.111l-.022.021.022-.021a1.021 1.021 0 00.001 1.444l7.764 7.764a1.027 1.027 0 001.448-.002l.16-.16c2.387-2.388 6.451-2.59 9.07-.446zm.975 9.186l.57-.57c.68-.68.637-1.55-.114-2.165l-4.018-3.292c-.993-.814-2.69-.73-3.596.175l-.16.16a5.11 5.11 0 01-7.221.002L12.505 19.7a5.104 5.104 0 01-.023-7.198c.928-.927 1.032-2.696.228-3.712L9.451 4.67c-.577-.73-1.37-.775-2.035-.111l-.598.598C3.88 8.094 3.19 13.651 5.332 17.073l.165.264.123.286c.136.316.566 1.107 1.368 2.304 1.426 2.126 3.386 4.512 5.964 7.09 2.577 2.577 4.964 4.537 7.09 5.963 1.196.803 1.987 1.232 2.303 1.368l.258.11.24.146c3.523 2.132 9.053 1.462 11.965-1.45z"/></symbol><symbol viewBox="0 0 30 26" id="phone-2" xmlns="http://www.w3.org/2000/svg"><path fill-rule="evenodd" clip-rule="evenodd" d="M21.04.03c4.74 0 8.674 3.705 8.955 8.436a2.7 2.7 0 01-.949 2.247 2.694 2.694 0 01-2.36.615l-.71-.147v9.45a4.668 4.668 0 01-4.664 4.664H8.688a4.668 4.668 0 01-4.663-4.663V11.18l-.71.147a2.701 2.701 0 01-2.362-.615 2.7 2.7 0 01-.948-2.247C.285 3.735 4.22.029 8.96.029h12.08zm.272 23.506a2.907 2.907 0 002.904-2.904v-9.816l-2.27-.469a2.746 2.746 0 01-2.179-2.38 1.875 1.875 0 00-1.864-1.664h-5.806c-.955 0-1.757.716-1.865 1.664a2.746 2.746 0 01-2.18 2.38l-2.268.47v9.815a2.907 2.907 0 002.904 2.904h12.624zm6.584-14.153a.94.94 0 01-.854.222l-4.739-.98a.978.978 0 01-.788-.856 3.633 3.633 0 00-3.612-3.225h-5.806A3.633 3.633 0 008.485 7.77a.977.977 0 01-.788.855l-4.739.981a.94.94 0 01-.854-.222.94.94 0 01-.343-.813 7.219 7.219 0 017.2-6.782h12.078a7.219 7.219 0 017.2 6.782.941.941 0 01-.343.813zM10.123 16.03h.938a.88.88 0 110 1.76h-.938a.88.88 0 110-1.76zm.938 3.519h-.938a.88.88 0 100 1.759h.938a.88.88 0 100-1.76zm-.048-5.278h-.938a.88.88 0 110-1.759h.938a.88.88 0 110 1.76zm4.456-1.759h-.938a.88.88 0 100 1.76h.938a.88.88 0 100-1.76zm-.938 3.518h.938a.88.88 0 110 1.76h-.938a.88.88 0 110-1.76zm.938 3.519h-.938a.88.88 0 100 1.759h.938a.88.88 0 100-1.76zm3.518-7.037h.938a.88.88 0 110 1.76h-.938a.88.88 0 110-1.76zm.938 3.518h-.938a.88.88 0 100 1.76h.938a.88.88 0 100-1.76zm-.938 3.519h.938a.88.88 0 110 1.759h-.938a.88.88 0 110-1.76z"/></symbol><symbol viewBox="0 0 15 20" id="play" xmlns="http://www.w3.org/2000/svg"><path d="M13.69 8.012L2.76.53C2.253.183 1.745 0 1.322 0 .506 0 0 .656 0 1.754v16.174c0 1.097.505 1.751 1.32 1.751.424 0 .924-.183 1.43-.53l10.936-7.483c.704-.482 1.093-1.13 1.093-1.827 0-.696-.385-1.345-1.089-1.827z"/></symbol><symbol viewBox="0 0 14 14" id="play-back" xmlns="http://www.w3.org/2000/svg"><path d="M12.36.007c-.285 0-.592.116-.911.336L3.68 5.695c-.5.344-.772.808-.772 1.305 0 .498.277.962.777 1.306l7.774 5.348c.32.22.64.332.924.332a.843.843 0 00.717-.367c.178-.24.246-.58.246-.992V1.374c0-.844-.362-1.368-.987-1.368zM1.193.001L.82 0C.397 0 .016.343.016.765v12.453c0 .422.369.768.79.768H.82l.367-.002c.422 0 .797-.345.797-.766V.766c0-.422-.368-.765-.79-.765z"/></symbol><symbol viewBox="0 0 14 14" id="play-forward" xmlns="http://www.w3.org/2000/svg"><path d="M1.64.007c.285 0 .592.117.912.337l7.768 5.351c.5.345.772.808.772 1.305 0 .498-.277.962-.777 1.306L2.54 13.654c-.32.22-.64.332-.924.332a.843.843 0 01-.717-.367c-.177-.24-.246-.58-.246-.992V1.375c0-.844.362-1.368.987-1.368zM12.807.001L13.18 0c.422 0 .803.343.803.765v12.453c0 .422-.369.768-.79.768h-.014l-.366-.002c-.422 0-.796-.345-.796-.766V.766c0-.422.367-.765.789-.765z"/></symbol><symbol viewBox="0 0 13 13" id="plus" xmlns="http://www.w3.org/2000/svg"><rect y="5" width="13" height="3" rx="1.5"/><rect x="8" width="13" height="3" rx="1.5" transform="rotate(90 8 0)"/></symbol><symbol viewBox="0 0 31.197 89.999" id="quarter-note" xmlns="http://www.w3.org/2000/svg"><path d="M27.882 0v66.236c-4.146-3.207-11.43-3.148-18.014.567-8.01 4.521-11.938 12.731-8.773 18.339s12.224 6.489 20.234 1.969c6.258-3.532 10.005-9.312 9.844-14.348h.024V0h-3.315z"/></symbol><symbol viewBox="0 0 34 34" id="replay" xmlns="http://www.w3.org/2000/svg"><path d="M13.89 10.007c.285 0 .592.117.912.337l7.767 5.351c.5.345.773.808.773 1.306 0 .497-.277.961-.778 1.306l-7.774 5.347c-.32.22-.64.333-.924.333a.843.843 0 01-.717-.368c-.177-.24-.246-.58-.246-.992V11.375c0-.844.362-1.368.987-1.368z"/><path d="M24.866 2.124a17.456 17.456 0 00-8.573-2.06c-.426 0-.852.069-1.278.127C11.76.49 8.617 1.825 5.96 4c-.84-.725 1.921 3.141 1.806 2.658.07 0 .127-.069.184-.127a13.708 13.708 0 0115.41-1.576c4.948 2.658 7.79 8.101 7.065 13.717-.724 5.616-4.775 10.208-10.207 11.6-5.5 1.393-11.3-.725-14.558-5.316-1.277-1.75-3.866.126-2.6 1.818 4.05 5.673 11.174 8.332 17.94 6.582 6.71-1.691 11.785-7.365 12.625-14.315.851-6.882-2.659-13.649-8.758-16.917z"/><path d="M.428 10.319l4.201-8.835 5.387 6.895-9.588 1.94z"/></symbol><symbol viewBox="0 0 25 14" id="rewind" xmlns="http://www.w3.org/2000/svg"><path d="M1.256 5.693L9.023.376C9.382.13 9.743 0 10.043 0c.581 0 .94.466.94 1.246v11.492c0 .78-.358 1.245-.938 1.245-.3 0-.656-.13-1.016-.377L1.26 8.29c-.5-.342-.777-.803-.777-1.298s.274-.956.774-1.298zm14 0L23.023.376c.359-.246.72-.376 1.02-.376.581 0 .94.466.94 1.246v11.492c0 .78-.358 1.245-.938 1.245-.3 0-.656-.13-1.016-.377L15.26 8.29c-.5-.342-.777-.803-.777-1.298s.274-.956.774-1.298z"/></symbol><symbol viewBox="0 0 6 12" id="right" xmlns="http://www.w3.org/2000/svg"><path d="M5.873 5.67L.735.137a.409.409 0 00-.61 0 .492.492 0 00.002.658L4.959 6 .127 11.206a.492.492 0 00-.001.657A.414.414 0 00.43 12c.11 0 .22-.045.304-.136L5.873 6.33A.484.484 0 006 6a.485.485 0 00-.127-.33z"/></symbol><symbol viewBox="0 0 12 20" id="right-2" xmlns="http://www.w3.org/2000/svg"><path d="M2 20c.379 0 .742-.15 1.01-.418l8.572-8.572a1.429 1.429 0 000-2.02L3.01.418a1.429 1.429 0 00-2.02 2.02L8.55 10 .99 17.561A1.429 1.429 0 002 20z"/></symbol><symbol viewBox="0 0 50 50" id="rocket" xmlns="http://www.w3.org/2000/svg"><path fill-rule="evenodd" clip-rule="evenodd" d="M49.941 3.733A3.887 3.887 0 0046.267.059C42.26-.161 34.417.053 26.92 3.93c-3.823 1.978-7.866 5.33-11.092 9.198a10.48 10.48 0 00-.07.084l-.048.06-7.323.565a3.865 3.865 0 00-2.945 1.733L.446 23.127a2.666 2.666 0 00-.216 2.56 2.666 2.666 0 002.04 1.563l6.168.955-.004.021-.06.339a3.884 3.884 0 001.09 3.378l8.592 8.594a3.894 3.894 0 003.38 1.089l.338-.06.021-.004.955 6.169c.14.906.725 1.668 1.563 2.039a2.671 2.671 0 002.56-.215l7.556-4.996a3.865 3.865 0 001.733-2.945l.565-7.322.061-.05.083-.068c3.868-3.227 7.22-7.27 9.198-11.093C49.947 15.582 50.16 7.74 49.94 3.733zM32.813 42.115l-7.228 4.779-.93-6.012c3.054-.899 6.076-2.337 8.954-4.264l-.368 4.77a.954.954 0 01-.428.727zM11.535 29.872l8.593 8.593c.22.22.527.32.824.27a25.295 25.295 0 004.35-1.146L12.407 24.696a25.203 25.203 0 00-1.144 4.352.95.95 0 00.271.824zM8.612 16.759l4.77-.368c-1.927 2.878-3.366 5.9-4.264 8.955l-6.012-.931 4.779-7.228a.954.954 0 01.727-.428zm19.601 19.6c2.118-1.034 4.415-2.461 6.782-4.435 3.579-2.986 6.667-6.7 8.472-10.189 3.56-6.882 3.752-14.133 3.55-17.843a.96.96 0 00-.91-.908c-3.709-.202-10.96-.01-17.842 3.55-3.49 1.804-7.203 4.892-10.189 8.472-1.43 1.714-3.082 4.016-4.435 6.78l14.572 14.572zm11.216-15.43a7.303 7.303 0 01-5.179 2.142 7.3 7.3 0 01-5.179-2.142 7.276 7.276 0 01-2.145-5.179 7.28 7.28 0 012.145-5.179c2.856-2.855 7.502-2.855 10.358 0a7.276 7.276 0 012.145 5.18 7.276 7.276 0 01-2.145 5.178zm-5.18-9.571a4.38 4.38 0 00-3.106 1.285 4.366 4.366 0 00-1.288 3.107c0 1.174.458 2.277 1.288 3.107a4.4 4.4 0 006.214 0 4.366 4.366 0 001.287-3.107 4.366 4.366 0 00-1.287-3.107 4.38 4.38 0 00-3.107-1.285zM2.53 40.776a1.46 1.46 0 01-1.036.429 1.465 1.465 0 01-1.036-2.5l4.783-4.783a1.465 1.465 0 112.072 2.071L2.53 40.776zm9.165-2.471a1.465 1.465 0 00-2.071 0L.429 47.499a1.465 1.465 0 102.072 2.072l9.194-9.195c.572-.572.572-1.5 0-2.071zm-2.47 9.165l4.782-4.782a1.465 1.465 0 112.071 2.071l-4.782 4.783a1.46 1.46 0 01-2.071 0 1.465 1.465 0 010-2.072z"/></symbol><symbol viewBox="0 0 79.1 79.06" id="send" xmlns="http://www.w3.org/2000/svg"><path d="M31.04 48.06l16.4 31L79.1 0 0 31.66zm15.9 21.49l-12-22.63 35-35zM32.15 44.12L9.55 32.17 67.2 9.08z"/><path d="M3.627 72.649L25.4 50.877l2.828 2.828L6.456 75.477zm16.371 2.189L32.004 63.1l2.797 2.86-12.007 11.737zM1.617 56.452l12.006-11.736 2.796 2.86L4.413 59.313z"/></symbol><symbol viewBox="0 0 16 14" id="telegram" xmlns="http://www.w3.org/2000/svg"><path d="M6.278 8.819l-.265 3.722c.38 0 .543-.162.74-.357l1.775-1.697 3.679 2.694c.675.376 1.15.178 1.332-.62l2.415-11.315v-.001c.214-.997-.36-1.387-1.018-1.143L.743 5.536c-.969.376-.954.916-.165 1.16l3.629 1.13 8.428-5.274c.397-.263.758-.118.461.145L6.278 8.819z"/></symbol><symbol viewBox="0 0 22 18" id="tick" xmlns="http://www.w3.org/2000/svg"><path d="M19.758 0L7.07 12.703 2.173 7.805 0 9.963l7.07 7.055L21.917 2.173 19.758 0z"/></symbol><symbol viewBox="0 0 20.154 22.756" id="user" xmlns="http://www.w3.org/2000/svg"><path d="M20.154 22.756H0l.103-1.345a8.797 8.797 0 012.509-5.491 8.555 8.555 0 016.132-2.587h2.666a8.555 8.555 0 016.132 2.587 8.797 8.797 0 012.51 5.491zm-17.308-2.5h14.462a6.259 6.259 0 00-1.547-2.582 6.075 6.075 0 00-4.35-1.841H8.743a6.075 6.075 0 00-4.35 1.84 6.252 6.252 0 00-1.548 2.583zM10.076 12a6.007 6.007 0 01-6-6 6.007 6.007 0 016-6 6.007 6.007 0 016 6 6.007 6.007 0 01-6 6zm0-9.5a3.504 3.504 0 00-3.5 3.5 3.504 3.504 0 003.5 3.5 3.504 3.504 0 003.5-3.5 3.504 3.504 0 00-3.5-3.5z"/></symbol><symbol viewBox="0 0 26 28" id="user-2" xmlns="http://www.w3.org/2000/svg"><path fill-rule="evenodd" clip-rule="evenodd" d="M13 15.41c3.85 0 6.95-4.628 6.95-8.46A6.958 6.958 0 0013 0a6.958 6.958 0 00-6.95 6.95c0 3.832 3.1 8.46 6.95 8.46zm0-13.581a5.127 5.127 0 015.122 5.121c0 2.923-2.412 6.63-5.121 6.63-2.71 0-5.122-3.707-5.122-6.63a5.127 5.127 0 015.122-5.121zm12.618 22.45l.356 2.137a.914.914 0 01-.902 1.064H.929a.914.914 0 01-.902-1.064l.356-2.137a9.163 9.163 0 019.067-7.681h7.101a9.163 9.163 0 019.067 7.68zM13 19.33l1.062-.903h-2.125L13 19.33zm8.458 6.322v-2.104a.915.915 0 00-1.828 0v2.104H6.37v-2.104a.915.915 0 00-1.83 0v2.104H2.01l.178-1.073a7.338 7.338 0 016.935-6.145l3.286 2.793a.913.913 0 001.185 0l3.285-2.793a7.338 7.338 0 016.936 6.145l.178 1.072H21.46z"/></symbol><symbol viewBox="0 0 16 18" id="viber" xmlns="http://www.w3.org/2000/svg"><path d="M7.878 3.132c-.28 0-.28.436 0 .44 2.17.016 3.956 1.528 3.975 4.302 0 .293.429.289.425-.004-.023-2.988-1.974-4.721-4.4-4.738z"/><path d="M11.156 7.424c-.003.293-.431.28-.425-.01.034-1.443-.838-2.573-2.494-2.699-.28-.02-.25-.46.03-.439 1.909.143 2.925 1.5 2.89 3.148zm-.882 1.865c-.359-.208-.724-.079-.875.125l-.316.41c-.16.207-.46.18-.46.18-2.19-.58-2.775-2.87-2.775-2.87s-.027-.31.174-.477l.395-.326c.197-.157.322-.535.121-.906a7.952 7.952 0 00-.914-1.35 4.163 4.163 0 01-.168-.213c-.193-.242-.484-.296-.786-.133h-.006c-.629.368-1.316 1.055-1.096 1.763.065.13.14.309.23.525.43 1.03 1.216 2.914 3.034 4.4 1.034.85 2.67 1.722 3.363 1.923l.007.01c.684.228 1.35-.486 1.704-1.133v-.005c.158-.313.106-.61-.125-.804-.408-.398-1.024-.837-1.507-1.12z"/><path d="M9.638 7.051c-.036-.749-.374-1.113-1.072-1.154-.283-.017-.257-.456.023-.44.918.051 1.428.596 1.474 1.574.013.292-.412.313-.425.02z"/><path fill-rule="evenodd" clip-rule="evenodd" d="M14.18 1.711c1.388 1.25 2.158 4.013 1.638 8.39-.455 3.862-3.059 4.546-3.932 4.776a2.86 2.86 0 00-.204.057c-.236.078-2.313.616-5.018.38l-.269.323c-1.376 1.646-1.614 1.93-2.103 1.772-.455-.143-.428-.855-.428-.855l.004-1.757h-.004c-3.951-1.15-3.896-5.39-3.85-7.654.047-2.263.47-4.091 1.675-5.337C4.37-.74 11.939-.424 14.18 1.71v.001zM4.687 16.767c.532-.554 2.244-2.688 2.244-2.688 2.293.153 4.12-.317 4.317-.382.046-.015.112-.031.194-.051.744-.18 2.813-.68 3.195-3.867 0-.015.005-.072.014-.162.091-.917.532-5.355-1.35-7.023-1.69-1.589-8.326-2.082-10.678.124-1.02 1.042-1.365 2.59-1.402 4.479l-.004.2c-.041 1.934-.114 5.333 3.12 6.26 0 0-.013 2.682-.013 2.916-.002.358.189.375.363.194z"/></symbol><symbol viewBox="0 0 18 11" id="vk" xmlns="http://www.w3.org/2000/svg"><path d="M15.46 6.467c.595.582 1.224 1.13 1.758 1.77.236.284.46.578.63.908.243.47.024.986-.397 1.014h-2.617c-.675.055-1.213-.217-1.666-.678-.363-.369-.698-.762-1.046-1.143a2.48 2.48 0 00-.471-.419c-.358-.232-.668-.16-.872.212-.208.379-.255.798-.275 1.22-.028.617-.214.779-.834.807-1.322.063-2.578-.138-3.744-.805-1.028-.588-1.825-1.419-2.52-2.359-1.35-1.83-2.385-3.842-3.315-5.91C-.12.618.034.368.549.359A71.023 71.023 0 013.11.358c.347.005.577.204.711.531a15.881 15.881 0 001.736 3.218c.19.267.382.533.656.721.304.208.535.139.678-.2.09-.213.13-.444.15-.674.068-.79.077-1.578-.042-2.365-.073-.491-.35-.81-.84-.902-.25-.048-.212-.14-.091-.284.21-.246.408-.4.802-.4h2.958c.465.093.569.302.632.77l.003 3.285c-.005.182.09.72.417.84.262.085.434-.124.59-.29.709-.751 1.214-1.64 1.666-2.559.2-.404.372-.824.54-1.244.123-.311.317-.464.668-.458L17.19.35c.084 0 .17.001.252.015.48.082.61.288.463.757-.234.734-.688 1.347-1.132 1.962-.475.657-.982 1.291-1.453 1.952-.433.603-.398.907.14 1.431z"/></symbol><symbol viewBox="0 0 16 16" id="whatsapp" xmlns="http://www.w3.org/2000/svg"><path fill-rule="evenodd" clip-rule="evenodd" d="M7.998 0h.004C12.413 0 16 3.589 16 8s-3.587 8-7.998 8a7.93 7.93 0 01-4.401-1.322l-3.075.983.997-2.972A7.94 7.94 0 010 8c0-4.412 3.587-8 7.998-8zm3.089 12.426c.611-.132 1.377-.584 1.57-1.129.193-.546.193-1.011.137-1.11-.045-.079-.152-.13-.312-.207l-.135-.066c-.235-.117-1.378-.682-1.594-.757-.212-.08-.414-.052-.574.174l-.091.128c-.193.271-.38.533-.534.7-.141.15-.371.169-.564.089l-.072-.03c-.306-.123-.984-.397-1.804-1.127-.692-.616-1.162-1.383-1.298-1.613-.134-.23-.018-.366.088-.491l.006-.007c.069-.085.135-.156.202-.227.048-.05.097-.102.146-.159l.021-.025a1.29 1.29 0 00.238-.342c.08-.155.023-.315-.034-.433-.04-.083-.281-.67-.49-1.175l-.229-.556c-.155-.371-.273-.385-.508-.395l-.022-.001a4.731 4.731 0 00-.246-.008c-.306 0-.625.09-.818.287l-.021.021c-.247.252-.797.81-.797 1.926 0 1.117.793 2.198.94 2.398l.01.015.05.07c.3.434 1.758 2.547 3.933 3.448 1.838.762 2.384.691 2.802.602z"/></symbol></svg>