<svg id="Layer_1" data-name="Layer 1" xmlns="http://www.w3.org/2000/svg" width="24.85158" height="23.79201" viewBox="0 0 24.85158 23.79201"><title>star-empty</title><path d="M4.3873,5.0974a1.31792,1.31792,0,0,0-1.1349-.90618l-7.1668-.65066L-6.7468-3.09063a1.31991,1.31991,0,0,0-1.2146-.80162,1.3169,1.3169,0,0,0-1.2134.80162l-2.83239,6.63119-7.168.65066A1.32177,1.32177,0,0,0-20.31,5.0974,1.32136,1.32136,0,0,0-19.92511,6.5l5.41758,4.7505-1.59737,7.0354a1.31936,1.31936,0,0,0,.51314,1.3625,1.31363,1.31363,0,0,0,.77377.2513,1.31621,1.31621,0,0,0,.67661-0.1871l6.18-3.6952,6.1789,3.6952a1.31865,1.31865,0,0,0,1.4515-.0642,1.31933,1.31933,0,0,0,.5131-1.3625l-1.5973-7.0354L4.0024,6.5A1.32128,1.32128,0,0,0,4.3873,5.0974Z" transform="translate(20.37504 3.89225)" fill="#edeff1"/><path d="M-1.10449,19.89974a1.32015,1.32015,0,0,1-.6748-0.18457L-7.96143,16.0179l-6.18018,3.69531a1.34179,1.34179,0,0,1-1.36084-.00488l-0.08984-.05957a1.321,1.321,0,0,1-.51221-1.36426l1.59717-7.03418-5.41748-4.75a1.32238,1.32238,0,0,1-.38672-1.39893,1.32818,1.32818,0,0,1,1.13135-.91016l7.17334-.65137,2.832-6.63037a1.31658,1.31658,0,0,1,1.21338-.80176A1.32219,1.32219,0,0,1-6.748-3.0944l2.834,6.63525V3.54036l6.65918,0.605s1.48871-.04436,1.64355.95508a0.97683,0.97683,0,0,1,.02637.7168,1.37676,1.37676,0,0,1-.41016.68018C3.658,6.84028,4.001,6.5013,4.001,6.5013L4,6.50228l-5.415,4.748,1.59766,7.03418a1.32167,1.32167,0,0,1-.51367,1.36426A1.31062,1.31062,0,0,1-1.10449,19.89974Zm0.34473-1.90625,0.00293,0.002Zm-7.20166-4.30762L-2.11914,17.18l-1.51074-6.64844,5.123-4.4917-6.77832-.61572L-7.96094-.841-10.6377,5.42415l-6.77881.61572,5.123,4.4917L-13.80273,17.18ZM-7.334-2.30827l-0.002.00342Z" transform="translate(20.37504 3.89225)" fill="#999"/></svg>