<svg id="Layer_1" data-name="Layer 1" xmlns="http://www.w3.org/2000/svg" width="24.85158" height="23.79201" viewBox="0 0 24.85158 23.79201"><title>star</title><path d="M24.7623,9.01407a1.31792,1.31792,0,0,0-1.1349-.90618l-7.1668-.65066L13.6282,0.826a1.32007,1.32007,0,0,0-2.428,0L8.36781,7.45723l-7.168.65066A1.32119,1.32119,0,0,0,.44989,10.4167l5.41758,4.7505L4.2701,22.2026a1.31946,1.31946,0,0,0,1.96352,1.4267l6.18-3.6952,6.1789,3.6952a1.32049,1.32049,0,0,0,1.9646-1.4267l-1.5973-7.0354,5.4176-4.7505A1.32128,1.32128,0,0,0,24.7623,9.01407Z" transform="translate(0.00004 -0.02441)" fill="#ffc745"/><path d="M19.27051,23.81641a1.32015,1.32015,0,0,1-.6748-0.18457l-6.18213-3.69727L6.2334,23.62988A1.34179,1.34179,0,0,1,4.87256,23.625l-0.08984-.05957a1.321,1.321,0,0,1-.51221-1.36426L5.86768,15.167,0.4502,10.417a1.32143,1.32143,0,0,1,.74463-2.30908l7.17334-.65137,2.832-6.63037A1.32031,1.32031,0,0,1,13.627.82227l2.834,6.63525V7.457l6.65918,0.605s1.48871-.04436,1.64355.95508a0.97683,0.97683,0,0,1,.02637.7168,1.37676,1.37676,0,0,1-.41016.68018C24.033,10.75694,24.376,10.418,24.376,10.418l-0.001.001L18.96,15.167l1.59766,7.03418A1.32155,1.32155,0,0,1,19.27051,23.81641Zm0.34473-1.90625,0.00293,0.002Zm-7.20166-4.30762,5.84229,3.49414-1.51074-6.64844,5.123-4.4917-6.77832-.61572L12.41406,3.07568,9.7373,9.34082,2.9585,9.95654l5.123,4.4917L6.57227,21.09668ZM13.041,1.6084l-0.002.00342Z" transform="translate(0.00004 -0.02441)"/></svg>