<svg width="14" height="37" viewBox="0 0 14 37" fill="none" xmlns="http://www.w3.org/2000/svg">
<path fill-rule="evenodd" clip-rule="evenodd" d="M8.09429 17.08C9.77429 16.94 11.1743 17.64 12.1543 18.76C13.1343 20.02 13.6943 21.84 13.4143 23.38C13.2743 24.78 11.8743 26.88 10.3343 27.58C10.3666 27.806 10.4435 28.1361 10.5359 28.5327C10.8443 29.8562 11.3252 31.9196 10.8943 33.32C10.3343 35.56 8.79429 36.12 7.25429 36.12C5.99429 36.12 4.87429 35.56 4.17429 34.86C3.61429 34.3 3.33429 33.46 3.33429 32.62C3.33429 32.62 3.47429 30.24 5.85429 30.1C7.25429 30.1 8.37429 31.22 8.37429 32.62C8.37429 33.6 7.67429 34.44 6.83429 34.86C7.11429 35 7.25429 35 7.53429 35C8.51429 35 9.07429 34.44 9.35429 33.88C10.1505 32.4202 9.81463 30.8347 9.30051 28.4078C9.27226 28.2745 9.24346 28.1386 9.21429 28C6.13429 28.28 3.61429 27.3 1.93429 25.2C0.394293 23.38 -0.165707 21 0.534292 18.48C1.08955 16.259 2.60828 14.5885 3.9987 13.0592L4.03429 13.02C4.73429 12.18 5.43429 11.48 5.43429 11.48C4.73429 8.4 4.73429 3.92 6.13429 1.54C6.55429 0.7 7.25429 0 8.09429 0C9.21429 0 10.3343 0.84 10.7543 1.82C12.0143 4.48 11.8743 7.14 9.77429 10.5C9.35429 11.06 7.39429 14 7.39429 14C7.39429 14 7.95429 16.8 8.09429 17.08ZM8.37429 2.8C8.09429 2.8 7.81429 2.94 7.67429 3.22C6.55429 4.62 6.27429 8.26 6.69429 10.22C7.67429 9.38 9.49429 6.86 9.63429 4.76C9.63429 3.92 9.49429 3.36 8.93429 3.08C8.79429 2.94 8.51429 2.8 8.37429 2.8ZM3.61429 25.2C2.63429 24.22 2.21429 22.82 2.35429 21.42C2.63429 19.18 4.17429 17.36 5.43429 15.96C5.71429 15.68 5.99429 15.4 6.13429 15.12C6.21724 15.5347 6.39847 16.0969 6.56152 16.6026C6.67368 16.9506 6.77724 17.2718 6.83429 17.5C5.15429 18.2 4.17429 20.44 4.31429 22.26C4.31429 23.1 4.59429 23.66 5.01429 24.22C5.15429 24.36 5.29429 24.5 5.43429 24.5C5.57429 24.5 5.85429 24.36 5.85429 24.22C5.99429 24.08 5.99429 23.8 5.85429 23.66C5.71429 23.52 5.71429 23.38 5.71429 23.1C5.57429 21.84 6.41429 20.86 7.39429 20.44C7.4545 20.8012 7.67003 21.8097 7.90731 22.9198L7.90731 22.9198C8.22181 24.3913 8.5745 26.0414 8.65429 26.6C6.83429 27.16 4.87429 26.6 3.61429 25.2ZM9.50568 24.15C9.63157 24.8292 9.74834 25.4592 9.91429 26.04C11.1743 25.2 11.5943 23.66 11.1743 22.12C11.0343 21.56 10.4743 20.02 8.65429 20.02C8.89982 20.7566 9.0377 21.6008 9.16233 22.3639C9.17982 22.4711 9.19706 22.5766 9.21429 22.68C9.32834 23.1932 9.41916 23.6832 9.50568 24.15Z" fill="#FFC745"/>
</svg>
